<?xml version="1.0" standalone="no"?>
<!DOCTYPE svg PUBLIC "-//W3C//DTD SVG 20010904//EN"
 "http://www.w3.org/TR/2001/REC-SVG-20010904/DTD/svg10.dtd">
<svg version="1.0" xmlns="http://www.w3.org/2000/svg"
 width="3840.000000pt" height="2160.000000pt" viewBox="0 0 3840.000000 2160.000000"
 preserveAspectRatio="xMidYMid meet">

<g transform="translate(0.000000,2160.000000) scale(0.100000,-0.100000)"
fill="#000000" stroke="none">
<path d="M12102 21079 c-345 -50 -759 -253 -1142 -560 -300 -240 -864 -765
-1719 -1599 -466 -455 -538 -536 -619 -696 -100 -198 -103 -370 -10 -634 126
-356 421 -701 793 -925 304 -184 624 -233 900 -140 141 48 324 156 458 269 57
49 67 54 63 35 -8 -38 -26 -286 -36 -514 -13 -276 -13 -1079 0 -1475 11 -335
52 -1156 72 -1430 7 -98 12 -391 13 -720 0 -533 1 -559 22 -650 31 -137 60
-219 93 -265 16 -22 47 -74 69 -115 89 -168 228 -284 444 -370 186 -73 394
-109 682 -117 281 -8 465 23 652 112 115 54 167 90 259 178 244 231 342 478
373 942 33 470 35 1043 11 2150 -6 237 -17 819 -25 1295 -14 837 -29 1577 -40
2115 -3 143 -10 568 -16 945 -13 933 -42 1298 -126 1564 -45 143 -108 242
-183 286 -23 14 -80 59 -126 101 -128 117 -270 180 -477 214 -100 16 -285 18
-385 4z m449 -344 c187 -39 274 -81 361 -174 75 -79 97 -131 123 -296 50 -314
71 -702 80 -1475 3 -289 12 -784 20 -1100 8 -316 17 -759 20 -985 23 -1686 32
-1996 72 -2715 21 -374 24 -1299 4 -1540 -36 -452 -108 -665 -277 -819 -141
-129 -338 -174 -668 -151 -445 30 -654 71 -838 167 -128 67 -198 165 -238 333
-32 139 -40 244 -50 690 -15 661 -29 1095 -50 1605 -11 259 -26 673 -35 920
-22 655 -34 864 -76 1335 -22 248 -30 309 -60 419 -11 40 -17 82 -14 92 8 23
-11 59 -30 59 -40 0 -181 -56 -256 -101 -239 -146 -424 -211 -599 -212 -81 0
-109 4 -190 32 -297 101 -617 359 -808 653 -95 147 -148 347 -124 470 17 86
71 193 144 286 120 153 1244 1261 1688 1663 622 563 1042 806 1490 863 61 7
234 -3 311 -19z"/>
</g>
</svg>
