<?xml version="1.0" standalone="no"?>
<!DOCTYPE svg PUBLIC "-//W3C//DTD SVG 20010904//EN"
 "http://www.w3.org/TR/2001/REC-SVG-20010904/DTD/svg10.dtd">
<svg version="1.0" xmlns="http://www.w3.org/2000/svg"
 width="3840.000000pt" height="2160.000000pt" viewBox="0 0 3840.000000 2160.000000"
 preserveAspectRatio="xMidYMid meet">

<g transform="translate(0.000000,2160.000000) scale(0.100000,-0.100000)"
fill="#000000" stroke="none">
<path d="M17255 21330 c-353 -30 -701 -118 -998 -250 -242 -109 -533 -287
-737 -451 -347 -279 -723 -722 -943 -1110 -161 -284 -239 -509 -321 -919 -101
-503 -127 -905 -80 -1228 58 -398 246 -657 598 -823 236 -110 456 -149 851
-149 460 0 680 59 854 231 69 68 94 115 132 244 17 61 48 142 70 180 56 103
91 190 199 495 54 151 119 327 144 390 96 232 221 447 320 546 174 174 459
256 722 209 203 -36 324 -90 436 -194 127 -118 253 -316 314 -492 91 -270 27
-571 -182 -852 -284 -381 -750 -755 -1735 -1392 -469 -304 -963 -634 -1179
-788 -542 -385 -949 -752 -1172 -1057 -190 -260 -336 -583 -399 -880 -30 -142
-33 -422 -6 -550 40 -187 117 -373 214 -519 104 -154 295 -327 493 -445 111
-66 166 -83 305 -94 88 -6 152 -19 240 -44 139 -42 316 -73 500 -88 210 -18
971 -23 1505 -11 3074 71 3527 97 3893 220 222 75 363 177 465 334 108 167
152 338 173 669 26 406 -17 696 -133 893 -79 134 -241 272 -412 350 -362 165
-992 248 -1896 249 -206 0 -438 -3 -515 -7 l-140 -8 140 74 c162 85 270 151
410 250 463 327 890 732 1401 1329 459 535 644 918 719 1484 19 142 21 538 5
719 -14 153 -45 356 -69 459 -82 342 -319 917 -525 1275 -180 311 -325 501
-565 741 -289 288 -536 469 -856 626 -344 168 -582 241 -1052 320 -364 61
-424 66 -768 69 -176 2 -365 -1 -420 -5z m812 -305 c335 -31 731 -92 911 -141
317 -85 609 -239 897 -471 138 -110 351 -317 465 -449 252 -292 480 -696 683
-1209 189 -475 240 -726 239 -1180 0 -252 -8 -336 -52 -558 -72 -356 -224
-693 -448 -994 -246 -329 -720 -853 -993 -1100 -256 -230 -522 -440 -727 -574
-59 -39 -260 -146 -447 -239 -187 -93 -353 -180 -370 -194 -25 -20 -30 -31
-30 -69 0 -54 20 -80 82 -103 41 -16 64 -16 261 -6 267 15 1089 16 1347 2 694
-38 1135 -114 1392 -241 139 -69 237 -192 298 -374 69 -204 96 -733 50 -956
-37 -176 -115 -308 -223 -378 -59 -37 -196 -84 -327 -110 -300 -60 -987 -91
-2465 -111 -1551 -20 -2646 -17 -3085 10 -239 14 -199 1 -434 149 -270 171
-370 269 -463 456 -140 278 -155 612 -42 937 107 306 268 559 524 822 368 377
743 663 1800 1369 737 492 951 645 1265 902 580 475 884 879 960 1276 38 200
29 389 -26 554 -40 118 -143 317 -227 435 -84 118 -233 269 -337 340 -244 167
-583 229 -885 160 -397 -90 -626 -270 -814 -638 -132 -260 -202 -484 -311
-992 -39 -185 -123 -479 -150 -525 -26 -45 -88 -93 -153 -118 -153 -60 -718
-85 -1045 -46 -105 12 -276 65 -357 111 -87 49 -156 107 -216 182 -230 288
-262 720 -109 1466 97 468 216 759 470 1145 328 498 729 875 1208 1134 335
181 709 292 1112 330 155 14 597 12 772 -4z"/>
</g>
</svg>
