<?xml version="1.0" standalone="no"?>
<!DOCTYPE svg PUBLIC "-//W3C//DTD SVG 20010904//EN"
 "http://www.w3.org/TR/2001/REC-SVG-20010904/DTD/svg10.dtd">
<svg version="1.0" xmlns="http://www.w3.org/2000/svg"
 width="3840.000000pt" height="2160.000000pt" viewBox="0 0 3840.000000 2160.000000"
 preserveAspectRatio="xMidYMid meet">

<g transform="translate(0.000000,2160.000000) scale(0.100000,-0.100000)"
fill="#000000" stroke="none">
<path d="M25755 21309 c-159 -15 -386 -49 -530 -80 -77 -16 -221 -46 -320 -65
-233 -46 -467 -105 -630 -161 -659 -226 -1183 -622 -1501 -1135 -83 -134 -196
-374 -242 -513 -68 -205 -77 -263 -76 -495 0 -189 2 -213 26 -302 49 -179 133
-313 288 -462 211 -200 503 -343 821 -402 132 -25 394 -25 509 0 245 51 403
167 695 506 78 91 179 200 224 243 96 89 245 192 352 241 308 142 697 136
1009 -16 171 -83 277 -208 311 -368 41 -191 -125 -369 -384 -414 -48 -9 -211
-22 -364 -31 -414 -23 -555 -41 -718 -92 -384 -121 -558 -364 -630 -878 -23
-162 -23 -424 0 -580 22 -152 75 -362 114 -457 58 -137 178 -268 329 -357 126
-76 212 -95 682 -156 337 -44 380 -51 501 -81 266 -66 464 -165 577 -289 58
-64 134 -207 157 -300 20 -77 19 -222 -1 -304 -21 -88 -83 -213 -139 -283
-220 -273 -749 -395 -1270 -292 -274 55 -551 208 -764 423 -51 52 -132 153
-201 250 -365 519 -489 654 -678 738 -146 64 -408 88 -651 59 -439 -53 -745
-164 -969 -354 -111 -95 -201 -249 -249 -430 -35 -131 -37 -335 -5 -488 48
-224 100 -368 228 -629 225 -462 442 -765 798 -1120 205 -205 330 -308 531
-441 409 -269 814 -433 1300 -528 514 -100 1006 -119 1545 -61 722 79 1298
330 1857 809 664 568 1100 1232 1237 1882 56 268 72 570 41 793 -31 222 -128
518 -255 776 -246 502 -586 906 -950 1131 -33 20 -60 40 -59 43 0 3 50 42 111
86 297 215 483 412 644 682 176 296 228 516 228 963 0 273 -9 362 -60 588
-126 563 -307 888 -734 1312 -252 251 -484 420 -840 612 -437 235 -918 385
-1370 427 -132 12 -393 12 -525 0z"/>
</g>
</svg>
