<?xml version="1.0" standalone="no"?>
<!DOCTYPE svg PUBLIC "-//W3C//DTD SVG 20010904//EN"
 "http://www.w3.org/TR/2001/REC-SVG-20010904/DTD/svg10.dtd">
<svg version="1.0" xmlns="http://www.w3.org/2000/svg"
 width="3840.000000pt" height="2160.000000pt" viewBox="0 0 3840.000000 2160.000000"
 preserveAspectRatio="xMidYMid meet">

<g transform="translate(0.000000,2160.000000) scale(0.100000,-0.100000)"
fill="#000000" stroke="none">
<path d="M35840 21110 c-633 -15 -972 -118 -1177 -357 -246 -286 -378 -664
-413 -1183 -26 -387 -32 -606 -37 -1350 -7 -995 1 -1148 79 -1614 31 -185 31
-189 12 -203 -24 -18 -142 -14 -399 16 -99 11 -259 27 -355 36 -96 9 -238 22
-315 30 -77 8 -267 18 -422 21 l-283 7 0 28 c0 15 43 155 95 311 207 620 384
1345 560 2293 133 718 149 1030 62 1227 -120 271 -384 477 -791 617 -190 66
-295 84 -481 85 -452 1 -765 -166 -1015 -541 -162 -243 -266 -501 -425 -1053
-148 -514 -323 -1322 -465 -2153 -86 -500 -139 -788 -224 -1222 -72 -366 -121
-632 -148 -800 -7 -47 -12 -166 -12 -290 0 -196 2 -217 27 -309 66 -245 205
-430 407 -539 132 -72 351 -131 580 -157 140 -15 1511 -32 2220 -27 639 5 798
13 1124 57 198 27 221 26 241 -4 27 -40 34 -224 24 -606 -16 -622 12 -1195 70
-1422 75 -291 244 -518 466 -624 194 -93 558 -135 905 -104 475 43 741 172
920 446 138 211 213 443 257 799 24 189 24 917 1 1405 -10 190 -20 552 -22
805 -3 253 -11 741 -17 1085 -13 687 -6 1156 31 1868 42 816 57 1877 31 2167
-23 255 -106 594 -197 807 -76 177 -220 345 -349 408 -59 29 -180 52 -248 48
-18 -1 -160 -5 -317 -8z m432 -295 c66 -51 129 -127 164 -198 84 -164 172
-519 206 -827 17 -154 16 -1345 -1 -1890 -7 -223 -13 -605 -13 -850 0 -411 5
-624 33 -1310 6 -140 10 -588 9 -995 0 -407 4 -962 10 -1232 16 -767 -8 -1114
-97 -1398 -64 -204 -175 -344 -335 -423 -291 -145 -973 -150 -1241 -10 -87 45
-212 173 -259 263 -105 203 -127 427 -128 1295 0 682 -15 868 -77 982 -74 136
-203 154 -833 119 -529 -30 -1344 -44 -2175 -37 -766 6 -844 10 -1021 62 -356
102 -507 317 -505 719 1 225 41 488 191 1235 49 245 128 659 175 920 176 976
299 1595 396 1989 61 249 164 610 213 745 103 283 228 474 400 612 172 138
348 197 581 197 134 0 202 -13 377 -69 304 -98 526 -226 629 -364 94 -125 119
-240 99 -464 -27 -308 -79 -543 -454 -2061 -100 -408 -158 -671 -196 -900 -21
-128 -43 -217 -90 -360 -69 -212 -70 -227 -21 -299 58 -84 178 -123 461 -147
160 -14 1398 -14 1495 0 165 24 241 67 289 165 39 78 44 167 22 432 -31 368
-34 544 -26 1379 15 1477 18 1567 61 1822 60 365 189 601 407 744 201 132 519
191 1062 197 l135 2 57 -45z"/>
</g>
</svg>
