<?xml version="1.0" standalone="no"?>
<!DOCTYPE svg PUBLIC "-//W3C//DTD SVG 20010904//EN"
 "http://www.w3.org/TR/2001/REC-SVG-20010904/DTD/svg10.dtd">
<svg version="1.0" xmlns="http://www.w3.org/2000/svg"
 width="3840.000000pt" height="2160.000000pt" viewBox="0 0 3840.000000 2160.000000"
 preserveAspectRatio="xMidYMid meet">

<g transform="translate(0.000000,2160.000000) scale(0.100000,-0.100000)"
fill="#000000" stroke="none">
<path d="M2799 10210 c-369 -33 -630 -154 -807 -375 -261 -324 -357 -704 -677
-2690 -31 -192 -75 -442 -96 -555 -202 -1048 -222 -1176 -223 -1405 -1 -198 8
-253 65 -393 106 -265 383 -520 762 -702 270 -130 447 -179 672 -187 253 -9
383 23 730 177 452 200 603 243 860 242 159 0 248 -18 356 -73 170 -85 265
-174 332 -310 88 -177 121 -394 81 -530 -77 -263 -385 -462 -771 -499 -277
-26 -490 43 -908 295 -436 263 -676 355 -890 342 -261 -16 -510 -171 -896
-556 -102 -102 -211 -218 -241 -256 -86 -108 -163 -236 -199 -333 -42 -114
-46 -233 -10 -327 13 -33 40 -111 61 -172 70 -207 144 -320 328 -501 190 -187
469 -401 677 -520 39 -22 117 -75 175 -117 251 -184 437 -290 676 -383 229
-89 428 -139 659 -164 185 -20 723 -17 905 5 639 78 1125 210 1541 418 366
183 740 531 980 914 141 225 303 575 372 805 101 332 144 604 154 970 15 533
-55 1023 -211 1477 -197 574 -624 1157 -1107 1514 -200 147 -531 326 -764 412
-216 80 -460 141 -696 174 -100 14 -190 16 -471 15 -391 -2 -357 -9 -338 75 6
23 21 127 35 230 22 159 72 440 81 451 1 2 40 -8 86 -23 71 -23 111 -28 274
-36 242 -11 1292 -29 1399 -23 44 2 170 9 280 14 447 24 669 66 866 165 296
148 453 355 545 715 88 352 67 769 -55 1073 -101 253 -293 431 -561 521 -168
56 -482 91 -950 106 -840 27 -2857 40 -3081 20z m1976 -235 c242 -8 537 -17
655 -20 790 -21 1212 -70 1399 -162 178 -88 258 -223 323 -544 20 -100 23
-143 23 -349 -1 -224 -2 -240 -28 -334 -14 -54 -43 -131 -63 -172 -66 -134
-221 -276 -395 -362 -305 -151 -831 -213 -1294 -154 -463 60 -523 65 -790 65
-347 0 -434 -10 -615 -67 -80 -26 -157 -51 -172 -57 -36 -15 -44 -40 -18 -61
l20 -17 -30 -103 c-31 -107 -89 -410 -111 -580 -11 -87 -10 -101 5 -142 21
-54 87 -116 143 -135 23 -7 143 -16 308 -21 354 -12 536 -33 770 -91 234 -58
478 -147 659 -239 134 -67 366 -210 476 -291 196 -144 427 -374 581 -578 362
-481 579 -1196 579 -1907 0 -682 -149 -1272 -447 -1772 -173 -290 -428 -550
-753 -765 -419 -278 -1150 -498 -1845 -557 -157 -13 -539 -13 -685 1 -263 24
-556 107 -805 228 -344 168 -784 507 -1165 897 -144 148 -210 230 -283 353
-89 151 -99 236 -41 348 56 108 136 206 314 383 231 230 420 379 588 464 259
130 457 77 987 -267 424 -275 623 -351 925 -350 225 1 400 43 605 143 255 126
415 323 491 607 15 53 19 104 19 233 0 149 -3 174 -27 263 -55 195 -152 360
-290 493 -148 142 -288 227 -463 280 -85 27 -101 28 -290 29 -316 0 -464 -40
-920 -250 -222 -102 -270 -120 -382 -141 -119 -22 -273 -15 -408 21 -279 73
-710 294 -862 442 -148 145 -215 355 -193 607 12 142 41 317 140 854 95 513
128 708 215 1272 167 1082 282 1685 365 1912 125 341 389 536 800 588 223 29
1201 31 1985 5z"/>
</g>
</svg>
