<?xml version="1.0" standalone="no"?>
<!DOCTYPE svg PUBLIC "-//W3C//DTD SVG 20010904//EN"
 "http://www.w3.org/TR/2001/REC-SVG-20010904/DTD/svg10.dtd">
<svg version="1.0" xmlns="http://www.w3.org/2000/svg"
 width="3840.000000pt" height="2160.000000pt" viewBox="0 0 3840.000000 2160.000000"
 preserveAspectRatio="xMidYMid meet">

<g transform="translate(0.000000,2160.000000) scale(0.100000,-0.100000)"
fill="#000000" stroke="none">
<path d="M12755 10243 c-475 -12 -1004 -93 -1379 -212 -629 -199 -1429 -661
-1866 -1077 -41 -39 -100 -93 -130 -119 -94 -83 -308 -305 -429 -445 -670
-778 -1084 -1611 -1266 -2549 -50 -261 -95 -597 -115 -861 -42 -573 -26 -1320
35 -1550 19 -73 46 -207 75 -382 51 -301 154 -601 331 -963 285 -585 636
-1039 1009 -1305 439 -312 983 -487 1690 -541 241 -18 631 3 795 44 33 8 114
18 179 21 240 14 409 63 681 200 374 189 697 418 1086 771 424 385 679 812
825 1381 114 447 120 1031 14 1409 -62 220 -134 392 -251 598 -200 352 -429
611 -809 917 -176 141 -634 440 -784 510 -206 97 -571 207 -813 244 -246 38
-601 39 -818 1 -150 -26 -306 -86 -462 -176 -48 -27 -88 -48 -90 -46 -2 2 42
60 98 128 55 68 133 164 172 213 148 182 395 400 639 562 185 123 570 308 918
441 223 85 519 164 985 263 404 86 506 131 668 298 68 69 63 60 161 257 99
196 141 345 167 580 15 140 6 371 -20 530 -44 264 -108 412 -231 536 -134 134
-265 204 -465 244 -44 9 -116 27 -159 41 -69 21 -275 46 -336 40 -8 0 -55 -2
-105 -3z m-1527 -6143 c224 -29 440 -191 551 -412 65 -129 91 -232 91 -352 -1
-438 -319 -675 -875 -653 -146 6 -230 23 -356 70 -88 33 -141 67 -218 141
-163 156 -239 341 -227 551 22 397 254 598 761 658 62 8 203 6 273 -3z"/>
</g>
</svg>
