<?xml version="1.0" standalone="no"?>
<!DOCTYPE svg PUBLIC "-//W3C//DTD SVG 20010904//EN"
 "http://www.w3.org/TR/2001/REC-SVG-20010904/DTD/svg10.dtd">
<svg version="1.0" xmlns="http://www.w3.org/2000/svg"
 width="3840.000000pt" height="2160.000000pt" viewBox="0 0 3840.000000 2160.000000"
 preserveAspectRatio="xMidYMid meet">

<g transform="translate(0.000000,2160.000000) scale(0.100000,-0.100000)"
fill="#000000" stroke="none">
<path d="M16020 10189 c-346 -23 -622 -86 -814 -184 -222 -113 -353 -254 -432
-463 -122 -326 -146 -703 -69 -1075 29 -143 55 -220 111 -333 80 -163 216
-297 388 -383 176 -87 280 -107 641 -123 227 -10 345 -9 740 5 259 10 607 17
775 17 168 0 521 6 785 12 264 6 497 11 517 11 49 -1 188 -43 188 -57 0 -22
-94 -171 -284 -453 -460 -682 -547 -813 -713 -1072 -464 -725 -814 -1359
-1032 -1868 -371 -866 -603 -1622 -690 -2243 -70 -502 -47 -827 79 -1097 140
-301 347 -423 835 -492 276 -40 477 -53 720 -48 198 3 241 7 310 26 132 37
237 93 314 169 128 125 170 258 191 594 22 352 72 710 135 968 84 343 252 756
539 1330 122 243 423 809 539 1010 165 288 525 884 727 1205 230 363 656 1061
767 1255 305 533 477 1002 543 1480 20 145 30 414 20 572 -34 550 -204 840
-579 987 -158 63 -562 96 -1341 111 -528 9 -579 11 -1245 35 -489 18 -710 29
-1110 55 -315 21 -1255 61 -1365 59 -36 -1 -121 -6 -190 -10z m400 -179 c-18
-6 0 -9 60 -11 47 -2 103 -4 125 -6 22 -1 200 -11 395 -23 195 -11 472 -29
615 -40 623 -47 1326 -75 2255 -90 1107 -17 1318 -48 1501 -217 109 -102 174
-233 219 -443 28 -132 39 -454 21 -648 -35 -375 -175 -831 -388 -1256 -184
-368 -479 -853 -948 -1561 -560 -844 -856 -1342 -1174 -1975 -322 -638 -558
-1247 -655 -1686 -57 -256 -100 -610 -111 -904 -12 -306 -64 -447 -187 -511
-133 -68 -395 -67 -938 7 -528 71 -672 137 -781 360 -77 158 -105 344 -95 619
11 307 48 551 141 931 130 533 268 942 508 1504 166 390 322 684 690 1300 395
661 557 913 1057 1650 129 190 253 381 276 425 44 82 64 161 64 247 0 41 -5
54 -34 86 l-34 37 -94 2 c-51 0 -172 13 -268 27 -260 37 -368 46 -770 57 -367
11 -899 6 -1215 -11 -227 -13 -886 -12 -1005 0 -129 14 -209 35 -308 81 -262
121 -386 305 -446 661 -74 437 -5 832 186 1060 75 90 213 178 358 228 73 25
280 70 323 70 15 0 27 5 27 11 0 5 4 8 9 4 6 -3 53 -2 106 1 58 4 91 10 83 15
-7 5 93 8 222 8 133 -1 224 -4 210 -9z"/>
</g>
</svg>
