<?xml version="1.0" standalone="no"?>
<!DOCTYPE svg PUBLIC "-//W3C//DTD SVG 20010904//EN"
 "http://www.w3.org/TR/2001/REC-SVG-20010904/DTD/svg10.dtd">
<svg version="1.0" xmlns="http://www.w3.org/2000/svg"
 width="3840.000000pt" height="2160.000000pt" viewBox="0 0 3840.000000 2160.000000"
 preserveAspectRatio="xMidYMid meet">

<g transform="translate(0.000000,2160.000000) scale(0.100000,-0.100000)"
fill="#000000" stroke="none">
<path d="M25720 10624 c-542 -34 -1006 -164 -1530 -429 -551 -280 -932 -618
-1269 -1125 -242 -365 -393 -754 -463 -1190 -33 -208 -33 -550 0 -725 105
-559 306 -966 627 -1273 l102 -98 -51 -34 c-84 -57 -334 -315 -432 -445 -298
-398 -497 -873 -570 -1357 -24 -163 -29 -455 -10 -648 58 -608 232 -1088 586
-1615 106 -158 214 -286 366 -436 220 -214 445 -381 729 -540 633 -352 1487
-560 2171 -528 337 16 679 97 1019 241 309 132 659 326 914 508 394 280 788
677 1026 1035 213 318 357 719 432 1195 26 164 26 616 0 780 -84 531 -429
1268 -828 1767 l-41 52 67 78 c302 352 540 946 586 1463 15 173 6 558 -16 700
-34 213 -140 581 -231 799 -131 312 -324 591 -580 841 -246 239 -452 384 -790
553 -393 197 -904 357 -1294 406 -153 19 -413 31 -520 25z m80 -2574 c361 -38
639 -237 737 -529 22 -66 25 -89 21 -176 -3 -91 -7 -106 -38 -165 -141 -264
-505 -388 -920 -314 -169 31 -337 118 -439 230 -57 62 -122 188 -141 273 -8
32 -11 89 -8 141 6 105 29 158 116 277 131 177 298 259 552 271 14 1 68 -3
120 -8z m81 -3636 c199 -34 397 -120 547 -239 156 -123 284 -329 323 -521 39
-185 10 -422 -69 -568 -36 -66 -121 -157 -198 -212 -253 -181 -645 -223 -992
-107 -331 110 -593 323 -694 565 -67 160 -85 317 -52 476 16 81 69 205 109
258 24 31 319 207 490 292 138 69 338 90 536 56z"/>
</g>
</svg>
