<?xml version="1.0" standalone="no"?>
<!DOCTYPE svg PUBLIC "-//W3C//DTD SVG 20010904//EN"
 "http://www.w3.org/TR/2001/REC-SVG-20010904/DTD/svg10.dtd">
<svg version="1.0" xmlns="http://www.w3.org/2000/svg"
 width="3840.000000pt" height="2160.000000pt" viewBox="0 0 3840.000000 2160.000000"
 preserveAspectRatio="xMidYMid meet">

<g transform="translate(0.000000,2160.000000) scale(0.100000,-0.100000)"
fill="#000000" stroke="none">
<path d="M33020 10584 c-19 -2 -100 -11 -180 -20 -425 -46 -713 -139 -1190
-382 -581 -296 -985 -725 -1363 -1442 -276 -525 -418 -1186 -367 -1701 39
-388 240 -915 494 -1299 146 -220 299 -397 530 -612 238 -222 431 -357 706
-494 328 -163 581 -250 890 -306 120 -21 643 -18 790 5 138 22 334 72 491 125
l116 39 -81 -134 c-103 -172 -181 -276 -309 -409 -194 -203 -456 -395 -732
-536 -502 -256 -929 -369 -1540 -408 -319 -21 -512 -62 -685 -148 -157 -77
-291 -225 -367 -405 -79 -186 -113 -361 -120 -617 -13 -434 68 -797 235 -1049
55 -84 176 -206 258 -261 186 -124 529 -199 854 -187 1016 39 1603 163 2310
487 694 318 1413 891 1851 1473 396 528 760 1183 1019 1832 268 671 333 1125
296 2045 -21 521 -31 663 -67 955 -82 670 -164 985 -414 1585 -99 235 -143
329 -225 476 -229 408 -464 677 -785 896 -279 191 -541 302 -900 382 -378 84
-601 106 -1100 111 -209 2 -396 1 -415 -1z m780 -254 c411 -26 809 -105 1080
-216 245 -101 507 -280 691 -471 296 -307 599 -874 828 -1548 115 -336 154
-514 215 -975 35 -259 43 -359 67 -830 24 -477 22 -904 -5 -1125 -62 -496
-240 -964 -649 -1705 -158 -285 -367 -608 -571 -880 -284 -380 -564 -651 -980
-949 -352 -253 -647 -416 -1026 -568 -549 -221 -1001 -311 -1705 -343 -532
-24 -772 0 -975 96 -103 49 -229 176 -282 286 -75 154 -110 294 -129 523 -24
291 25 599 129 813 61 127 130 181 297 235 174 56 241 67 590 97 132 11 287
27 345 36 665 98 1268 356 1780 760 119 94 393 372 472 478 79 105 162 253
178 316 9 35 9 69 0 150 -6 58 -10 112 -8 119 2 10 -11 20 -37 29 -32 11 -89
13 -285 8 -892 -22 -1039 -19 -1267 25 -369 71 -829 279 -1149 520 -209 157
-491 443 -663 672 -220 295 -434 745 -501 1055 -59 270 -37 744 50 1087 77
304 194 574 397 914 318 535 682 861 1253 1121 242 110 415 169 615 209 95 19
407 57 525 64 135 8 570 6 720 -3z"/>
<path d="M33330 8359 c-440 -56 -811 -266 -954 -538 -56 -107 -77 -196 -83
-357 -7 -163 9 -262 60 -384 119 -289 326 -458 666 -547 129 -34 375 -43 536
-20 375 54 692 238 839 487 76 131 110 244 127 429 11 109 10 139 -5 225 -26
157 -82 273 -185 388 -149 164 -390 283 -644 317 -90 13 -262 12 -357 0z m210
-285 c121 -19 286 -74 370 -124 132 -78 253 -216 295 -335 27 -74 31 -235 10
-330 -37 -166 -156 -341 -284 -419 -253 -154 -675 -178 -987 -57 -203 79 -343
218 -417 415 -69 187 -39 452 69 593 25 33 141 120 249 186 141 86 412 114
695 71z"/>
</g>
</svg>
