<?xml version="1.0" encoding="UTF-8"?>
<svg version="1.1" xmlns="http://www.w3.org/2000/svg" width="3840" height="2160">
<path d="M0 0 C6.39579553 5.13540815 13.0282599 11.98946646 14.296875 20.35546875 C14.30988413 29.98222593 12.2067718 37.9407797 5.49609375 45.08984375 C0.63027686 49.28049944 -3.97982034 49.62084616 -10.13671875 49.49609375 C-10.12886353 50.32802246 -10.12886353 50.32802246 -10.12084961 51.17675781 C-10.10000844 53.69985818 -10.08703593 56.22294039 -10.07421875 58.74609375 C-10.06583984 59.61878906 -10.05746094 60.49148437 -10.04882812 61.390625 C-10.04399414 62.65712891 -10.04399414 62.65712891 -10.0390625 63.94921875 C-10.03120728 65.11179199 -10.03120728 65.11179199 -10.02319336 66.29785156 C-10.13634877 68.48892973 -10.53119427 70.39247236 -11.13671875 72.49609375 C-10.40372559 72.53573242 -9.67073242 72.57537109 -8.91552734 72.61621094 C27.3703235 74.66510783 27.3703235 74.66510783 41.86328125 79.49609375 C41.85167969 78.34753906 41.84007812 77.19898438 41.828125 76.015625 C41.81846488 74.44661785 41.80939188 72.87760701 41.80078125 71.30859375 C41.79312744 70.49084473 41.78547363 69.6730957 41.77758789 68.83056641 C41.76171043 63.91432586 42.11140533 59.24842835 42.80078125 54.37109375 C43.13636066 50.86075655 43.2703411 49.172663 41.44140625 46.1328125 C40.20145275 44.7724503 38.91757481 43.45061466 37.58984375 42.17578125 C33.15787311 37.86413561 33.60807742 32.06364276 33.5 26.27734375 C34.25886982 20.46750172 37.59434123 16.2861064 41.23828125 11.87109375 C41.98851562 10.95070312 42.73875 10.0303125 43.51171875 9.08203125 C47.77086037 4.39839047 51.77978478 0.80807104 58.18359375 0.16015625 C67.06376442 0.06898407 74.87564611 0.29010292 81.95703125 6.26171875 C87.3867528 11.91396987 88.82615093 17.21956869 89.17578125 24.87109375 C88.84466802 35.03104176 84.95462265 42.29950053 77.86328125 49.49609375 C73.09292139 53.5048884 67.90417546 54.22213029 61.86328125 54.49609375 C61.87488281 55.34429687 61.88648438 56.1925 61.8984375 57.06640625 C62.06628877 78.88707119 62.06628877 78.88707119 59.86328125 85.49609375 C60.94029297 85.66625 60.94029297 85.66625 62.0390625 85.83984375 C72.95581422 88.37651635 82.75482517 96.8189992 89.17578125 105.74609375 C95.41734032 116.17639553 97.92581831 127.35581311 99.61328125 139.24609375 C99.82471719 140.66086664 100.03655274 142.07557987 100.2487793 143.49023438 C101.66583824 153.13566693 102.70165936 162.7400087 102.86328125 172.49609375 C103.53794434 172.4396167 104.21260742 172.38313965 104.90771484 172.32495117 C108.0163869 172.08162911 111.12645855 171.88241478 114.23828125 171.68359375 C115.29917969 171.59400391 116.36007812 171.50441406 117.453125 171.41210938 C125.01754541 170.97123825 130.60866765 172.03258845 136.86328125 176.49609375 C138.73828125 179.30859375 138.73828125 179.30859375 138.86328125 182.49609375 C137.31950322 187.32958923 135.2521574 190.82900034 130.86328125 193.49609375 C127.93066406 193.83666992 127.93066406 193.83666992 124.56640625 193.7890625 C123.36113281 193.77939453 122.15585938 193.76972656 120.9140625 193.75976562 C119.65980469 193.73462891 118.40554688 193.70949219 117.11328125 193.68359375 C115.84355469 193.67005859 114.57382813 193.65652344 113.265625 193.64257812 C110.13108281 193.60722615 106.9973958 193.55787623 103.86328125 193.49609375 C103.8883374 194.17592316 103.91339355 194.85575256 103.93920898 195.55618286 C104.25775079 204.24412181 104.56511025 212.93243355 104.86328125 221.62109375 C104.88703575 222.31307735 104.91079025 223.00506096 104.93526459 223.71801376 C105.71834282 246.64947368 106.15224821 269.54989404 105.86328125 292.49609375 C107.37547241 292.47869141 107.37547241 292.47869141 108.91821289 292.4609375 C110.26578589 292.45155084 111.61336092 292.44245158 112.9609375 292.43359375 C114.27843994 292.42199219 115.59594238 292.41039062 116.95336914 292.3984375 C122.06712947 292.52616177 126.89218574 293.33858295 131.86328125 294.49609375 C132.19328125 295.48609375 132.52328125 296.47609375 132.86328125 297.49609375 C133.52328125 297.49609375 134.18328125 297.49609375 134.86328125 297.49609375 C135.67578125 300.62109375 135.67578125 300.62109375 135.86328125 304.49609375 C133.83159062 307.84044046 132.48204212 309.90872073 128.76538086 311.25732422 C126.3202917 311.76080761 123.90676078 312.096066 121.42578125 312.37109375 C120.17571289 312.54511719 120.17571289 312.54511719 118.90039062 312.72265625 C114.51914707 313.3045131 110.28819643 313.54146117 105.86328125 313.49609375 C105.8883374 314.14927582 105.91339355 314.80245789 105.93920898 315.47543335 C106.26160807 323.94014554 106.5684149 332.40538127 106.86328125 340.87109375 C106.88703575 341.55280514 106.91079025 342.23451653 106.93526459 342.93688583 C107.87615253 370.12822627 108.10170484 397.28829394 107.86328125 424.49609375 C108.85328125 424.16609375 109.84328125 423.83609375 110.86328125 423.49609375 C128.04680185 422.49759188 128.04680185 422.49759188 134.86328125 428.49609375 C134.11582116 437.46561479 134.11582116 437.46561479 130.86328125 440.49609375 C128.16211165 441.12057353 125.78453831 441.50816022 123.05078125 441.74609375 C122.35146484 441.8234375 121.65214844 441.90078125 120.93164062 441.98046875 C116.89262427 442.40363978 112.91990273 442.52345228 108.86328125 442.49609375 C108.73038387 450.52196328 108.59987936 458.54786716 108.47212982 466.57382011 C108.41269088 470.30378959 108.35253821 474.0337442 108.29052734 477.76367188 C107.9822353 496.34315589 107.78337247 514.91330633 107.86328125 533.49609375 C109.35239014 533.56485718 109.35239014 533.56485718 110.87158203 533.63500977 C119.49068795 534.06349419 127.09904416 534.57738629 133.86328125 540.49609375 C133.60790556 544.15647868 133.05653684 546.22179549 130.92578125 549.24609375 C125.37455808 553.32454342 119.3987613 553.53529624 112.67651367 553.51245117 C111.77535324 553.51008957 110.87419281 553.50772797 109.94572449 553.5052948 C109.25851822 553.50225845 108.57131195 553.49922211 107.86328125 553.49609375 C107.88207336 554.41069115 107.88207336 554.41069115 107.90124512 555.34376526 C108.72981084 595.96016021 109.50169496 636.5669723 108.36328125 677.18359375 C107.8129423 696.83787271 107.7482728 716.4884066 107.73989868 736.14896011 C107.73832146 738.55962826 107.73479527 740.97028585 107.73071289 743.38095093 C107.70410288 761.10389461 107.87414807 778.80672843 108.35546875 796.5234375 C108.90293893 816.7445267 109.08381906 836.95767003 109.10351562 857.18579102 C109.10795161 861.04460843 109.12209569 864.90320866 109.14453125 868.76196289 C109.266652 890.22446942 109.17169291 911.23306031 105.86328125 932.49609375 C105.64740377 934.00342145 105.43255476 935.51089699 105.21899414 937.01855469 C102.70687941 953.67867375 92.91120292 969.8461685 79.86328125 980.49609375 C79.20328125 980.49609375 78.54328125 980.49609375 77.86328125 980.49609375 C78.46011719 981.29660156 79.05695313 982.09710937 79.671875 982.921875 C82.31588791 986.904776 83.60296829 991.12064215 84.92578125 995.68359375 C85.18182129 996.55854492 85.43786133 997.43349609 85.70166016 998.33496094 C90.07056072 1013.82495212 94.44841279 1033.13591622 88.91015625 1048.796875 C87.0045036 1051.89000523 84.68851313 1053.2268338 81.27734375 1054.33984375 C80.35695313 1054.55640625 79.4365625 1054.77296875 78.48828125 1054.99609375 C74.25794459 1056.06628488 70.75393798 1057.50753587 66.86328125 1059.49609375 C61.52099687 1061.03436103 56.76025568 1061.7737263 51.171875 1061.91015625 C50.46410416 1061.9295224 49.75633331 1061.94888855 49.02711487 1061.96884155 C46.78512168 1062.0279107 44.54306465 1062.07451597 42.30078125 1062.12109375 C40.8261516 1062.15938318 39.35154169 1062.19844074 37.87695312 1062.23828125 C28.53781454 1062.47819428 19.20530276 1062.54225252 9.86328125 1062.49609375 C10.33499074 1055.90378747 10.88262354 1051.29610554 15.92578125 1046.55859375 C21.78070221 1040.32593595 19.97359508 1030.87375904 19.78515625 1022.96875 C19.68722138 1016.20308269 20.21074635 1010.06565771 21.86328125 1003.49609375 C17.19626978 1003.95094506 12.52964232 1004.4096222 7.86328125 1004.87109375 C7.1767749 1004.93890045 6.49026855 1005.00670715 5.78295898 1005.0765686 C-3.19980061 1005.96669137 -12.16306724 1006.92541905 -21.10546875 1008.1640625 C-24.14195813 1008.49666765 -27.08472555 1008.55584663 -30.13671875 1008.49609375 C-29.894375 1009.23730469 -29.65203125 1009.97851562 -29.40234375 1010.7421875 C-28.47647728 1013.65154484 -27.58795064 1016.5691782 -26.72753906 1019.49853516 C-26.33479215 1020.82640921 -25.93313238 1022.15168069 -25.52246094 1023.47412109 C-22.90579592 1032.03149208 -21.73428217 1039.66829444 -22.63671875 1048.62109375 C-22.7135791 1049.40242676 -22.79043945 1050.18375977 -22.86962891 1050.98876953 C-23.57204767 1056.32186385 -25.12657233 1060.02942487 -28.13671875 1064.49609375 C-32.79565986 1067.84097455 -38.48643857 1068.59727209 -44.015625 1069.75 C-46.8819158 1070.43518341 -49.41260621 1071.3961514 -52.13671875 1072.49609375 C-54.94921875 1072.62109375 -54.94921875 1072.62109375 -57.13671875 1072.49609375 C-57.13671875 1071.83609375 -57.13671875 1071.17609375 -57.13671875 1070.49609375 C-57.79671875 1070.49609375 -58.45671875 1070.49609375 -59.13671875 1070.49609375 C-61.30314617 1065.64329633 -62.84407006 1061.70816307 -61.9140625 1056.37890625 C-60.40480392 1052.72331511 -57.23615743 1050.7748933 -54.13671875 1048.49609375 C-49.95678015 1044.60161726 -49.95678015 1044.60161726 -49.01171875 1039.12109375 C-48.99835999 1035.74624961 -48.99835999 1035.74624961 -49.63623047 1033.54492188 C-50.17889256 1031.32344858 -50.26609352 1029.37446225 -50.26953125 1027.08984375 C-50.27082031 1026.26355469 -50.27210938 1025.43726563 -50.2734375 1024.5859375 C-50.26957031 1023.73128906 -50.26570313 1022.87664062 -50.26171875 1021.99609375 C-50.26558594 1021.14144531 -50.26945312 1020.28679688 -50.2734375 1019.40625 C-50.27150391 1018.16681641 -50.27150391 1018.16681641 -50.26953125 1016.90234375 C-50.26840332 1016.15275391 -50.26727539 1015.40316406 -50.26611328 1014.63085938 C-50.13529622 1012.4726247 -49.72838716 1010.57133984 -49.13671875 1008.49609375 C-50.20148438 1008.398125 -51.26625 1008.30015625 -52.36328125 1008.19921875 C-62.0454029 1007.22887766 -70.84123347 1005.45355925 -80.13671875 1002.49609375 C-79.71515189 1006.78947888 -79.27154504 1011.08032217 -78.82421875 1015.37109375 C-78.70626953 1016.57507812 -78.58832031 1017.7790625 -78.46679688 1019.01953125 C-77.79216466 1025.38529161 -76.86634566 1031.31065838 -74.81298828 1037.3840332 C-73.54981517 1041.32905508 -72.95328765 1044.47368697 -74.13671875 1048.49609375 C-78.77388528 1056.4037822 -84.27885976 1063.29282726 -93.13671875 1066.49609375 C-94.20664063 1066.94339844 -95.2765625 1067.39070313 -96.37890625 1067.8515625 C-101.52100439 1068.7335232 -104.16051701 1067.11667259 -108.57421875 1064.62109375 C-109.30576172 1064.23050781 -110.03730469 1063.83992188 -110.79101562 1063.4375 C-112.58362742 1062.47675381 -114.36174845 1061.48905433 -116.13671875 1060.49609375 C-115.80199048 1054.51234719 -115.40267925 1050.09020506 -111.13671875 1045.49609375 C-108.49054776 1044.16035926 -105.99736285 1043.35428698 -103.13671875 1042.49609375 C-104.10361094 1038.06895075 -105.08952847 1033.65352526 -106.20703125 1029.26171875 C-109.01401836 1017.54531547 -109.43800955 1006.62257006 -108.54931641 994.58496094 C-108.20212545 987.82352382 -108.20212545 987.82352382 -111 981.8671875 C-113.29276919 979.61981968 -115.68578421 977.56750169 -118.13671875 975.49609375 C-127.02578959 964.87372042 -138.79792673 944.5483818 -137.96435547 930.61499023 C-137.86396973 929.53032471 -137.76358398 928.44565918 -137.66015625 927.328125 C-137.07769892 920.95896315 -137.45306642 915.13464443 -138.26171875 908.80859375 C-138.54538067 906.38048889 -138.82639699 903.95207421 -139.10546875 901.5234375 C-139.18391022 900.8510907 -139.26235168 900.1787439 -139.34317017 899.48602295 C-140.47323949 889.73447846 -141.44492326 879.96600204 -142.4262085 870.19857788 C-142.75427959 866.94487302 -143.0881157 863.691796 -143.42236328 860.4387207 C-145.58568031 839.17474324 -146.32491894 818.15746314 -146.32202148 796.78930664 C-146.32194259 793.9552539 -146.32850117 791.12137109 -146.3425293 788.28735352 C-146.41502675 773.38230439 -146.30304481 758.49985713 -145.67822266 743.60595703 C-144.45806934 714.36106285 -143.96320719 685.20114343 -144.01171875 655.93359375 C-144.01312371 654.99689763 -144.01452866 654.06020152 -144.01597619 653.09512067 C-144.03854061 638.56205278 -144.08541314 624.02908412 -144.13671875 609.49609375 C-144.19134312 593.99610966 -144.23808385 578.49615936 -144.26171875 562.99609375 C-144.26329735 562.07109447 -144.26487595 561.1460952 -144.26650238 560.19306564 C-144.3131053 530.91411733 -143.86734996 501.73271467 -142.13671875 472.49609375 C-142.82725342 473.20076782 -142.82725342 473.20076782 -143.53173828 473.91967773 C-144.14645996 474.54173096 -144.76118164 475.16378418 -145.39453125 475.8046875 C-145.9992627 476.41884521 -146.60399414 477.03300293 -147.22705078 477.66577148 C-150.29611611 480.60731876 -153.66012471 483.06102463 -157.13671875 485.49609375 C-157.87438477 486.01300781 -158.61205078 486.52992188 -159.37207031 487.0625 C-182.10270381 502.5991557 -209.95771945 508.14192482 -237.07421875 503.43359375 C-259.00191365 498.1974962 -276.62361397 485.67321464 -293.51171875 471.30859375 C-294.34968994 470.5966687 -294.34968994 470.5966687 -295.20458984 469.87036133 C-301.99751494 464.01108493 -307.97762784 457.7816678 -313.38671875 450.62109375 C-313.94391602 449.88568359 -314.50111328 449.15027344 -315.07519531 448.39257812 C-335.53372138 421.06026644 -348.24974453 395.56409102 -344.74609375 360.59765625 C-339.70278786 334.92852245 -318.28289294 309.77881355 -300.76953125 291.3046875 C-298.73924005 289.13884273 -296.79302449 286.94873545 -294.859375 284.69921875 C-290.93216627 280.18548576 -286.71527846 275.9997446 -282.44921875 271.80859375 C-277.04067986 266.58163593 -277.04067986 266.58163593 -272.1171875 260.9140625 C-270.35741849 258.76554767 -268.66998535 257.17781481 -266.5637207 255.3918457 C-261.93647816 251.3804799 -257.62937031 247.09795663 -253.32421875 242.74609375 C-252.51106201 241.92915039 -251.69790527 241.11220703 -250.86010742 240.27050781 C-248.28318578 237.68146704 -245.7095425 235.08920638 -243.13671875 232.49609375 C-239.74384722 229.07646656 -236.34757218 225.66027226 -232.94921875 222.24609375 C-232.18440186 221.47297852 -231.41958496 220.69986328 -230.6315918 219.90332031 C-226.49483783 215.74795889 -222.27355258 211.76741676 -217.81799316 207.95471191 C-215.64715117 206.07136109 -213.63725702 204.05818705 -211.63671875 201.99609375 C-208.90842468 199.23048967 -206.15155041 196.58322344 -203.19921875 194.05859375 C-200.02635955 191.33990127 -197.07333493 188.468577 -194.13671875 185.49609375 C-191.26114216 182.58555574 -188.37797781 179.77185353 -185.26171875 177.12109375 C-181.1845483 173.63816677 -177.44019313 169.85905302 -173.69970703 166.02197266 C-170.35014637 162.61326865 -166.83911833 159.46064683 -163.22509766 156.33496094 C-159.66280651 153.19827904 -156.25641136 149.8985871 -152.82421875 146.62109375 C-147.24394859 141.3270846 -141.61170722 136.26716083 -135.5859375 131.484375 C-133.1319949 129.49225892 -130.82625281 127.39779627 -128.51171875 125.24609375 C-122.12367594 119.44336924 -115.25921329 114.2836423 -108.33935547 109.13818359 C-106.92417322 108.0831497 -105.51388388 107.02150288 -104.10986328 105.95166016 C-83.16847065 90.01584712 -60.10374422 78.89426999 -34.13671875 74.49609375 C-34.0121981 70.08538076 -33.92195348 65.67562518 -33.86206055 61.26367188 C-33.83706868 59.76609452 -33.80306248 58.26863724 -33.75952148 56.77148438 C-33.51396124 48.10465226 -33.41750017 41.49517703 -39.13671875 34.49609375 C-42.23659775 28.19331862 -42.25433374 20.786849 -40.01171875 14.18359375 C-31.41451111 1.86092947 -14.89532803 -9.34810242 0 0 Z M58.36328125 993.30859375 C52.9803735 996.05855749 47.71525774 998.02015278 41.86328125 999.49609375 C40.89300784 1003.28835956 40.94980577 1005.99042824 41.73828125 1009.80859375 C42.9108608 1016.15941051 43.30609589 1022.39433961 43.6171875 1028.83203125 C43.79440959 1032.40487786 43.79440959 1032.40487786 44.3828125 1035.53125 C44.93096711 1038.91376506 44.99573604 1042.13311887 44.98828125 1045.55859375 C44.99085938 1046.74582031 44.9934375 1047.93304687 44.99609375 1049.15625 C44.8802079 1052.0704382 44.53714302 1054.66694392 43.86328125 1057.49609375 C45.63447928 1057.35475876 47.40523412 1057.20786167 49.17578125 1057.05859375 C50.16191406 1056.97738281 51.14804688 1056.89617187 52.1640625 1056.8125 C54.95703724 1056.57796816 54.95703724 1056.57796816 57.86328125 1055.49609375 C58.60351446 1053.52213852 59.25089226 1051.51337513 59.86328125 1049.49609375 C60.5134525 1048.00960264 61.18130193 1046.53076313 61.86328125 1045.05859375 C66.11473493 1035.5562775 66.51838749 1028.13953059 64.86328125 1017.99609375 C63.29125428 1008.30567037 64.03665239 1000.13482284 65.86328125 990.49609375 C62.90145259 990.49609375 60.96936952 991.92830731 58.36328125 993.30859375 Z " fill="#FEE600" transform="translate(1212.13671875,123.50390625)"/>
<path d="M0 0 C6.39579553 5.13540815 13.0282599 11.98946646 14.296875 20.35546875 C14.30988413 29.98222593 12.2067718 37.9407797 5.49609375 45.08984375 C0.63027686 49.28049944 -3.97982034 49.62084616 -10.13671875 49.49609375 C-10.12886353 50.32802246 -10.12886353 50.32802246 -10.12084961 51.17675781 C-10.10000844 53.69985818 -10.08703593 56.22294039 -10.07421875 58.74609375 C-10.06583984 59.61878906 -10.05746094 60.49148437 -10.04882812 61.390625 C-10.04399414 62.65712891 -10.04399414 62.65712891 -10.0390625 63.94921875 C-10.03120728 65.11179199 -10.03120728 65.11179199 -10.02319336 66.29785156 C-10.13634877 68.48892973 -10.53119427 70.39247236 -11.13671875 72.49609375 C-10.40372559 72.53573242 -9.67073242 72.57537109 -8.91552734 72.61621094 C27.3703235 74.66510783 27.3703235 74.66510783 41.86328125 79.49609375 C41.85167969 78.34753906 41.84007812 77.19898438 41.828125 76.015625 C41.81846488 74.44661785 41.80939188 72.87760701 41.80078125 71.30859375 C41.79312744 70.49084473 41.78547363 69.6730957 41.77758789 68.83056641 C41.76171043 63.91432586 42.11140533 59.24842835 42.80078125 54.37109375 C43.13636066 50.86075655 43.2703411 49.172663 41.44140625 46.1328125 C40.20145275 44.7724503 38.91757481 43.45061466 37.58984375 42.17578125 C33.15787311 37.86413561 33.60807742 32.06364276 33.5 26.27734375 C34.25886982 20.46750172 37.59434123 16.2861064 41.23828125 11.87109375 C41.98851562 10.95070312 42.73875 10.0303125 43.51171875 9.08203125 C47.77086037 4.39839047 51.77978478 0.80807104 58.18359375 0.16015625 C67.06376442 0.06898407 74.87564611 0.29010292 81.95703125 6.26171875 C87.3867528 11.91396987 88.82615093 17.21956869 89.17578125 24.87109375 C88.84466802 35.03104176 84.95462265 42.29950053 77.86328125 49.49609375 C73.09292139 53.5048884 67.90417546 54.22213029 61.86328125 54.49609375 C61.87488281 55.34429687 61.88648438 56.1925 61.8984375 57.06640625 C62.06628877 78.88707119 62.06628877 78.88707119 59.86328125 85.49609375 C60.94029297 85.66625 60.94029297 85.66625 62.0390625 85.83984375 C72.95581422 88.37651635 82.75482517 96.8189992 89.17578125 105.74609375 C95.41734032 116.17639553 97.92581831 127.35581311 99.61328125 139.24609375 C99.82471719 140.66086664 100.03655274 142.07557987 100.2487793 143.49023438 C101.66583824 153.13566693 102.70165936 162.7400087 102.86328125 172.49609375 C103.53794434 172.4396167 104.21260742 172.38313965 104.90771484 172.32495117 C108.0163869 172.08162911 111.12645855 171.88241478 114.23828125 171.68359375 C115.29917969 171.59400391 116.36007812 171.50441406 117.453125 171.41210938 C125.01754541 170.97123825 130.60866765 172.03258845 136.86328125 176.49609375 C138.73828125 179.30859375 138.73828125 179.30859375 138.86328125 182.49609375 C137.31950322 187.32958923 135.2521574 190.82900034 130.86328125 193.49609375 C127.93066406 193.83666992 127.93066406 193.83666992 124.56640625 193.7890625 C123.36113281 193.77939453 122.15585938 193.76972656 120.9140625 193.75976562 C119.65980469 193.73462891 118.40554688 193.70949219 117.11328125 193.68359375 C115.84355469 193.67005859 114.57382813 193.65652344 113.265625 193.64257812 C110.13108281 193.60722615 106.9973958 193.55787623 103.86328125 193.49609375 C103.8883374 194.17592316 103.91339355 194.85575256 103.93920898 195.55618286 C104.25775079 204.24412181 104.56511025 212.93243355 104.86328125 221.62109375 C104.88703575 222.31307735 104.91079025 223.00506096 104.93526459 223.71801376 C105.71834282 246.64947368 106.15224821 269.54989404 105.86328125 292.49609375 C107.37547241 292.47869141 107.37547241 292.47869141 108.91821289 292.4609375 C110.26578589 292.45155084 111.61336092 292.44245158 112.9609375 292.43359375 C114.27843994 292.42199219 115.59594238 292.41039062 116.95336914 292.3984375 C122.06712947 292.52616177 126.89218574 293.33858295 131.86328125 294.49609375 C132.19328125 295.48609375 132.52328125 296.47609375 132.86328125 297.49609375 C133.52328125 297.49609375 134.18328125 297.49609375 134.86328125 297.49609375 C135.67578125 300.62109375 135.67578125 300.62109375 135.86328125 304.49609375 C133.83159062 307.84044046 132.48204212 309.90872073 128.76538086 311.25732422 C126.3202917 311.76080761 123.90676078 312.096066 121.42578125 312.37109375 C120.17571289 312.54511719 120.17571289 312.54511719 118.90039062 312.72265625 C114.51914707 313.3045131 110.28819643 313.54146117 105.86328125 313.49609375 C105.8883374 314.14927582 105.91339355 314.80245789 105.93920898 315.47543335 C106.26160807 323.94014554 106.5684149 332.40538127 106.86328125 340.87109375 C106.88703575 341.55280514 106.91079025 342.23451653 106.93526459 342.93688583 C107.87615253 370.12822627 108.10170484 397.28829394 107.86328125 424.49609375 C108.85328125 424.16609375 109.84328125 423.83609375 110.86328125 423.49609375 C128.04680185 422.49759188 128.04680185 422.49759188 134.86328125 428.49609375 C134.11582116 437.46561479 134.11582116 437.46561479 130.86328125 440.49609375 C128.16211165 441.12057353 125.78453831 441.50816022 123.05078125 441.74609375 C122.35146484 441.8234375 121.65214844 441.90078125 120.93164062 441.98046875 C116.89262427 442.40363978 112.91990273 442.52345228 108.86328125 442.49609375 C108.73038387 450.52196328 108.59987936 458.54786716 108.47212982 466.57382011 C108.41269088 470.30378959 108.35253821 474.0337442 108.29052734 477.76367188 C107.9822353 496.34315589 107.78337247 514.91330633 107.86328125 533.49609375 C109.35239014 533.56485718 109.35239014 533.56485718 110.87158203 533.63500977 C119.49068795 534.06349419 127.09904416 534.57738629 133.86328125 540.49609375 C133.60790556 544.15647868 133.05653684 546.22179549 130.92578125 549.24609375 C125.37455808 553.32454342 119.3987613 553.53529624 112.67651367 553.51245117 C111.77535324 553.51008957 110.87419281 553.50772797 109.94572449 553.5052948 C109.25851822 553.50225845 108.57131195 553.49922211 107.86328125 553.49609375 C107.88207336 554.41069115 107.88207336 554.41069115 107.90124512 555.34376526 C108.72981084 595.96016021 109.50169496 636.5669723 108.36328125 677.18359375 C107.8129423 696.83787271 107.7482728 716.4884066 107.73989868 736.14896011 C107.73832146 738.55962826 107.73479527 740.97028585 107.73071289 743.38095093 C107.70410288 761.10389461 107.87414807 778.80672843 108.35546875 796.5234375 C108.90293893 816.7445267 109.08381906 836.95767003 109.10351562 857.18579102 C109.10795161 861.04460843 109.12209569 864.90320866 109.14453125 868.76196289 C109.266652 890.22446942 109.17169291 911.23306031 105.86328125 932.49609375 C105.64740377 934.00342145 105.43255476 935.51089699 105.21899414 937.01855469 C102.70687941 953.67867375 92.91120292 969.8461685 79.86328125 980.49609375 C79.20328125 980.49609375 78.54328125 980.49609375 77.86328125 980.49609375 C78.46011719 981.29660156 79.05695313 982.09710937 79.671875 982.921875 C82.31588791 986.904776 83.60296829 991.12064215 84.92578125 995.68359375 C85.18182129 996.55854492 85.43786133 997.43349609 85.70166016 998.33496094 C90.07056072 1013.82495212 94.44841279 1033.13591622 88.91015625 1048.796875 C87.0045036 1051.89000523 84.68851313 1053.2268338 81.27734375 1054.33984375 C80.35695313 1054.55640625 79.4365625 1054.77296875 78.48828125 1054.99609375 C74.25794459 1056.06628488 70.75393798 1057.50753587 66.86328125 1059.49609375 C61.52099687 1061.03436103 56.76025568 1061.7737263 51.171875 1061.91015625 C50.46410416 1061.9295224 49.75633331 1061.94888855 49.02711487 1061.96884155 C46.78512168 1062.0279107 44.54306465 1062.07451597 42.30078125 1062.12109375 C40.8261516 1062.15938318 39.35154169 1062.19844074 37.87695312 1062.23828125 C28.53781454 1062.47819428 19.20530276 1062.54225252 9.86328125 1062.49609375 C10.33499074 1055.90378747 10.88262354 1051.29610554 15.92578125 1046.55859375 C21.78070221 1040.32593595 19.97359508 1030.87375904 19.78515625 1022.96875 C19.68722138 1016.20308269 20.21074635 1010.06565771 21.86328125 1003.49609375 C17.19626978 1003.95094506 12.52964232 1004.4096222 7.86328125 1004.87109375 C7.1767749 1004.93890045 6.49026855 1005.00670715 5.78295898 1005.0765686 C-3.19980061 1005.96669137 -12.16306724 1006.92541905 -21.10546875 1008.1640625 C-24.14195813 1008.49666765 -27.08472555 1008.55584663 -30.13671875 1008.49609375 C-29.894375 1009.23730469 -29.65203125 1009.97851562 -29.40234375 1010.7421875 C-28.47647728 1013.65154484 -27.58795064 1016.5691782 -26.72753906 1019.49853516 C-26.33479215 1020.82640921 -25.93313238 1022.15168069 -25.52246094 1023.47412109 C-22.90579592 1032.03149208 -21.73428217 1039.66829444 -22.63671875 1048.62109375 C-22.7135791 1049.40242676 -22.79043945 1050.18375977 -22.86962891 1050.98876953 C-23.57204767 1056.32186385 -25.12657233 1060.02942487 -28.13671875 1064.49609375 C-32.79565986 1067.84097455 -38.48643857 1068.59727209 -44.015625 1069.75 C-46.8819158 1070.43518341 -49.41260621 1071.3961514 -52.13671875 1072.49609375 C-54.94921875 1072.62109375 -54.94921875 1072.62109375 -57.13671875 1072.49609375 C-57.13671875 1071.83609375 -57.13671875 1071.17609375 -57.13671875 1070.49609375 C-57.79671875 1070.49609375 -58.45671875 1070.49609375 -59.13671875 1070.49609375 C-61.30314617 1065.64329633 -62.84407006 1061.70816307 -61.9140625 1056.37890625 C-60.40480392 1052.72331511 -57.23615743 1050.7748933 -54.13671875 1048.49609375 C-49.95678015 1044.60161726 -49.95678015 1044.60161726 -49.01171875 1039.12109375 C-48.99835999 1035.74624961 -48.99835999 1035.74624961 -49.63623047 1033.54492188 C-50.17889256 1031.32344858 -50.26609352 1029.37446225 -50.26953125 1027.08984375 C-50.27082031 1026.26355469 -50.27210938 1025.43726563 -50.2734375 1024.5859375 C-50.26957031 1023.73128906 -50.26570313 1022.87664062 -50.26171875 1021.99609375 C-50.26558594 1021.14144531 -50.26945312 1020.28679688 -50.2734375 1019.40625 C-50.27150391 1018.16681641 -50.27150391 1018.16681641 -50.26953125 1016.90234375 C-50.26840332 1016.15275391 -50.26727539 1015.40316406 -50.26611328 1014.63085938 C-50.13529622 1012.4726247 -49.72838716 1010.57133984 -49.13671875 1008.49609375 C-50.20148438 1008.398125 -51.26625 1008.30015625 -52.36328125 1008.19921875 C-62.0454029 1007.22887766 -70.84123347 1005.45355925 -80.13671875 1002.49609375 C-79.71515189 1006.78947888 -79.27154504 1011.08032217 -78.82421875 1015.37109375 C-78.70626953 1016.57507812 -78.58832031 1017.7790625 -78.46679688 1019.01953125 C-77.79216466 1025.38529161 -76.86634566 1031.31065838 -74.81298828 1037.3840332 C-73.54981517 1041.32905508 -72.95328765 1044.47368697 -74.13671875 1048.49609375 C-78.77388528 1056.4037822 -84.27885976 1063.29282726 -93.13671875 1066.49609375 C-94.20664063 1066.94339844 -95.2765625 1067.39070313 -96.37890625 1067.8515625 C-101.52100439 1068.7335232 -104.16051701 1067.11667259 -108.57421875 1064.62109375 C-109.30576172 1064.23050781 -110.03730469 1063.83992188 -110.79101562 1063.4375 C-112.58362742 1062.47675381 -114.36174845 1061.48905433 -116.13671875 1060.49609375 C-115.80199048 1054.51234719 -115.40267925 1050.09020506 -111.13671875 1045.49609375 C-108.49054776 1044.16035926 -105.99736285 1043.35428698 -103.13671875 1042.49609375 C-104.10361094 1038.06895075 -105.08952847 1033.65352526 -106.20703125 1029.26171875 C-109.01401836 1017.54531547 -109.43800955 1006.62257006 -108.54931641 994.58496094 C-108.20212545 987.82352382 -108.20212545 987.82352382 -111 981.8671875 C-113.29276919 979.61981968 -115.68578421 977.56750169 -118.13671875 975.49609375 C-127.02578959 964.87372042 -138.79792673 944.5483818 -137.96435547 930.61499023 C-137.86396973 929.53032471 -137.76358398 928.44565918 -137.66015625 927.328125 C-137.07769892 920.95896315 -137.45306642 915.13464443 -138.26171875 908.80859375 C-138.54538067 906.38048889 -138.82639699 903.95207421 -139.10546875 901.5234375 C-139.18391022 900.8510907 -139.26235168 900.1787439 -139.34317017 899.48602295 C-140.47323949 889.73447846 -141.44492326 879.96600204 -142.4262085 870.19857788 C-142.75427959 866.94487302 -143.0881157 863.691796 -143.42236328 860.4387207 C-145.58568031 839.17474324 -146.32491894 818.15746314 -146.32202148 796.78930664 C-146.32194259 793.9552539 -146.32850117 791.12137109 -146.3425293 788.28735352 C-146.41502675 773.38230439 -146.30304481 758.49985713 -145.67822266 743.60595703 C-144.45806934 714.36106285 -143.96320719 685.20114343 -144.01171875 655.93359375 C-144.01312371 654.99689763 -144.01452866 654.06020152 -144.01597619 653.09512067 C-144.03854061 638.56205278 -144.08541314 624.02908412 -144.13671875 609.49609375 C-144.19134312 593.99610966 -144.23808385 578.49615936 -144.26171875 562.99609375 C-144.26329735 562.07109447 -144.26487595 561.1460952 -144.26650238 560.19306564 C-144.3131053 530.91411733 -143.86734996 501.73271467 -142.13671875 472.49609375 C-142.82725342 473.20076782 -142.82725342 473.20076782 -143.53173828 473.91967773 C-144.14645996 474.54173096 -144.76118164 475.16378418 -145.39453125 475.8046875 C-145.9992627 476.41884521 -146.60399414 477.03300293 -147.22705078 477.66577148 C-150.29611611 480.60731876 -153.66012471 483.06102463 -157.13671875 485.49609375 C-157.87438477 486.01300781 -158.61205078 486.52992188 -159.37207031 487.0625 C-182.10270381 502.5991557 -209.95771945 508.14192482 -237.07421875 503.43359375 C-259.00191365 498.1974962 -276.62361397 485.67321464 -293.51171875 471.30859375 C-294.34968994 470.5966687 -294.34968994 470.5966687 -295.20458984 469.87036133 C-301.99751494 464.01108493 -307.97762784 457.7816678 -313.38671875 450.62109375 C-313.94391602 449.88568359 -314.50111328 449.15027344 -315.07519531 448.39257812 C-335.53372138 421.06026644 -348.24974453 395.56409102 -344.74609375 360.59765625 C-339.70278786 334.92852245 -318.28289294 309.77881355 -300.76953125 291.3046875 C-298.73924005 289.13884273 -296.79302449 286.94873545 -294.859375 284.69921875 C-290.93216627 280.18548576 -286.71527846 275.9997446 -282.44921875 271.80859375 C-277.04067986 266.58163593 -277.04067986 266.58163593 -272.1171875 260.9140625 C-270.35741849 258.76554767 -268.66998535 257.17781481 -266.5637207 255.3918457 C-261.93647816 251.3804799 -257.62937031 247.09795663 -253.32421875 242.74609375 C-252.51106201 241.92915039 -251.69790527 241.11220703 -250.86010742 240.27050781 C-248.28318578 237.68146704 -245.7095425 235.08920638 -243.13671875 232.49609375 C-239.74384722 229.07646656 -236.34757218 225.66027226 -232.94921875 222.24609375 C-232.18440186 221.47297852 -231.41958496 220.69986328 -230.6315918 219.90332031 C-226.49483783 215.74795889 -222.27355258 211.76741676 -217.81799316 207.95471191 C-215.64715117 206.07136109 -213.63725702 204.05818705 -211.63671875 201.99609375 C-208.90842468 199.23048967 -206.15155041 196.58322344 -203.19921875 194.05859375 C-200.02635955 191.33990127 -197.07333493 188.468577 -194.13671875 185.49609375 C-191.26114216 182.58555574 -188.37797781 179.77185353 -185.26171875 177.12109375 C-181.1845483 173.63816677 -177.44019313 169.85905302 -173.69970703 166.02197266 C-170.35014637 162.61326865 -166.83911833 159.46064683 -163.22509766 156.33496094 C-159.66280651 153.19827904 -156.25641136 149.8985871 -152.82421875 146.62109375 C-147.24394859 141.3270846 -141.61170722 136.26716083 -135.5859375 131.484375 C-133.1319949 129.49225892 -130.82625281 127.39779627 -128.51171875 125.24609375 C-122.12367594 119.44336924 -115.25921329 114.2836423 -108.33935547 109.13818359 C-106.92417322 108.0831497 -105.51388388 107.02150288 -104.10986328 105.95166016 C-83.16847065 90.01584712 -60.10374422 78.89426999 -34.13671875 74.49609375 C-34.0121981 70.08538076 -33.92195348 65.67562518 -33.86206055 61.26367188 C-33.83706868 59.76609452 -33.80306248 58.26863724 -33.75952148 56.77148438 C-33.51396124 48.10465226 -33.41750017 41.49517703 -39.13671875 34.49609375 C-42.23659775 28.19331862 -42.25433374 20.786849 -40.01171875 14.18359375 C-31.41451111 1.86092947 -14.89532803 -9.34810242 0 0 Z M-110.10058594 144.16064453 C-113.53681998 147.13864972 -117.02073364 150.03251097 -120.57421875 152.87109375 C-126.5532183 157.71797504 -132.10237382 162.99717044 -137.69921875 168.2734375 C-140.77977887 171.17429828 -143.92752031 173.97995946 -147.1328125 176.7421875 C-151.35049775 180.43368979 -155.44897868 184.26035537 -159.57226562 188.05664062 C-162.09033617 190.37351702 -164.61373872 192.68456662 -167.13671875 194.99609375 C-168.13804109 195.91404041 -169.13934315 196.83200918 -170.140625 197.75 C-172.12703757 199.57093206 -174.11406262 201.39119231 -176.1015625 203.2109375 C-177.09248886 204.11844487 -178.0833742 205.02599705 -179.07421875 205.93359375 C-179.81067627 206.60817627 -179.81067627 206.60817627 -180.56201172 207.29638672 C-184.30494535 210.72751071 -188.03421651 214.17322245 -191.76171875 217.62109375 C-195.48684307 221.06643757 -199.22882 224.48903196 -203.01171875 227.87109375 C-207.32657451 231.74104622 -211.58277747 235.67108893 -215.82421875 239.62109375 C-216.44216309 240.19520996 -217.06010742 240.76932617 -217.69677734 241.36083984 C-220.72034141 244.18396449 -223.69126519 247.04058639 -226.59375 249.98828125 C-228.9814546 252.39769529 -231.43826458 254.6614563 -234.01171875 256.87109375 C-238.6218034 260.85051171 -242.86907531 265.15562363 -247.13671875 269.49609375 C-251.98236152 274.42442667 -256.86419113 279.18942263 -262.10498047 283.69580078 C-265.96072911 287.11232211 -269.56696194 290.78285217 -273.19921875 294.43359375 C-273.96298828 295.19349609 -274.72675781 295.95339844 -275.51367188 296.73632812 C-280.26286929 301.49365077 -284.75814681 306.39810396 -289.13671875 311.49609375 C-290.10884747 312.59147024 -291.08272586 313.68529715 -292.05859375 314.77734375 C-305.70395584 330.21721 -321.91938822 349.57457372 -321.37890625 371.25390625 C-319.5163862 396.18764234 -306.16888472 415.88134037 -290.13671875 434.49609375 C-289.47929688 435.26308594 -288.821875 436.03007813 -288.14453125 436.8203125 C-278.36463122 447.9436054 -267.9106073 458.48741684 -256.13671875 467.49609375 C-255.23308594 468.20507812 -254.32945312 468.9140625 -253.3984375 469.64453125 C-239.47203965 480.24198817 -223.71081159 485.14772444 -206.13671875 483.49609375 C-187.27626748 480.64472865 -172.52644995 472.28348795 -157.13671875 461.49609375 C-155.3442563 460.24646774 -153.55109003 458.997861 -151.75756836 457.74975586 C-150.18748344 456.65644323 -148.61910316 455.56068387 -147.05078125 454.46484375 C-143.51018962 452.07280865 -139.87441817 449.89525189 -136.16015625 447.78515625 C-134.08987468 446.5738158 -134.08987468 446.5738158 -132.51171875 444.8359375 C-131.13671875 443.49609375 -131.13671875 443.49609375 -128.76171875 443.43359375 C-123.73795999 445.46701991 -121.66864657 449.37313501 -119.44921875 454.05859375 C-117.54757596 459.69905966 -116.8147762 465.6031581 -116.13671875 471.49609375 C-116.00209229 472.64343994 -116.00209229 472.64343994 -115.86474609 473.81396484 C-114.79630574 484.39019587 -114.98613112 495.00431711 -115.01171875 505.62109375 C-115.01293732 506.72414856 -115.01415588 507.82720337 -115.01541138 508.96368408 C-115.04363622 531.37105424 -115.2799782 553.77680239 -115.54288483 576.18245697 C-115.57376621 578.832263 -115.60370352 581.48207836 -115.63348389 584.13189697 C-116.23190662 636.7255985 -116.23190662 636.7255985 -117.69921875 658.99609375 C-118.19247237 666.51050437 -118.23532903 673.968842 -118.13671875 681.49609375 C-117.36328125 681.29113281 -116.58984375 681.08617187 -115.79296875 680.875 C-99.13014113 676.56493691 -82.20609958 675.33808256 -66.5078125 683.921875 C-55.63611703 691.13982109 -46.44692779 700.81515259 -42.55078125 713.38671875 C-39.84233144 727.18448195 -44.06913988 740.73282189 -51.13671875 752.49609375 C-53.62370553 755.99392032 -56.33585575 759.24650094 -59.13671875 762.49609375 C-68.84037378 772.33119586 -68.84037378 772.33119586 -73.08203125 784.61328125 C-71.8244758 789.77861232 -69.28976885 793.44955022 -66.32421875 797.80859375 C-59.15476244 808.42008095 -54.6308507 817.40901365 -56.13671875 830.49609375 C-59.45112949 845.93065738 -69.08279313 860.24517049 -82.12158203 869.10888672 C-85.06944129 871.00807461 -88.0878439 872.76516694 -91.13671875 874.49609375 C-91.73597168 874.84752441 -92.33522461 875.19895508 -92.95263672 875.56103516 C-100.5537507 879.97531477 -107.18377511 882.89053453 -116.13671875 881.49609375 C-117.12671875 881.16609375 -118.11671875 880.83609375 -119.13671875 880.49609375 C-119.11725611 885.65636498 -119.06541199 890.81494087 -118.98413086 895.97460938 C-118.96099907 897.72809603 -118.94656646 899.48172067 -118.94116211 901.23535156 C-118.93183676 903.76323959 -118.8907724 906.28897192 -118.84375 908.81640625 C-118.84964897 909.98394943 -118.84964897 909.98394943 -118.85566711 911.17507935 C-118.70120639 916.99643899 -117.14720739 919.31385701 -113.13671875 923.49609375 C-111.92993164 925.50317383 -111.92993164 925.50317383 -111.109375 927.265625 C-110.79524658 927.92256348 -110.48111816 928.57950195 -110.1574707 929.25634766 C-109.84124756 929.93358887 -109.52502441 930.61083008 -109.19921875 931.30859375 C-103.81238005 942.44334318 -97.56634665 952.22493882 -87.69921875 959.87109375 C-87.09086182 960.34369629 -86.48250488 960.81629883 -85.85571289 961.30322266 C-62.51730087 979.0388553 -38.12548631 982.02663803 -9.54663086 981.83227539 C-5.81277057 981.80852092 -2.07962082 981.81175932 1.65429688 981.81835938 C27.57710367 981.78837834 46.66956782 978.82931489 66.86328125 961.49609375 C67.83974609 960.68205078 67.83974609 960.68205078 68.8359375 959.8515625 C79.30359746 950.39615977 81.9474752 936.92941138 82.86328125 923.49609375 C83.02878126 917.88425017 83.05216128 912.27414054 83.06640625 906.66015625 C83.07322142 904.97647078 83.08007885 903.29278548 83.0869751 901.60910034 C83.10282051 897.06177397 83.1091534 892.51448442 83.11166382 887.96713257 C83.11274396 886.06651767 83.11447551 884.16590303 83.11685181 882.26528931 C83.1532146 852.47784014 82.54976461 822.75898817 81.36328125 792.99609375 C81.29222811 791.20836418 81.22118317 789.42063428 81.15014648 787.63290405 C81.11522095 786.75455556 81.08029541 785.87620707 81.04431152 784.97124195 C80.87343341 780.66837313 80.70358747 776.36546531 80.53515625 772.0625 C80.50289948 771.23981565 80.4706427 770.41713131 80.43740845 769.56951714 C79.28342053 739.86404491 79.73871417 710.22818026 80.50244141 680.52026367 C81.68064445 633.86241958 80.52024113 587.15582429 79.86328125 540.49609375 C77.49401007 539.38643749 75.12432261 538.27768534 72.75439453 537.16943359 C72.09139847 536.85880478 71.4284024 536.54817596 70.74531555 536.22813416 C66.71852343 534.34606164 62.67546559 532.51009771 58.60546875 530.72265625 C29.09126214 517.69576379 29.09126214 517.69576379 21.86328125 506.49609375 C21.45464844 505.89023437 21.04601563 505.284375 20.625 504.66015625 C15.98769412 496.34169002 16.54791401 485.67768211 18.828125 476.6953125 C21.89272027 468.4253467 26.31318246 461.05053294 31.0793457 453.66040039 C35.13658291 447.34669378 37.59322791 442.2077665 36.44921875 434.59375 C34.2259834 426.63456745 21.78058257 421.04910268 15.17578125 416.93359375 C4.5376582 410.19661597 -1.94005321 403.56191625 -5.40625 391.2109375 C-8.41570798 375.90615387 -5.87347105 359.37525321 2.17578125 345.953125 C14.06884761 328.63660014 31.99710616 321.70674473 51.42651367 316.06176758 C58.19750119 314.07572367 64.52182221 311.73924751 70.92578125 308.7578125 C74.17922852 307.36038768 77.45465875 306.44284969 80.86328125 305.49609375 C80.88668951 292.17626478 80.90433885 278.85644088 80.91509342 265.53659534 C80.92026104 259.34836399 80.92724399 253.16014695 80.9387207 246.97192383 C81.3988172 199.99470107 81.3988172 199.99470107 78.29858398 153.15942383 C78.04372389 150.8702027 77.81539358 148.57919567 77.58789062 146.28710938 C76.07026235 131.85669336 73.25588181 119.21141968 61.50585938 109.66723633 C4.80323753 69.23880634 -65.92626859 105.87542666 -110.10058594 144.16064453 Z M58.36328125 993.30859375 C52.9803735 996.05855749 47.71525774 998.02015278 41.86328125 999.49609375 C40.89300784 1003.28835956 40.94980577 1005.99042824 41.73828125 1009.80859375 C42.9108608 1016.15941051 43.30609589 1022.39433961 43.6171875 1028.83203125 C43.79440959 1032.40487786 43.79440959 1032.40487786 44.3828125 1035.53125 C44.93096711 1038.91376506 44.99573604 1042.13311887 44.98828125 1045.55859375 C44.99085938 1046.74582031 44.9934375 1047.93304687 44.99609375 1049.15625 C44.8802079 1052.0704382 44.53714302 1054.66694392 43.86328125 1057.49609375 C45.63447928 1057.35475876 47.40523412 1057.20786167 49.17578125 1057.05859375 C50.16191406 1056.97738281 51.14804688 1056.89617187 52.1640625 1056.8125 C54.95703724 1056.57796816 54.95703724 1056.57796816 57.86328125 1055.49609375 C58.60351446 1053.52213852 59.25089226 1051.51337513 59.86328125 1049.49609375 C60.5134525 1048.00960264 61.18130193 1046.53076313 61.86328125 1045.05859375 C66.11473493 1035.5562775 66.51838749 1028.13953059 64.86328125 1017.99609375 C63.29125428 1008.30567037 64.03665239 1000.13482284 65.86328125 990.49609375 C62.90145259 990.49609375 60.96936952 991.92830731 58.36328125 993.30859375 Z " fill="#000000" transform="translate(1212.13671875,123.50390625)"/>
<path d="M0 0 C5.01514174 3.24509171 6.31842965 7.45167142 8 13 C9.37274775 21.23648651 4.82925373 29.78651562 0.125 36.375 C-5.79695944 43.60128975 -11.81988247 47.69820062 -21 50 C-23.8359375 50.1015625 -23.8359375 50.1015625 -26 50 C-26.04125 50.804375 -26.0825 51.60875 -26.125 52.4375 C-28.03545768 60.21579199 -33.99911906 66.38788624 -38.96484375 72.4921875 C-42.03863402 76.27985229 -45.01698116 80.14071938 -48 84 C-48.99 83.505 -48.99 83.505 -50 83 C-47.66779322 71.64583544 -43.59146658 61.53840736 -37 52 C-38.09699219 51.66226563 -39.19398437 51.32453125 -40.32421875 50.9765625 C-41.77867907 50.52614898 -43.23310431 50.07562216 -44.6875 49.625 C-45.7693457 49.29242188 -45.7693457 49.29242188 -46.87304688 48.953125 C-50.6528973 47.77947281 -54.34920274 46.54096768 -58 45 C-58.11166504 45.59039062 -58.22333008 46.18078125 -58.33837891 46.7890625 C-60.33110475 53.44814931 -67.24241016 58.08636396 -72.625 62 C-73.27984375 62.50144531 -73.9346875 63.00289063 -74.609375 63.51953125 C-75.24617188 63.98746094 -75.88296875 64.45539063 -76.5390625 64.9375 C-77.39298584 65.56978516 -77.39298584 65.56978516 -78.26416016 66.21484375 C-80.52837281 67.23899395 -81.70628169 66.80873506 -84 66 C-83.39857135 61.00124053 -81.16434323 57.05179931 -78.8125 52.6875 C-78.40974854 51.93218994 -78.00699707 51.17687988 -77.59204102 50.39868164 C-74.78820119 45.22971322 -71.76331604 40.5352783 -68 36 C-68.53109375 35.33355469 -69.0621875 34.66710937 -69.609375 33.98046875 C-75.23555569 26.6397403 -79.03275178 19.80348934 -80.5625 10.625 C-79.7748261 6.94918847 -77.80677043 5.38575487 -75 3 C-70.38072465 5.45263588 -67.02140217 8.70441642 -63.3125 12.3125 C-54.05918083 21.07485634 -44.35177438 27.85191625 -31.1875 28.375 C-26.20505893 28.17324622 -23.47126114 26.56618121 -20.0625 22.9375 C-18.04499261 20.17632775 -18.04499261 20.17632775 -16.76953125 17.76953125 C-12.81242305 10.62013408 -7.48445626 3.74222813 0 0 Z " fill="#030200" transform="translate(1136,387)"/>
<path d="M0 0 C2.97963802 1.6096895 5.19746076 3.09943509 7 6 C7.65047818 9.11075451 7.70153203 11.89587597 7 15 C4.63718351 17.36281649 4.09388178 17.29567658 0.875 17.3125 C-2.45605987 17.25387335 -4.99393518 16.78211322 -8.0625 15.5 C-12.33309645 13.72553746 -15.3709374 13.4773639 -20 14 C-26.00801077 16.76368496 -28.61201106 21.60039262 -32 27 C-36.95483871 34.69032258 -36.95483871 34.69032258 -41.375 36 C-42.24125 36 -43.1075 36 -44 36 C-46.8332557 33.1667443 -47.93129753 31.43511567 -48.5625 27.4375 C-47.99070479 17.94927316 -42.92724046 9.78606005 -36.44921875 3.13671875 C-25.24720503 -6.63601092 -13.14678634 -5.54549069 0 0 Z " fill="#040300" transform="translate(1033,552)"/>
</svg>
