<?xml version="1.0" encoding="UTF-8"?>
<svg version="1.1" xmlns="http://www.w3.org/2000/svg" width="3840" height="2160">
<path d="M0 0 C0.83047852 0.34788574 1.66095703 0.69577148 2.51660156 1.05419922 C27.81490854 11.75431551 50.54789863 25.90175253 72 43 C72.9178125 43.71285156 73.835625 44.42570312 74.78125 45.16015625 C80.7201875 49.86181511 86.08168188 54.94936832 91.37719727 60.34741211 C94.13840897 63.15882018 96.90044477 65.85709951 99.9375 68.375 C109.25101657 76.30727471 117.33819514 85.94455343 124.9453125 95.48828125 C126.93882442 97.92521692 129.03196761 100.20629246 131.1875 102.5 C164.28386561 138.99825685 184.00846209 187.46569988 195 235 C195.185625 235.75474609 195.37125 236.50949219 195.5625 237.28710938 C201.64928921 262.07809461 203.22622345 288.03431514 203.1875 313.5 C203.18659363 314.62317627 203.18659363 314.62317627 203.18566895 315.76904297 C202.99937611 402.1543933 181.50032174 471.69983963 122.3359375 536.41796875 C121.1023378 537.78152963 119.87332822 539.15011643 118.6875 540.55541992 C112.9075042 547.3595679 106.56763318 553.61844005 100.25878906 559.92651367 C98.26336586 561.92411952 96.27608944 563.92959353 94.2890625 565.93554688 C87.88463665 572.3675062 81.47413858 578.54151784 74.32177734 584.14575195 C71.89937763 586.08036035 69.63772017 588.13195307 67.375 590.25 C34.35668877 620.24770863 -6.28763815 643.44885563 -45.1875 664.75 C-46.10200928 665.25152588 -47.01651855 665.75305176 -47.95874023 666.26977539 C-49.23793335 666.9638147 -49.23793335 666.9638147 -50.54296875 667.671875 C-51.28571045 668.0750293 -52.02845215 668.47818359 -52.79370117 668.89355469 C-55.14933422 670.07489019 -57.54929028 671.03423645 -60 672 C-48.29167675 672.03096994 -36.58335713 672.05025603 -24.875 672.0625 C-23.99560886 672.0635033 -23.11621773 672.06450661 -22.21017838 672.06554031 C2.30491869 672.09170438 26.80229338 671.92491611 51.3125 671.4375 C180.6752008 668.93002008 180.6752008 668.93002008 213.265625 700.171875 C237.71399614 725.61813884 243.53024854 768.06813591 243.04638672 801.77026367 C242.23731076 828.09062932 238.86380171 857.10213896 219.23022461 876.36230469 C213.66856913 881.5653705 207.724403 885.39934449 201 889 C199.88882813 889.61488281 198.77765625 890.22976563 197.6328125 890.86328125 C155.26405793 913.29662409 98.65739336 908.63112004 52.18475342 909.99023438 C29.99177445 910.6449868 7.82300146 911.63221382 -14.35202026 912.73260498 C-95.93954415 916.77963747 -177.32133987 918.14149475 -379.76977539 905.42700195 C-384.20309865 904.51968838 -388.55870125 903.78951857 -393.0625 903.3125 C-414.33179263 900.05954936 -431.25980609 886.8318903 -446 872 C-446.75539063 871.25363281 -447.51078125 870.50726562 -448.2890625 869.73828125 C-471.73797201 845.38749061 -483.63043568 809.72406612 -483.3515625 776.31738281 C-482.17158893 729.29871375 -457.44989307 687.33043736 -426.31640625 653.53515625 C-424.43270677 651.47356947 -422.61363292 649.38279934 -420.8125 647.25 C-412.63884441 637.85029608 -403.54243109 628.99829224 -394 621 C-392.90762964 620.05740683 -391.81661856 619.11323733 -390.7265625 618.16796875 C-389.50533224 617.11183587 -388.283977 616.0558475 -387.0625 615 C-386.50103271 614.51313721 -385.93956543 614.02627441 -385.36108398 613.5246582 C-369.85825712 600.19805707 -352.93599234 588.41747379 -336 577 C-335.39269043 576.58830566 -334.78538086 576.17661133 -334.15966797 575.75244141 C-318.68126126 565.26599737 -302.81456314 555.44134929 -286.765625 545.85546875 C-270.60302392 536.19325766 -254.5711065 526.31547878 -238.68017578 516.21264648 C-234.36961429 513.47700884 -230.03041331 510.8003172 -225.65405273 508.17138672 C-196.78834609 490.79896212 -169.14787387 471.22819982 -143 450 C-141.77750191 449.01542859 -140.55483082 448.03107196 -139.33203125 447.046875 C-122.84033719 433.94764228 -122.84033719 433.94764228 -107.52734375 419.52734375 C-105.27894426 417.27894426 -102.8420235 415.27430174 -100.3828125 413.26171875 C-98.86422362 412.02785702 -98.86422362 412.02785702 -98 410 C-97.34 410 -96.68 410 -96 410 C-95.61134766 409.11441406 -95.61134766 409.11441406 -95.21484375 408.2109375 C-93.90825284 405.83302607 -92.55454269 404.45552572 -90.5625 402.625 C-85.24423204 397.44161565 -80.8261579 391.63150281 -76.33300781 385.73876953 C-75.12000525 384.15653432 -73.88535456 382.59095485 -72.6484375 381.02734375 C-59.4144146 364.02887264 -49.97808371 345.70884272 -48 324 C-47.93441895 323.33564941 -47.86883789 322.67129883 -47.80126953 321.98681641 C-45.48146633 297.43695665 -49.39716852 272.05547351 -64.5625 251.9375 C-65.68848488 250.60793303 -66.83312394 249.29382786 -68 248 C-68.495 247.41347656 -68.99 246.82695312 -69.5 246.22265625 C-82.92330765 231.42345957 -105.08257113 223.06816629 -124.55078125 221.76171875 C-142.84650803 221.40074387 -163.52562624 225.93302822 -179 236 C-180.19496094 236.76957031 -180.19496094 236.76957031 -181.4140625 237.5546875 C-193.59081725 245.73535555 -203.99832723 255.74168104 -211.6875 268.25 C-212.22225952 269.10682373 -212.22225952 269.10682373 -212.76782227 269.98095703 C-219.37474638 281.14264302 -222.08260332 293.01290861 -224.1875 305.625 C-224.55594854 307.7903289 -224.92827924 309.95479039 -225.30891418 312.11801147 C-225.64852005 314.05323522 -225.97540608 315.99067861 -226.30151367 317.92822266 C-227 321 -227 321 -229 324 C-229.58471464 326.3146535 -230.08972699 328.64976546 -230.55078125 330.9921875 C-230.68960724 331.68600525 -230.82843323 332.379823 -230.97146606 333.09466553 C-231.26881733 334.58189786 -231.56346963 336.06967188 -231.85568237 337.55792236 C-232.62173702 341.44351693 -233.4186264 345.32281585 -234.2109375 349.203125 C-234.52195946 350.73108935 -234.83283555 352.25908341 -235.14355469 353.78710938 C-235.36319885 354.86641724 -235.36319885 354.86641724 -235.58728027 355.9675293 C-235.9549401 357.778099 -236.3199411 359.58920815 -236.68457031 361.40039062 C-240.66090321 380.86450804 -247.37127085 399.21938857 -264.60400391 410.73901367 C-290.69699941 427.26506792 -322.60971276 431.50933442 -353 431 C-353.06058594 432.25554687 -353.12117188 433.51109375 -353.18359375 434.8046875 C-353.26817506 436.49479438 -353.35281423 438.18489836 -353.4375 439.875 C-353.4789917 440.74745361 -353.5204834 441.61990723 -353.56323242 442.51879883 C-353.78723153 446.95861846 -354.13382636 451.28997181 -354.8125 455.6875 C-355.64576387 463.90715377 -349.68297916 470.12381265 -345.08642578 476.43286133 C-341.24535315 481.77432771 -341.24535315 481.77432771 -341 485 C-343.0453041 487.86342574 -344.60432543 488.86530227 -347.9375 490 C-351 490 -351 490 -353.6875 488.375 C-356.87390196 485.10247906 -359 482.66366827 -359 478 C-361.48857345 480.3097538 -363.2809597 482.78017401 -365.125 485.625 C-367.91666667 489.91666667 -367.91666667 489.91666667 -369 491 C-372.84500171 491.36273601 -375.17819906 491.51362559 -378.5 489.4375 C-380 487 -380 487 -380.0625 483.75 C-379.12307041 480.43436617 -378.55108877 479.23605043 -376.625 476.625 C-369.21075171 465.6433163 -370.54082761 449.28560895 -371.87890625 436.796875 C-372.00038614 433.9910815 -371.59582379 431.72949772 -371 429 C-372.27556763 428.93087402 -372.27556763 428.93087402 -373.5769043 428.86035156 C-382.11086408 428.33360005 -390.40525113 427.29083868 -398.8125 425.75 C-400.0308252 425.52675049 -401.24915039 425.30350098 -402.50439453 425.07348633 C-424.13219675 420.99046726 -443.95019892 414.88217027 -457.6875 396.3125 C-472.95640099 372.99599002 -476.22664271 347.82530228 -476.25 320.4375 C-476.25067474 319.71267426 -476.25134949 318.98784851 -476.25204468 318.24105835 C-476.14098408 241.64557603 -455.48962368 172.3113074 -409 111 C-408.5261084 110.37448242 -408.0522168 109.74896484 -407.56396484 109.10449219 C-404.86975807 105.5706428 -402.12458524 102.08312078 -399.32421875 98.6328125 C-398.06099978 97.07521507 -396.81138593 95.50661309 -395.5625 93.9375 C-388.56372621 85.3453031 -380.74640546 77.53418539 -372.9375 69.6875 C-372.38287079 69.12760376 -371.82824158 68.56770752 -371.25680542 67.99084473 C-364.16031406 60.84235722 -356.89551042 54.26702526 -349 48 C-347.16411563 46.41962531 -345.33020425 44.83694926 -343.5 43.25 C-317.11467611 21.29060141 -285.32624484 5.14394047 -253 -6 C-252.32227539 -6.2376709 -251.64455078 -6.4753418 -250.94628906 -6.72021484 C-177.2873965 -32.04625725 -76.61012731 -31.18794912 0 0 Z " fill="#7CEA00" transform="translate(1874,204)"/>
<path d="M0 0 C0.83047852 0.34788574 1.66095703 0.69577148 2.51660156 1.05419922 C27.81490854 11.75431551 50.54789863 25.90175253 72 43 C72.9178125 43.71285156 73.835625 44.42570312 74.78125 45.16015625 C80.7201875 49.86181511 86.08168188 54.94936832 91.37719727 60.34741211 C94.13840897 63.15882018 96.90044477 65.85709951 99.9375 68.375 C109.25101657 76.30727471 117.33819514 85.94455343 124.9453125 95.48828125 C126.93882442 97.92521692 129.03196761 100.20629246 131.1875 102.5 C164.28386561 138.99825685 184.00846209 187.46569988 195 235 C195.185625 235.75474609 195.37125 236.50949219 195.5625 237.28710938 C201.64928921 262.07809461 203.22622345 288.03431514 203.1875 313.5 C203.18659363 314.62317627 203.18659363 314.62317627 203.18566895 315.76904297 C202.99937611 402.1543933 181.50032174 471.69983963 122.3359375 536.41796875 C121.1023378 537.78152963 119.87332822 539.15011643 118.6875 540.55541992 C112.9075042 547.3595679 106.56763318 553.61844005 100.25878906 559.92651367 C98.26336586 561.92411952 96.27608944 563.92959353 94.2890625 565.93554688 C87.88463665 572.3675062 81.47413858 578.54151784 74.32177734 584.14575195 C71.89937763 586.08036035 69.63772017 588.13195307 67.375 590.25 C34.35668877 620.24770863 -6.28763815 643.44885563 -45.1875 664.75 C-46.10200928 665.25152588 -47.01651855 665.75305176 -47.95874023 666.26977539 C-49.23793335 666.9638147 -49.23793335 666.9638147 -50.54296875 667.671875 C-51.28571045 668.0750293 -52.02845215 668.47818359 -52.79370117 668.89355469 C-55.14933422 670.07489019 -57.54929028 671.03423645 -60 672 C-48.29167675 672.03096994 -36.58335713 672.05025603 -24.875 672.0625 C-23.99560886 672.0635033 -23.11621773 672.06450661 -22.21017838 672.06554031 C2.30491869 672.09170438 26.80229338 671.92491611 51.3125 671.4375 C180.6752008 668.93002008 180.6752008 668.93002008 213.265625 700.171875 C237.71399614 725.61813884 243.53024854 768.06813591 243.04638672 801.77026367 C242.23731076 828.09062932 238.86380171 857.10213896 219.23022461 876.36230469 C213.66856913 881.5653705 207.724403 885.39934449 201 889 C199.88882813 889.61488281 198.77765625 890.22976563 197.6328125 890.86328125 C155.26405793 913.29662409 98.65739336 908.63112004 52.18475342 909.99023438 C29.99177445 910.6449868 7.82300146 911.63221382 -14.35202026 912.73260498 C-95.93954415 916.77963747 -177.32133987 918.14149475 -379.76977539 905.42700195 C-384.20309865 904.51968838 -388.55870125 903.78951857 -393.0625 903.3125 C-414.33179263 900.05954936 -431.25980609 886.8318903 -446 872 C-446.75539063 871.25363281 -447.51078125 870.50726562 -448.2890625 869.73828125 C-471.73797201 845.38749061 -483.63043568 809.72406612 -483.3515625 776.31738281 C-482.17158893 729.29871375 -457.44989307 687.33043736 -426.31640625 653.53515625 C-424.43270677 651.47356947 -422.61363292 649.38279934 -420.8125 647.25 C-412.63884441 637.85029608 -403.54243109 628.99829224 -394 621 C-392.90762964 620.05740683 -391.81661856 619.11323733 -390.7265625 618.16796875 C-389.50533224 617.11183587 -388.283977 616.0558475 -387.0625 615 C-386.50103271 614.51313721 -385.93956543 614.02627441 -385.36108398 613.5246582 C-369.85825712 600.19805707 -352.93599234 588.41747379 -336 577 C-335.39269043 576.58830566 -334.78538086 576.17661133 -334.15966797 575.75244141 C-318.68126126 565.26599737 -302.81456314 555.44134929 -286.765625 545.85546875 C-270.60302392 536.19325766 -254.5711065 526.31547878 -238.68017578 516.21264648 C-234.36961429 513.47700884 -230.03041331 510.8003172 -225.65405273 508.17138672 C-196.78834609 490.79896212 -169.14787387 471.22819982 -143 450 C-141.77750191 449.01542859 -140.55483082 448.03107196 -139.33203125 447.046875 C-122.84033719 433.94764228 -122.84033719 433.94764228 -107.52734375 419.52734375 C-105.27894426 417.27894426 -102.8420235 415.27430174 -100.3828125 413.26171875 C-98.86422362 412.02785702 -98.86422362 412.02785702 -98 410 C-97.34 410 -96.68 410 -96 410 C-95.61134766 409.11441406 -95.61134766 409.11441406 -95.21484375 408.2109375 C-93.90825284 405.83302607 -92.55454269 404.45552572 -90.5625 402.625 C-85.24423204 397.44161565 -80.8261579 391.63150281 -76.33300781 385.73876953 C-75.12000525 384.15653432 -73.88535456 382.59095485 -72.6484375 381.02734375 C-59.4144146 364.02887264 -49.97808371 345.70884272 -48 324 C-47.93441895 323.33564941 -47.86883789 322.67129883 -47.80126953 321.98681641 C-45.48146633 297.43695665 -49.39716852 272.05547351 -64.5625 251.9375 C-65.68848488 250.60793303 -66.83312394 249.29382786 -68 248 C-68.495 247.41347656 -68.99 246.82695312 -69.5 246.22265625 C-82.92330765 231.42345957 -105.08257113 223.06816629 -124.55078125 221.76171875 C-142.84650803 221.40074387 -163.52562624 225.93302822 -179 236 C-180.19496094 236.76957031 -180.19496094 236.76957031 -181.4140625 237.5546875 C-193.59081725 245.73535555 -203.99832723 255.74168104 -211.6875 268.25 C-212.22225952 269.10682373 -212.22225952 269.10682373 -212.76782227 269.98095703 C-219.37474638 281.14264302 -222.08260332 293.01290861 -224.1875 305.625 C-224.55594854 307.7903289 -224.92827924 309.95479039 -225.30891418 312.11801147 C-225.64852005 314.05323522 -225.97540608 315.99067861 -226.30151367 317.92822266 C-227 321 -227 321 -229 324 C-229.58471464 326.3146535 -230.08972699 328.64976546 -230.55078125 330.9921875 C-230.68960724 331.68600525 -230.82843323 332.379823 -230.97146606 333.09466553 C-231.26881733 334.58189786 -231.56346963 336.06967188 -231.85568237 337.55792236 C-232.62173702 341.44351693 -233.4186264 345.32281585 -234.2109375 349.203125 C-234.52195946 350.73108935 -234.83283555 352.25908341 -235.14355469 353.78710938 C-235.36319885 354.86641724 -235.36319885 354.86641724 -235.58728027 355.9675293 C-235.9549401 357.778099 -236.3199411 359.58920815 -236.68457031 361.40039062 C-240.66090321 380.86450804 -247.37127085 399.21938857 -264.60400391 410.73901367 C-290.69699941 427.26506792 -322.60971276 431.50933442 -353 431 C-353.06058594 432.25554687 -353.12117188 433.51109375 -353.18359375 434.8046875 C-353.26817506 436.49479438 -353.35281423 438.18489836 -353.4375 439.875 C-353.4789917 440.74745361 -353.5204834 441.61990723 -353.56323242 442.51879883 C-353.78723153 446.95861846 -354.13382636 451.28997181 -354.8125 455.6875 C-355.64576387 463.90715377 -349.68297916 470.12381265 -345.08642578 476.43286133 C-341.24535315 481.77432771 -341.24535315 481.77432771 -341 485 C-343.0453041 487.86342574 -344.60432543 488.86530227 -347.9375 490 C-351 490 -351 490 -353.6875 488.375 C-356.87390196 485.10247906 -359 482.66366827 -359 478 C-361.48857345 480.3097538 -363.2809597 482.78017401 -365.125 485.625 C-367.91666667 489.91666667 -367.91666667 489.91666667 -369 491 C-372.84500171 491.36273601 -375.17819906 491.51362559 -378.5 489.4375 C-380 487 -380 487 -380.0625 483.75 C-379.12307041 480.43436617 -378.55108877 479.23605043 -376.625 476.625 C-369.21075171 465.6433163 -370.54082761 449.28560895 -371.87890625 436.796875 C-372.00038614 433.9910815 -371.59582379 431.72949772 -371 429 C-372.27556763 428.93087402 -372.27556763 428.93087402 -373.5769043 428.86035156 C-382.11086408 428.33360005 -390.40525113 427.29083868 -398.8125 425.75 C-400.0308252 425.52675049 -401.24915039 425.30350098 -402.50439453 425.07348633 C-424.13219675 420.99046726 -443.95019892 414.88217027 -457.6875 396.3125 C-472.95640099 372.99599002 -476.22664271 347.82530228 -476.25 320.4375 C-476.25067474 319.71267426 -476.25134949 318.98784851 -476.25204468 318.24105835 C-476.14098408 241.64557603 -455.48962368 172.3113074 -409 111 C-408.5261084 110.37448242 -408.0522168 109.74896484 -407.56396484 109.10449219 C-404.86975807 105.5706428 -402.12458524 102.08312078 -399.32421875 98.6328125 C-398.06099978 97.07521507 -396.81138593 95.50661309 -395.5625 93.9375 C-388.56372621 85.3453031 -380.74640546 77.53418539 -372.9375 69.6875 C-372.38287079 69.12760376 -371.82824158 68.56770752 -371.25680542 67.99084473 C-364.16031406 60.84235722 -356.89551042 54.26702526 -349 48 C-347.16411563 46.41962531 -345.33020425 44.83694926 -343.5 43.25 C-317.11467611 21.29060141 -285.32624484 5.14394047 -253 -6 C-252.32227539 -6.2376709 -251.64455078 -6.4753418 -250.94628906 -6.72021484 C-177.2873965 -32.04625725 -76.61012731 -31.18794912 0 0 Z M-219 6 C-220.74869251 6.30992632 -222.49738988 6.61982525 -224.24609375 6.9296875 C-244.4566027 10.67639209 -263.53964237 18.11896273 -282 27 C-282.68964844 27.32436035 -283.37929687 27.6487207 -284.08984375 27.98291016 C-302.45271768 36.6229466 -319.19431906 47.30061309 -335 60 C-335.98097656 60.76828125 -336.96195313 61.5365625 -337.97265625 62.328125 C-354.70292653 75.63349459 -370.9307488 91.07137261 -384 108 C-385.00497603 109.27622463 -386.01020224 110.55225228 -387.015625 111.828125 C-410.80662519 142.24003698 -431.84677944 176.85241345 -443 214 C-443.29600098 214.96663574 -443.59200195 215.93327148 -443.89697266 216.92919922 C-450.55381852 238.98543266 -455.18977398 261.86550592 -454 285 C-452.783125 284.505 -451.56625 284.01 -450.3125 283.5 C-438.14696764 279.53956968 -424.54633767 282.28567359 -413.04296875 287.28515625 C-401.06315388 293.89153649 -395.37191546 304.393222 -390.96484375 316.94921875 C-388.97788831 324.01908346 -388.70112387 331.0148789 -388.625 338.3125 C-388.61098145 339.24376709 -388.59696289 340.17503418 -388.58251953 341.13452148 C-388.62410597 347.09364532 -389.48163078 351.57962792 -392 357 C-398.26766597 361.97090749 -410.02252147 360.40378921 -417.50390625 359.796875 C-423.06487078 358.93120878 -428.09982545 356.8773057 -433.25 354.6875 C-433.92393799 354.40382568 -434.59787598 354.12015137 -435.29223633 353.82788086 C-441.87520326 350.8967788 -446.66990819 347.30736275 -450.25 340.875 C-450.72953125 340.02679687 -451.2090625 339.17859375 -451.703125 338.3046875 C-452.13109375 337.54414062 -452.5590625 336.78359375 -453 336 C-453.99 334.515 -453.99 334.515 -455 333 C-456.04664598 352.97349417 -451.1174589 372.43420184 -438.26171875 388.12109375 C-421.79701224 406.15386755 -387.96139705 408.72841706 -365 410 C-359.41602056 410.20380265 -353.83748487 410.29406345 -348.25 410.3125 C-347.48498169 410.31511841 -346.71996338 410.31773682 -345.9317627 410.32043457 C-332.30176382 410.32540151 -319.31676333 409.03757801 -306 406 C-305.26958496 405.83983398 -304.53916992 405.67966797 -303.78662109 405.51464844 C-290.32683885 402.50369739 -274.05463527 398.01114166 -265 387 C-263.97853884 383.89834066 -263.59075878 380.77751688 -263.19921875 377.54296875 C-263.07311722 376.64000565 -262.94701569 375.73704254 -262.8170929 374.80671692 C-262.42077627 371.93592581 -262.05378968 369.06226073 -261.6875 366.1875 C-261.42315299 364.23476393 -261.15689782 362.28228517 -260.88867188 360.33007812 C-260.23697511 355.55608298 -259.61154486 350.77929754 -259 346 C-259.72010254 346.47195801 -260.44020508 346.94391602 -261.18212891 347.43017578 C-266.12112051 350.62784036 -270.88601924 353.694446 -276.375 355.875 C-277.33148437 356.26429688 -278.28796875 356.65359375 -279.2734375 357.0546875 C-285.75603901 359.30223702 -292.14186627 359.28542304 -298.9375 359.375 C-300.00935547 359.41238281 -301.08121094 359.44976563 -302.18554688 359.48828125 C-311.02103326 359.58675726 -311.02103326 359.58675726 -314.62890625 356.8515625 C-319.98858245 350.40582341 -319.15081588 344.04062864 -318.46875 336.1015625 C-316.78025892 320.08311423 -310.28366182 307.11862824 -298.20703125 296.41015625 C-287.29869583 288.48776695 -270.94698691 287.65108979 -258 289 C-254.51485713 289.70918605 -251.27575873 290.61726767 -248 292 C-247.608125 290.96875 -247.21625 289.9375 -246.8125 288.875 C-246.53277344 288.13894531 -246.25304688 287.40289062 -245.96484375 286.64453125 C-245.27667425 284.75833387 -244.62709028 282.85787259 -244.00390625 280.94921875 C-237.73368292 262.13854876 -227.59544821 246.39250128 -214 232 C-213.24074219 231.1646875 -212.48148438 230.329375 -211.69921875 229.46875 C-192.55346069 209.16359252 -165.95425708 200.74263858 -138.6640625 199.77734375 C-127.36387445 199.52616305 -116.98916265 200.33631 -106 203 C-104.76121094 203.26683594 -103.52242187 203.53367187 -102.24609375 203.80859375 C-83.88739976 208.11589943 -67.53906329 218.02506435 -54 231 C-53.2884375 231.64839844 -52.576875 232.29679688 -51.84375 232.96484375 C-46.46605422 238.02194613 -42.65332447 243.60668217 -39 250 C-38.4740625 250.91523438 -37.948125 251.83046875 -37.40625 252.7734375 C-29.02037587 268.38998881 -25.60502369 285.90464908 -25.6875 303.5 C-25.69168945 304.7274292 -25.69587891 305.9548584 -25.70019531 307.21948242 C-25.82534971 317.38960855 -26.81751397 327.07550694 -29 337 C-29.26683594 338.26199219 -29.53367187 339.52398438 -29.80859375 340.82421875 C-35.04398712 362.71979724 -46.05967184 382.49176335 -60 400 C-60.63292969 400.81339844 -61.26585937 401.62679688 -61.91796875 402.46484375 C-63.91373663 405.00378969 -65.94999153 407.50465756 -68 410 C-68.79019531 410.97710938 -69.58039063 411.95421875 -70.39453125 412.9609375 C-76.86329415 420.81773938 -83.8887852 428.10211193 -91.0625 435.3125 C-91.97209473 436.2312793 -92.88168945 437.15005859 -93.81884766 438.09667969 C-99.14156888 443.39548072 -104.6263098 448.30816436 -110.50830078 452.97973633 C-113.03217243 455.02608533 -115.4267471 457.17002924 -117.8125 459.375 C-123.93814544 464.93505376 -130.43185137 469.98103063 -137 475 C-137.74572266 475.57024902 -138.49144531 476.14049805 -139.25976562 476.72802734 C-157.96251819 490.98523228 -177.17729016 504.35000747 -197 517 C-197.76070801 517.48645996 -198.52141602 517.97291992 -199.30517578 518.47412109 C-212.31034262 526.7782192 -225.45949619 534.84821462 -238.61083984 542.91796875 C-241.98916761 544.99334544 -245.36425303 547.07389174 -248.73828125 549.15625 C-258.54154648 555.20438565 -268.35254985 561.23203543 -278.25 567.125 C-295.57459012 577.46717565 -312.46339281 588.44207352 -329 600 C-329.94214355 600.65645508 -329.94214355 600.65645508 -330.90332031 601.32617188 C-344.84492435 611.06630069 -358.34712471 621.36143449 -371.20654297 632.49365234 C-372.55026026 633.6222578 -373.91813147 634.72221139 -375.29736328 635.80712891 C-383.11139836 641.99679272 -390.13326277 648.82708648 -397.15283203 655.89208984 C-399.1218315 657.87181424 -401.10130727 659.84060754 -403.08203125 661.80859375 C-410.17896791 668.89780324 -416.83483822 676.07457124 -423 684 C-423.879877 685.0846604 -424.76109622 686.16823558 -425.64453125 687.25 C-440.25930972 705.78838567 -452.06365571 726.04268405 -458 749 C-458.3196875 750.22589844 -458.639375 751.45179688 -458.96875 752.71484375 C-463.13212173 771.39219195 -461.93033011 790.61152969 -457 809 C-456.81808105 809.67853027 -456.63616211 810.35706055 -456.44873047 811.05615234 C-447.88845342 841.69414126 -427.15711615 866.88293366 -400 883 C-395.75478032 885.28363541 -391.51050514 887.29996211 -387 889 C-385.74914753 889.48416697 -385.74914753 889.48416697 -384.47302532 889.97811508 C-374.62455791 893.42843379 -365.36972776 893.68637847 -355.02856445 893.82128906 C-353.14357766 893.85970198 -351.25862355 893.89974765 -349.373703 893.94128418 C-344.27124532 894.04895364 -339.16864394 894.13340509 -334.06568551 894.21329212 C-328.64577332 894.30186295 -323.22627077 894.41103088 -317.8066864 894.51751709 C-308.65167435 894.69447042 -299.49650062 894.8573749 -290.34106445 895.01074219 C-281.08333672 895.16587342 -271.82589986 895.33167586 -262.56860352 895.51074219 C-260.87966411 895.54340843 -260.87966411 895.54340843 -259.15660471 895.5767346 C-258.03325316 895.59847083 -256.90990162 895.62020706 -255.75250912 895.64260197 C-190.84870495 896.89820602 -125.99673055 897.764096 -61.09094238 896.13116455 C-57.29996374 896.03747686 -53.50883649 895.95084401 -49.71768856 895.86432076 C-31.42126766 895.44652172 -13.12968175 894.95802569 5.16101074 894.33778381 C19.51674723 893.86291319 33.87597276 893.65911332 48.23754883 893.44775391 C72.07253003 893.0907614 95.9241388 892.69064975 119.6875 890.6875 C120.84619095 890.59137924 120.84619095 890.59137924 122.02828979 890.49331665 C152.53861887 887.92784967 187.70680888 884.93157623 209.28515625 860.40234375 C222.83334289 842.80236297 225.18770151 820.3383554 225.18530273 798.82617188 C225.1874885 796.63652062 225.20569996 794.44737507 225.22460938 792.2578125 C225.25526598 784.32415217 224.83524736 776.75898911 223 769 C222.33057373 768.84442627 221.66114746 768.68885254 220.97143555 768.52856445 C217.87390668 767.80160156 214.78082134 767.05715475 211.6875 766.3125 C210.1087207 765.94608398 210.1087207 765.94608398 208.49804688 765.57226562 C201.98149402 763.98824201 196.2806194 761.93546383 190.35083008 758.78198242 C188.04488708 757.76673923 188.04488708 757.76673923 185.86889648 758.6262207 C178.74047152 763.8661485 175.33989534 774.25358448 171.75 782 C149.3181073 829.56158253 149.3181073 829.56158253 128 838 C126.96875 838.4125 125.9375 838.825 124.875 839.25 C116.60912386 840.849847 106.36990096 841.80442911 99 837 C86.31487939 827.17704559 79.85927778 810.92306388 72.51269531 797.07669067 C62.75329871 776.12372745 62.75329871 776.12372745 46 762 C38.03358446 760.42893399 31.57152227 763.70671512 25 768 C21.73188145 770.59143291 18.72297739 773.44257554 15.734375 776.34765625 C13.54869412 778.4677667 11.34137199 780.43514428 9 782.375 C3.75269051 786.92701383 -0.80664674 792.16118742 -5.4609375 797.30371094 C-6.95612777 798.9516459 -8.46031384 800.59075174 -9.96875 802.2265625 C-14.46972824 807.10842216 -18.92397871 812.02359202 -23.28515625 817.03125 C-54.54564769 852.92028801 -54.54564769 852.92028801 -70.875 854.3359375 C-72.24985887 854.35955149 -73.62494078 854.3724153 -75 854.375 C-75.68578125 854.39949219 -76.3715625 854.42398438 -77.078125 854.44921875 C-82.23127379 854.47872151 -85.0783782 853.2811277 -89 850 C-99.93197363 837.25323233 -100.99932576 819.69890725 -103.0625 803.75 C-103.42724334 800.95032221 -103.79528065 798.1512636 -104.17320251 795.35333252 C-104.40595002 793.62907196 -104.63145797 791.90381037 -104.84791565 790.1774292 C-106.00663279 781.56800871 -107.57619772 771.47824837 -114.61328125 765.66796875 C-126.14258336 757.76693563 -138.1411273 757.47449297 -151.5945034 757.69934082 C-154.74249985 757.75122848 -157.88980609 757.77667397 -161.03816223 757.79589844 C-168.87276691 757.84891271 -176.70672898 757.94454289 -184.54089355 758.04150391 C-296.63389337 759.40513572 -296.63389337 759.40513572 -323.28125 734.90234375 C-328.07430717 729.14458228 -332.51787365 721.59647821 -332.125 713.875 C-330.23256958 704.88144974 -322.28078005 699.02758589 -314.99902344 694.25244141 C-289.16323511 678.06563216 -259.33432777 668.11733527 -230.97073364 657.31982422 C-213.79223235 650.77315365 -196.7284678 643.94347953 -179.67253113 637.085392 C-177.47056634 636.20078393 -175.26781985 635.31815191 -173.06481934 634.43612671 C-156.19267331 627.67815071 -139.44965923 620.74718784 -123 613 C-126.22012032 610.85325312 -129.01613657 609.90347435 -132.6953125 608.71484375 C-134.05761104 608.26757314 -135.41957814 607.81929204 -136.78125 607.37011719 C-137.49152344 607.13659546 -138.20179688 606.90307373 -138.93359375 606.66247559 C-179.22732694 593.33223486 -179.22732694 593.33223486 -189 574 C-191.86443414 568.08737556 -193.37952713 562.44225088 -191.37890625 556 C-186.01879394 543.80276664 -173.8673354 537.30217603 -162.125 532.375 C-124.33589635 518.83464202 -80.53873951 517.88953615 -40.80859375 516.2578125 C-40.04277544 516.22614361 -39.27695713 516.19447472 -38.48793221 516.16184616 C-30.70579007 515.84075676 -22.92353875 515.52967955 -15.13955021 515.25665855 C4.72789783 514.57523602 4.72789783 514.57523602 24.5 512.59375 C25.33515137 512.48172241 26.17030273 512.36969482 27.03076172 512.25427246 C32.86516234 511.37551459 38.39158354 509.81616068 44 508 C44.44676882 504.1470247 44.44676882 504.1470247 42.6015625 502.45117188 C41.94929688 501.96197266 41.29703125 501.47277344 40.625 500.96875 C39.89482666 500.41147217 39.16465332 499.85419434 38.41235352 499.2800293 C37.21823853 498.39891479 37.21823853 498.39891479 36 497.5 C34.78171509 496.57731323 34.78171509 496.57731323 33.53881836 495.63598633 C31.03533629 493.74432052 28.51932764 491.87049272 26 490 C24.54251246 488.91076654 23.08545546 487.82095666 21.62890625 486.73046875 C20.94924805 486.22193359 20.26958984 485.71339844 19.56933594 485.18945312 C18.90708008 484.69380859 18.24482422 484.19816406 17.5625 483.6875 C16.9015332 483.19314453 16.24056641 482.69878906 15.55957031 482.18945312 C-3.0663513 468.22702117 -23.75800792 451.4614517 -27.47265625 426.87109375 C-27.88336053 418.6254155 -25.49961479 412.62483154 -20.56640625 406.10546875 C-5.31006174 389.25120287 22.25839995 381.14965622 42.6875 372.125 C94.50796045 352.85472518 94.50796045 352.85472518 133 316.5 C134.46715703 311.3649504 135.45341744 306.93500189 132.9921875 301.96484375 C129.50705866 297.37578666 124.93285256 294.57256325 119.96484375 291.8046875 C119.26975204 291.41626678 118.57466034 291.02784607 117.85850525 290.62765503 C109.18769312 285.88307351 100.13673538 282.02083417 91.0625 278.125 C89.24245033 277.33569275 87.42279254 276.54548128 85.60351562 275.75439453 C82.02925716 274.20132193 78.45331635 272.65225316 74.87548828 271.10742188 C65.73258813 267.15850915 56.61065632 263.16164254 47.51025391 259.11572266 C45.89147587 258.39623077 44.27144615 257.67954529 42.64990234 256.96630859 C0.44032212 238.32243581 0.44032212 238.32243581 -6.96484375 219.5546875 C-10.04980199 210.25716359 -9.59175246 203.90214653 -5.6015625 195.0078125 C-2.99626786 190.11494208 0.31312309 186.11543696 4 182 C4.82628906 181.06542969 5.65257812 180.13085938 6.50390625 179.16796875 C11.41236198 173.68513854 16.52504483 168.43066953 21.75 163.25 C26.37721044 158.65688691 30.86023842 154.04477439 35 149 C35.40959961 148.5148291 35.81919922 148.0296582 36.24121094 147.52978516 C43.75394984 138.6014095 52.56783878 127.99977504 54 116 C52.87448845 114.65430628 52.87448845 114.65430628 49.9453125 114.8046875 C45.67441917 115.01611786 41.93093793 115.87248196 37.875 117.125 C37.03646484 117.38087891 36.19792969 117.63675781 35.33398438 117.90039062 C16.31433622 123.91424741 -2.24433183 131.54620499 -20.796875 138.84765625 C-22.39908256 139.47657773 -24.00129603 140.10548416 -25.60351562 140.734375 C-28.60080083 141.91126897 -31.59367265 143.09848315 -34.58398438 144.29296875 C-50.81877456 150.72351636 -67.10226479 156.06128235 -84.6875 156.3125 C-85.48397949 156.33030518 -86.28045898 156.34811035 -87.10107422 156.36645508 C-94.99427984 156.35578637 -101.84144216 154.11029267 -108 149 C-117.45787602 138.57611764 -121.5806348 123.92441739 -126.33984375 110.94921875 C-126.63895157 110.13403778 -126.93805939 109.31885681 -127.24623108 108.47897339 C-128.75196569 104.3677808 -130.24707913 100.2531628 -131.72485352 96.13183594 C-141.1794763 69.31025606 -141.1794763 69.31025606 -157 46 C-159.93878213 47.02335374 -160.86729742 47.75237261 -162.36132812 50.5402832 C-165.33034538 58.65613399 -167.61876294 66.75557641 -169.5 75.1875 C-169.80047014 76.50810893 -170.10117475 77.82866453 -170.40209961 79.14916992 C-173.86219769 94.4576409 -176.75227951 109.86805089 -179.46484375 125.32421875 C-187.9477535 173.52216758 -187.9477535 173.52216758 -198 183 C-203.2967624 185.97489395 -209.02005452 187.1088013 -215 186 C-224.5650237 182.77537608 -231.77179555 176.40807259 -239.09545898 169.73168945 C-240.48769577 168.46580873 -241.88964189 167.21058347 -243.29711914 165.96166992 C-249.46250636 160.47898037 -255.36760378 154.78423664 -261.1875 148.9375 C-262.03763672 148.09123047 -262.88777344 147.24496094 -263.76367188 146.37304688 C-269.57739097 140.55034906 -275.06994903 134.55685305 -280.30078125 128.20703125 C-287.29812621 119.87815268 -294.33808055 116.14890268 -304.96875 114.1640625 C-307.06768135 113.81810332 -307.06768135 113.81810332 -309 115 C-308.61371292 123.88460273 -303.67496605 130.36333411 -297.75 136.6875 C-288.04453572 147.13071072 -278.02726643 160.78269782 -277.4375 175.4375 C-277.60561218 179.21507964 -277.90875814 180.83954018 -279.8125 184.1875 C-283.80515955 187.49570363 -287.76184017 187.12228859 -292.6875 187.0625 C-293.38939453 187.05798828 -294.09128906 187.05347656 -294.81445312 187.04882812 C-296.54300538 187.03706927 -298.27151365 187.01913454 -300 187 C-297.09977227 185.06651484 -294.64763813 184.07299318 -291.375 182.9375 C-287.91428137 181.93374305 -287.91428137 181.93374305 -285 180 C-284.49661774 173.57288717 -286.65121432 170.51733363 -290.59033203 165.64599609 C-294.25466051 161.36734999 -298.19262082 157.33127708 -302.07739258 153.25415039 C-313.82402872 140.91874475 -322.53352025 129.78085801 -322.3359375 112.13671875 C-321.82335754 107.35065234 -320.73185402 106.03213139 -317 103 C-310.718644 99.16899476 -304.43873888 96.97599639 -297 98 C-288.37845157 100.42753194 -281.6185417 104.03675946 -275 110 C-274.51563477 110.42700195 -274.03126953 110.85400391 -273.53222656 111.29394531 C-262.22661567 121.27766939 -252.29162228 132.11708864 -243 144 C-234.82830759 154.42396099 -224.03166569 168.02798212 -210 170 C-209.21814659 168.54754505 -208.45028172 167.08756083 -207.6875 165.625 C-207.25824219 164.81289063 -206.82898437 164.00078125 -206.38671875 163.1640625 C-202.85873894 155.11430576 -201.29500495 146.76352199 -199.984375 138.1171875 C-199.62051795 135.80691582 -199.25632902 133.49669639 -198.8918457 131.18652344 C-198.70562653 129.99152222 -198.51940735 128.796521 -198.32754517 127.56530762 C-185.09676993 43.02537287 -185.09676993 43.02537287 -171.94921875 32.33203125 C-166.49539312 28.77258746 -161.57487431 27.31120364 -155 28 C-140.01714069 33.69348654 -130.76625562 51.50930219 -124.47265625 65.3125 C-123.6577431 67.20340685 -122.85497452 69.09957997 -122.0625 71 C-121.61575928 72.05799805 -121.16901855 73.11599609 -120.70874023 74.20605469 C-115.14487991 87.66361276 -110.3227349 101.41361136 -105.48266602 115.14453125 C-105.14948364 116.08037048 -104.81630127 117.01620972 -104.47302246 117.98040771 C-103.845608 119.74311913 -103.22472734 121.50817554 -102.61169434 123.27593994 C-100.59020018 128.93357992 -98.50611764 133.92036203 -93.7734375 137.84765625 C-90.0530954 139.39343219 -86.59007015 139.49137781 -82.625 139.4375 C-81.82481445 139.42847656 -81.02462891 139.41945313 -80.20019531 139.41015625 C-72.40772846 139.18724897 -65.36172534 137.53037419 -58 135 C-57.28650391 134.75813965 -56.57300781 134.5162793 -55.83789062 134.26708984 C-43.57554645 130.05680927 -31.51550506 125.28000065 -19.42355347 120.60916138 C-6.79469466 115.73234194 5.83512061 110.86488277 18.5625 106.25 C19.62936035 105.85635254 20.6962207 105.46270508 21.79541016 105.05712891 C33.53341113 100.85449704 49.17985666 95.30320597 61.375 100.5 C66.25707207 103.3334364 69.50874797 108.01749594 72 113 C73.50439572 129.24747377 62.82683598 144.49734986 52.96875 156.5078125 C46.30277923 164.43694927 39.16812227 171.9109795 31.79296875 179.1796875 C29.34140737 181.66863653 27.05948167 184.28349403 24.7890625 186.9375 C23.53973122 188.37777711 22.26097633 189.79282233 20.9609375 191.1875 C15.44101561 197.14157305 9.95529293 203.19727045 9.3125 211.625 C9.6350411 215.76786126 10.77582201 218.27302069 13.70703125 221.2109375 C19.33449016 225.60169761 25.66222605 228.77386939 32 232 C33.33877197 232.68376709 33.33877197 232.68376709 34.70458984 233.38134766 C49.60395991 240.91342669 64.83299355 247.58826735 80.1875 254.125 C81.09701416 254.5122525 82.00652832 254.899505 82.94360352 255.29849243 C84.7577133 256.07078315 86.57183063 256.84305612 88.38595581 257.61531067 C126.42195511 273.81113422 126.42195511 273.81113422 137 282 C137.99773437 282.72896484 137.99773437 282.72896484 139.015625 283.47265625 C145.270637 288.35428518 150.57535669 295.41580764 153 303 C154.41950945 315.59401991 150.67707713 325.18169728 143 335 C119.03478446 364.24930538 71.77701138 378.1642399 38.08093262 393.24304199 C34.05532149 395.04475727 30.03098574 396.84932054 26.00683594 398.65429688 C24.105339 399.50530785 22.20250889 400.35335168 20.29785156 401.19726562 C2.86495007 408.35223558 2.86495007 408.35223558 -9 422 C-9.9047981 430.01392599 -7.716598 435.96154065 -2.9375 442.375 C-1.64759743 443.93562286 -0.33399494 445.47689467 1 447 C1.97839844 448.12148438 1.97839844 448.12148438 2.9765625 449.265625 C11.25071043 458.0952811 21.25966106 464.9011996 31 472 C33.5978197 473.89753787 36.19476516 475.79622403 38.78930664 477.69824219 C40.37519108 478.85945135 41.96400982 480.01666891 43.55639648 481.16894531 C57.38927822 491.26424325 57.38927822 491.26424325 61.4375 497.8125 C61.91058594 498.56144531 62.38367187 499.31039063 62.87109375 500.08203125 C65.16138401 503.97314723 65.36943336 506.41902628 65 511 C63.32650722 516.62805215 60.56976537 520.10867201 55.4296875 522.9140625 C35.34669048 531.89006438 12.46060299 531.68455002 -9.11990356 532.70651245 C-17.28733987 533.09459256 -25.45231966 533.5303725 -33.6171875 533.96875 C-34.42160089 534.01179701 -35.22601429 534.05484402 -36.05480385 534.09919548 C-105.32752265 534.58035947 -105.32752265 534.58035947 -166.89453125 559.56640625 C-169.19792313 561.86246529 -169.19792313 561.86246529 -169.75 564.9375 C-168.60116259 569.62858608 -165.9407909 571.56454227 -162 574 C-147.03699388 581.86127479 -130.20268179 586.87856166 -113.98828125 591.4375 C-104.77378317 594.03824105 -99.00376918 596.99528852 -93 604.5 C-91.1061313 609.23467176 -91.47757405 613.35085679 -93.375 618 C-98.07058674 626.29279332 -108.38301807 630.4883476 -116.6953125 634.34765625 C-117.69047882 634.81607437 -118.68564514 635.28449249 -119.71096802 635.7671051 C-130.2843944 640.68938595 -141.05353212 645.09570318 -151.875 649.4375 C-153.99258033 650.29366367 -156.10984176 651.15061646 -158.22680664 652.00830078 C-162.61336027 653.78478322 -167.0012395 655.55792913 -171.39013672 657.32861328 C-182.08507264 661.6467407 -192.76044031 666.01290971 -203.4375 670.375 C-205.49486211 671.21519605 -207.55223506 672.05536555 -209.60961914 672.89550781 C-213.55927527 674.50847928 -217.50872366 676.12195783 -221.45800781 677.73583984 C-225.01153752 679.18793157 -228.56555344 680.63882032 -232.12011719 682.08837891 C-270.28198473 695.64530748 -270.28198473 695.64530748 -304 717 C-304 717.66 -304 718.32 -304 719 C-285.72696783 725.88167077 -266.75388699 728.99122146 -247.4375 731.25 C-246.72951263 731.33299347 -246.02152527 731.41598694 -245.29208374 731.50149536 C-229.87460962 733.28309502 -214.6437004 734.14624399 -199.13087463 733.98346901 C-196.39515407 733.95630036 -193.65952039 733.93876719 -190.92370605 733.92399597 C-183.1568279 733.88176226 -175.39012139 733.83377124 -167.62353516 733.75317383 C-162.84053809 733.70423289 -158.05776681 733.67554488 -153.27455139 733.65942955 C-151.47268661 733.649644 -149.67084378 733.63260952 -147.86912537 733.60764503 C-129.87443748 733.36367101 -112.6941856 735.97139565 -98.97265625 748.84765625 C-85.52768527 763.51731765 -82.41387912 779.91004016 -80 799 C-79.40525398 803.63587601 -78.80511475 808.27098905 -78.19973755 812.90548706 C-77.9416034 814.90570378 -77.69277631 816.90691607 -77.44506836 818.90844727 C-77.28659424 820.14393311 -77.12812012 821.37941895 -76.96484375 822.65234375 C-76.8268335 823.75570068 -76.68882324 824.85905762 -76.54663086 825.99584961 C-76.01935773 828.89361462 -75.19820384 831.31812781 -74 834 C-58.95950472 828.53310693 -45.20939656 812.14390258 -34.96484375 800.25 C-31.67426663 796.48186398 -28.2717869 792.81609468 -24.8828125 789.13671875 C-23.01315108 787.10674675 -21.15383484 785.06820253 -19.3046875 783.01953125 C16.31934115 743.70846757 16.31934115 743.70846757 39.46484375 741.69921875 C51.28141555 741.6593428 58.9792432 744.14803012 67.75 752.375 C78.91579794 763.88108893 86.7908569 778.42511595 94.53515625 792.33203125 C95.1580957 793.45053467 95.78103516 794.56903809 96.42285156 795.72143555 C97.66325345 797.95560127 98.89845745 800.19266238 100.12792969 802.43286133 C100.7005957 803.46822021 101.27326172 804.5035791 101.86328125 805.5703125 C102.37157471 806.49602051 102.87986816 807.42172852 103.40356445 808.37548828 C106.42734911 813.47259154 106.42734911 813.47259154 111 817 C115.01735962 817.55411857 117.56324627 817.89422244 121.05859375 815.71875 C123.1660825 813.91115731 125.08603686 812.01082362 127 810 C127.57492187 809.44441406 128.14984375 808.88882813 128.7421875 808.31640625 C141.00531758 795.62943527 147.57242587 776.67382959 155 761 C156.29898826 758.26402344 157.60952301 755.53451115 158.9375 752.8125 C159.42089844 751.80832031 159.90429688 750.80414062 160.40234375 749.76953125 C163.25367142 744.82676519 166.38365569 740.88023334 171.5 738.25 C172.59828125 737.66992188 172.59828125 737.66992188 173.71875 737.078125 C182.4621455 732.94597233 190.47344146 732.89282177 199.65625 736.03125 C206.36866377 738.80571436 210.86559886 742.5271207 215.45703125 748.1328125 C216.88818386 749.86468832 218.38610358 751.43941548 220 753 C215.71352216 734.12991876 209.85050397 714.85977073 192.671875 703.87109375 C165.69209954 688.66171404 131.50038456 687.82618232 101.28515625 687.8671875 C99.49938443 687.86651116 97.7136127 687.86553841 95.92784119 687.86428833 C92.20050167 687.86282344 88.47318629 687.86492439 84.74584961 687.86962891 C80.03936865 687.87528889 75.33294473 687.87197611 70.6264658 687.86617851 C46.66016221 687.81136027 46.66016221 687.81136027 22.71292114 688.63934326 C8.68448554 689.34397597 -5.38244481 689.1493001 -19.42456055 689.13037109 C-23.70584117 689.12466978 -27.98705969 689.12806387 -32.2683382 689.133811 C-91.55579415 689.20141564 -91.55579415 689.20141564 -109 682 C-109 678 -109 678 -107.84765625 676.4296875 C-96.01716832 666.12654921 -81.20914491 659.49266793 -67.3671875 652.38671875 C-57.00449095 647.04975712 -46.83576889 641.42103699 -36.74560547 635.58691406 C-34.93465441 634.54021462 -33.12122173 633.49779549 -31.30517578 632.45996094 C-0.05525253 614.59145894 30.52162593 594.09624461 57.8671875 570.66015625 C60.77980802 568.17016182 63.75893661 565.77035021 66.75 563.375 C71.07741138 559.85780062 75.00588562 556.10125901 78.89453125 552.109375 C80.82178867 550.17854196 82.79938564 548.39327187 84.875 546.625 C92.88522025 539.7339722 100.18064371 532.05923925 107 524 C107.78503906 523.10410156 108.57007813 522.20820312 109.37890625 521.28515625 C127.20091928 500.81952804 143.02425008 477.83146908 156 454 C156.34192383 453.37367676 156.68384766 452.74735352 157.03613281 452.10205078 C172.81174981 422.5400499 179.0467482 389.00747995 182 356 C182.08292297 355.13598572 182.16584595 354.27197144 182.25128174 353.3817749 C182.91964342 346.05048131 183.17436903 338.78163253 183.203125 331.421875 C183.20882507 330.25279602 183.21452515 329.08371704 183.22039795 327.87921143 C183.22978626 325.41525153 183.23635715 322.95127942 183.24023438 320.48730469 C183.24986622 316.80119615 183.28092001 313.115664 183.3125 309.4296875 C183.69053151 225.04512678 145.54219923 146.21948889 87.0390625 86.87109375 C85.44401195 85.26371788 83.84548662 83.65994184 82.24414062 82.05883789 C80.6285932 80.44109808 79.02124966 78.81549364 77.4140625 77.18945312 C70.93697691 70.67679479 64.25762379 64.65154512 57 59 C56.30148926 58.45287354 55.60297852 57.90574707 54.88330078 57.34204102 C-0.10937456 14.76549589 -66.29678652 -2.19662854 -135.25 -2.25 C-136.04624786 -2.25067474 -136.84249573 -2.25134949 -137.66287231 -2.25204468 C-165.16851279 -2.21556912 -191.98140587 0.94770895 -219 6 Z " fill="#000200" transform="translate(1874,204)"/>
<path d="M0 0 C1.37478516 -0.00193359 1.37478516 -0.00193359 2.77734375 -0.00390625 C4.20240234 0.00189453 4.20240234 0.00189453 5.65625 0.0078125 C6.60628906 0.00394531 7.55632812 0.00007813 8.53515625 -0.00390625 C9.45167969 -0.00261719 10.36820313 -0.00132812 11.3125 0 C12.56256836 0.00169189 12.56256836 0.00169189 13.83789062 0.00341797 C16.07301518 0.12816692 18.01125337 0.51140525 20.15625 1.1328125 C19.723125 1.968125 19.723125 1.968125 19.28125 2.8203125 C12.65028983 16.45061952 14.84108854 30.86577838 18.15625 45.1328125 C18.81625 45.1328125 19.47625 45.1328125 20.15625 45.1328125 C20.17606934 44.42898438 20.19588867 43.72515625 20.21630859 43 C20.61179804 29.61016939 21.09468744 16.38285537 23.15625 3.1328125 C33.49304901 8.84395563 39.30158359 15.36077035 42.69335938 26.97143555 C43.62616906 31.32700736 43.58801324 35.81905045 43.78125 40.2578125 C43.8328125 41.27230469 43.884375 42.28679688 43.9375 43.33203125 C43.98132812 44.30011719 44.02515625 45.26820313 44.0703125 46.265625 C44.1110791 47.15137207 44.1518457 48.03711914 44.19384766 48.94970703 C44.15625 51.1328125 44.15625 51.1328125 43.15625 53.1328125 C18.39304315 54.00595202 18.39304315 54.00595202 7.96875 46.3828125 C-2.54766019 36.18965262 -8.38634164 17.41078726 -8.96875 3.05078125 C-8.9275 2.41785156 -8.88625 1.78492188 -8.84375 1.1328125 C-5.82823936 0.25921664 -3.13519706 0.00424331 0 0 Z " fill="#FAE200" transform="translate(1432.84375,501.8671875)"/>
<path d="M0 0 C0.95780315 10.53583468 -4.12926427 21.47626961 -10 30 C-17.81366975 38.96319572 -29.12072134 44.98793855 -41 46 C-46.00829433 46.18456862 -50.99260578 46.27782961 -56 46 C-57.57549033 44.42450967 -57.24617765 42.87613745 -57.3125 40.6875 C-57.14472407 28.92640713 -51.85737864 18.99003705 -43.7578125 10.70703125 C-39.7824623 7.03284395 -36.01786255 4.05861028 -31 2 C-31.4328662 10.01548783 -32.61692505 17.715717 -34.28125 25.5546875 C-34.93630701 28.69468905 -35.49632418 31.832654 -36 35 C-34.04744566 34.79803958 -34.04744566 34.79803958 -32 34 C-30.23447091 31.26484485 -29.32873163 28.12507929 -28.25 25.0625 C-27.93417969 24.24458984 -27.61835937 23.42667969 -27.29296875 22.58398438 C-24.41279018 14.64790791 -24.26264646 7.2524293 -26 -1 C-18.06751343 -3.64416219 -7.85191641 -2.56389107 0 0 Z " fill="#FBE200" transform="translate(1622,506)"/>
<path d="M0 0 C0.66 0.33 1.32 0.66 2 1 C-10.21 13.21 -22.42 25.42 -35 38 C-35.66 37.67 -36.32 37.34 -37 37 C-13.42985075 11.4238806 -13.42985075 11.4238806 -1 1 C-0.67 0.67 -0.34 0.34 0 0 Z " fill="#67D900" transform="translate(1531,270)"/>
<path d="M0 0 C0.66 0.33 1.32 0.66 2 1 C-6.58 9.58 -15.16 18.16 -24 27 C-24.66 26.67 -25.32 26.34 -26 26 C-25.57589844 25.5875 -25.15179687 25.175 -24.71484375 24.75 C-21.60315087 21.68617932 -18.61959412 18.59638807 -15.8125 15.25 C-11.02755908 9.67488534 -5.46956309 4.88578378 0 0 Z " fill="#66D500" transform="translate(1894,976)"/>
<path d="M0 0 C0.66 0.33 1.32 0.66 2 1 C-1.3 4.3 -4.6 7.6 -8 11 C-8 7.0234755 -6.61988497 5.9109833 -4 3 C-1.75 1.1875 -1.75 1.1875 0 0 Z " fill="#63D300" transform="translate(1875,615)"/>
</svg>
