<?xml version="1.0" encoding="UTF-8"?>
<svg version="1.1" xmlns="http://www.w3.org/2000/svg" width="3840" height="2160">
<path d="M0 0 C0.59474121 0.49564453 1.18948242 0.99128906 1.80224609 1.50195312 C9.01067481 7.51133605 16.08623781 13.65245109 23 20 C23.55945312 20.50901855 24.11890625 21.01803711 24.6953125 21.54248047 C39.06863947 34.63520516 51.46514417 48.34454309 63 64 C63.5053125 64.67514648 64.010625 65.35029297 64.53125 66.04589844 C103.66799681 118.4575444 122.28436122 188.63460561 113.41235352 253.6184082 C107.94270301 289.58940385 92.80630728 321.56045184 69 349 C68.53094238 349.54881836 68.06188477 350.09763672 67.57861328 350.66308594 C55.82133646 364.3552117 41.37925137 377.17598261 25 385 C25.98097656 385.77601563 26.96195313 386.55203125 27.97265625 387.3515625 C29.3361916 388.44239078 30.69945776 389.53355561 32.0625 390.625 C32.69994141 391.12773438 33.33738281 391.63046875 33.99414062 392.1484375 C46.74913034 402.4012522 58.32419494 414.13746955 69.88183594 425.6965332 C71.8897899 427.70227359 73.90567656 429.69981686 75.921875 431.69726562 C85.33332423 441.06681664 94.01359873 450.67560223 101.5 461.6875 C102.18799683 462.69804443 102.18799683 462.69804443 102.88989258 463.72900391 C134.58850432 510.9779815 145.11495446 571.06638354 134.3125 626.75 C125.22707522 670.36607578 107.90906378 713.53132016 81.21191406 749.37060547 C80.02301506 750.9690567 78.85115936 752.5801394 77.6796875 754.19140625 C42.63319073 801.32489613 -9.33575115 826.31095934 -61 851 C-61.68523743 851.32758301 -62.37047485 851.65516602 -63.07647705 851.99267578 C-84.58855664 862.25777308 -106.64832493 872.75802339 -130 878 C-131.22203125 878.28101563 -132.4440625 878.56203125 -133.703125 878.8515625 C-156.20518018 883.51203 -179.74844216 885.20362227 -202.6875 885.1875 C-203.35864838 885.18722809 -204.02979675 885.18695618 -204.72128296 885.18667603 C-266.84707991 885.07349449 -335.30759188 878.18628981 -391.48828125 849.703125 C-395.05983253 847.97098222 -398.61750073 846.64763641 -402.375 845.375 C-412.27240798 841.95507184 -419.63868424 837.58003266 -427.234375 830.40234375 C-430.32904565 827.71417644 -433.55971497 825.52577998 -437 823.3125 C-451.89914154 813.64901587 -465.3069361 802.38640004 -478 790 C-478.87229248 789.15840332 -478.87229248 789.15840332 -479.76220703 788.29980469 C-487.05320352 781.25613384 -493.76718059 774.0152264 -500 766 C-501.19882813 764.50919922 -501.19882813 764.50919922 -502.421875 762.98828125 C-508.99571995 754.74499022 -514.61062619 746.05273902 -520 737 C-520.47727539 736.20561523 -520.95455078 735.41123047 -521.44628906 734.59277344 C-548.15949486 689.91994003 -575.69532139 625.183926 -565.78515625 572.0234375 C-561.29652184 554.73884529 -552.11490177 540.64067331 -537 530.875 C-534.679011 529.54183677 -532.36302324 528.25194121 -530 527 C-529.39849121 526.67290039 -528.79698242 526.34580078 -528.17724609 526.00878906 C-492.43610074 507.02217388 -445.10172978 503.45444303 -406 511 C-405.1219873 511.16628906 -404.24397461 511.33257813 -403.33935547 511.50390625 C-383.50254757 515.39701047 -358.61950851 522.22355547 -346.78515625 539.83203125 C-342.1577981 548.04382 -339.27294975 557.1731912 -336.28515625 566.08203125 C-326.39555261 595.50620311 -309.02276303 621.11539028 -281.296875 636.4453125 C-261.44490138 645.80678821 -238.8080133 649.53308477 -217 649 C-216.31357422 648.98743164 -215.62714844 648.97486328 -214.91992188 648.96191406 C-186.07090505 648.34783855 -149.51980127 644.7417156 -127.74609375 623.8359375 C-119.46782696 614.94504755 -115.0877704 605.68602337 -112 594 C-111.8242041 593.38890381 -111.6484082 592.77780762 -111.46728516 592.14819336 C-110.49111984 587.66058697 -110.72915644 583.01137726 -110.6875 578.4375 C-110.64399414 576.88579102 -110.64399414 576.88579102 -110.59960938 575.30273438 C-110.47747443 560.29892575 -117.37645533 549.32126505 -127.33984375 538.609375 C-137.00026772 529.13336441 -147.58829355 522.31608479 -160 517 C-160.73347656 516.68546875 -161.46695313 516.3709375 -162.22265625 516.046875 C-180.93056936 508.21714807 -199.78607412 505.93898353 -219.8125 504.0625 C-249.70719566 501.25740089 -286.63869998 496.77808944 -308 473 C-315.70345817 463.60178104 -319.16077618 451.65379695 -322 440 C-330.95949774 439.4337112 -339.89023206 438.94091101 -348.87109375 439.0390625 C-350.59996826 439.05743164 -350.59996826 439.05743164 -352.36376953 439.07617188 C-354.62669694 439.10821106 -356.88948472 439.15334585 -359.15185547 439.21289062 C-365.26170041 439.29919582 -369.6476095 439.05337713 -375 436 C-380.39443497 430.72816582 -383.10494408 424.68711342 -383.328125 417.125 C-383.31764341 415.41650034 -383.29140679 413.70802998 -383.25 412 C-383.24484375 411.14921875 -383.2396875 410.2984375 -383.234375 409.421875 C-383.06001389 395.21144444 -383.06001389 395.21144444 -379.8125 391.5 C-376.56005537 389.76536287 -374.63523738 389.59608474 -371 390 C-370.34 390.33 -369.68 390.66 -369 391 C-369 391.66 -369 392.32 -369 393 C-368.34 393 -367.68 393 -367 393 C-365.13856802 396.72286396 -365.32921882 401.39332427 -365.01367188 405.52734375 C-364.50910893 410.64441573 -363.41319572 413.95033999 -360 418 C-356.64484416 419.42292198 -356.64484416 419.42292198 -353 420 C-352.16984375 420.16757812 -351.3396875 420.33515625 -350.484375 420.5078125 C-345.54365852 421.2057164 -340.60758699 421.36641109 -335.625 421.5625 C-334.60277344 421.60568359 -333.58054687 421.64886719 -332.52734375 421.69335938 C-330.01834712 421.79887792 -327.50926057 421.90099213 -325 422 C-325.20496094 420.87207031 -325.40992187 419.74414062 -325.62109375 418.58203125 C-328.48245105 402.15218829 -330.0048509 385.62484052 -328 369 C-328.66 369.33 -329.32 369.66 -330 370 C-344.36206662 371.38096794 -358.91977377 368.31562905 -371.15234375 360.52734375 C-374.68474737 357.607323 -376.69365366 354.60143287 -377.23828125 349.9765625 C-377.58244421 339.07203075 -374.41785678 329.07486696 -367 321 C-366.34 320.34 -365.68 319.68 -365 319 C-362.01951104 319.15686784 -360.35480317 319.73963113 -357.9453125 321.5078125 C-355.19812372 325.02730335 -354.86272606 328.40324922 -354.25 332.75 C-354.12496094 333.54277344 -353.99992187 334.33554687 -353.87109375 335.15234375 C-353.56614348 337.0993339 -353.28108768 339.04942187 -353 341 C-352.06800781 341.268125 -351.13601562 341.53625 -350.17578125 341.8125 C-340.78411744 344.65241628 -333.12445995 348.47865538 -325 354 C-324.88785156 352.845 -324.77570312 351.69 -324.66015625 350.5 C-324.10522065 346.10684027 -322.94246435 342.15301417 -321.4375 338 C-321.17573975 337.27087402 -320.91397949 336.54174805 -320.64428711 335.79052734 C-312.49839989 313.79497377 -299.0671667 290.42361728 -277.4921875 279.3671875 C-269.30906804 276.16350539 -260.59365112 274.7027753 -252 273 C-250.03122693 272.59646671 -248.06247698 272.19282058 -246.09375 271.7890625 C-236.48602513 269.85670063 -226.85846178 268.10839029 -217.17578125 266.59765625 C-216.40948395 266.4780806 -215.64318665 266.35850494 -214.85366821 266.23530579 C-213.69101944 266.05393318 -213.69101944 266.05393318 -212.50488281 265.86889648 C-168.35505216 260.74644217 -168.35505216 260.74644217 -130.5 240.5625 C-126.06033878 232.97807875 -126.42420391 224.50479139 -127 216 C-130.1450526 204.00948695 -141.65266099 194.67171845 -151.703125 188.28125 C-167.94410137 179.38954227 -187.70528376 176.77413931 -206 177 C-205.566875 178.11375 -205.13375 179.2275 -204.6875 180.375 C-200.47359416 191.69955952 -197.17594317 202.59307174 -201.18359375 214.5234375 C-203.68349779 219.88686799 -206.03353461 223.63487158 -211 227 C-216.21863967 227.6641905 -219.60714823 226.86490333 -224 224 C-226.14143459 222.08426931 -227.37660626 220.45968748 -229 218 C-229.125 215.4375 -229.125 215.4375 -228 213 C-225.5625 210.3125 -225.5625 210.3125 -223 208 C-220.70738003 206.13910279 -220.70738003 206.13910279 -220.77294922 203.20263672 C-220.78342285 202.04006348 -220.79389648 200.87749023 -220.8046875 199.6796875 C-220.81113281 198.42285156 -220.81757813 197.16601562 -220.82421875 195.87109375 C-220.84097656 194.55238281 -220.85773437 193.23367188 -220.875 191.875 C-220.88503017 190.53516279 -220.89415596 189.19531848 -220.90234375 187.85546875 C-220.92597925 184.57013427 -220.95892766 181.28515535 -221 178 C-234.0267824 178.52225019 -246.67483488 180.65108889 -259 185 C-258.66226563 185.82242187 -258.32453125 186.64484375 -257.9765625 187.4921875 C-250.07922493 207.2583561 -250.07922493 207.2583561 -253 217 C-254.68838575 220.2577913 -256.76473413 223.09763919 -259 226 C-259.91458984 227.23556641 -259.91458984 227.23556641 -260.84765625 228.49609375 C-265.50125264 234.6712482 -269.14505076 237.75907154 -277 239 C-286.90533981 239.5473301 -286.90533981 239.5473301 -290 238 C-289.39169379 234.7905071 -288.33192363 232.79468814 -286.34765625 230.21484375 C-285.81849609 229.51939453 -285.28933594 228.82394531 -284.74414062 228.10742188 C-283.91172852 227.03331055 -283.91172852 227.03331055 -283.0625 225.9375 C-281.96948455 224.50954882 -280.87701501 223.08117957 -279.78515625 221.65234375 C-279.05631226 220.70862915 -279.05631226 220.70862915 -278.31274414 219.74584961 C-275.64616893 216.1995079 -274.75704772 214.50871259 -275.0234375 210.11328125 C-275.10078125 208.7065918 -275.10078125 208.7065918 -275.1796875 207.27148438 C-275.24414062 206.29501953 -275.30859375 205.31855469 -275.375 204.3125 C-275.43171875 203.32443359 -275.4884375 202.33636719 -275.546875 201.31835938 C-275.68833519 198.87817115 -275.83974274 196.43901409 -276 194 C-283.78606381 198.60354723 -290.54982369 203.65556429 -297 210 C-297.70382812 210.6909375 -298.40765625 211.381875 -299.1328125 212.09375 C-307.17522788 220.5219639 -313.43125787 230.42240904 -320 240 C-333.07652917 259.03267232 -333.07652917 259.03267232 -341 267 C-341.65742188 267.69222656 -342.31484375 268.38445312 -342.9921875 269.09765625 C-354.67472719 280.53772814 -375.08656669 288.83436389 -391.44042969 289.02905273 C-429.90118003 288.41488892 -464.26661525 276.83415816 -492.36523438 249.58349609 C-493.51141761 248.47325946 -494.66436959 247.36998821 -495.82226562 246.27197266 C-508.23897881 234.48624157 -517.81143737 222.67379636 -525 207 C-525.70069171 205.51719817 -526.40814949 204.03755779 -527.125 202.5625 C-527.39570313 201.98628906 -527.66640625 201.41007812 -527.9453125 200.81640625 C-529.03100432 198.82687544 -529.03100432 198.82687544 -530.96875 196.65625 C-533.75268002 193.01572613 -534.95595554 189.13283186 -536.4609375 184.83984375 C-538.41018556 181.24313477 -540.54484705 180.15998292 -544 178 C-569.00863907 156.69440187 -580.72806267 127.16658027 -584 95 C-584.78326921 83.28926355 -585.67382036 69.34764073 -580.3125 58.625 C-575.91427776 53.6324234 -571.84656005 49.31628445 -565.0625 48.5625 C-554.65067753 48.76050613 -545.06125564 57.45821954 -536.625 62.9921875 C-532.61248366 65.6172143 -528.55487848 68.16386308 -524.4855957 70.69970703 C-517.37665945 75.13362759 -510.39169675 79.5488232 -504 85 C-503.77183594 84.17757812 -503.54367188 83.35515625 -503.30859375 82.5078125 C-501.71734029 78.24230322 -499.51558794 74.69091458 -497.0625 70.875 C-496.39831055 69.82119141 -496.39831055 69.82119141 -495.72070312 68.74609375 C-493.95951837 65.96914371 -492.21718402 63.27544154 -490.1796875 60.69140625 C-488.71255309 58.94196428 -488.71255309 58.94196428 -489.0625 56.0625 C-490.63508577 48.14884258 -493.27864843 40.47646228 -496.5625 33.125 C-505.71669331 11.56743983 -503.59834801 -15.51942952 -495 -37 C-492.56562367 -41.9645314 -489.83785479 -46.12032453 -485 -49 C-478.82497658 -50.81618336 -473.73430613 -49.56357215 -468 -47 C-460.81916305 -42.67419461 -454.57696118 -37.00607472 -448.2824707 -31.50756836 C-444.45540566 -28.18067003 -440.53650856 -25.11113277 -436.4375 -22.125 C-432.27289405 -19.07243837 -429.00845376 -16.19034631 -426 -12 C-422.66956831 -12.63560378 -420.38531318 -13.86986256 -417.5703125 -15.73828125 C-416.27057495 -16.5888208 -416.27057495 -16.5888208 -414.94458008 -17.45654297 C-414.01411865 -18.06900879 -413.08365723 -18.68147461 -412.125 -19.3125 C-395.18290358 -30.25348099 -377.85044892 -39.7865996 -359 -47 C-358.06349609 -47.3619043 -357.12699219 -47.72380859 -356.16210938 -48.09667969 C-271.31793385 -80.59903693 -171.08085219 -79.85454943 0 0 Z " fill="#010000" transform="translate(2699,239)"/>
<path d="M0 0 C1.00446671 -0.00705963 2.00893341 -0.01411926 3.0438385 -0.02139282 C26.66056306 -0.14919743 49.93037333 0.23594217 73.37890625 3.203125 C74.62281128 3.35938354 74.62281128 3.35938354 75.8918457 3.51879883 C112.85280793 8.19563124 148.62538424 14.57573965 182.37890625 31.203125 C183.27561035 31.63995605 184.17231445 32.07678711 185.09619141 32.52685547 C204.1104489 41.86567389 220.3791717 53.23871766 236.61865234 66.74707031 C239.07840103 68.78173621 241.57585422 70.76885825 244.06640625 72.765625 C249.34436839 77.08323613 254.32299454 81.69202742 259.30078125 86.34765625 C261.9017696 88.77626097 264.56320488 91.12392943 267.25390625 93.453125 C270.54891442 96.37343008 273.488334 99.41218097 276.32421875 102.77734375 C277.93894961 104.68370851 279.57787501 106.55136106 281.24609375 108.41015625 C326.18574601 158.77723628 350.0976687 226.65593712 346.37890625 294.203125 C343.46658241 335.56811684 321.9018034 374.69124505 291.37890625 402.203125 C286.85920127 406.05672518 282.12332362 409.63306837 277.37890625 413.203125 C275.07977745 414.93451797 272.78155841 416.66701381 270.48706055 418.40454102 C268.98768896 419.53843779 267.48410647 420.66679368 265.97583008 421.78881836 C261.93287203 424.83778554 258.54852131 427.40812939 256.546875 432.19140625 C256.18305364 436.5488016 259.75018562 440.01074108 262.37890625 443.203125 C265.56871302 446.38231677 268.94396638 449.29364336 272.37890625 452.203125 C277.76781066 456.80790414 282.91043051 461.58592923 287.9140625 466.60546875 C288.59641464 467.28686417 289.27876678 467.96825958 289.98179626 468.67030334 C291.41235062 470.10018241 292.84166392 471.53130411 294.26977539 472.96362305 C296.43589699 475.13510211 298.60730799 477.30118825 300.77929688 479.46679688 C302.17870612 480.86686702 303.57780509 482.26724738 304.9765625 483.66796875 C305.93466576 484.62303566 305.93466576 484.62303566 306.91212463 485.59739685 C310.11467914 488.81638427 313.26575908 492.08363715 316.34155273 495.42407227 C317.21589211 496.36622337 317.21589211 496.36622337 318.1078949 497.32740784 C319.37890625 499.203125 319.37890625 499.203125 319.37890625 503.203125 C313.41248483 510.12579004 305.31621663 515.45055051 298.03027344 520.94140625 C296.4331587 522.16167369 294.86246224 523.41628021 293.29296875 524.671875 C253.01473281 556.73213333 203.97795287 570.49610163 153.12890625 570.453125 C152.34369598 570.45253082 151.55848572 570.45193665 150.7494812 570.45132446 C130.01552467 570.39120238 130.01552467 570.39120238 124.69140625 565.578125 C97.95135092 543.16892558 60.39469119 536.56187645 26.71875 533.2109375 C25.87292358 533.12649384 25.02709717 533.04205017 24.15563965 532.95504761 C19.97073163 532.54086349 15.78523504 532.14299402 11.59619141 531.77294922 C3.37319067 531.01932037 -4.68726129 529.95433338 -12.77734375 528.27734375 C-13.91857948 528.04307678 -13.91857948 528.04307678 -15.08287048 527.80407715 C-29.70739891 524.60334717 -42.58157683 518.30400851 -50.99609375 505.453125 C-57.36309885 493.68761698 -58.73678886 481.00501499 -60.2956543 467.92456055 C-60.55610223 465.74660621 -60.8464661 463.57223727 -61.14672852 461.39941406 C-61.66639997 457.23408128 -61.79927782 453.12014302 -61.82421875 448.92578125 C-61.82991882 448.15616562 -61.8356189 447.38654999 -61.8414917 446.59361267 C-61.85088007 444.9708694 -61.85745093 443.34810759 -61.86132812 441.7253418 C-61.87094591 439.3028613 -61.90199129 436.88126341 -61.93359375 434.45898438 C-62.02778395 420.69835751 -60.52582705 407.22025006 -55.99609375 394.140625 C-55.74593506 393.40658447 -55.49577637 392.67254395 -55.23803711 391.91625977 C-51.06214475 380.27297748 -44.66107003 369.58309732 -36.62109375 360.203125 C-36.09257812 359.53152344 -35.5640625 358.85992188 -35.01953125 358.16796875 C-28.7818348 350.496489 -19.2957233 342.14153446 -9.23144531 340.7265625 C-8.00393555 340.67757813 -6.77642578 340.62859375 -5.51171875 340.578125 C-4.83645142 340.54636169 -4.16118408 340.51459839 -3.4654541 340.48187256 C-2.01932175 340.41421797 -0.57292602 340.35200841 0.87365723 340.2947998 C4.72099949 340.13840716 8.56536194 339.92763509 12.41015625 339.71875 C13.18055237 339.67743958 13.95094849 339.63612915 14.74468994 339.59356689 C50.10571941 337.63977854 105.79483887 333.2053462 131.37890625 305.203125 C141.00987379 292.48261935 144.29160192 280.02318325 143.37890625 264.203125 C141.52127739 251.4830901 135.55170345 240.92464861 127.37890625 231.203125 C126.77046875 230.39488281 126.16203125 229.58664062 125.53515625 228.75390625 C110.8190303 211.3451558 87.45184295 204.76508484 65.62890625 202.890625 C19.68539947 199.53141769 -21.03241944 207.74258587 -56.68359375 238.453125 C-68.69744678 249.61020563 -77.56602977 263.06499707 -86.77636719 276.51855469 C-89.25428383 280.12458584 -91.76907678 283.702787 -94.30859375 287.265625 C-95.03433594 288.28785156 -95.76007812 289.31007813 -96.5078125 290.36328125 C-105.68643935 302.69759127 -116.27909124 309.0069328 -131.49609375 311.453125 C-148.88223734 313.54625075 -166.20441929 311.3697946 -182.62109375 305.203125 C-184.50583378 303.31838497 -184.31441375 300.17566098 -184.68359375 297.640625 C-184.86019531 296.44308594 -185.03679688 295.24554688 -185.21875 294.01171875 C-185.35152344 293.08488281 -185.48429687 292.15804688 -185.62109375 291.203125 C-186.61109375 290.873125 -187.60109375 290.543125 -188.62109375 290.203125 C-191.09609375 295.153125 -191.09609375 295.153125 -193.62109375 300.203125 C-198.90109375 297.563125 -204.18109375 294.923125 -209.62109375 292.203125 C-207.65083295 288.2626034 -205.72952301 286.23384353 -202.62109375 283.203125 C-200.34374365 280.38802507 -200.34374365 280.38802507 -200.62109375 277.203125 C-207.60962166 276.68757786 -212.72227653 277.24166441 -218.62109375 281.203125 C-219.28109375 281.863125 -219.94109375 282.523125 -220.62109375 283.203125 C-224.82249757 283.0343186 -227.61754875 279.96323037 -230.62109375 277.328125 C-231.18997314 276.83707275 -231.75885254 276.34602051 -232.3449707 275.84008789 C-238.21385053 270.74592944 -243.96205918 265.52881918 -249.62109375 260.203125 C-250.52085937 259.36910156 -251.420625 258.53507812 -252.34765625 257.67578125 C-258.20716641 252.07295658 -262.67423264 246.28554799 -266.62109375 239.203125 C-266.98203125 238.57664062 -267.34296875 237.95015625 -267.71484375 237.3046875 C-273.99820457 224.91250367 -266.5397589 207.50152897 -262.55859375 195.265625 C-252.56049013 165.63318683 -238.74611611 137.6854869 -220.62109375 112.203125 C-220.19876465 111.60757813 -219.77643555 111.01203125 -219.34130859 110.3984375 C-216.85734519 106.92702721 -214.2603764 103.55730704 -211.62109375 100.203125 C-210.97648193 99.35766113 -210.97648193 99.35766113 -210.31884766 98.49511719 C-190.73971238 72.83214715 -167.29940802 53.4478616 -139.62109375 37.203125 C-138.96463867 36.81286133 -138.30818359 36.42259766 -137.63183594 36.02050781 C-103.53525397 15.94737084 -60.89564427 6.19466218 -21.97607422 1.4881134 C-20.51244445 1.31099197 -19.04941502 1.12873445 -17.58743286 0.93849182 C-11.71388954 0.21493689 -5.91420909 0.02771161 0 0 Z " fill="#EA0000" transform="translate(2451.62109375,190.796875)"/>
<path d="M0 0 C-0.20156921 51.60171902 -32.95886983 111.54415297 -67.77734375 148.625 C-69.71890477 150.69963814 -71.55244253 152.82171445 -73.375 155 C-87.57195732 171.24396047 -105.79398654 183.7371027 -124 195 C-124.87962402 195.54736816 -125.75924805 196.09473633 -126.66552734 196.65869141 C-129.24432857 198.25143861 -131.83686515 199.81820722 -134.4375 201.375 C-135.22415039 201.85783447 -136.01080078 202.34066895 -136.82128906 202.83813477 C-142.14191246 205.95421789 -142.14191246 205.95421789 -145.5625 206.13671875 C-149.28694882 204.39983637 -152.34808998 201.97654604 -155.5625 199.4375 C-156.99414689 198.33340844 -158.42775568 197.23185633 -159.86328125 196.1328125 C-160.56662598 195.59430664 -161.2699707 195.05580078 -161.99462891 194.50097656 C-164.67641282 192.49371975 -167.4451792 190.64285862 -170.25 188.8125 C-182.46306208 180.81427185 -193.60290453 172.18701842 -203 161 C-203.8353125 160.0409375 -204.670625 159.081875 -205.53125 158.09375 C-216.60513341 145.33471042 -225.8148467 131.77553068 -234 117 C-234.36899414 116.33742188 -234.73798828 115.67484375 -235.11816406 114.9921875 C-245.82217097 95.50565452 -255.24675914 68.440522 -253 46 C-251.1640625 44.3203125 -251.1640625 44.3203125 -248.625 43.125 C-235.59224772 36.15826782 -225.4730191 24.17373235 -219 11 C-216.68139096 13.12100031 -215.39270197 15.07871558 -214 17.875 C-209.02959739 25.89508916 -198.64083549 27.51937247 -190.1159668 30.05322266 C-185.57896408 31.42431546 -181.32455179 33.0999326 -177 35.0625 C-135.74995887 53.39585161 -85.1663463 40.09994191 -45 25 C-29.93996157 19.0184928 -15.2159558 12.00700981 -2.79296875 1.46875 C-1 0 -1 0 0 0 Z " fill="#EA0000" transform="translate(2815,849)"/>
<path d="M0 0 C2.51000347 2.51000347 2.28660587 3.44756511 2.421875 6.92578125 C2.47424316 7.93930664 2.52661133 8.95283203 2.58056641 9.99707031 C2.63647949 11.09116211 2.69239258 12.18525391 2.75 13.3125 C3.5670558 25.54209329 5.9793615 36.45332514 10 48 C10.29680664 48.86044922 10.59361328 49.72089844 10.89941406 50.60742188 C19.78175421 75.94516841 31.45620524 100.52786589 49.66748047 120.51904297 C50.98788301 121.98653322 52.2619506 123.49528507 53.53515625 125.00390625 C61.02524482 133.66891067 69.66112929 140.41249179 79 147 C79.99644531 147.71414063 80.99289063 148.42828125 82.01953125 149.1640625 C91.0928469 155.05717452 101.62067687 157.37308025 112 160 C108.60416359 162.77541768 104.89293245 164.67858249 100.97265625 166.58984375 C100.28011246 166.93057419 99.58756866 167.27130463 98.8740387 167.62236023 C96.60660663 168.7338558 94.33522515 169.8368706 92.0625 170.9375 C91.28356384 171.31549744 90.50462769 171.69349487 89.7020874 172.08294678 C68.08877035 182.54325045 46.06617689 192.18908165 23 199 C22.33871094 199.20028809 21.67742188 199.40057617 20.99609375 199.60693359 C16.04407711 201.06737177 11.07701889 202.10147051 6 203 C4.9884082 203.18191895 3.97681641 203.36383789 2.93457031 203.55126953 C-16.64723289 206.88248512 -36.04075215 207.35481897 -55.875 207.3125 C-57.08657776 207.31004272 -58.29815552 207.30758545 -59.54644775 207.30505371 C-63.04934036 207.29235325 -66.55190686 207.26871728 -70.0546875 207.23828125 C-71.09631042 207.23071304 -72.13793335 207.22314484 -73.21112061 207.21534729 C-79.84990649 207.13091266 -86.39787359 206.69924499 -93 206 C-93.06058594 204.77023437 -93.12117188 203.54046875 -93.18359375 202.2734375 C-93.26805005 200.64061573 -93.35269547 199.00780373 -93.4375 197.375 C-93.47681641 196.56675781 -93.51613281 195.75851562 -93.55664062 194.92578125 C-93.59853516 194.13300781 -93.64042969 193.34023437 -93.68359375 192.5234375 C-93.72025146 191.80075684 -93.75690918 191.07807617 -93.79467773 190.33349609 C-93.9627235 187.94546578 -93.9627235 187.94546578 -94.51147461 185.41479492 C-95.20715253 180.55200277 -95.14215709 175.74596953 -95.1328125 170.83984375 C-95.13422241 169.75005722 -95.13563232 168.66027069 -95.13708496 167.53746033 C-95.1392175 164.00410702 -95.1329334 160.4708442 -95.125 156.9375 C-95.1234491 155.73538879 -95.12189819 154.53327759 -95.12030029 153.29473877 C-95.09325284 135.51207826 -94.98618048 117.75948977 -94 100 C-93.94086426 98.88737793 -93.88172852 97.77475586 -93.82080078 96.62841797 C-92.59263939 74.5808897 -89.54064308 52.99620841 -84.75073242 31.44067383 C-83.11540329 24.00778141 -82.00122728 16.54303918 -81 9 C-79.92854736 8.98541748 -78.85709473 8.97083496 -77.75317383 8.95581055 C-53.39779887 8.59826231 -30.22212081 7.80856595 -6.56982422 1.45019531 C-5.73854004 1.23331055 -4.90725586 1.01642578 -4.05078125 0.79296875 C-3.31512939 0.5921167 -2.57947754 0.39126465 -1.8215332 0.18432617 C-0.91987427 0.09308472 -0.91987427 0.09308472 0 0 Z " fill="#E90000" transform="translate(2546,901)"/>
<path d="M0 0 C1.02609375 0.48339844 2.0521875 0.96679688 3.109375 1.46484375 C4.45604628 2.03666635 5.80523144 2.60258813 7.15625 3.1640625 C7.90680664 3.48310547 8.65736328 3.80214844 9.43066406 4.13085938 C22.31145743 9.54835429 35.570182 13.09122699 49.109375 16.46484375 C48.60148437 17.37363281 48.09359375 18.28242187 47.5703125 19.21875 C19.08601871 70.8908437 13.3372057 143.66625787 29.109375 200.46484375 C30.64083125 204.73517876 32.67576902 208.63730523 35.109375 212.46484375 C35.439375 213.12484375 35.769375 213.78484375 36.109375 214.46484375 C23.56008297 214.02985962 11.42044156 211.79086131 -0.890625 209.46484375 C-1.84759277 209.28969238 -2.80456055 209.11454102 -3.79052734 208.93408203 C-21.2093948 205.72135456 -38.04180833 200.86444457 -54.890625 195.46484375 C-56.02322754 195.10374512 -57.15583008 194.74264648 -58.32275391 194.37060547 C-70.97090592 190.29278597 -83.29178704 185.62501761 -95.453125 180.27734375 C-96.56518311 179.79031982 -97.67724121 179.3032959 -98.82299805 178.80151367 C-105.28546775 175.88592454 -111.15021552 172.62575348 -116.890625 168.46484375 C-117.75816406 167.83835937 -118.62570313 167.211875 -119.51953125 166.56640625 C-120.15761719 166.07914063 -120.79570312 165.591875 -121.453125 165.08984375 C-122.11441406 164.58710937 -122.77570312 164.084375 -123.45703125 163.56640625 C-123.93011719 163.20289063 -124.40320312 162.839375 -124.890625 162.46484375 C-117.62452038 123.58708255 -93.72720155 81.09444962 -67.890625 51.46484375 C-67.22289063 50.67722656 -66.55515625 49.88960937 -65.8671875 49.078125 C-55.78879398 37.48979165 -44.15155167 27.65374223 -31.890625 18.46484375 C-31.31699219 18.03429687 -30.74335938 17.60375 -30.15234375 17.16015625 C-26.13016571 14.16395139 -22.04519495 11.27440904 -17.890625 8.46484375 C-17.23819824 8.02237305 -16.58577148 7.57990234 -15.91357422 7.12402344 C-13.92236566 5.79335311 -11.91200846 4.49911087 -9.890625 3.21484375 C-9.27968994 2.80733887 -8.66875488 2.39983398 -8.03930664 1.97998047 C-5.09079613 0.16257784 -3.45618153 -0.63986064 0 0 Z " fill="#EA0000" transform="translate(2402.890625,890.53515625)"/>
<path d="M0 0 C25.28376481 24.00413273 37.16604801 69.36612039 39 103 C39.10244835 107.39724371 39.09599456 111.78940682 39.0625 116.1875 C39.05798828 117.33025391 39.05347656 118.47300781 39.04882812 119.65039062 C39.03718268 122.4336511 39.02082997 125.21679572 39 128 C31.35649197 132.04519211 23.68732396 136.03874625 16 140 C14.83428467 140.60618164 14.83428467 140.60618164 13.64501953 141.22460938 C-6.5186009 151.62613873 -28.86853687 157.44591221 -51 162 C-51.86496094 162.17934082 -52.72992187 162.35868164 -53.62109375 162.54345703 C-66.41948213 165.05671309 -79.25219639 165.30192798 -92.25 165.375 C-93.44295181 165.38705475 -93.44295181 165.38705475 -94.66000366 165.39935303 C-110.77110471 165.52288623 -125.96378321 163.0386435 -141.5625 159.0625 C-142.55056641 158.82337891 -143.53863281 158.58425781 -144.55664062 158.33789062 C-150.70537581 156.79357609 -156.31073715 154.78950939 -162 152 C-162.99519653 151.51768921 -162.99519653 151.51768921 -164.01049805 151.02563477 C-165.86835027 150.11397406 -167.71676824 149.18592056 -169.5625 148.25 C-170.18962891 147.93417969 -170.81675781 147.61835937 -171.46289062 147.29296875 C-172.97621215 146.53053195 -174.48825155 145.76555113 -176 145 C-175.71125 143.91847656 -175.4225 142.83695313 -175.125 141.72265625 C-169.57900192 119.40544154 -169.78009864 98.86150102 -180.828125 78.4609375 C-182 76 -182 76 -182 73 C-180.33324219 73.41572266 -180.33324219 73.41572266 -178.6328125 73.83984375 C-134.79714444 84.6037271 -90.1733636 73.39844043 -51.79199219 50.69384766 C-47.39717908 47.97509357 -43.16614955 45.05574266 -39 42 C-38.44554199 41.59426758 -37.89108398 41.18853516 -37.31982422 40.77050781 C-34.0294789 38.34056612 -30.80178899 35.84244222 -27.61035156 33.28417969 C-26.51988715 32.41458557 -25.42262218 31.55346317 -24.31933594 30.70019531 C-13.34707401 22.20818077 -5.76107326 12.77455375 0 0 Z " fill="#EA0000" transform="translate(2778,701)"/>
<path d="M0 0 C2.58014955 0.01081 5.15961639 0.00000266 7.73974609 -0.01269531 C9.3972997 -0.01137505 11.05485288 -0.00881541 12.71240234 -0.00488281 C13.47499359 -0.00893127 14.23758484 -0.01297974 15.02328491 -0.01715088 C19.44794991 0.02150543 23.11729938 0.49220993 27.18896484 2.26074219 C28.98974609 4.47558594 28.98974609 4.47558594 30.50146484 7.19824219 C36.53513222 17.3518146 44.58963307 28.17879237 54.68896484 34.63574219 C55.51396484 35.17199219 56.33896484 35.70824219 57.18896484 36.26074219 C57.18896484 36.92074219 57.18896484 37.58074219 57.18896484 38.26074219 C55.27083984 38.60105469 55.27083984 38.60105469 53.31396484 38.94824219 C45.11744221 40.78251877 38.14559786 45.19457462 31.06005859 49.54980469 C28.92264686 50.8235276 26.78552698 52.03825958 24.59912109 53.22167969 C8.87307981 61.75462615 -5.02437557 71.74308666 -17.81103516 84.26074219 C-18.53419922 84.93363281 -19.25736328 85.60652344 -20.00244141 86.29980469 C-26.34848294 92.32533907 -31.60458083 99.25454876 -36.81103516 106.26074219 C-37.23143066 106.82083984 -37.65182617 107.3809375 -38.08496094 107.95800781 C-56.62522376 133.01201918 -67.87983394 164.11206153 -68.81103516 195.26074219 C-80.37635489 188.74596575 -89.79153304 178.48261498 -99.12353516 169.19824219 C-100.04191162 168.28905029 -100.96028809 167.3798584 -101.90649414 166.44311523 C-107.96449018 160.35778413 -113.50827199 154.01229719 -118.81103516 147.26074219 C-119.57275024 146.29599976 -119.57275024 146.29599976 -120.34985352 145.31176758 C-123.65108799 141.06610621 -126.76215279 136.69021347 -129.81103516 132.26074219 C-130.3745166 131.44234863 -130.93799805 130.62395508 -131.51855469 129.78076172 C-133.28192068 127.17351656 -134.98989277 124.53711811 -136.68603516 121.88574219 C-137.24073486 121.065979 -137.79543457 120.24621582 -138.36694336 119.40161133 C-141.93652244 113.6515596 -141.93652244 113.6515596 -141.60595703 109.98779297 C-140.85662753 107.61749656 -139.91178839 105.4888369 -138.81103516 103.26074219 C-138.48151855 102.49874512 -138.15200195 101.73674805 -137.8125 100.95166016 C-129.11792584 80.95372219 -116.92280086 62.99082891 -101.81103516 47.26074219 C-101.34648926 46.76509766 -100.88194336 46.26945313 -100.40332031 45.75878906 C-73.76974064 17.41163604 -39.04419372 -0.19503344 0 0 Z " fill="#EA0000" transform="translate(2330.81103515625,844.7392578125)"/>
<path d="M0 0 C8.01945036 8.31537103 11.36644773 19.53195234 14.9921875 30.2578125 C15.53069336 31.82885742 15.53069336 31.82885742 16.08007812 33.43164062 C16.95151563 35.97623815 17.81796818 38.52241114 18.6796875 41.0703125 C17.64521484 40.86027588 17.64521484 40.86027588 16.58984375 40.64599609 C-18.79135856 33.78451807 -58.48964547 44.48246 -88.3203125 64.0703125 C-118.81141983 84.89276089 -139.74379286 111.51407312 -150.3203125 147.0703125 C-150.9803125 147.0703125 -151.6403125 147.0703125 -152.3203125 147.0703125 C-166.88050666 115.9232305 -180.33349353 83.28340465 -180.6328125 48.3828125 C-180.66181641 47.27486328 -180.69082031 46.16691406 -180.72070312 45.02539062 C-180.81342106 32.82228445 -177.71843434 23.02382116 -169.3203125 14.0703125 C-168.70800781 13.40515625 -168.09570312 12.74 -167.46484375 12.0546875 C-135.2398816 -19.60929852 -35.8077746 -29.77952972 0 0 Z " fill="#E90000" transform="translate(2329.3203125,786.9296875)"/>
<path d="M0 0 C5.40970128 0.39170048 8.88955011 3.54048377 13.0625 6.6875 C14.66169785 7.86862753 16.26200135 9.04825919 17.86328125 10.2265625 C18.69811035 10.84305664 19.53293945 11.45955078 20.39306641 12.09472656 C24.799907 15.31545928 29.27383741 18.43918114 33.75 21.5625 C34.58281494 22.14539795 35.41562988 22.7282959 36.27368164 23.32885742 C38.51164527 24.89199175 40.75418102 26.44817938 43 28 C43.59490234 28.41362793 44.18980469 28.82725586 44.80273438 29.25341797 C47.20813383 30.89917867 49.21279285 32.07093095 52 33 C51.33583104 37.66737914 49.46719173 41.6743342 47.5625 45.9375 C43.80874665 54.59679567 40.67494097 63.43016942 37.6875 72.375 C37.26734619 73.62144287 36.84719238 74.86788574 36.41430664 76.15209961 C33.81895858 84.02053579 31.71022314 91.89321946 30 100 C29.34 100 28.68 100 28 100 C10.17717885 69.19512393 -1.00487411 35.65442213 0 0 Z " fill="#E80000" transform="translate(2135,308)"/>
<path d="M0 0 C3.89252812 1.55701125 6.06142977 4.01434106 8.8125 7.125 C9.25408447 7.6185498 9.69566895 8.11209961 10.15063477 8.62060547 C12.07665957 10.78041709 13.9692838 12.96308783 15.8203125 15.1875 C22.52464625 23.21974527 30.36870352 29.82038077 40 34 C35.5525364 39.35510923 30.80018628 44.21326714 25.8125 49.0625 C18.50990606 56.25219979 12.06812606 63.75501831 6 72 C5.00034926 73.3335952 4.00051632 74.66705406 3 76 C2.01 75.67 1.02 75.34 0 75 C-3.29340486 40.41340957 -3.29340486 40.41340957 -3.3125 24.5 C-3.31765625 23.50178223 -3.3228125 22.50356445 -3.328125 21.47509766 C-3.15426179 3.15426179 -3.15426179 3.15426179 0 0 Z " fill="#E70000" transform="translate(2221,207)"/>
<path d="M0 0 C0.845625 0.28875 1.69125 0.5775 2.5625 0.875 C2.5625 1.865 2.5625 2.855 2.5625 3.875 C3.305 3.978125 4.0475 4.08125 4.8125 4.1875 C7.938287 4.96894675 9.4358666 5.43330981 11.5625 7.875 C11.91739799 10.57335136 11.75895181 13.16833057 11.5625 15.875 C11.5625 16.865 11.5625 17.855 11.5625 18.875 C12.1201001 18.89481934 12.6777002 18.91463867 13.25219727 18.93505859 C45.13784516 20.12073959 45.13784516 20.12073959 51.5625 23.875 C47.93747364 28.48866992 43.12783367 30.49087556 37.5625 31.875 C32.87285319 32.18634585 28.25395761 32.11836091 23.5625 31.875 C24.0575 33.091875 24.5525 34.30875 25.0625 35.5625 C27.77802423 43.67064546 27.10981636 52.55817459 25.5625 60.875 C22.40630946 59.54889682 20.99511288 58.49118843 19.45605469 55.43505859 C19.09598328 54.73448334 18.73591187 54.03390808 18.3649292 53.31210327 C17.99184631 52.55684357 17.61876343 51.80158386 17.234375 51.0234375 C16.84050598 50.24940582 16.44663696 49.47537415 16.04083252 48.67788696 C14.78690397 46.20738291 13.54958575 43.72897386 12.3125 41.25 C11.46462347 39.57236949 10.61567758 37.89527897 9.765625 36.21875 C7.68546192 32.11032681 5.62015605 27.99473854 3.5625 23.875 C2.69431641 24.35839844 2.69431641 24.35839844 1.80859375 24.8515625 C-1.56120649 26.3870193 -4.83767402 26.46185036 -8.4375 25.875 C-11.83740879 23.8054903 -14.2961966 21.75543157 -15.4375 17.875 C-15.1483559 11.22468572 -11.71981676 6.89904459 -7.0625 2.4375 C-4.27952094 0.12335974 -3.80542954 -0.13837926 0 0 Z " fill="#040000" transform="translate(2288.4375,398.125)"/>
<path d="M0 0 C5.73815671 4.27025616 8.4307273 10.52111126 9.5625 17.4375 C8.38595146 24.88897409 5.2904386 30.36295906 -0.625 35.0625 C-5.49777728 38.59651083 -9.96636837 39.92494175 -16 39 C-20.70746371 37.17830518 -24.0235114 34.60855535 -26.5 30.1875 C-28.55618025 25.29489252 -28.93796813 21.05425872 -27.375 15.96484375 C-23.94058263 8.00742136 -17.09233311 2.74830714 -9.16796875 -0.40234375 C-5.7166906 -1.35377719 -3.38269255 -1.10588026 0 0 Z " fill="#030000" transform="translate(2242,411)"/>
<path d="M0 0 C4.29932556 3.36468957 7.61307397 7.41003569 8.43359375 12.90234375 C8.44716135 23.4443713 8.44716135 23.4443713 4 28 C-1.37730267 32.46876037 -5.92593521 35.11596828 -13 35 C-17.51984737 33.55364884 -20.89112438 30.95160805 -23.86328125 27.29296875 C-26.72917427 21.51194055 -25.75344857 14.48194823 -23.9375 8.5 C-18.02513538 0.87114242 -9.45677164 -2.70942626 0 0 Z " fill="#030000" transform="translate(2299,330)"/>
<path d="M0 0 C-2.15990399 16.00186932 -16.38519722 28.52759517 -28.08984375 38.61328125 C-30.5751956 40.41757554 -32.9985513 41.38431821 -36 42 C-34.93789554 28.8385164 -25.81223368 15.72952572 -16 7 C-11.33891886 3.62340602 -5.84836386 0 0 0 Z " fill="#050000" transform="translate(2369,321)"/>
<path d="M0 0 C0.495 0.99 0.495 0.99 1 2 C-4.7483288 13.34783356 -15.80638946 17.68109432 -27 22 C-28.68609375 22.65548828 -28.68609375 22.65548828 -30.40625 23.32421875 C-37.54166667 26 -37.54166667 26 -40 26 C-38.8846307 18.75009957 -33.63765495 14.3410078 -28.11328125 10.1015625 C-19.63644743 4.37943377 -10.54023552 -1.50574793 0 0 Z " fill="#050000" transform="translate(2389,349)"/>
<path d="M0 0 C0.66 0.33 1.32 0.66 2 1 C-3.28 6.28 -8.56 11.56 -14 17 C-14.66 16.67 -15.32 16.34 -16 16 C-5.62642369 4.29384966 -5.62642369 4.29384966 0 0 Z " fill="#CA0000" transform="translate(2428,538)"/>
</svg>
