<?xml version="1.0" encoding="UTF-8"?>
<svg version="1.1" xmlns="http://www.w3.org/2000/svg" width="3840" height="2160">
<path d="M0 0 C8.27667613 -0.30025797 17.82134819 1.17666341 24.9453125 5.6640625 C30.27482447 10.87121322 33.17959778 18.31559252 33.62915039 25.64941406 C33.65465481 34.79480588 32.82876247 43.82211637 31.9140625 52.91015625 C31.82830963 53.77331451 31.74255676 54.63647278 31.65420532 55.52578735 C27.90971313 92.97451597 23.55283232 130.35688522 16.06317139 167.2567749 C15.41076319 170.4858255 14.76751541 173.71662342 14.12548828 176.94775391 C8.44499098 205.51876597 2.54666704 234.0370882 -3.64605713 262.50143433 C-13.9543514 309.88631227 -23.32652629 357.43521548 -31.74682617 405.19238281 C-36.20621894 430.43474335 -41.26672149 455.52881395 -46.8984375 480.53515625 C-47.35317457 482.56633687 -47.80760169 484.59758692 -48.26171875 486.62890625 C-49.34543068 491.4734542 -50.43317866 496.31707767 -51.5234375 501.16015625 C-50.55325684 500.91736938 -50.55325684 500.91736938 -49.56347656 500.66967773 C-45.66122629 500.01564655 -41.82685938 499.99346418 -37.8828125 500.0078125 C-36.57373932 500.01072044 -36.57373932 500.01072044 -35.23822021 500.01368713 C-24.64376684 500.09692084 -14.081835 500.77523369 -3.50756836 501.38531494 C26.34186302 503.08270252 56.16197934 503.62198359 86.05556107 503.8488245 C88.62724009 503.86847338 91.19890354 503.88960507 93.77056885 503.91096497 C96.93735709 503.93722821 100.10407319 503.95647181 103.27093506 503.97099304 C104.69169248 503.98128447 106.11244861 503.99175661 107.53320312 504.00244141 C109.37235291 504.01218491 109.37235291 504.01218491 111.24865723 504.02212524 C114.11550704 504.14471687 116.69101887 504.49931997 119.4765625 505.16015625 C119.40002441 504.08701172 119.32348633 503.01386719 119.24462891 501.90820312 C118.60679355 492.2958814 118.41107237 482.78760835 118.69415283 473.15939331 C118.95187162 464.2305372 119.17395525 455.3007589 119.39637375 446.37096405 C119.44712099 444.33901269 119.49838795 442.30707418 119.55037308 440.27515411 C120.45948159 404.5733184 120.56047257 368.87939571 120.5390625 333.16796875 C120.53839547 332.00534421 120.53772843 330.84271967 120.53704119 329.64486408 C120.52590311 311.52494982 120.50201929 293.40505506 120.4765625 275.28515625 C120.45434246 259.36515033 120.4339087 243.44515044 120.42314434 227.52513206 C120.41822525 220.68143838 120.40847035 213.83777551 120.39471436 206.99409413 C120.38718725 202.74193139 120.38392664 198.48977266 120.3817482 194.23760414 C120.37989912 192.2915338 120.3763455 190.34546408 120.37081528 188.39940071 C120.32416534 171.4345278 120.32080909 154.34791766 123.2890625 137.59765625 C123.44181641 136.63537109 123.59457031 135.67308594 123.75195312 134.68164062 C126.52822789 118.38611486 133.20703452 105.31306598 146.4765625 95.16015625 C149.41727622 93.21332932 152.37907284 91.35300684 155.421875 89.5703125 C156.43894531 88.87228516 156.43894531 88.87228516 157.4765625 88.16015625 C157.4765625 84.87132488 155.31770413 82.35312452 153.6640625 79.59765625 C144.06572726 63.20687883 143.74217396 46.30550195 148.4765625 28.16015625 C150.19054499 23.43639693 152.04156046 19.55415823 155.6640625 16.03515625 C162.0570314 14.04623259 167.59389034 14.27439406 173.6015625 17.34765625 C185.08539732 25.08754492 189.86409523 40.85192695 193.125 53.71875 C193.58343542 56.90232933 193.64686564 60.00684265 193.6640625 63.22265625 C193.67824219 64.43050781 193.69242188 65.63835937 193.70703125 66.8828125 C193.48562493 70.0312854 192.95255032 71.47178904 191.4765625 74.16015625 C192.06445557 74.01916504 192.65234863 73.87817383 193.25805664 73.73291016 C215.74726338 68.37760612 237.34870979 66.16015625 260.4765625 66.16015625 C260.0228125 65.35578125 259.5690625 64.55140625 259.1015625 63.72265625 C254.20183949 52.9809558 254.42464648 42.67113249 258.15625 31.59375 C262.2445057 20.96186609 267.35231645 8.45896991 277.95703125 2.84765625 C283.4576934 0.93734878 288.85044009 0.5558758 294.4765625 2.16015625 C299.543081 4.91369892 300.83395614 8.89385029 302.4765625 14.16015625 C303.17970344 17.07924651 303.69854741 20.00715273 304.1640625 22.97265625 C304.2892627 23.76091797 304.41446289 24.54917969 304.54345703 25.36132812 C306.44914056 38.00365861 305.9960265 48.36474575 298.6796875 59.20703125 C296.74342231 62.35031889 295.67762036 65.67708846 294.4765625 69.16015625 C294.1465625 69.82015625 293.8165625 70.48015625 293.4765625 71.16015625 C294.65992187 71.51207031 295.84328125 71.86398438 297.0625 72.2265625 C306.18387603 75.03469912 314.18428537 77.76457866 321.4765625 84.16015625 C322.62318359 85.14435547 322.62318359 85.14435547 323.79296875 86.1484375 C346.43599994 107.10569311 350.08692772 143.37287529 351.30151367 172.58544922 C351.54232268 179.22537011 351.55917206 185.86411963 351.5625 192.5078125 C351.56284241 193.18335867 351.56318481 193.85890484 351.5635376 194.5549221 C351.56009979 207.61894192 351.1368334 220.65040613 350.62124634 233.70394897 C349.56834647 261.12975853 349.27657706 288.53918688 349.28808594 315.98379135 C349.28903686 318.77245025 349.28811338 321.56110329 349.28686523 324.34976196 C349.28316718 346.24984296 349.54195851 368.1356593 349.99659348 390.03076935 C350.46335613 412.79001482 350.71467821 435.54981083 350.94140625 458.3125 C350.9605723 460.22697642 350.97974053 462.14145281 350.9989109 464.05592918 C351.07763452 471.93576329 351.15561401 479.81560459 351.23272991 487.6954546 C351.99784524 565.85576595 352.82914331 644.01253901 354.4765625 722.16015625 C354.49612755 723.09334183 354.5156926 724.0265274 354.53585052 724.98799133 C355.39012528 765.60927319 356.82693377 806.11474906 359.80615234 846.64404297 C365.00730591 917.55445771 365.00730591 917.55445771 350.59033203 946.96826172 C348.715117 950.92207966 348.3579451 952.98005967 349.4765625 957.16015625 C349.39659774 959.47361958 349.28987104 961.78623263 349.1640625 964.09765625 C348.9802507 971.17354365 350.84142997 976.16327596 353.875 982.58984375 C358.33783423 992.53869859 359.82476651 1002.32209309 359.9140625 1013.16015625 C359.92421387 1014.0322876 359.93436523 1014.90441895 359.94482422 1015.80297852 C359.82355371 1024.70440488 357.13140859 1032.11020386 351.00390625 1038.7578125 C343.89946414 1045.112775 332.73569541 1046.48377643 323.4765625 1046.16015625 C322.6640625 1044.16015625 322.6640625 1044.16015625 322.4765625 1041.16015625 C324.11196538 1037.67220157 326.16597822 1034.42542778 328.9453125 1031.7421875 C330.94737007 1029.67373516 332.28089439 1027.4604686 333.7265625 1024.97265625 C334.26796875 1024.07160156 334.809375 1023.17054688 335.3671875 1022.2421875 C336.79120558 1018.2860246 336.27390522 1015.17090325 335.4765625 1011.16015625 C335.35829102 1010.50990479 335.24001953 1009.85965332 335.11816406 1009.18969727 C334.87362022 1007.84951087 334.62486042 1006.51008825 334.37231445 1005.17138672 C332.2802313 993.87852575 331.7687384 982.62442833 331.4765625 971.16015625 C327.50860964 971.16015625 323.64387487 974.67239016 320.32617188 976.78515625 C316.09961609 979.40300299 312.32097166 981.01659922 307.4765625 982.16015625 C308.00056641 983.64515625 308.00056641 983.64515625 308.53515625 985.16015625 C308.99520138 986.49334827 309.4548136 987.82668974 309.9140625 989.16015625 C310.14416016 989.80855469 310.37425781 990.45695312 310.61132812 991.125 C313.47977617 999.52248559 313.68069958 1007.79770831 313.7265625 1016.59765625 C313.7575 1018.07588867 313.7575 1018.07588867 313.7890625 1019.58398438 C313.82708039 1026.75510943 313.22298161 1033.43429129 308.85546875 1039.359375 C300.66047566 1046.07398224 292.15692803 1050.73525925 281.4765625 1051.16015625 C279.8924477 1051.38385719 278.30909365 1051.61301407 276.7265625 1051.84765625 C273.13094369 1052.23739116 270.60698857 1052.21449836 267.4765625 1050.16015625 C266.4765625 1048.34765625 266.4765625 1048.34765625 266.4765625 1046.16015625 C268.15602747 1042.30726602 270.53226355 1040.17949323 273.796875 1037.61328125 C276.40018545 1035.361115 278.55002955 1032.75146879 280.765625 1030.125 C282.4765625 1028.16015625 282.4765625 1028.16015625 284.5612793 1026.47460938 C287.19797534 1023.28839159 286.92177661 1021.2581981 286.83203125 1017.1640625 C286.81998405 1016.15822365 286.81998405 1016.15822365 286.80769348 1015.13206482 C286.77877701 1012.99477893 286.72259128 1010.85931804 286.6640625 1008.72265625 C286.6214006 1006.58980247 286.58448069 1004.45700041 286.55256653 1002.32395935 C286.52110133 1000.38577611 286.47421194 998.44786147 286.42651367 996.51000977 C286.47059293 993.55970948 286.77779141 991.01598854 287.4765625 988.16015625 C286.54199219 988.30453125 285.60742188 988.44890625 284.64453125 988.59765625 C273.87494089 990.15480578 263.34557392 990.37281082 252.4765625 990.16015625 C252.66992188 991.04574219 252.86328125 991.93132813 253.0625 992.84375 C260.50077548 1028.23079326 260.50077548 1028.23079326 253.9140625 1039.03515625 C248.46493402 1046.19686797 242.10072784 1049.92487935 233.4765625 1052.16015625 C232.6515625 1052.38703125 231.8265625 1052.61390625 230.9765625 1052.84765625 C223.16557818 1053.82402929 212.85543722 1054.12601594 206.15234375 1049.5859375 C205.32283203 1048.88017578 205.32283203 1048.88017578 204.4765625 1048.16015625 C206.51654429 1041.66930509 210.70245035 1038.34146339 216.58203125 1035.203125 C219.31860723 1033.69659761 221.89041441 1031.94921399 224.484375 1030.2109375 C226.79110676 1028.99424957 228.91170548 1028.56396592 231.4765625 1028.16015625 C231.1878125 1027.51175781 230.8990625 1026.86335938 230.6015625 1026.1953125 C226.17425318 1014.49676254 227.10206475 1002.48257247 227.4765625 990.16015625 C226.85837646 990.11528076 226.24019043 990.07040527 225.60327148 990.02416992 C213.36490476 989.11211345 201.434701 987.99383836 189.4765625 985.16015625 C189.60933594 985.71058594 189.74210937 986.26101563 189.87890625 986.828125 C191.28374838 993.44216278 191.88264541 1000.04880784 192.2890625 1006.78515625 C192.35407959 1007.6671167 192.41909668 1008.54907715 192.48608398 1009.45776367 C192.88220252 1017.1344406 191.65020792 1023.03554096 187.2265625 1029.39453125 C184.17407277 1032.46436468 181.02635185 1034.95260977 177.4765625 1037.41015625 C176.87328125 1037.84328125 176.27 1038.27640625 175.6484375 1038.72265625 C168.16223608 1043.99554594 162.52676816 1044.89514458 153.41015625 1043.390625 C151.57684949 1043.04975892 149.74482075 1042.701955 147.9140625 1042.34765625 C146.99431641 1042.18201172 146.07457031 1042.01636719 145.12695312 1041.84570312 C140.09371688 1040.88681915 135.91562415 1039.73791418 131.4765625 1037.16015625 C132.4665625 1036.83015625 133.4565625 1036.50015625 134.4765625 1036.16015625 C135.1365625 1036.49015625 135.7965625 1036.82015625 136.4765625 1037.16015625 C136.5178125 1036.60328125 136.5590625 1036.04640625 136.6015625 1035.47265625 C137.69471143 1032.58361979 139.46916026 1031.31054466 141.8671875 1029.44921875 C143.70227183 1028.03313408 143.70227183 1028.03313408 145.9765625 1025.59765625 C150.72479797 1020.96812667 155.1404302 1018.680828 161.4765625 1017.16015625 C161.3115625 1016.02578125 161.1465625 1014.89140625 160.9765625 1013.72265625 C159.60527965 1001.063132 160.43504158 988.68269974 162.4765625 976.16015625 C161.55875 975.59167969 160.6409375 975.02320313 159.6953125 974.4375 C138.3275142 961.06550676 125.33442458 942.8119925 119.4765625 918.16015625 C118.81276917 915.02587404 118.24465626 911.88413189 117.7265625 908.72265625 C117.61086914 908.02116455 117.49517578 907.31967285 117.37597656 906.59692383 C115.3107372 892.56553694 115.32003761 878.24065055 115.21620178 864.08885193 C115.19465995 861.16534642 115.16769004 858.24193027 115.13952637 855.31848145 C115.08054921 849.09907672 115.02814778 842.87962605 114.9765625 836.66015625 C114.90840112 828.4830254 114.83699197 820.30593847 114.7578125 812.12890625 C114.74370236 810.65312764 114.74370236 810.65312764 114.72930717 809.14753532 C114.60973681 797.11075702 114.37597328 785.1001857 113.81349182 773.07484436 C113.38857314 763.91286902 113.36237605 754.76761187 113.4140625 745.59765625 C113.41910959 743.97721499 113.42366659 742.35677214 113.42773438 740.73632812 C113.43843589 736.8775623 113.45550491 733.01887886 113.4765625 729.16015625 C112.00123047 729.24317993 112.00123047 729.24317993 110.49609375 729.32788086 C106.6639497 729.54244407 102.83152713 729.7516856 98.99902344 729.9597168 C97.37460073 730.0485475 95.75024516 730.1386191 94.12597656 730.23022461 C63.09582875 731.97689016 32.1023978 732.32346825 1.03167439 732.32741332 C-2.1769267 732.32813492 -5.38552377 732.33028947 -8.59412384 732.33291054 C-19.8658118 732.34209544 -31.13748811 732.3462538 -42.40917969 732.34545898 C-52.79287341 732.34485883 -63.1765151 732.35541646 -73.56019568 732.37120265 C-82.58383664 732.3844155 -91.60746086 732.38963727 -100.63111138 732.38900357 C-105.9727795 732.38875275 -111.3144011 732.39136744 -116.65605927 732.40218163 C-136.62512727 732.43973654 -156.55407487 732.37326594 -176.49707031 731.2590332 C-177.21906349 731.2193487 -177.94105666 731.1796642 -178.68492842 731.13877714 C-198.32653275 730.02516155 -217.48019888 727.2199304 -236.39306641 721.75830078 C-239.2010606 720.96989994 -242.02812792 720.27702399 -244.86254883 719.59082031 C-271.49181617 713.14027228 -300.46120139 700.89997652 -315.97265625 676.84375 C-337.84350572 638.99671325 -333.57146932 596.02820633 -322.74023438 555.20849609 C-321.86675787 552.06408392 -320.97921547 548.92400047 -320.0859375 545.78515625 C-315.91278152 531.11209838 -312.33309909 516.30501987 -308.7734375 501.47265625 C-308.4733075 500.22250732 -308.17317749 498.9723584 -307.86395264 497.68432617 C-306.03727121 490.06898249 -304.21742061 482.45201957 -302.40020752 474.83441162 C-301.02561674 469.07395284 -299.64786697 463.3142512 -298.26953125 457.5546875 C-298.01261505 456.48100418 -297.75569885 455.40732086 -297.49099731 454.30110168 C-295.50967476 446.02463175 -293.52065678 437.75002781 -291.52511597 429.47697449 C-290.47315479 425.11427715 -289.42427751 420.75097987 -288.39111328 416.38378906 C-279.63871911 379.40607279 -268.30282819 343.12778609 -256.98031616 306.87039185 C-247.88666567 277.72190941 -238.71592272 248.24025992 -232.2578125 218.37890625 C-217.40681488 150.05124222 -195.95983105 85.19100084 -135.26171875 45.7734375 C-93.83322677 19.40207425 -49.08509853 3.11530811 0 0 Z " fill="#BBBBBB" transform="translate(3171.5234375,137.83984375)"/>
<path d="M0 0 C8.27667613 -0.30025797 17.82134819 1.17666341 24.9453125 5.6640625 C30.27482447 10.87121322 33.17959778 18.31559252 33.62915039 25.64941406 C33.65465481 34.79480588 32.82876247 43.82211637 31.9140625 52.91015625 C31.82830963 53.77331451 31.74255676 54.63647278 31.65420532 55.52578735 C27.90971313 92.97451597 23.55283232 130.35688522 16.06317139 167.2567749 C15.41076319 170.4858255 14.76751541 173.71662342 14.12548828 176.94775391 C8.44499098 205.51876597 2.54666704 234.0370882 -3.64605713 262.50143433 C-13.9543514 309.88631227 -23.32652629 357.43521548 -31.74682617 405.19238281 C-36.20621894 430.43474335 -41.26672149 455.52881395 -46.8984375 480.53515625 C-47.35317457 482.56633687 -47.80760169 484.59758692 -48.26171875 486.62890625 C-49.34543068 491.4734542 -50.43317866 496.31707767 -51.5234375 501.16015625 C-50.55325684 500.91736938 -50.55325684 500.91736938 -49.56347656 500.66967773 C-45.66122629 500.01564655 -41.82685938 499.99346418 -37.8828125 500.0078125 C-36.57373932 500.01072044 -36.57373932 500.01072044 -35.23822021 500.01368713 C-24.64376684 500.09692084 -14.081835 500.77523369 -3.50756836 501.38531494 C26.34186302 503.08270252 56.16197934 503.62198359 86.05556107 503.8488245 C88.62724009 503.86847338 91.19890354 503.88960507 93.77056885 503.91096497 C96.93735709 503.93722821 100.10407319 503.95647181 103.27093506 503.97099304 C104.69169248 503.98128447 106.11244861 503.99175661 107.53320312 504.00244141 C109.37235291 504.01218491 109.37235291 504.01218491 111.24865723 504.02212524 C114.11550704 504.14471687 116.69101887 504.49931997 119.4765625 505.16015625 C119.40002441 504.08701172 119.32348633 503.01386719 119.24462891 501.90820312 C118.60679355 492.2958814 118.41107237 482.78760835 118.69415283 473.15939331 C118.95187162 464.2305372 119.17395525 455.3007589 119.39637375 446.37096405 C119.44712099 444.33901269 119.49838795 442.30707418 119.55037308 440.27515411 C120.45948159 404.5733184 120.56047257 368.87939571 120.5390625 333.16796875 C120.53839547 332.00534421 120.53772843 330.84271967 120.53704119 329.64486408 C120.52590311 311.52494982 120.50201929 293.40505506 120.4765625 275.28515625 C120.45434246 259.36515033 120.4339087 243.44515044 120.42314434 227.52513206 C120.41822525 220.68143838 120.40847035 213.83777551 120.39471436 206.99409413 C120.38718725 202.74193139 120.38392664 198.48977266 120.3817482 194.23760414 C120.37989912 192.2915338 120.3763455 190.34546408 120.37081528 188.39940071 C120.32416534 171.4345278 120.32080909 154.34791766 123.2890625 137.59765625 C123.44181641 136.63537109 123.59457031 135.67308594 123.75195312 134.68164062 C126.52822789 118.38611486 133.20703452 105.31306598 146.4765625 95.16015625 C149.41727622 93.21332932 152.37907284 91.35300684 155.421875 89.5703125 C156.43894531 88.87228516 156.43894531 88.87228516 157.4765625 88.16015625 C157.4765625 84.87132488 155.31770413 82.35312452 153.6640625 79.59765625 C144.06572726 63.20687883 143.74217396 46.30550195 148.4765625 28.16015625 C150.19054499 23.43639693 152.04156046 19.55415823 155.6640625 16.03515625 C162.0570314 14.04623259 167.59389034 14.27439406 173.6015625 17.34765625 C185.08539732 25.08754492 189.86409523 40.85192695 193.125 53.71875 C193.58343542 56.90232933 193.64686564 60.00684265 193.6640625 63.22265625 C193.67824219 64.43050781 193.69242188 65.63835937 193.70703125 66.8828125 C193.48562493 70.0312854 192.95255032 71.47178904 191.4765625 74.16015625 C192.06445557 74.01916504 192.65234863 73.87817383 193.25805664 73.73291016 C215.74726338 68.37760612 237.34870979 66.16015625 260.4765625 66.16015625 C260.0228125 65.35578125 259.5690625 64.55140625 259.1015625 63.72265625 C254.20183949 52.9809558 254.42464648 42.67113249 258.15625 31.59375 C262.2445057 20.96186609 267.35231645 8.45896991 277.95703125 2.84765625 C283.4576934 0.93734878 288.85044009 0.5558758 294.4765625 2.16015625 C299.543081 4.91369892 300.83395614 8.89385029 302.4765625 14.16015625 C303.17970344 17.07924651 303.69854741 20.00715273 304.1640625 22.97265625 C304.2892627 23.76091797 304.41446289 24.54917969 304.54345703 25.36132812 C306.44914056 38.00365861 305.9960265 48.36474575 298.6796875 59.20703125 C296.74342231 62.35031889 295.67762036 65.67708846 294.4765625 69.16015625 C294.1465625 69.82015625 293.8165625 70.48015625 293.4765625 71.16015625 C294.65992187 71.51207031 295.84328125 71.86398438 297.0625 72.2265625 C306.18387603 75.03469912 314.18428537 77.76457866 321.4765625 84.16015625 C322.62318359 85.14435547 322.62318359 85.14435547 323.79296875 86.1484375 C346.43599994 107.10569311 350.08692772 143.37287529 351.30151367 172.58544922 C351.54232268 179.22537011 351.55917206 185.86411963 351.5625 192.5078125 C351.56284241 193.18335867 351.56318481 193.85890484 351.5635376 194.5549221 C351.56009979 207.61894192 351.1368334 220.65040613 350.62124634 233.70394897 C349.56834647 261.12975853 349.27657706 288.53918688 349.28808594 315.98379135 C349.28903686 318.77245025 349.28811338 321.56110329 349.28686523 324.34976196 C349.28316718 346.24984296 349.54195851 368.1356593 349.99659348 390.03076935 C350.46335613 412.79001482 350.71467821 435.54981083 350.94140625 458.3125 C350.9605723 460.22697642 350.97974053 462.14145281 350.9989109 464.05592918 C351.07763452 471.93576329 351.15561401 479.81560459 351.23272991 487.6954546 C351.99784524 565.85576595 352.82914331 644.01253901 354.4765625 722.16015625 C354.49612755 723.09334183 354.5156926 724.0265274 354.53585052 724.98799133 C355.39012528 765.60927319 356.82693377 806.11474906 359.80615234 846.64404297 C365.00730591 917.55445771 365.00730591 917.55445771 350.59033203 946.96826172 C348.715117 950.92207966 348.3579451 952.98005967 349.4765625 957.16015625 C349.39659774 959.47361958 349.28987104 961.78623263 349.1640625 964.09765625 C348.9802507 971.17354365 350.84142997 976.16327596 353.875 982.58984375 C358.33783423 992.53869859 359.82476651 1002.32209309 359.9140625 1013.16015625 C359.92421387 1014.0322876 359.93436523 1014.90441895 359.94482422 1015.80297852 C359.82355371 1024.70440488 357.13140859 1032.11020386 351.00390625 1038.7578125 C343.89946414 1045.112775 332.73569541 1046.48377643 323.4765625 1046.16015625 C322.6640625 1044.16015625 322.6640625 1044.16015625 322.4765625 1041.16015625 C324.11196538 1037.67220157 326.16597822 1034.42542778 328.9453125 1031.7421875 C330.94737007 1029.67373516 332.28089439 1027.4604686 333.7265625 1024.97265625 C334.26796875 1024.07160156 334.809375 1023.17054688 335.3671875 1022.2421875 C336.79120558 1018.2860246 336.27390522 1015.17090325 335.4765625 1011.16015625 C335.35829102 1010.50990479 335.24001953 1009.85965332 335.11816406 1009.18969727 C334.87362022 1007.84951087 334.62486042 1006.51008825 334.37231445 1005.17138672 C332.2802313 993.87852575 331.7687384 982.62442833 331.4765625 971.16015625 C327.50860964 971.16015625 323.64387487 974.67239016 320.32617188 976.78515625 C316.09961609 979.40300299 312.32097166 981.01659922 307.4765625 982.16015625 C308.00056641 983.64515625 308.00056641 983.64515625 308.53515625 985.16015625 C308.99520138 986.49334827 309.4548136 987.82668974 309.9140625 989.16015625 C310.14416016 989.80855469 310.37425781 990.45695312 310.61132812 991.125 C313.47977617 999.52248559 313.68069958 1007.79770831 313.7265625 1016.59765625 C313.7575 1018.07588867 313.7575 1018.07588867 313.7890625 1019.58398438 C313.82708039 1026.75510943 313.22298161 1033.43429129 308.85546875 1039.359375 C300.66047566 1046.07398224 292.15692803 1050.73525925 281.4765625 1051.16015625 C279.8924477 1051.38385719 278.30909365 1051.61301407 276.7265625 1051.84765625 C273.13094369 1052.23739116 270.60698857 1052.21449836 267.4765625 1050.16015625 C266.4765625 1048.34765625 266.4765625 1048.34765625 266.4765625 1046.16015625 C268.15602747 1042.30726602 270.53226355 1040.17949323 273.796875 1037.61328125 C276.40018545 1035.361115 278.55002955 1032.75146879 280.765625 1030.125 C282.4765625 1028.16015625 282.4765625 1028.16015625 284.5612793 1026.47460938 C287.19797534 1023.28839159 286.92177661 1021.2581981 286.83203125 1017.1640625 C286.81998405 1016.15822365 286.81998405 1016.15822365 286.80769348 1015.13206482 C286.77877701 1012.99477893 286.72259128 1010.85931804 286.6640625 1008.72265625 C286.6214006 1006.58980247 286.58448069 1004.45700041 286.55256653 1002.32395935 C286.52110133 1000.38577611 286.47421194 998.44786147 286.42651367 996.51000977 C286.47059293 993.55970948 286.77779141 991.01598854 287.4765625 988.16015625 C286.54199219 988.30453125 285.60742188 988.44890625 284.64453125 988.59765625 C273.87494089 990.15480578 263.34557392 990.37281082 252.4765625 990.16015625 C252.66992188 991.04574219 252.86328125 991.93132813 253.0625 992.84375 C260.50077548 1028.23079326 260.50077548 1028.23079326 253.9140625 1039.03515625 C248.46493402 1046.19686797 242.10072784 1049.92487935 233.4765625 1052.16015625 C232.6515625 1052.38703125 231.8265625 1052.61390625 230.9765625 1052.84765625 C223.16557818 1053.82402929 212.85543722 1054.12601594 206.15234375 1049.5859375 C205.32283203 1048.88017578 205.32283203 1048.88017578 204.4765625 1048.16015625 C206.51654429 1041.66930509 210.70245035 1038.34146339 216.58203125 1035.203125 C219.31860723 1033.69659761 221.89041441 1031.94921399 224.484375 1030.2109375 C226.79110676 1028.99424957 228.91170548 1028.56396592 231.4765625 1028.16015625 C231.1878125 1027.51175781 230.8990625 1026.86335938 230.6015625 1026.1953125 C226.17425318 1014.49676254 227.10206475 1002.48257247 227.4765625 990.16015625 C226.85837646 990.11528076 226.24019043 990.07040527 225.60327148 990.02416992 C213.36490476 989.11211345 201.434701 987.99383836 189.4765625 985.16015625 C189.60933594 985.71058594 189.74210937 986.26101563 189.87890625 986.828125 C191.28374838 993.44216278 191.88264541 1000.04880784 192.2890625 1006.78515625 C192.35407959 1007.6671167 192.41909668 1008.54907715 192.48608398 1009.45776367 C192.88220252 1017.1344406 191.65020792 1023.03554096 187.2265625 1029.39453125 C184.17407277 1032.46436468 181.02635185 1034.95260977 177.4765625 1037.41015625 C176.87328125 1037.84328125 176.27 1038.27640625 175.6484375 1038.72265625 C168.16223608 1043.99554594 162.52676816 1044.89514458 153.41015625 1043.390625 C151.57684949 1043.04975892 149.74482075 1042.701955 147.9140625 1042.34765625 C146.99431641 1042.18201172 146.07457031 1042.01636719 145.12695312 1041.84570312 C140.09371688 1040.88681915 135.91562415 1039.73791418 131.4765625 1037.16015625 C132.4665625 1036.83015625 133.4565625 1036.50015625 134.4765625 1036.16015625 C135.1365625 1036.49015625 135.7965625 1036.82015625 136.4765625 1037.16015625 C136.5178125 1036.60328125 136.5590625 1036.04640625 136.6015625 1035.47265625 C137.69471143 1032.58361979 139.46916026 1031.31054466 141.8671875 1029.44921875 C143.70227183 1028.03313408 143.70227183 1028.03313408 145.9765625 1025.59765625 C150.72479797 1020.96812667 155.1404302 1018.680828 161.4765625 1017.16015625 C161.3115625 1016.02578125 161.1465625 1014.89140625 160.9765625 1013.72265625 C159.60527965 1001.063132 160.43504158 988.68269974 162.4765625 976.16015625 C161.55875 975.59167969 160.6409375 975.02320313 159.6953125 974.4375 C138.3275142 961.06550676 125.33442458 942.8119925 119.4765625 918.16015625 C118.81276917 915.02587404 118.24465626 911.88413189 117.7265625 908.72265625 C117.61086914 908.02116455 117.49517578 907.31967285 117.37597656 906.59692383 C115.3107372 892.56553694 115.32003761 878.24065055 115.21620178 864.08885193 C115.19465995 861.16534642 115.16769004 858.24193027 115.13952637 855.31848145 C115.08054921 849.09907672 115.02814778 842.87962605 114.9765625 836.66015625 C114.90840112 828.4830254 114.83699197 820.30593847 114.7578125 812.12890625 C114.74370236 810.65312764 114.74370236 810.65312764 114.72930717 809.14753532 C114.60973681 797.11075702 114.37597328 785.1001857 113.81349182 773.07484436 C113.38857314 763.91286902 113.36237605 754.76761187 113.4140625 745.59765625 C113.41910959 743.97721499 113.42366659 742.35677214 113.42773438 740.73632812 C113.43843589 736.8775623 113.45550491 733.01887886 113.4765625 729.16015625 C112.00123047 729.24317993 112.00123047 729.24317993 110.49609375 729.32788086 C106.6639497 729.54244407 102.83152713 729.7516856 98.99902344 729.9597168 C97.37460073 730.0485475 95.75024516 730.1386191 94.12597656 730.23022461 C63.09582875 731.97689016 32.1023978 732.32346825 1.03167439 732.32741332 C-2.1769267 732.32813492 -5.38552377 732.33028947 -8.59412384 732.33291054 C-19.8658118 732.34209544 -31.13748811 732.3462538 -42.40917969 732.34545898 C-52.79287341 732.34485883 -63.1765151 732.35541646 -73.56019568 732.37120265 C-82.58383664 732.3844155 -91.60746086 732.38963727 -100.63111138 732.38900357 C-105.9727795 732.38875275 -111.3144011 732.39136744 -116.65605927 732.40218163 C-136.62512727 732.43973654 -156.55407487 732.37326594 -176.49707031 731.2590332 C-177.21906349 731.2193487 -177.94105666 731.1796642 -178.68492842 731.13877714 C-198.32653275 730.02516155 -217.48019888 727.2199304 -236.39306641 721.75830078 C-239.2010606 720.96989994 -242.02812792 720.27702399 -244.86254883 719.59082031 C-271.49181617 713.14027228 -300.46120139 700.89997652 -315.97265625 676.84375 C-337.84350572 638.99671325 -333.57146932 596.02820633 -322.74023438 555.20849609 C-321.86675787 552.06408392 -320.97921547 548.92400047 -320.0859375 545.78515625 C-315.91278152 531.11209838 -312.33309909 516.30501987 -308.7734375 501.47265625 C-308.4733075 500.22250732 -308.17317749 498.9723584 -307.86395264 497.68432617 C-306.03727121 490.06898249 -304.21742061 482.45201957 -302.40020752 474.83441162 C-301.02561674 469.07395284 -299.64786697 463.3142512 -298.26953125 457.5546875 C-298.01261505 456.48100418 -297.75569885 455.40732086 -297.49099731 454.30110168 C-295.50967476 446.02463175 -293.52065678 437.75002781 -291.52511597 429.47697449 C-290.47315479 425.11427715 -289.42427751 420.75097987 -288.39111328 416.38378906 C-279.63871911 379.40607279 -268.30282819 343.12778609 -256.98031616 306.87039185 C-247.88666567 277.72190941 -238.71592272 248.24025992 -232.2578125 218.37890625 C-217.40681488 150.05124222 -195.95983105 85.19100084 -135.26171875 45.7734375 C-93.83322677 19.40207425 -49.08509853 3.11530811 0 0 Z M149.4765625 116.16015625 C136.92848412 132.24227453 139.01489505 153.38118302 139.00328207 172.66612029 C138.99766774 176.47805286 138.9747806 180.28988689 138.95388794 184.10176086 C138.9202284 190.63725667 138.89663359 197.17272171 138.88012695 203.70828247 C138.85394686 213.98586183 138.80660738 224.26328808 138.75585938 234.54077148 C138.7389539 238.01103153 138.72219567 241.48129226 138.70550537 244.95155334 C138.70135707 245.81170577 138.69720876 246.6718582 138.69293475 247.55807585 C138.66375961 253.66459847 138.63738707 259.77112934 138.61236572 265.87767029 C138.49272749 294.93330094 138.29429074 323.98759146 138.03887939 353.0423584 C137.9879271 358.85057714 137.94086908 364.65881875 137.89507389 370.46708012 C137.70552335 394.27826155 137.41310853 418.08619367 136.99609375 441.89453125 C136.9764859 443.05465792 136.95687805 444.21478458 136.93667603 445.4100666 C136.3528893 479.50036016 136.3528893 479.50036016 134.4765625 495.16015625 C134.30133057 496.63669678 134.30133057 496.63669678 134.12255859 498.14306641 C133.75419919 500.99399031 133.32157883 503.8243825 132.8515625 506.66015625 C132.73578857 507.47508545 132.62001465 508.29001465 132.50073242 509.12963867 C131.85715236 512.43287158 131.40479983 514.46162169 128.64941406 516.53515625 C122.87263465 519.49625142 117.73399823 520.31225006 111.28466797 520.32128906 C110.44517357 520.32617466 109.60567917 520.33106026 108.74074554 520.3360939 C105.94174144 520.35057032 103.14278441 520.3573151 100.34375 520.36328125 C98.37293467 520.37023373 96.40211965 520.37727475 94.43130493 520.38439941 C88.0713887 520.40397129 81.71150548 520.40858173 75.3515625 520.41015625 C74.27679657 520.41074539 73.20203064 520.41133453 72.09469604 520.41194153 C31.895757 520.42757962 -8.08673852 520.08191807 -47.90234375 513.9296875 C-52.52631264 513.24678409 -56.85404107 512.82779548 -61.5234375 513.16015625 C-62.1834375 513.82015625 -62.8434375 514.48015625 -63.5234375 515.16015625 C-77.02545276 521.46449986 -91.68503855 525.15313038 -106.44140625 526.8203125 C-107.55517136 526.94624283 -108.66893646 527.07217316 -109.81645203 527.20191956 C-123.1429858 528.58639452 -136.45012462 528.66319646 -149.8359375 528.59765625 C-151.14060974 528.5949472 -152.44528198 528.59223816 -153.78948975 528.58944702 C-175.26011557 528.52210657 -196.31333116 527.52662346 -217.5234375 524.16015625 C-218.7398291 523.96760254 -219.9562207 523.77504883 -221.20947266 523.57666016 C-242.82080138 520.02081679 -263.65283624 515.56324685 -282.5234375 504.16015625 C-284.56301455 510.05197857 -286.32788885 515.9546996 -287.86328125 521.99609375 C-289.59000056 528.67055415 -291.3861503 535.31945617 -293.27734375 541.94921875 C-293.50795502 542.75905212 -293.73856628 543.5688855 -293.97616577 544.40325928 C-294.91330618 547.68930427 -295.85305459 550.97458611 -296.79663086 554.25878906 C-307.3171875 590.92320056 -317.54270865 632.56250096 -297.9609375 668.09765625 C-291.24854469 678.67528297 -282.68146925 687.86842183 -272.5234375 695.16015625 C-271.68167969 695.87042969 -270.83992188 696.58070313 -269.97265625 697.3125 C-261.31092858 704.08751471 -252.69500364 704.76227549 -242.03027344 705.86572266 C-238.59696838 706.26897216 -235.28215721 706.94950296 -231.8984375 707.66015625 C-211.29066257 711.59624126 -190.32083344 712.71189261 -169.40228271 713.65657043 C-163.2069262 713.93843362 -157.01271749 714.23474851 -150.81925273 714.5555163 C-121.57174113 716.05765799 -92.40663938 716.38128158 -63.12477875 716.21879005 C-55.43308502 716.17641119 -47.74140378 716.15426425 -40.04962158 716.13517761 C-37.38952232 716.12825058 -34.72942327 716.12127741 -32.06932449 716.11416912 C-31.40600758 716.11239747 -30.74269066 716.11062581 -30.05927323 716.10880047 C-22.61941719 716.08857222 -15.17958051 716.06333604 -7.73974609 716.03637695 C-7.06431713 716.0339344 -6.38888816 716.03149184 -5.69299164 716.02897527 C5.37596349 715.98852653 16.44484771 715.93660729 27.51374391 715.88266329 C38.970165 715.82731832 50.42651563 715.79141021 61.88305831 715.77105445 C69.53202189 715.75643742 77.18045636 715.71971492 84.82924414 715.66653216 C89.55041583 715.63890067 94.27144376 715.63201738 98.99268913 715.63120461 C101.18458287 715.62662041 103.37647747 715.61339051 105.5682621 715.59104538 C108.54951399 715.56186266 111.52921564 715.56316079 114.51055908 715.57234192 C115.82092113 715.54844925 115.82092113 715.54844925 117.15775514 715.5240739 C119.56862259 715.55050373 119.56862259 715.55050373 123.4765625 716.16015625 C127.26313385 720.69139479 127.59671446 725.27758457 127.66601562 731.00415039 C127.68273315 732.18380875 127.69945068 733.3634671 127.7166748 734.57887268 C127.73703796 736.49276039 127.73703796 736.49276039 127.7578125 738.4453125 C127.77589231 739.78414097 127.79449707 741.12296245 127.81359863 742.46177673 C127.87317607 746.71534259 127.92510729 750.96898566 127.9765625 755.22265625 C128.04466684 760.77611084 128.11615037 766.32950366 128.1953125 771.8828125 C128.20501005 772.56434513 128.2147076 773.24587776 128.22469902 773.9480629 C128.3461404 782.17091592 128.57521795 790.3634299 129.08058167 798.57093811 C129.55575267 806.66762713 129.73806439 814.77190975 129.94140625 822.87890625 C129.98059228 824.41015243 130.01982802 825.94139734 130.05911255 827.47264099 C130.22018577 833.79364584 130.37848348 840.11470097 130.52612305 846.43603516 C131.02850452 871.36463466 131.02850452 871.36463466 133.4765625 896.16015625 C133.6108667 897.11857422 133.7451709 898.07699219 133.88354492 899.06445312 C136.38042766 915.00621178 141.86710288 931.73932548 152.4765625 944.16015625 C153.06824219 944.86140625 153.65992187 945.56265625 154.26953125 946.28515625 C160.5059938 953.07454228 168.3757408 958.40628014 177.4765625 960.16015625 C179.17221312 960.90567528 180.86770286 961.65157388 182.56103516 962.40234375 C185.99613808 963.76132405 189.54745869 964.45291422 193.1640625 965.16015625 C194.00984863 965.32749268 194.85563477 965.4948291 195.72705078 965.66723633 C233.65081471 972.76568296 279.80494489 978.92077671 314.23046875 957.75 C328.17493735 947.87974135 335.59877256 932.95698913 338.61328125 916.390625 C339.53289718 910.41568498 339.85996965 904.57569065 339.8515625 898.53515625 C339.85140137 897.37910889 339.85124023 896.22306152 339.85107422 895.03198242 C339.6350365 877.01784815 337.74474283 859.05697524 336.223526 841.11772156 C334.52262088 820.97194778 333.42095846 800.83612729 332.95703125 780.62475586 C332.93602356 779.72386038 332.91501587 778.82296489 332.89337158 777.89476955 C332.2963271 751.69667456 332.17776813 725.4921725 332.01769894 699.28858775 C331.97148759 691.75772648 331.9205378 684.22689896 331.86932468 676.69607031 C331.77752463 663.18680076 331.68844194 649.67751494 331.6015625 636.16821289 C331.59640908 635.3670132 331.59125566 634.56581351 331.58594608 633.74033504 C331.56509822 630.49821616 331.54426115 627.25609722 331.52343702 624.01397819 C331.46647133 615.14644233 331.40914434 606.27890883 331.3515625 597.41137695 C331.34641664 596.61878873 331.34127077 595.8262005 331.33596897 595.00959445 C331.24860593 581.56526408 331.15898936 568.12094944 331.06804657 554.67664284 C331.01760519 547.20468709 330.9682885 539.73272756 330.92211914 532.26074409 C330.70999598 497.97503484 330.37679745 463.69456308 329.82461548 429.41247654 C329.40844713 403.45350438 329.23748963 377.49729134 329.2265625 351.53515625 C329.2255315 350.38918095 329.2245005 349.24320564 329.22343826 348.06250381 C329.18961405 307.60607263 329.80232701 267.22616293 332.78857422 226.86450195 C333.61031244 215.4010309 333.69743342 203.95243878 333.71679688 192.46264648 C333.72649624 188.99633724 333.75762108 185.53062406 333.7890625 182.06445312 C333.90671666 157.19078982 332.786127 124.85724689 315.4765625 105.16015625 C314.95320313 104.54398438 314.42984375 103.9278125 313.890625 103.29296875 C306.87139266 95.61465356 298.08192282 92.85842317 288.3515625 89.97265625 C287.52382324 89.72249756 286.69608398 89.47233887 285.84326172 89.21459961 C271.35023483 85.1279914 256.49240599 84.71728869 241.5390625 84.72265625 C240.64225769 84.72192108 239.74545288 84.72118591 238.82147217 84.72042847 C207.51794747 84.78757653 171.34637688 91.72516064 149.4765625 116.16015625 Z " fill="#010101" transform="translate(3171.5234375,137.83984375)"/>
<path d="M0 0 C0.97710938 -0.03738281 1.95421875 -0.07476562 2.9609375 -0.11328125 C5.625 0.3125 5.625 0.3125 7.94921875 1.80859375 C10.32239105 5.35452252 10.17695488 8.5679478 10.0625 12.6875 C10.04050537 13.99920166 10.04050537 13.99920166 10.01806641 15.33740234 C9.35349339 39.90967223 5.33942887 64.33572833 1.74464417 88.61050415 C0.95007845 94.00409108 0.20620786 99.40127963 -0.48828125 104.80859375 C-6.06721979 147.71497211 -15.50204952 190.17620645 -25.74636841 232.18447876 C-38.07226038 282.73609642 -48.18399904 333.69162461 -57.17633057 384.93548584 C-62.2538937 413.82159651 -67.84474555 442.73824742 -74.91918945 471.21313477 C-75.42110365 473.35428707 -75.42110365 473.35428707 -75.64916992 475.73803711 C-75.9765742 478.16024278 -76.33614082 480.09770797 -77.375 482.3125 C-79.96740599 484.22820465 -82.70650109 484.88293468 -85.8125 485.625 C-86.65852783 485.85662842 -87.50455566 486.08825684 -88.3762207 486.3269043 C-91.03298008 487.03588134 -93.69902385 487.68031781 -96.375 488.3125 C-97.6115332 488.61994141 -97.6115332 488.61994141 -98.87304688 488.93359375 C-101.26435997 489.52323259 -103.6600372 490.08268617 -106.0625 490.625 C-107.10845337 490.86440308 -107.10845337 490.86440308 -108.17553711 491.10864258 C-145.73435571 498.83719848 -188.62081727 494.17221861 -226.18151855 488.63208008 C-228.24883488 488.33088167 -230.31739475 488.04353651 -232.38769531 487.76367188 C-245.35401441 486.01007263 -258.03697442 483.69102795 -270.71875 480.4609375 C-275.56930319 479.22961128 -280.46045378 478.25113172 -285.375 477.3125 C-284.80195911 471.88369159 -283.80633712 466.81562642 -282.3125 461.5625 C-280.05185377 453.29701223 -278.16902176 444.96685419 -276.35656738 436.59387207 C-268.43937149 400.11456417 -259.5091885 363.85773896 -248.02606201 328.32775879 C-247.37298244 326.30625496 -246.72334561 324.283675 -246.07470703 322.26074219 C-243.98775743 315.75493212 -241.88765443 309.25344083 -239.78125 302.75390625 C-231.08509557 275.88349035 -223.16436477 249.0287478 -217.375 221.375 C-191.32421807 97.1570338 -191.32421807 97.1570338 -161.375 68.3125 C-160.47265625 67.41402344 -159.5703125 66.51554687 -158.640625 65.58984375 C-145.55047899 53.02402679 -130.39131709 43.2490532 -114.5546875 34.51757812 C-112.58821031 33.43037703 -110.6366821 32.32091254 -108.6875 31.203125 C-76.43124728 13.00141449 -37.20535728 0.94758953 0 0 Z " fill="#BBBBBB" transform="translate(3177.375,154.6875)"/>
<path d="M0 0 C8.64448196 5.12402129 13.68738975 12.339793 16.37548828 22.04882812 C20.57756769 39.59157077 19.56551439 57.07717816 10.1484375 72.91796875 C4.67003185 80.51484311 -2.40677333 84.16553903 -11.16796875 87.0859375 C-21.66181456 87.90871975 -28.73003638 86.81785187 -37.35546875 80.8984375 C-46.59388871 71.66001754 -50.53863961 61.19355264 -50.73046875 48.2734375 C-50.616506 34.46857917 -45.70286671 23.58193836 -38.16796875 12.0859375 C-37.58789062 11.17908203 -37.58789062 11.17908203 -36.99609375 10.25390625 C-28.87796399 -0.89381542 -12.66143339 -5.81093153 0 0 Z " fill="#040404" transform="translate(3395.16796875,474.9140625)"/>
<path d="M0 0 C3.1875 1.5625 3.1875 1.5625 6 4 C6.77730469 4.50917969 7.55460937 5.01835937 8.35546875 5.54296875 C14.60219669 9.77524799 14.60219669 9.77524799 15.64453125 12.984375 C15.68981964 15.10881233 15.45015396 16.92519948 15 19 C14.773125 20.216875 14.54625 21.43375 14.3125 22.6875 C11.61873067 29.48606068 5.14748367 33.26656911 -0.625 37.375 C-1.42824707 37.95008301 -2.23149414 38.52516602 -3.05908203 39.11767578 C-11.73416564 45.29170851 -20.66179244 50.85946607 -29.88671875 56.171875 C-33.19533145 58.11469902 -36.43926852 60.14553842 -39.6875 62.1875 C-45.44435735 65.73813657 -51.062873 69.19467857 -57.75 70.5625 C-61.20269714 69.69932572 -62.70331607 67.65001992 -65 65 C-65.70640625 64.24074219 -66.4128125 63.48148437 -67.140625 62.69921875 C-70.00094481 58.54694777 -69.34610224 55.41300176 -68.80078125 50.5546875 C-64.63158679 32.04753162 -48.52585412 22.02341438 -33.56640625 12.5078125 C-11.38890602 -1.38620156 -11.38890602 -1.38620156 0 0 Z " fill="#010101" transform="translate(3391,418)"/>
<path d="M0 0 C2.53331484 2.53331484 3.88032638 4.44132402 4.16015625 8.0859375 C3.4036743 18.60288171 -2.63650423 29.2967339 -10.375 36.3125 C-21.19140408 44.91320897 -33.64664959 46.19586606 -47 45 C-59.9756588 42.496875 -72.34430884 36.05507529 -80.0625 25.0625 C-81.27840769 21.09053488 -81.83872483 17.1113962 -81 13 C-76.90610874 10.27073916 -73.80833371 10.40001625 -69 11 C-65.67404543 12.01257293 -62.58213142 13.40087432 -59.4375 14.875 C-49.28955208 19.51078573 -39.0156636 23.35878212 -27.8125 20 C-21.65057348 17.36627334 -18.03721436 11.58707154 -14.4375 6.1875 C-10.96971493 1.22380764 -6.06051164 -1.18575228 0 0 Z " fill="#020202" transform="translate(3232,787)"/>
<path d="M0 0 C7.97007762 3.75335051 12.93258306 9.79302807 16 18 C16 19.32 16 20.64 16 22 C15.195625 22.17273438 14.39125 22.34546875 13.5625 22.5234375 C-1.19253916 26.05040958 -15.5548484 31.99013464 -29 39 C-29.40585882 32.49150034 -28.27908827 28.01599302 -25.5625 22.125 C-25.20559082 21.33923584 -24.84868164 20.55347168 -24.48095703 19.74389648 C-19.95119749 10.22550588 -12.10872408 -1.93739585 0 0 Z " fill="#B8B8B8" transform="translate(3384,484)"/>
<path d="M0 0 C3.05516798 6.11033595 1.10365991 14.57232998 -0.6875 20.8125 C-3.3642681 28.66435309 -6.5752264 33.80338883 -14 38 C-19.88018258 39.96006086 -26.60270843 39.82815527 -32.4375 37.8125 C-37.88049592 33.96257606 -42.18169241 29.07949208 -45 23 C-44.67 22.34 -44.34 21.68 -44 21 C-43.4225 21.78375 -42.845 22.5675 -42.25 23.375 C-39.60639184 26.47873748 -39.60639184 26.47873748 -36 28 C-32.52384555 27.85516023 -30.61583809 27.48904789 -27.875 25.3125 C-23.33407445 20.03142076 -23.33407445 20.03142076 -22 13.4375 C-21 10 -21 10 -18.5234375 8.62109375 C-16.39392931 7.77827351 -14.24974092 6.97178216 -12.09375 6.19921875 C-8.20470768 4.69172381 -3.92783322 0 0 0 Z " fill="#F6F6F6" transform="translate(3402,513)"/>
<path d="M0 0 C0.99 0.33 1.98 0.66 3 1 C3.3961366 17.79179015 2.2122143 34.49468607 -1 51 C-3.31 51 -5.62 51 -8 51 C-13.53790949 36.32784937 -8.76581936 19.5910242 -3.18359375 5.609375 C-2 3 -2 3 0 0 Z " fill="#AFAFAF" transform="translate(3455,157)"/>
<path d="M0 0 C8.44221259 10.00465194 10.20205684 24.42289584 11 37 C11.07089844 38.06347656 11.14179688 39.12695312 11.21484375 40.22265625 C11.38974165 45.08481791 11.38974165 45.08481791 11 47 C8 49 8 49 5.9140625 48.8203125 C4 48 4 48 2.375 44.875 C-2.02779801 31.16136685 -1.99634062 15.25688077 -1 1 C-0.67 0.67 -0.34 0.34 0 0 Z " fill="#B1B1B1" transform="translate(3337,172)"/>
<path d="M0 0 C0.66 1.32 1.32 2.64 2 4 C1.34 4 0.68 4 0 4 C0 10.93 0 17.86 0 25 C-0.33 25 -0.66 25 -1 25 C-1.02886984 21.02084841 -1.04675406 17.04172347 -1.0625 13.0625 C-1.07087891 11.92619141 -1.07925781 10.78988281 -1.08789062 9.61914062 C-1.09111328 8.53955078 -1.09433594 7.45996094 -1.09765625 6.34765625 C-1.10289307 5.34742432 -1.10812988 4.34719238 -1.11352539 3.31665039 C-1 1 -1 1 0 0 Z " fill="#979797" transform="translate(3337,172)"/>
</svg>
