<?xml version="1.0" encoding="UTF-8"?>
<svg version="1.1" xmlns="http://www.w3.org/2000/svg" width="3840" height="2160">
<path d="M0 0 C3.42180055 2.91153205 6.72964872 5.92004588 10 9 C10.6496875 9.58523438 11.299375 10.17046875 11.96875 10.7734375 C25.23633366 23.16815382 29.13462596 42.18157859 34 59 C34.804375 58.64808594 35.60875 58.29617188 36.4375 57.93359375 C61.53986738 47.39170043 88.04538852 41.64329344 115.2109375 40.4453125 C116.16140961 40.40326691 117.11188171 40.36122131 118.09115601 40.31790161 C128.60290342 39.88753048 139.10597878 39.84819769 149.625 39.875 C150.70620117 39.87621857 151.78740234 39.87743713 152.90136719 39.87869263 C172.63551739 39.90399736 192.36408796 40.17577755 212.09515381 40.50582886 C232.62027791 40.84836848 253.14438026 41.07240889 273.671875 41.21875 C276.13957734 41.23651579 278.60727957 41.25429746 281.07498169 41.27209473 C282.92534688 41.28542973 282.92534688 41.28542973 284.81309319 41.29903412 C365.44534029 41.88104894 365.44534029 41.88104894 398.625 42.9375 C399.85134155 42.97511444 401.07768311 43.01272888 402.34118652 43.05148315 C470.62876537 45.21091563 470.62876537 45.21091563 493 61 C493.69351563 61.45246094 494.38703125 61.90492187 495.1015625 62.37109375 C513.06660484 75.72349008 515.6920474 107.33916772 518.69140625 127.5703125 C519.73953003 135.06522246 520.28864472 142.43109411 520 150 C512.93396709 153.52091708 505.89318776 156.54808511 498.375 158.9375 C497.68857422 159.16074951 497.00214844 159.38399902 496.29492188 159.61401367 C491.37184042 161.12394681 491.37184042 161.12394681 488 160 C470.89113294 160.74979099 449.33459703 166.73876331 437.375 179.5 C434.41930783 183.13537665 432.50642539 186.57487542 431 191 C444.15445544 203.58252259 462.88220557 203.91087228 480.18286133 205.35400391 C481.45166138 205.46107666 481.45166138 205.46107666 482.74609375 205.5703125 C483.49560303 205.62977051 484.2451123 205.68922852 485.01733398 205.75048828 C487 206 487 206 490 207 C490 206.34 490 205.68 490 205 C490.70125 205.28875 491.4025 205.5775 492.125 205.875 C493.07375 206.24625 494.0225 206.6175 495 207 C495.8559375 207.3403125 496.711875 207.680625 497.59375 208.03125 C501.88199814 209.25084351 505.93845592 209.45518013 510.375 209.625 C511.62216797 209.68300781 511.62216797 209.68300781 512.89453125 209.7421875 C514.92935156 209.83574246 516.96464416 209.91892713 519 210 C519.71560264 224.38825987 516.49790027 240.64638573 507.02734375 251.87890625 C485.60606052 274.29076905 453.32510426 277.29203172 424.1875 279.625 C423.01300797 279.71906631 423.01300797 279.71906631 421.81478882 279.81503296 C398.85501261 281.62288226 375.93352812 282.23205551 352.90833664 282.24838257 C351.41744299 282.24946838 349.92654968 282.25120657 348.4356575 282.25357056 C324.07006498 282.29117449 299.84683648 281.60625406 275.52416992 280.06738281 C255.95976789 278.83104552 236.56265674 278.52847272 217 280 C215.34871094 280.11408203 215.34871094 280.11408203 213.6640625 280.23046875 C209.16190982 280.76187416 209.16190982 280.76187416 205.77763367 283.52178955 C202.98499423 289.14032534 202.19547575 294.26376081 201.76953125 300.484375 C201.68877853 301.46239075 201.60802582 302.44040649 201.52482605 303.44805908 C201.2718161 306.54769796 201.04133931 309.64849186 200.8125 312.75 C200.56833075 315.86526286 200.31952875 318.98010762 200.06803894 322.0947876 C199.91360925 324.02646174 199.76424603 325.95854927 199.62055969 327.89105225 C199.55346298 328.76586243 199.48636627 329.64067261 199.41723633 330.54199219 C199.36046219 331.30840027 199.30368805 332.07480835 199.24519348 332.86444092 C199.00222477 334.98062295 198.56483408 336.94841875 198 339 C198.85150635 338.82710449 199.7030127 338.65420898 200.58032227 338.47607422 C206.70808574 337.62299085 212.80639598 338.54115563 218.9375 339.125 C219.66219482 339.19246429 220.38688965 339.25992859 221.13354492 339.32943726 C271.21203382 344.04980461 319.91875862 356.27000513 364 381 C364.71269043 381.39944824 365.42538086 381.79889648 366.15966797 382.21044922 C370.12494854 384.44223383 374.07072418 386.70525164 378 389 C379.35491884 387.50067938 380.70888678 386.00049946 382.0625 384.5 C382.89007812 383.58347656 383.71765625 382.66695312 384.5703125 381.72265625 C386.56396083 379.48861624 388.50602488 377.22477317 390.4375 374.9375 C397.06769471 367.34263493 404.96292696 361.03751139 413 355 C412.43269591 351.36032992 411.44506642 348.83255903 409.5625 345.6875 C407.1858408 341.09951441 406.25173184 336.88077679 405.625 331.8125 C405.54064697 331.14758545 405.45629395 330.4826709 405.36938477 329.79760742 C404.89964481 325.30072704 405.2108314 321.40905067 406 317 C411.22490052 314.70073822 411.22490052 314.70073822 414.640625 316.01953125 C417.47103848 317.96438123 420.26162033 319.92670847 423 322 C423.89847656 322.67804688 424.79695312 323.35609375 425.72265625 324.0546875 C433.02530468 330.06863327 439.26651677 338.66516765 440.23828125 348.3828125 C440.50660963 358.29684007 437.78138068 364.46066295 431.109375 371.66015625 C428.50339067 374.5508685 426.09087096 377.56517404 423.6875 380.625 C423.22206787 381.21732422 422.75663574 381.80964844 422.27709961 382.41992188 C418.4542359 387.33062436 414.81423114 392.3608782 411.26049805 397.46923828 C409.68852904 399.71584809 408.16771863 401.83338478 406.21875 403.76953125 C404.76542819 404.94818081 404.76542819 404.94818081 405 407 C406.55351843 408.2530313 408.17150923 409.42642947 409.8125 410.5625 C424.56145917 421.06526201 437.6904123 433.42024013 450.32006836 446.35668945 C452.89881906 449.01985186 452.89881906 449.01985186 456 451 C456.185625 450.319375 456.37125 449.63875 456.5625 448.9375 C460.30636134 441.28700074 468.15820365 436.42812916 474.81640625 431.4296875 C475.87953041 430.62232185 476.94071381 429.81239464 478 429 C478.56259521 428.56864746 479.12519043 428.13729492 479.70483398 427.69287109 C483.19738531 424.92559197 483.19738531 424.92559197 484.9375 420.875 C485.00219499 416.86391036 484.6859906 413.03452862 484.26171875 409.05078125 C482.98556466 394.17501492 482.98556466 394.17501492 485 389 C488 387 488 387 490.41796875 387.203125 C493.14721699 388.04543459 494.98906218 389.10193076 497.3125 390.75 C500.19432142 392.76679708 503.07135628 394.63175485 506.125 396.375 C511.3166578 399.57947014 516.04972814 404.14918441 518 410 C519.13388 419.96327346 516.33080084 428.32169949 510.3125 436.25 C499.23544929 449.08243033 482.69997052 457.15099137 467 463 C467.59425781 463.63164063 468.18851563 464.26328125 468.80078125 464.9140625 C475.63634746 472.29179648 481.93931697 479.97524779 488 488 C488.41217773 488.54462891 488.82435547 489.08925781 489.24902344 489.65039062 C536.869849 553.11924275 554.77923648 627.94781156 544 706 C536.92164537 751.39451843 518.05178531 799.52435403 493 838 C492.55188965 838.69609375 492.1037793 839.3921875 491.64208984 840.109375 C480.10722029 857.97183289 467.44379479 874.95544788 453.10546875 890.67578125 C451.26022445 892.71273925 449.4691833 894.78270847 447.6875 896.875 C440.90085575 904.65596655 433.47101038 912.00821292 425.5234375 918.59765625 C423.74930154 920.11984104 423.74930154 920.11984104 422 923 C422.34780518 923.48879639 422.69561035 923.97759277 423.05395508 924.48120117 C424.64202793 926.71529666 426.22728411 928.95137654 427.8125 931.1875 C428.35970703 931.95642578 428.90691406 932.72535156 429.47070312 933.51757812 C431.67476681 936.6299832 433.82377051 939.70107414 435.76171875 942.98828125 C436.84320649 945.14129942 436.84320649 945.14129942 439 946 C441.05975726 946.29095872 443.12288595 946.558284 445.1875 946.8125 C450.83788518 947.64545007 454.28065634 948.88523319 459 952 C460.23979487 952.54467976 461.49018004 953.06589047 462.75 953.5625 C467.46097815 955.64620187 467.46097815 955.64620187 469 958 C469.5 960.4375 469.5 960.4375 469 963 C466.8125 965 466.8125 965 464 967 C463.21625 967.804375 462.4325 968.60875 461.625 969.4375 C455.14809105 975.76019683 450.02508924 978.37961888 440.9296875 978.28515625 C433.21704675 977.53445922 425.71921504 975.35499653 420 970 C412.83027328 959.7233917 409.82617783 945.17596133 408 933 C406.94683594 933.76183594 405.89367187 934.52367188 404.80859375 935.30859375 C396.02971534 941.61232471 387.18855818 947.62445527 377.79443359 952.97509766 C376.06854121 953.96085224 374.3561946 954.97020878 372.64453125 955.98046875 C352.62412615 967.31405401 330.10414544 974.03394925 308 980 C306.92591888 980.33827316 305.85183777 980.67654633 304.74520874 981.02507019 C298.30910389 982.61373075 291.69182726 982.35527785 285.10253906 982.40161133 C283.59640727 982.41908329 282.09028335 982.43724501 280.58416748 982.45603943 C275.64474142 982.513448 270.70526781 982.54928188 265.765625 982.58203125 C264.91721385 982.58797735 264.0688027 982.59392345 263.19468212 982.60004973 C255.14265772 982.6561086 247.09062443 982.70464611 239.03845596 982.73419666 C229.77140035 982.76855939 220.50568601 982.82359275 211.23925781 982.93969727 C132.99542166 983.89961771 132.99542166 983.89961771 98.22805405 971.7591095 C94.11211053 970.35678633 89.9499371 969.10093265 85.79345703 967.82495117 C68.59987236 962.54234208 52.03754997 956.19820745 36 948 C35.21109375 947.60135742 34.4221875 947.20271484 33.609375 946.79199219 C20.33663782 940.00325799 8.18054752 931.55828388 -4 923 C-4.09796875 924.23234375 -4.1959375 925.4646875 -4.296875 926.734375 C-5.74282391 943.31581931 -9.01288472 955.83126177 -21 968 C-27.50957662 973.28335405 -33.85019222 973.74559868 -42 973 C-47.55990689 971.30344466 -51.70522681 967.83788242 -56 964 C-56.62390625 963.51273438 -57.2478125 963.02546875 -57.890625 962.5234375 C-62.79185288 958.63831784 -62.79185288 958.63831784 -63.9375 955.125 C-63.958125 954.42375 -63.97875 953.7225 -64 953 C-59.68167267 951.50058079 -55.39103858 950.04476651 -50.9375 949 C-47.47776564 948.17986377 -44.24886292 947.02111693 -40.95703125 945.68359375 C-38.66736171 944.88380898 -36.38372495 944.43228173 -34 944 C-33.23700187 939.26432495 -32.51669569 934.53045915 -31.87109375 929.77734375 C-31.34515975 925.99253144 -30.63032981 922.33950856 -29.72265625 918.62890625 C-27.66782391 909.29584684 -27.66782391 909.29584684 -30.54003906 900.50390625 C-34.78332562 895.40134906 -39.74388036 891.14359854 -44.81884766 886.89208984 C-49.17816421 883.11050228 -52.50911152 878.57497299 -56 874 C-56.804375 873.00097656 -57.60875 872.00195312 -58.4375 870.97265625 C-74.86977195 850.45039275 -89.72278478 823.18321197 -87 796 C-81.82070791 755.33486508 -42.69960478 717.33402624 -15 690 C-16.0415625 689.90203125 -17.083125 689.8040625 -18.15625 689.703125 C-38.87395196 687.61136361 -58.83693327 683.17465084 -73.03125 666.6328125 C-78 660.46130952 -78 660.46130952 -78 658 C-78.7528125 658.06960938 -79.505625 658.13921875 -80.28125 658.2109375 C-96.64979026 659.0452563 -113.80087793 650.45570264 -126.4609375 640.34765625 C-127.29882812 639.57292969 -128.13671875 638.79820312 -129 638 C-129 637.34 -129 636.68 -129 636 C-124.50291942 635.03150222 -121.01395606 635.11531515 -116.5 635.9375 C-112.25530549 636.70053437 -108.3157495 637.11049359 -104 637 C-104.44512939 636.6589624 -104.89025879 636.3179248 -105.34887695 635.96655273 C-110.06224283 632.17280655 -113.13687563 628.2549476 -116.1875 623.0625 C-116.59935547 622.38509766 -117.01121094 621.70769531 -117.43554688 621.00976562 C-118.64146157 619.01647081 -119.82300294 617.01047464 -121 615 C-121.38397949 614.35909424 -121.76795898 613.71818848 -122.16357422 613.05786133 C-124.36797046 609.32381351 -125.57653509 606.34051535 -126 602 C-120.52404738 603.23584467 -117.41241362 604.89389418 -113.125 608.6875 C-108.83408585 612.42313527 -104.48140488 616.00454708 -99.9375 619.4296875 C-97.80681786 621.15657101 -95.90811458 623.03225683 -94 625 C-94.13277344 624.28457031 -94.26554687 623.56914063 -94.40234375 622.83203125 C-95.74906093 615.23340076 -96.52803888 607.70041829 -97 600 C-93.52867905 601.40929697 -92.11906726 602.90605083 -90.25 606.125 C-89.82203125 606.84945312 -89.3940625 607.57390625 -88.953125 608.3203125 C-88.63859375 608.87460938 -88.3240625 609.42890625 -88 610 C-86.70179868 607.4487522 -85.49030893 604.88618474 -84.375 602.25 C-83.694375 600.64125 -83.694375 600.64125 -83 599 C-80 599 -80 599 -78.44140625 600.23828125 C-74.5833327 604.95370448 -72.73068138 611.16182632 -71.44140625 617.0390625 C-71.022635 619.01287731 -71.022635 619.01287731 -70.40234375 620.9609375 C-68.02160792 628.9387675 -69.85753101 636.14428036 -72 644 C-63.92719369 651.51606105 -51.94931014 654.61769335 -41.8125 658.375 C-32.49140954 661.85326995 -23.28178552 665.45353446 -14.26171875 669.66015625 C-10.53200831 671.1922409 -6.94115035 672.19440602 -3 673 C-1.92770142 673.26816528 -1.92770142 673.26816528 -0.83374023 673.54174805 C5.04395387 674.6907079 8.28266182 673.26735285 13.24243164 670.07373047 C14.0699292 669.51314941 14.89742676 668.95256836 15.75 668.375 C34.32144666 656.53546716 54.05551377 651.8545924 75.9375 656.1953125 C98.10707733 662.02048205 117.63552453 674.7953025 136.53125 687.33984375 C151.38708125 697.11993266 167.08872079 706.30904935 184 712 C185.01078613 712.341521 185.01078613 712.341521 186.04199219 712.68994141 C210.07057708 720.60982446 235.76950967 721.80274517 258.875 710.25 C270.94811682 703.22341096 277.19145884 690.02716388 281 677 C283.74125089 663.96992076 283.15107847 650.09978318 276.52734375 638.3984375 C264.30720416 619.7360021 244.704399 609.43774318 223.265625 604.7265625 C194.13040876 599.19813504 166.86705427 611.78452773 141.47602844 624.30786133 C112.79061954 638.44736461 86.84464116 649.95680434 54.5625 639.875 C46.34275793 636.94671689 38.67947973 633.1192684 31 629 C30.37577148 628.6704834 29.75154297 628.3409668 29.10839844 628.00146484 C18.16520989 622.19773821 7.87479867 615.45123952 -2.45703125 608.6328125 C-6.98481254 605.64917004 -11.56372559 602.76898928 -16.1875 599.9375 C-30.57189517 591.04648312 -44.45930262 581.36675394 -57 570 C-57.69222656 569.37867188 -58.38445312 568.75734375 -59.09765625 568.1171875 C-69.36238057 558.41645902 -76.48147576 545.43101353 -77.12939453 531.14746094 C-77.13108643 529.7054834 -77.13108643 529.7054834 -77.1328125 528.234375 C-77.13474609 526.65269531 -77.13474609 526.65269531 -77.13671875 525.0390625 C-77.13091797 523.41097656 -77.13091797 523.41097656 -77.125 521.75 C-77.13080078 520.09871094 -77.13080078 520.09871094 -77.13671875 518.4140625 C-77.13542969 517.36476563 -77.13414062 516.31546875 -77.1328125 515.234375 C-77.13168457 514.27756836 -77.13055664 513.32076172 -77.12939453 512.33496094 C-77 510 -77 510 -76 508 C-76.70125 508.33773437 -77.4025 508.67546875 -78.125 509.0234375 C-88.15746411 513.73978612 -97.90388289 517.11691453 -109.1484375 514.5 C-114.94121023 512.27395633 -118.52221712 508.33269732 -121.3125 502.9375 C-124.97399334 493.7586284 -122.85718917 483.4281631 -121.2421875 473.96875 C-120.86277145 471.63628689 -120.48371818 469.30376475 -120.10498047 466.97119141 C-119.80403473 465.14796356 -119.80403473 465.14796356 -119.49700928 463.28790283 C-118.42454853 456.75684734 -117.39354404 450.21933369 -116.375 443.6796875 C-116.21961573 442.68214006 -116.21961573 442.68214006 -116.06109238 441.66444016 C-112.85720954 421.01366051 -110.56120157 400.26920212 -108.3692627 379.49047852 C-107.99315438 375.93529137 -107.61188253 372.38068847 -107.22949219 368.82617188 C-103.24358975 331.68826146 -99.66590684 294.51038669 -96.14009094 257.32636261 C-95.81938475 253.94753484 -95.49753276 250.56881797 -95.17541504 247.19012451 C-94.55606256 240.68710257 -93.94227007 234.18357069 -93.33203125 227.6796875 C-93.23282757 226.62496624 -93.13362389 225.57024498 -93.03141403 224.48356247 C-91.8954602 212.35948145 -90.84060104 200.23291272 -89.91552734 188.09082031 C-89.82794379 186.95061243 -89.74036024 185.81040455 -89.65012264 184.63564491 C-89.2328062 179.18491867 -88.82670496 173.73377662 -88.44087219 168.2807312 C-86.39159963 140.32952895 -86.39159963 140.32952895 -78 130 C-77.31550781 129.09636719 -76.63101563 128.19273437 -75.92578125 127.26171875 C-69.63842371 119.50401931 -69.63842371 119.50401931 -64.75 118.625 C-56.33351483 118.61018224 -48.35765376 121.66430412 -42 127 C-40.3457185 127.68117473 -38.69067056 128.36075192 -37.02734375 129.01953125 C-33.5581413 130.6973151 -30.53668301 133.01800727 -27.4296875 135.28125 C-25.01829668 136.98705701 -22.55013632 138.51166421 -20 140 C-19.89171875 138.89140625 -19.7834375 137.7828125 -19.671875 136.640625 C-19.02906139 131.52958249 -17.68812864 126.68751523 -16.25 121.75 C-15.98123047 120.82268066 -15.71246094 119.89536133 -15.43554688 118.93994141 C-11.44111914 105.44340278 -5.99305244 92.66052027 2.80078125 81.55859375 C4.08068317 79.99779077 4.08068317 79.99779077 5 78 C3.75089844 77.67322266 3.75089844 77.67322266 2.4765625 77.33984375 C-1.81427753 75.68618293 -5.00304925 73.35205519 -8.625 70.5625 C-9.67288696 69.76440918 -9.67288696 69.76440918 -10.74194336 68.95019531 C-17.17978016 63.98115322 -23.19983428 58.70200907 -29 53 C-29.65226562 52.37222656 -30.30453125 51.74445313 -30.9765625 51.09765625 C-41.08468921 40.55104915 -48.95637636 24.70399765 -49.5 10.125 C-49.30009372 4.86496606 -48.6263763 1.98901393 -45 -2 C-44.40574219 -2.7528125 -43.81148438 -3.505625 -43.19921875 -4.28125 C-30.35767419 -20.04019401 -13.20657154 -10.67845642 0 0 Z M-96 484 C-95.67 485.32 -95.34 486.64 -95 488 C-94.01 487.01 -93.02 486.02 -92 485 C-93.32 484.67 -94.64 484.34 -96 484 Z " fill="#FEFEFE" transform="translate(208,1155)"/>
<path d="M0 0 C3.42180055 2.91153205 6.72964872 5.92004588 10 9 C10.6496875 9.58523438 11.299375 10.17046875 11.96875 10.7734375 C25.23633366 23.16815382 29.13462596 42.18157859 34 59 C34.804375 58.64808594 35.60875 58.29617188 36.4375 57.93359375 C61.53986738 47.39170043 88.04538852 41.64329344 115.2109375 40.4453125 C116.16140961 40.40326691 117.11188171 40.36122131 118.09115601 40.31790161 C128.60290342 39.88753048 139.10597878 39.84819769 149.625 39.875 C150.70620117 39.87621857 151.78740234 39.87743713 152.90136719 39.87869263 C172.63551739 39.90399736 192.36408796 40.17577755 212.09515381 40.50582886 C232.62027791 40.84836848 253.14438026 41.07240889 273.671875 41.21875 C276.13957734 41.23651579 278.60727957 41.25429746 281.07498169 41.27209473 C282.92534688 41.28542973 282.92534688 41.28542973 284.81309319 41.29903412 C365.44534029 41.88104894 365.44534029 41.88104894 398.625 42.9375 C399.85134155 42.97511444 401.07768311 43.01272888 402.34118652 43.05148315 C470.62876537 45.21091563 470.62876537 45.21091563 493 61 C493.69351563 61.45246094 494.38703125 61.90492187 495.1015625 62.37109375 C513.06660484 75.72349008 515.6920474 107.33916772 518.69140625 127.5703125 C519.73953003 135.06522246 520.28864472 142.43109411 520 150 C512.93396709 153.52091708 505.89318776 156.54808511 498.375 158.9375 C497.68857422 159.16074951 497.00214844 159.38399902 496.29492188 159.61401367 C491.37184042 161.12394681 491.37184042 161.12394681 488 160 C470.89113294 160.74979099 449.33459703 166.73876331 437.375 179.5 C434.41930783 183.13537665 432.50642539 186.57487542 431 191 C444.15445544 203.58252259 462.88220557 203.91087228 480.18286133 205.35400391 C481.45166138 205.46107666 481.45166138 205.46107666 482.74609375 205.5703125 C483.49560303 205.62977051 484.2451123 205.68922852 485.01733398 205.75048828 C487 206 487 206 490 207 C490 206.34 490 205.68 490 205 C490.70125 205.28875 491.4025 205.5775 492.125 205.875 C493.07375 206.24625 494.0225 206.6175 495 207 C495.8559375 207.3403125 496.711875 207.680625 497.59375 208.03125 C501.88199814 209.25084351 505.93845592 209.45518013 510.375 209.625 C511.62216797 209.68300781 511.62216797 209.68300781 512.89453125 209.7421875 C514.92935156 209.83574246 516.96464416 209.91892713 519 210 C519.71560264 224.38825987 516.49790027 240.64638573 507.02734375 251.87890625 C485.60606052 274.29076905 453.32510426 277.29203172 424.1875 279.625 C423.01300797 279.71906631 423.01300797 279.71906631 421.81478882 279.81503296 C398.85501261 281.62288226 375.93352812 282.23205551 352.90833664 282.24838257 C351.41744299 282.24946838 349.92654968 282.25120657 348.4356575 282.25357056 C324.07006498 282.29117449 299.84683648 281.60625406 275.52416992 280.06738281 C255.95976789 278.83104552 236.56265674 278.52847272 217 280 C215.34871094 280.11408203 215.34871094 280.11408203 213.6640625 280.23046875 C209.16190982 280.76187416 209.16190982 280.76187416 205.77763367 283.52178955 C202.98499423 289.14032534 202.19547575 294.26376081 201.76953125 300.484375 C201.68877853 301.46239075 201.60802582 302.44040649 201.52482605 303.44805908 C201.2718161 306.54769796 201.04133931 309.64849186 200.8125 312.75 C200.56833075 315.86526286 200.31952875 318.98010762 200.06803894 322.0947876 C199.91360925 324.02646174 199.76424603 325.95854927 199.62055969 327.89105225 C199.55346298 328.76586243 199.48636627 329.64067261 199.41723633 330.54199219 C199.36046219 331.30840027 199.30368805 332.07480835 199.24519348 332.86444092 C199.00222477 334.98062295 198.56483408 336.94841875 198 339 C198.85150635 338.82710449 199.7030127 338.65420898 200.58032227 338.47607422 C206.70808574 337.62299085 212.80639598 338.54115563 218.9375 339.125 C219.66219482 339.19246429 220.38688965 339.25992859 221.13354492 339.32943726 C271.21203382 344.04980461 319.91875862 356.27000513 364 381 C364.71269043 381.39944824 365.42538086 381.79889648 366.15966797 382.21044922 C370.12494854 384.44223383 374.07072418 386.70525164 378 389 C379.35491884 387.50067938 380.70888678 386.00049946 382.0625 384.5 C382.89007812 383.58347656 383.71765625 382.66695312 384.5703125 381.72265625 C386.56396083 379.48861624 388.50602488 377.22477317 390.4375 374.9375 C397.06769471 367.34263493 404.96292696 361.03751139 413 355 C412.43269591 351.36032992 411.44506642 348.83255903 409.5625 345.6875 C407.1858408 341.09951441 406.25173184 336.88077679 405.625 331.8125 C405.54064697 331.14758545 405.45629395 330.4826709 405.36938477 329.79760742 C404.89964481 325.30072704 405.2108314 321.40905067 406 317 C411.22490052 314.70073822 411.22490052 314.70073822 414.640625 316.01953125 C417.47103848 317.96438123 420.26162033 319.92670847 423 322 C423.89847656 322.67804688 424.79695312 323.35609375 425.72265625 324.0546875 C433.02530468 330.06863327 439.26651677 338.66516765 440.23828125 348.3828125 C440.50660963 358.29684007 437.78138068 364.46066295 431.109375 371.66015625 C428.50339067 374.5508685 426.09087096 377.56517404 423.6875 380.625 C423.22206787 381.21732422 422.75663574 381.80964844 422.27709961 382.41992188 C418.4542359 387.33062436 414.81423114 392.3608782 411.26049805 397.46923828 C409.68852904 399.71584809 408.16771863 401.83338478 406.21875 403.76953125 C404.76542819 404.94818081 404.76542819 404.94818081 405 407 C406.55351843 408.2530313 408.17150923 409.42642947 409.8125 410.5625 C424.56145917 421.06526201 437.6904123 433.42024013 450.32006836 446.35668945 C452.89881906 449.01985186 452.89881906 449.01985186 456 451 C456.185625 450.319375 456.37125 449.63875 456.5625 448.9375 C460.30636134 441.28700074 468.15820365 436.42812916 474.81640625 431.4296875 C475.87953041 430.62232185 476.94071381 429.81239464 478 429 C478.56259521 428.56864746 479.12519043 428.13729492 479.70483398 427.69287109 C483.19738531 424.92559197 483.19738531 424.92559197 484.9375 420.875 C485.00219499 416.86391036 484.6859906 413.03452862 484.26171875 409.05078125 C482.98556466 394.17501492 482.98556466 394.17501492 485 389 C488 387 488 387 490.41796875 387.203125 C493.14721699 388.04543459 494.98906218 389.10193076 497.3125 390.75 C500.19432142 392.76679708 503.07135628 394.63175485 506.125 396.375 C511.3166578 399.57947014 516.04972814 404.14918441 518 410 C519.13388 419.96327346 516.33080084 428.32169949 510.3125 436.25 C499.23544929 449.08243033 482.69997052 457.15099137 467 463 C467.59425781 463.63164063 468.18851563 464.26328125 468.80078125 464.9140625 C475.63634746 472.29179648 481.93931697 479.97524779 488 488 C488.41217773 488.54462891 488.82435547 489.08925781 489.24902344 489.65039062 C536.869849 553.11924275 554.77923648 627.94781156 544 706 C536.92164537 751.39451843 518.05178531 799.52435403 493 838 C492.55188965 838.69609375 492.1037793 839.3921875 491.64208984 840.109375 C480.10722029 857.97183289 467.44379479 874.95544788 453.10546875 890.67578125 C451.26022445 892.71273925 449.4691833 894.78270847 447.6875 896.875 C440.90085575 904.65596655 433.47101038 912.00821292 425.5234375 918.59765625 C423.74930154 920.11984104 423.74930154 920.11984104 422 923 C422.34780518 923.48879639 422.69561035 923.97759277 423.05395508 924.48120117 C424.64202793 926.71529666 426.22728411 928.95137654 427.8125 931.1875 C428.35970703 931.95642578 428.90691406 932.72535156 429.47070312 933.51757812 C431.67476681 936.6299832 433.82377051 939.70107414 435.76171875 942.98828125 C436.84320649 945.14129942 436.84320649 945.14129942 439 946 C441.05975726 946.29095872 443.12288595 946.558284 445.1875 946.8125 C450.83788518 947.64545007 454.28065634 948.88523319 459 952 C460.23979487 952.54467976 461.49018004 953.06589047 462.75 953.5625 C467.46097815 955.64620187 467.46097815 955.64620187 469 958 C469.5 960.4375 469.5 960.4375 469 963 C466.8125 965 466.8125 965 464 967 C463.21625 967.804375 462.4325 968.60875 461.625 969.4375 C455.14809105 975.76019683 450.02508924 978.37961888 440.9296875 978.28515625 C433.21704675 977.53445922 425.71921504 975.35499653 420 970 C412.83027328 959.7233917 409.82617783 945.17596133 408 933 C406.94683594 933.76183594 405.89367187 934.52367188 404.80859375 935.30859375 C396.02971534 941.61232471 387.18855818 947.62445527 377.79443359 952.97509766 C376.06854121 953.96085224 374.3561946 954.97020878 372.64453125 955.98046875 C352.62412615 967.31405401 330.10414544 974.03394925 308 980 C306.92591888 980.33827316 305.85183777 980.67654633 304.74520874 981.02507019 C298.30910389 982.61373075 291.69182726 982.35527785 285.10253906 982.40161133 C283.59640727 982.41908329 282.09028335 982.43724501 280.58416748 982.45603943 C275.64474142 982.513448 270.70526781 982.54928188 265.765625 982.58203125 C264.91721385 982.58797735 264.0688027 982.59392345 263.19468212 982.60004973 C255.14265772 982.6561086 247.09062443 982.70464611 239.03845596 982.73419666 C229.77140035 982.76855939 220.50568601 982.82359275 211.23925781 982.93969727 C132.99542166 983.89961771 132.99542166 983.89961771 98.22805405 971.7591095 C94.11211053 970.35678633 89.9499371 969.10093265 85.79345703 967.82495117 C68.59987236 962.54234208 52.03754997 956.19820745 36 948 C35.21109375 947.60135742 34.4221875 947.20271484 33.609375 946.79199219 C20.33663782 940.00325799 8.18054752 931.55828388 -4 923 C-4.09796875 924.23234375 -4.1959375 925.4646875 -4.296875 926.734375 C-5.74282391 943.31581931 -9.01288472 955.83126177 -21 968 C-27.50957662 973.28335405 -33.85019222 973.74559868 -42 973 C-47.55990689 971.30344466 -51.70522681 967.83788242 -56 964 C-56.62390625 963.51273438 -57.2478125 963.02546875 -57.890625 962.5234375 C-62.79185288 958.63831784 -62.79185288 958.63831784 -63.9375 955.125 C-63.958125 954.42375 -63.97875 953.7225 -64 953 C-59.68167267 951.50058079 -55.39103858 950.04476651 -50.9375 949 C-47.47776564 948.17986377 -44.24886292 947.02111693 -40.95703125 945.68359375 C-38.66736171 944.88380898 -36.38372495 944.43228173 -34 944 C-33.23700187 939.26432495 -32.51669569 934.53045915 -31.87109375 929.77734375 C-31.34515975 925.99253144 -30.63032981 922.33950856 -29.72265625 918.62890625 C-27.66782391 909.29584684 -27.66782391 909.29584684 -30.54003906 900.50390625 C-34.78332562 895.40134906 -39.74388036 891.14359854 -44.81884766 886.89208984 C-49.17816421 883.11050228 -52.50911152 878.57497299 -56 874 C-56.804375 873.00097656 -57.60875 872.00195312 -58.4375 870.97265625 C-74.86977195 850.45039275 -89.72278478 823.18321197 -87 796 C-81.82070791 755.33486508 -42.69960478 717.33402624 -15 690 C-16.0415625 689.90203125 -17.083125 689.8040625 -18.15625 689.703125 C-38.87395196 687.61136361 -58.83693327 683.17465084 -73.03125 666.6328125 C-78 660.46130952 -78 660.46130952 -78 658 C-78.7528125 658.06960938 -79.505625 658.13921875 -80.28125 658.2109375 C-96.64979026 659.0452563 -113.80087793 650.45570264 -126.4609375 640.34765625 C-127.29882812 639.57292969 -128.13671875 638.79820312 -129 638 C-129 637.34 -129 636.68 -129 636 C-124.50291942 635.03150222 -121.01395606 635.11531515 -116.5 635.9375 C-112.25530549 636.70053437 -108.3157495 637.11049359 -104 637 C-104.44512939 636.6589624 -104.89025879 636.3179248 -105.34887695 635.96655273 C-110.06224283 632.17280655 -113.13687563 628.2549476 -116.1875 623.0625 C-116.59935547 622.38509766 -117.01121094 621.70769531 -117.43554688 621.00976562 C-118.64146157 619.01647081 -119.82300294 617.01047464 -121 615 C-121.38397949 614.35909424 -121.76795898 613.71818848 -122.16357422 613.05786133 C-124.36797046 609.32381351 -125.57653509 606.34051535 -126 602 C-120.52404738 603.23584467 -117.41241362 604.89389418 -113.125 608.6875 C-108.83408585 612.42313527 -104.48140488 616.00454708 -99.9375 619.4296875 C-97.80681786 621.15657101 -95.90811458 623.03225683 -94 625 C-94.13277344 624.28457031 -94.26554687 623.56914063 -94.40234375 622.83203125 C-95.74906093 615.23340076 -96.52803888 607.70041829 -97 600 C-93.52867905 601.40929697 -92.11906726 602.90605083 -90.25 606.125 C-89.82203125 606.84945312 -89.3940625 607.57390625 -88.953125 608.3203125 C-88.63859375 608.87460938 -88.3240625 609.42890625 -88 610 C-86.70179868 607.4487522 -85.49030893 604.88618474 -84.375 602.25 C-83.694375 600.64125 -83.694375 600.64125 -83 599 C-80 599 -80 599 -78.44140625 600.23828125 C-74.5833327 604.95370448 -72.73068138 611.16182632 -71.44140625 617.0390625 C-71.022635 619.01287731 -71.022635 619.01287731 -70.40234375 620.9609375 C-68.02160792 628.9387675 -69.85753101 636.14428036 -72 644 C-63.92719369 651.51606105 -51.94931014 654.61769335 -41.8125 658.375 C-32.49140954 661.85326995 -23.28178552 665.45353446 -14.26171875 669.66015625 C-10.53200831 671.1922409 -6.94115035 672.19440602 -3 673 C-1.92770142 673.26816528 -1.92770142 673.26816528 -0.83374023 673.54174805 C5.04395387 674.6907079 8.28266182 673.26735285 13.24243164 670.07373047 C14.0699292 669.51314941 14.89742676 668.95256836 15.75 668.375 C34.32144666 656.53546716 54.05551377 651.8545924 75.9375 656.1953125 C98.10707733 662.02048205 117.63552453 674.7953025 136.53125 687.33984375 C151.38708125 697.11993266 167.08872079 706.30904935 184 712 C185.01078613 712.341521 185.01078613 712.341521 186.04199219 712.68994141 C210.07057708 720.60982446 235.76950967 721.80274517 258.875 710.25 C270.94811682 703.22341096 277.19145884 690.02716388 281 677 C283.74125089 663.96992076 283.15107847 650.09978318 276.52734375 638.3984375 C264.30720416 619.7360021 244.704399 609.43774318 223.265625 604.7265625 C194.13040876 599.19813504 166.86705427 611.78452773 141.47602844 624.30786133 C112.79061954 638.44736461 86.84464116 649.95680434 54.5625 639.875 C46.34275793 636.94671689 38.67947973 633.1192684 31 629 C30.37577148 628.6704834 29.75154297 628.3409668 29.10839844 628.00146484 C18.16520989 622.19773821 7.87479867 615.45123952 -2.45703125 608.6328125 C-6.98481254 605.64917004 -11.56372559 602.76898928 -16.1875 599.9375 C-30.57189517 591.04648312 -44.45930262 581.36675394 -57 570 C-57.69222656 569.37867188 -58.38445312 568.75734375 -59.09765625 568.1171875 C-69.36238057 558.41645902 -76.48147576 545.43101353 -77.12939453 531.14746094 C-77.13108643 529.7054834 -77.13108643 529.7054834 -77.1328125 528.234375 C-77.13474609 526.65269531 -77.13474609 526.65269531 -77.13671875 525.0390625 C-77.13091797 523.41097656 -77.13091797 523.41097656 -77.125 521.75 C-77.13080078 520.09871094 -77.13080078 520.09871094 -77.13671875 518.4140625 C-77.13542969 517.36476563 -77.13414062 516.31546875 -77.1328125 515.234375 C-77.13168457 514.27756836 -77.13055664 513.32076172 -77.12939453 512.33496094 C-77 510 -77 510 -76 508 C-76.70125 508.33773437 -77.4025 508.67546875 -78.125 509.0234375 C-88.15746411 513.73978612 -97.90388289 517.11691453 -109.1484375 514.5 C-114.94121023 512.27395633 -118.52221712 508.33269732 -121.3125 502.9375 C-124.97399334 493.7586284 -122.85718917 483.4281631 -121.2421875 473.96875 C-120.86277145 471.63628689 -120.48371818 469.30376475 -120.10498047 466.97119141 C-119.80403473 465.14796356 -119.80403473 465.14796356 -119.49700928 463.28790283 C-118.42454853 456.75684734 -117.39354404 450.21933369 -116.375 443.6796875 C-116.21961573 442.68214006 -116.21961573 442.68214006 -116.06109238 441.66444016 C-112.85720954 421.01366051 -110.56120157 400.26920212 -108.3692627 379.49047852 C-107.99315438 375.93529137 -107.61188253 372.38068847 -107.22949219 368.82617188 C-103.24358975 331.68826146 -99.66590684 294.51038669 -96.14009094 257.32636261 C-95.81938475 253.94753484 -95.49753276 250.56881797 -95.17541504 247.19012451 C-94.55606256 240.68710257 -93.94227007 234.18357069 -93.33203125 227.6796875 C-93.23282757 226.62496624 -93.13362389 225.57024498 -93.03141403 224.48356247 C-91.8954602 212.35948145 -90.84060104 200.23291272 -89.91552734 188.09082031 C-89.82794379 186.95061243 -89.74036024 185.81040455 -89.65012264 184.63564491 C-89.2328062 179.18491867 -88.82670496 173.73377662 -88.44087219 168.2807312 C-86.39159963 140.32952895 -86.39159963 140.32952895 -78 130 C-77.31550781 129.09636719 -76.63101563 128.19273437 -75.92578125 127.26171875 C-69.63842371 119.50401931 -69.63842371 119.50401931 -64.75 118.625 C-56.33351483 118.61018224 -48.35765376 121.66430412 -42 127 C-40.3457185 127.68117473 -38.69067056 128.36075192 -37.02734375 129.01953125 C-33.5581413 130.6973151 -30.53668301 133.01800727 -27.4296875 135.28125 C-25.01829668 136.98705701 -22.55013632 138.51166421 -20 140 C-19.89171875 138.89140625 -19.7834375 137.7828125 -19.671875 136.640625 C-19.02906139 131.52958249 -17.68812864 126.68751523 -16.25 121.75 C-15.98123047 120.82268066 -15.71246094 119.89536133 -15.43554688 118.93994141 C-11.44111914 105.44340278 -5.99305244 92.66052027 2.80078125 81.55859375 C4.08068317 79.99779077 4.08068317 79.99779077 5 78 C3.75089844 77.67322266 3.75089844 77.67322266 2.4765625 77.33984375 C-1.81427753 75.68618293 -5.00304925 73.35205519 -8.625 70.5625 C-9.67288696 69.76440918 -9.67288696 69.76440918 -10.74194336 68.95019531 C-17.17978016 63.98115322 -23.19983428 58.70200907 -29 53 C-29.65226562 52.37222656 -30.30453125 51.74445313 -30.9765625 51.09765625 C-41.08468921 40.55104915 -48.95637636 24.70399765 -49.5 10.125 C-49.30009372 4.86496606 -48.6263763 1.98901393 -45 -2 C-44.40574219 -2.7528125 -43.81148438 -3.505625 -43.19921875 -4.28125 C-30.35767419 -20.04019401 -13.20657154 -10.67845642 0 0 Z M200.71928132 71.72472495 C193.42832834 71.79380883 186.13733876 71.85689874 178.84631348 71.91781616 C169.872153 71.99321831 160.89816964 72.07967492 151.92424291 72.17916703 C147.3120121 72.23017346 142.69984566 72.27723414 138.08746529 72.31250381 C101.64297412 72.59094999 101.64297412 72.59094999 65.8125 78.8125 C64.27638062 79.19716431 64.27638062 79.19716431 62.70922852 79.58959961 C45.0154001 84.17336992 30.00487831 90.24364383 19.93359375 106.29296875 C-2.64103362 146.67579766 -5.94242475 201.14308961 -13 246 C-13.1618428 247.02854095 -13.32368561 248.05708191 -13.49043274 249.11679077 C-16.19073403 266.2872168 -18.86966449 283.46093755 -21.5350647 300.63681412 C-22.12478809 304.43613473 -22.71534323 308.2353255 -23.3059082 312.03451538 C-24.24370237 318.07163071 -25.17699336 324.10942675 -26.10682297 330.14777374 C-26.45531495 332.40759707 -26.80505359 334.66722853 -27.15608597 336.92665863 C-27.64037859 340.04618459 -28.11990096 343.16640702 -28.59814453 346.28686523 C-28.7414193 347.20333674 -28.88469406 348.11980825 -29.03231049 349.06405163 C-29.64245491 353.07702072 -30.18856026 356.92618545 -30 361 C-29.07703125 360.74605469 -28.1540625 360.49210937 -27.203125 360.23046875 C0.69327045 352.78344193 28.64306536 352.10411349 57.3125 353.875 C58.62911621 353.95339111 59.94573242 354.03178223 61.30224609 354.11254883 C67.30810864 354.5138374 73.01230043 355.07620841 78.85131836 356.53613281 C83.05265067 357.44313558 87.34622866 357.62320589 91.625 357.9375 C119.13572385 360.23275428 119.13572385 360.23275428 127.7109375 367.4375 C129 369 129 369 128.875 372 C127.98959664 375.03566866 127.54527951 376.20887738 125 378 C121.87046855 379.0042013 119.02358115 379.10557344 115.75 379.0625 C114.85796875 379.05347656 113.9659375 379.04445313 113.046875 379.03515625 C112.03367187 379.01775391 112.03367187 379.01775391 111 379 C111 377.68 111 376.36 111 375 C106.84569903 374.00390177 102.93020486 373.85673864 98.6640625 373.83203125 C97.60262527 373.82588303 97.60262527 373.82588303 96.51974487 373.8196106 C94.22144722 373.81004572 91.92331472 373.8100863 89.625 373.8125 C88.83955811 373.81210724 88.05411621 373.81171448 87.24487305 373.81130981 C74.90196178 373.81870097 62.77082106 374.48195417 50.4921875 375.76953125 C46.50085615 376.13863556 42.50428531 376.28083061 38.5 376.4375 C31.56094913 376.72275665 24.80538166 377.55096967 17.9375 378.5625 C9.31362224 379.79741933 0.83683427 380.29704143 -7.875 380.3125 C-9.48773804 380.32035522 -9.48773804 380.32035522 -11.13305664 380.32836914 C-16.66173785 380.27931213 -21.71904909 379.86524515 -27.06689453 378.42651367 C-29.32107613 377.85636358 -29.32107613 377.85636358 -33 378 C-37.83986665 410.81530231 -42.6591652 443.63735112 -47.09985352 476.50942993 C-47.44495352 479.04968922 -47.79522188 481.58925272 -48.15112305 484.12802124 C-49.85358076 496.30846355 -51.3109907 508.4174518 -51.5234375 520.7265625 C-51.56726059 522.11251114 -51.56726059 522.11251114 -51.61196899 523.52645874 C-51.59487867 532.46034627 -47.41861396 537.99639536 -41.3125 544.25 C-34.0701295 551.34314583 -25.55666421 556.63247084 -17 562 C-12.59918063 558.80374277 -8.42450405 555.6641516 -4.6875 551.6875 C0.21290886 546.68742181 5.49818962 542.3169723 11 538 C11.67272949 537.47212891 12.34545898 536.94425781 13.03857422 536.40039062 C19.51458491 531.32959261 25.99764498 526.26658284 32.5546875 521.30078125 C38.09604634 517.09791086 43.45953989 512.77086628 48.6875 508.1875 C55.99207572 501.81444214 63.78889053 496.21974018 71.69873047 490.62792969 C75.41580293 487.99845386 79.11683418 485.34695578 82.8125 482.6875 C83.54549316 482.16051514 84.27848633 481.63353027 85.03369141 481.09057617 C90.97996253 476.79119211 96.80687161 472.34562268 102.625 467.875 C113.93220079 459.20321896 125.31271494 450.57020119 138 444 C137.690625 444.763125 137.38125 445.52625 137.0625 446.3125 C136.32106407 448.18789677 135.63771783 450.08684652 135 452 C135.5775 451.71125 136.155 451.4225 136.75 451.125 C139.875 449.5625 139.875 449.5625 143 448 C137.46502372 466.81891934 119.99308566 481.14933432 106.52441406 494.43945312 C102.04598732 498.87304578 97.73598251 503.35678261 93.63574219 508.14160156 C90.90557041 511.2434027 87.95141349 514.11071293 85 517 C80.74424556 521.20676734 76.63598044 525.44049908 72.76953125 530.01171875 C70.00344336 533.11975129 67.01553613 536.00494755 64.05493164 538.92553711 C60.73885296 542.21413922 57.63978405 545.62196726 54.609375 549.171875 C52.97413566 551.02937988 51.26518207 552.76606009 49.5 554.5 C46.53674613 557.41746407 43.8061088 560.47105887 41.09375 563.62109375 C37.8892025 567.26208149 34.57601083 570.80201324 31.26293945 574.34423828 C26.8883315 578.97422228 26.8883315 578.97422228 23 584 C24.27655008 587.82965025 25.49539188 588.14068011 28.96875 590.07421875 C30.52601807 590.94663208 30.52601807 590.94663208 32.11474609 591.83666992 C33.23187988 592.44744385 34.34901367 593.05821777 35.5 593.6875 C36.6338916 594.31309814 37.7677832 594.93869629 38.93603516 595.58325195 C58.20358555 606.12322162 77.11278094 616.30608164 99.6875 610.9375 C101.46911494 610.32203302 103.23967633 609.67395249 105 609 C106.66289062 608.51273438 106.66289062 608.51273438 108.359375 608.015625 C120.44097697 603.53118759 124.24854518 593.99149389 129.60595703 582.875 C131.66655198 578.62533868 133.86702666 574.46008544 136.125 570.3125 C136.55635254 569.5186792 136.98770508 568.7248584 137.43212891 567.90698242 C146.8755503 550.92714448 158.28423871 534.47914158 170 519 C170.39582275 518.44376953 170.79164551 517.88753906 171.19946289 517.31445312 C174.37301289 513.09369919 174.37301289 513.09369919 177.45703125 512.6328125 C179.63802083 513.08854167 181.81901042 513.54427083 184 514 C185.8011839 522.31707385 183.75541373 527.00340919 179.875 534.39453125 C179.33528564 535.46313889 178.79557129 536.53174652 178.23950195 537.63273621 C176.51339607 541.03683671 174.75694964 544.42423491 173 547.8125 C171.84832164 550.07779141 170.69856243 552.3440596 169.55078125 554.61132812 C164.30487736 564.91731844 158.91001824 575.05608679 153 585 C156.62970705 583.79707894 160.22938367 582.56176667 163.80078125 581.1953125 C191.86655241 570.61104648 219.52664975 565.85839593 249 574 C250.11890625 574.30808594 251.2378125 574.61617187 252.390625 574.93359375 C254.61154894 575.58188021 256.8046291 576.27223393 259 577 C259.73863281 575.99582031 260.47726562 574.99164062 261.23828125 573.95703125 C273.74679128 557.05099817 287.41936727 541.52810354 302.25 526.625 C302.89928467 525.97104248 303.54856934 525.31708496 304.2175293 524.64331055 C308.04480673 520.828666 311.9958123 517.22777212 316.08496094 513.69677734 C319.0229071 511.09367614 321.75993146 508.30839942 324.5 505.5 C327.76582017 502.15273793 331.05198114 498.92342423 334.62109375 495.8984375 C338.2824283 492.73912369 341.64557666 489.35587263 345.00390625 485.8828125 C345.53555389 485.33618958 346.06720154 484.78956665 346.61495972 484.22637939 C348.82870782 481.94970993 351.04138669 479.67273731 353.23022461 477.37207031 C354.84928624 475.67411727 356.48698735 473.99613384 358.12890625 472.3203125 C358.6145253 471.80058868 359.10014435 471.28086487 359.60047913 470.74539185 C363.17800148 467.14009789 365.95457533 466.16575236 371 466 C372 467 372 467 372.36328125 470.6484375 C372.29261212 475.38854296 370.24249457 478.16246854 367.1875 481.625 C366.17251945 482.84059703 365.15821578 484.05675951 364.14453125 485.2734375 C363.62197754 485.88799805 363.09942383 486.50255859 362.56103516 487.13574219 C360.55655011 489.52958764 358.65307779 491.9932953 356.7487793 494.46704102 C352.44109079 500.05777305 347.94874382 505.3855874 343.171875 510.5859375 C340.11196075 513.98706521 337.25186412 517.53762629 334.375 521.09375 C332.28317675 523.65348109 330.15833632 526.17691276 328.01123047 528.68994141 C322.27993805 535.39831925 316.78921427 542.26808476 311.375 549.23388672 C308.64062958 552.74603793 305.88432484 556.24100598 303.1315918 559.73876953 C300.79382662 562.71107692 298.46308658 565.68845749 296.14453125 568.67578125 C290.9742591 575.32314744 285.71783288 581.80704633 280 588 C282.82584324 590.91415084 285.71316234 593.62748352 288.8125 596.25 C300.54737155 606.53177301 308.31089945 618.44268991 312.2109375 633.55078125 C312.47132813 634.35902344 312.73171875 635.16726563 313 636 C315.49133628 637.24566814 316.29048449 636.87266789 318.9375 636.1875 C319.62714844 636.01605469 320.31679688 635.84460937 321.02734375 635.66796875 C323.28036391 634.9998117 323.28036391 634.9998117 326 633 C328.32115711 632.59038404 330.65834501 632.26871451 333 632 C337.57487569 631.45213368 342.10392338 630.83771437 346.625 629.9375 C369.4350049 625.61150342 393.97399771 626.89337719 417.11154175 626.82376099 C419.38118777 626.8163548 421.65082603 626.80576429 423.92044067 626.79171753 C438.08370397 626.71222589 451.93881557 627.25924174 466 629 C462.28844735 633.24576839 457.17968772 634.45561597 452 636.3125 C450.36115845 636.90526733 450.36115845 636.90526733 448.68920898 637.51000977 C439.11936397 640.84788593 429.44041808 643.16252998 419.50976562 645.14770508 C417.88264648 645.47484497 417.88264648 645.47484497 416.22265625 645.80859375 C415.26109619 645.99220459 414.29953613 646.17581543 413.30883789 646.36499023 C410.8276761 646.8428076 410.8276761 646.8428076 409 649 C406.23217773 649.63842773 406.23217773 649.63842773 402.68359375 650.18359375 C402.04468704 650.28376801 401.40578033 650.38394226 400.74751282 650.4871521 C398.64551435 650.81352472 396.54184776 651.12665601 394.4375 651.4375 C393.71316772 651.54605316 392.98883545 651.65460632 392.24255371 651.76644897 C388.54121211 652.32083472 384.83862247 652.86546899 381.13427734 653.39941406 C377.61315484 653.90733898 374.09781985 654.44851468 370.58203125 654.9921875 C352.43843227 657.63136575 334.28549718 657.29935958 316 657 C315.96036133 657.61818604 315.92072266 658.23637207 315.87988281 658.87329102 C314.36458987 681.42478467 309.252364 698.50929808 298 718 C298.82757813 718.21398438 299.65515625 718.42796875 300.5078125 718.6484375 C304.89087771 720.3447916 308.14812536 722.80507097 311.875 725.625 C325.53599417 735.72575189 339.75214396 745.03633599 354.0625 754.1875 C355.12210938 754.86941406 356.18171875 755.55132813 357.2734375 756.25390625 C358.93575634 757.31845714 360.60584359 758.37115674 362.2890625 759.40234375 C366.7132035 762.2516362 368.57752388 764.93242881 370 770 C369.6875 773.25 369.6875 773.25 369 776 C368.6605489 779.19771448 368.6605489 779.19771448 371.30078125 781.48828125 C372.79522579 782.91089668 374.3096982 784.30991512 375.82617188 785.70898438 C379.13444621 788.85951318 381.18746253 791.8119868 383 796 C371.91967793 790.7611166 361.31350154 784.82074818 350.73022461 778.64355469 C345.00675597 775.30406736 339.26583504 772.02937629 333.42797852 768.89428711 C324.92244946 764.31296095 317.41515386 759.20395042 310 753 C309.44441406 752.53916016 308.88882812 752.07832031 308.31640625 751.60351562 C305.51153324 749.2724817 302.72479166 746.92250503 299.9609375 744.54296875 C298.14804825 742.98598867 296.32266001 741.44323911 294.4765625 739.92578125 C288.12494861 734.64041301 288.12494861 734.64041301 287 730 C283.97128511 731.39673745 281.25094566 733.11999684 278.48095703 734.97094727 C270.3337526 740.40279993 261.83012586 744.7913556 253 749 C253.74894531 749.72832031 254.49789063 750.45664063 255.26953125 751.20703125 C267.55312533 763.77179487 274.89702891 780.69239365 282.5625 796.25 C286.85889958 804.93961245 291.22415445 813.26118554 296.77197266 821.22851562 C298.18604866 823.26838351 299.56763733 825.32861583 300.94921875 827.390625 C308.10366949 838.01928053 315.61426396 848.35607492 323.25048828 858.64160156 C345.97567097 889.27588355 345.97567097 889.27588355 345.34375 899.0390625 C345 901 345 901 344 903 C344.6590841 904.66967972 345.32650839 906.33607955 346 908 C346 909.32 346 910.64 346 912 C345.56429688 911.60167969 345.12859375 911.20335938 344.6796875 910.79296875 C344.08414062 910.26316406 343.48859375 909.73335937 342.875 909.1875 C342.29492188 908.66542969 341.71484375 908.14335937 341.1171875 907.60546875 C338.97387003 905.86367068 338.97387003 905.86367068 336.0859375 904.63671875 C332.51919012 902.74498818 330.4390934 900.62808934 327.75 897.625 C327.28037842 897.10115723 326.81075684 896.57731445 326.3269043 896.03759766 C322.08551547 891.23927315 318.18085797 886.20086593 314.33203125 881.0859375 C312.2651406 878.35085608 310.15346439 875.66701602 308 873 C300.19391682 863.26187228 292.79843878 853.4111004 285.81542969 843.06713867 C283.41563184 839.51500102 281.01995651 835.97623338 278.44140625 832.55078125 C260.44081394 808.52043388 249.29299311 782.14290646 243 753 C242.3716626 753.12286377 241.7433252 753.24572754 241.09594727 753.37231445 C220.87684472 757.26999882 201.83452634 759.41717793 181.390625 756.4375 C178.52659177 756.06794732 175.87685977 755.96562011 173 756 C166.43446917 775.31510306 160.15313544 794.69644015 154.23730469 814.22094727 C151.84064297 822.11981654 149.39684037 830.00157219 146.83203125 837.84765625 C146.47343269 838.96520546 146.47343269 838.96520546 146.10758972 840.10533142 C144.81079836 844.02388988 143.534038 847.68347996 141 851 C139.845 851.144375 138.69 851.28875 137.5 851.4375 C136.345 851.623125 135.19 851.80875 134 852 C131.98958997 854.93449408 131.98958997 854.93449408 131 858 C132.14429055 845.20201364 133.81025556 832.57852061 136.75 820.0625 C137.03439941 818.84119385 137.31879883 817.6198877 137.61181641 816.36157227 C141.25698186 801.08220071 145.81786947 786.04010823 150.28808594 770.98657227 C150.59064301 769.96689362 150.89320007 768.94721497 151.20492554 767.89663696 C151.77782326 765.96985189 152.35307439 764.04376447 152.93106079 762.11849976 C153.31782486 760.82125473 153.31782486 760.82125473 153.71240234 759.49780273 C153.93777679 758.74667709 154.16315125 757.99555145 154.39535522 757.22166443 C155.04601391 754.83092971 155.53981443 752.43394213 156 750 C155.1234375 749.70609375 154.246875 749.4121875 153.34375 749.109375 C136.61171428 743.27513386 120.23875705 735.30700471 105.46459961 725.50268555 C103.15554378 724.01625023 101.54828969 722.99617917 98.7578125 723.015625 C96.40653017 724.3323431 95.7935834 725.64659885 94.625 728.0625 C93.09266682 731.19882222 91.36949341 733.85012001 89.21484375 736.578125 C85.39557467 741.59003915 82.70326747 747.04480215 79.9375 752.6875 C79.38094727 753.8014917 78.82439453 754.9154834 78.25097656 756.06323242 C75.17354284 762.29628845 72.28491179 768.57228224 69.58203125 774.9765625 C69.01770716 776.29730226 68.45333584 777.61802185 67.88891602 778.9387207 C66.80954859 781.46904626 65.77147283 784.01153273 64.75366211 786.56713867 C61.89468406 793.32033096 59.81403003 797.07511035 53.00244141 800.07836914 C50.36007801 801.2945264 49.10502017 802.88200085 47.5625 805.3125 C46.74781482 806.56818286 45.90329218 807.80646968 45 809 C44.34 809 43.68 809 43 809 C43.30975468 807.22868439 43.62290425 805.45796222 43.9375 803.6875 C44.11152344 802.70136719 44.28554687 801.71523437 44.46484375 800.69921875 C45 798 45 798 46 795 C46.30024685 792.73844001 46.5751729 790.47348301 46.8359375 788.20703125 C47.79843044 780.51343294 49.55198058 773.16097769 51.625 765.6875 C51.97989957 764.3900186 52.33463255 763.09249162 52.68920898 761.79492188 C53.77190007 757.85728455 54.88247919 753.9278727 56 750 C56.34401855 748.78521973 56.68803711 747.57043945 57.04248047 746.31884766 C60.41109494 734.55216885 63.742477 723.15571624 69.75 712.44140625 C71.22786914 710.0120768 71.22786914 710.0120768 71 707 C59.09182347 702.66975399 47.6525139 699.18263769 35.1875 703.8125 C16.72227165 712.52808778 0.64655328 725.99198855 -14 740 C-14.67804688 740.63679688 -15.35609375 741.27359375 -16.0546875 741.9296875 C-29.94223937 755.30525589 -51.19998401 779.07984966 -53.3125 798.9375 C-52.97616995 814.71137911 -42.45267716 829.23018932 -33 841 C-31.87078125 842.43666016 -31.87078125 842.43666016 -30.71875 843.90234375 C-17.98710688 859.55501259 -3.40785952 874.22408971 13 886 C14.32197691 886.9773747 15.64357389 887.95526343 16.96484375 888.93359375 C86.70165653 939.94244161 183.64568963 957.45227706 287.46655273 948.42700195 C302.59816169 945.96934823 317.34002814 942.46812792 332 938 C332.89364258 937.72961914 333.78728516 937.45923828 334.70800781 937.18066406 C360.25720588 929.28293617 383.35101239 915.86186465 404 899 C404.54688477 898.5560791 405.09376953 898.1121582 405.65722656 897.65478516 C418.38848946 887.24596878 430.61671644 875.81603914 440.765625 862.84375 C442.40650069 860.75536276 444.0688621 858.73205899 445.796875 856.71875 C464.01084147 835.29123473 499 791.84580812 499 763 C498.154375 762.75765625 497.30875 762.5153125 496.4375 762.265625 C495.303125 761.93046875 494.16875 761.5953125 493 761.25 C491.329375 760.76273438 491.329375 760.76273438 489.625 760.265625 C486.93767779 759.32737888 484.89922123 758.43805258 482.46020508 757.09179688 C477.50310337 754.58649025 472.41241368 753.44799409 467.01171875 752.265625 C464.85204638 751.77321268 462.69237858 751.2807803 460.53271484 750.78833008 C458.85444611 750.41171738 458.85444611 750.41171738 457.14227295 750.02749634 C437.88020778 745.69257032 418.7408502 741.2614658 400 735 C398.3910083 734.46511963 398.3910083 734.46511963 396.74951172 733.91943359 C378.33425609 727.7219143 362.43310567 720.46089027 346.1875 709.8125 C345.12974365 709.122771 344.0719873 708.43304199 342.98217773 707.72241211 C341.99161377 707.05733643 341.0010498 706.39226074 339.98046875 705.70703125 C339.09254639 705.1138208 338.20462402 704.52061035 337.28979492 703.90942383 C334.80573381 701.83800449 333.49277743 699.84850998 332 697 C354.91402243 699.79938891 376.55858939 704.66281453 398.64642334 711.29498291 C401.01093841 712.00327662 403.37738822 712.70468225 405.74462891 713.40380859 C420.5597242 717.77996156 435.34546639 722.25073915 450.10650635 726.80587769 C454.24827876 728.08349669 458.39152733 729.35629732 462.534729 730.62927246 C465.47794743 731.53643898 468.41844205 732.45205445 471.35888672 733.36816406 C480.47933786 736.18620042 489.47662852 738.73180949 498.88647461 740.37475586 C502.04040501 741.00811395 504.97249056 741.92104868 508 743 C526.03328111 680.65679387 523.51184511 618.91111814 492 561 C488.4373814 554.60484403 484.75235399 548.28537438 481 542 C475.95715832 542.80337017 471.38862147 544.68731203 466.67382812 546.56445312 C462.39401781 548.22156194 458.15552015 549.46559017 453.703125 550.5859375 C443.92153084 553.32918038 435.16879727 558.14856655 426.1875 562.8125 C411.79715383 570.24218747 397.40899466 576.84374034 382.25 582.54296875 C377.88348654 584.20145637 373.69300647 586.05502164 369.5 588.11328125 C368.4275 588.63857422 367.355 589.16386719 366.25 589.70507812 C364.07551532 590.78055943 361.90879344 591.87187452 359.75 592.97851562 C352.0492622 596.70393265 345.55885311 598.02527928 337 597 C335.33657163 595.33657163 335.63951903 593.2174291 335.4375 590.9375 C335.35371094 590.01839844 335.26992188 589.09929688 335.18359375 588.15234375 C335.12300781 587.44207031 335.06242187 586.73179687 335 586 C333.68 586 332.36 586 331 586 C334.74688153 583.70265046 338.49660883 581.41003375 342.2487793 579.12133789 C343.5187327 578.34586829 344.78796668 577.569219 346.05639648 576.79125977 C353.65800695 572.13026437 361.29582744 567.66713381 369.20092773 563.53442383 C371.87277115 562.0697456 374.3645155 560.4735468 376.875 558.75 C394.12711661 547.64518931 413.85972858 540.71669678 433.0222168 533.7230835 C435.80568034 532.70544084 438.5863065 531.68014603 441.36708069 530.65518188 C449.23881195 527.75385518 457.11695315 524.87045272 465 522 C465 518.01496188 463.11366784 516.12282262 460.75 513.125 C459.96109375 512.09632813 459.1721875 511.06765625 458.359375 510.0078125 C449.80686723 499.53758877 440.13727501 489.97338428 430.57128906 480.44091797 C428.7338424 478.60889005 426.9018835 476.77149395 425.0703125 474.93359375 C419.7048777 469.56526387 414.34700464 464.2515252 408.56201172 459.33007812 C406.53507145 457.60410586 404.62151331 455.76636307 402.6875 453.9375 C388.8055592 441.47337937 372.99690674 431.4898409 357 422 C356.15211914 421.49227051 355.30423828 420.98454102 354.43066406 420.46142578 C335.41935723 409.11949436 315.95818079 399.31670851 294.9375 392.3125 C294.29652374 392.09777039 293.65554749 391.88304077 292.99514771 391.6618042 C286.34624775 389.45488972 280.00341208 387.51585682 273 387 C271.70815113 390.57650752 270.69712393 394.15125401 269.84375 397.8515625 C263.02367419 427.36384354 251.58641706 455.02685284 238.125 482.0625 C237.79408356 482.72828064 237.46316711 483.39406128 237.1222229 484.08001709 C236.17272067 485.98444913 235.21670724 487.88543876 234.2578125 489.78515625 C233.42467529 491.43849976 233.42467529 491.43849976 232.57470703 493.12524414 C228.96689715 499.71159473 228.96689715 499.71159473 225.95703125 500.609375 C223.97135417 500.73958333 221.98567708 500.86979167 220 501 C217.86611531 497.53243738 217.70739777 495.03626727 218 491 C218.87828538 488.22354822 219.81284742 485.59579706 220.89453125 482.90234375 C221.34930344 481.73425674 221.34930344 481.73425674 221.81326294 480.54257202 C222.80384176 478.00385042 223.80815662 475.4708038 224.8125 472.9375 C225.50247966 471.17580329 226.19135406 469.41367331 226.87915039 467.65112305 C227.92064585 464.98295278 228.96296877 462.31513583 230.00920105 459.64881897 C233.05170517 451.8945577 236.00384517 444.10842586 238.9375 436.3125 C240.22839562 432.90846131 241.52241154 429.50563379 242.81835938 426.10351562 C243.58496726 424.09006121 244.34942091 422.07578476 245.11132812 420.06054688 C249.26920509 409.10304791 253.82564701 398.98027346 260 389 C261.00132929 387.33413163 262.00180727 385.6677497 263 384 C244.36890998 379.07338962 225.69969756 376.67447654 206.42382812 376.46606445 C200.02756168 376.33778308 193.57955795 376.0830516 188.47924805 371.69018555 C182.4759525 365.02887599 181.7418256 355.46564701 180 347 C179.80148437 346.0821875 179.60296875 345.164375 179.3984375 344.21875 C177.25430294 334.10611535 176.81344227 324.15234303 176.81469727 313.82495117 C176.81252252 311.83312867 176.79404168 309.84134574 176.77539062 307.84960938 C176.73090298 277.8204516 176.73090298 277.8204516 186.08203125 267.73046875 C199.30534083 255.79986561 214.69727659 254.83980842 231.67578125 254.8671875 C233.65544136 254.86575241 233.65544136 254.86575241 235.6750946 254.86428833 C238.46643245 254.86281934 241.25773818 254.86493637 244.04907227 254.86962891 C247.56771002 254.87526565 251.08627111 254.87199023 254.60490608 254.86618233 C267.01354347 254.84884818 279.39913021 254.84450332 291.78816223 255.62121582 C304.17519674 256.36053444 316.59457898 256.33992574 329 256.375 C329.70870365 256.37730118 330.4174073 256.37960236 331.14758682 256.38197327 C355.40893581 256.44720396 379.54880008 255.53519993 403.7545166 253.91266632 C406.15558301 253.75213393 408.55688861 253.59565592 410.95825195 253.43963623 C449.88613721 252.95551096 449.88613721 252.95551096 483.69921875 237.61328125 C486.52308155 234.11101297 488 230.54824042 488 226 C486.80793945 226.02356567 486.80793945 226.02356567 485.59179688 226.04760742 C437.21911172 226.87739364 437.21911172 226.87739364 419.6953125 211.65234375 C412.73538056 204.86881562 410.19679867 197.37033834 409.6875 187.8125 C409.87426448 178.53653062 413.73191464 170.88209928 420.1875 164.34375 C438.66341793 148.94715172 467.08524283 146.79946025 490 143 C489.23960795 130.60934928 487.95250275 118.39966184 485.6875 106.1875 C485.40483276 104.58962646 485.40483276 104.58962646 485.11645508 102.95947266 C483.617087 95.26348324 481.58282888 87.41517484 475.74609375 81.8515625 C473.18770798 80.49228478 470.64372926 79.18705691 468 78 C467.17242188 77.62230469 466.34484375 77.24460937 465.4921875 76.85546875 C447.17402508 69.72580495 425.7945313 70.5591594 406.484375 70.63671875 C403.86719224 70.63643134 401.25000941 70.63502001 398.63282776 70.63259888 C392.24312305 70.62969755 385.853574 70.64442438 379.4639098 70.66609931 C374.20749919 70.6837803 368.95110536 70.69537168 363.69467163 70.70346069 C309.36845061 70.79109903 255.04292682 71.20712588 200.71928132 71.72472495 Z M-96 484 C-95.67 485.32 -95.34 486.64 -95 488 C-94.01 487.01 -93.02 486.02 -92 485 C-93.32 484.67 -94.64 484.34 -96 484 Z " fill="#010101" transform="translate(208,1155)"/>
<path d="M0 0 C5.84889415 3.38208956 10.36500419 7.9285743 13.234375 14.05859375 C14.84576489 21.95440421 14.01245182 29.2672664 9.5703125 36.10546875 C5.44068482 41.27302424 0.45364264 44.83820895 -6.140625 46.12109375 C-13.59809072 46.77095862 -19.96542834 46.69642106 -26.140625 42.12109375 C-31.32366242 36.93805633 -33.31110743 31.42092695 -33.703125 24.24609375 C-33.50899124 17.76687967 -31.5348543 13.8124738 -27.140625 9.12109375 C-19.8013065 2.30031406 -10.30959004 -4.23295211 0 0 Z " fill="#020202" transform="translate(437.140625,1271.87890625)"/>
<path d="M0 0 C3 -0.3125 3 -0.3125 6 0 C8 2 8 2 8.31640625 5.9296875 C8.17240816 11.63291902 6.66406416 16.71950623 4.9375 22.125 C4.59025879 23.22972656 4.24301758 24.33445312 3.88525391 25.47265625 C-3.74782968 49.09321899 -13.31761196 72.11623911 -22.75 95.0625 C-23.04618225 95.78332764 -23.3423645 96.50415527 -23.64752197 97.24682617 C-24.48566605 99.28182474 -25.32774796 101.31513306 -26.171875 103.34765625 C-26.6472168 104.49242432 -27.12255859 105.63719238 -27.61230469 106.81665039 C-28.97261294 109.93717455 -30.44875608 112.97049505 -32 116 C-32.33 116 -32.66 116 -33 116 C-33.495 113.525 -33.495 113.525 -34 111 C-34.19634033 111.52432617 -34.39268066 112.04865234 -34.5949707 112.58886719 C-35.49411879 114.9784926 -36.40319639 117.36422151 -37.3125 119.75 C-37.7755957 120.9875 -37.7755957 120.9875 -38.24804688 122.25 C-41.13817532 129.79475636 -41.13817532 129.79475636 -44 133 C-44.26964017 126.30657919 -43.27417172 120.28515572 -41.875 113.75 C-41.68679688 112.80898437 -41.49859375 111.86796875 -41.3046875 110.8984375 C-37.40248875 92.31421597 -30.81499762 74.68684052 -23.875 57.0625 C-23.03037994 54.90229842 -22.18606297 52.74197831 -21.34204102 50.58154297 C-16.63394862 38.55836848 -11.86452736 26.56027513 -6.9375 14.625 C-6.45587402 13.45718994 -5.97424805 12.28937988 -5.47802734 11.08618164 C-2.26444781 3.39667171 -2.26444781 3.39667171 0 0 Z " fill="#050505" transform="translate(313,1920)"/>
<path d="M0 0 C1.48886719 0.433125 1.48886719 0.433125 3.0078125 0.875 C4.3799541 1.2509292 5.7523654 1.62587492 7.125 2 C8.09373047 2.28617188 8.09373047 2.28617188 9.08203125 2.578125 C16.45284434 4.54367516 21.730895 4 30 4 C28.35 13.9 26.7 23.8 25 34 C17 33 17 33 14.80859375 32.4453125 C12.52307805 31.88257213 10.41393639 31.86775366 8.0625 31.875 C7.22847656 31.87242188 6.39445313 31.86984375 5.53515625 31.8671875 C2.93637297 32.00333331 0.54299319 32.4660006 -2 33 C-2.13444393 25.36937313 -1.75657818 17.90384185 -1 10.3125 C-0.90460938 9.31283203 -0.80921875 8.31316406 -0.7109375 7.28320312 C-0.47857196 4.85498326 -0.24154365 2.42732101 0 0 Z " fill="#FAFAFA" transform="translate(143,1376)"/>
<path d="M0 0 C3.14710574 0.63973515 6.29243659 1.28780498 9.4375 1.9375 C10.33533203 2.11990234 11.23316406 2.30230469 12.15820312 2.49023438 C13.01220703 2.66748047 13.86621094 2.84472656 14.74609375 3.02734375 C15.53685303 3.18968506 16.3276123 3.35202637 17.14233398 3.51928711 C19 4 19 4 20 5 C19.91207351 17.00196631 17.61652519 29.13382309 16 41 C14.42570723 40.84580596 12.85150639 40.69067318 11.27734375 40.53515625 C10.40070068 40.44886963 9.52405762 40.36258301 8.62084961 40.27368164 C6.26245954 40.02740728 3.91370471 39.74387157 1.5625 39.4375 C-1.89806114 38.93905435 -1.89806114 38.93905435 -5 39 C-3.53130494 25.97181085 -1.80817557 12.98516466 0 0 Z " fill="#FAFAFA" transform="translate(125,1555)"/>
<path d="M0 0 C4.31324464 1.38640006 8.58499784 2.82494719 12.80859375 4.46484375 C20.1365739 7.30566206 27.16394756 9.90747346 35 11 C34.39700836 18.23589973 32.8849413 24.99370876 31 32 C27.0797187 30.7316737 23.23131841 29.33363875 19.390625 27.84228516 C12.0303331 24.99480789 4.73060633 22.66910818 -3 21 C-2.88553728 18.43663746 -2.75880499 15.87486555 -2.625 13.3125 C-2.5940625 12.59126953 -2.563125 11.87003906 -2.53125 11.12695312 C-2.30664413 7.02789606 -1.82259091 3.75631541 0 0 Z " fill="#F9F9F9" transform="translate(150,1301)"/>
<path d="M0 0 C1.39412109 0.41572266 1.39412109 0.41572266 2.81640625 0.83984375 C4.67072266 1.38318359 4.67072266 1.38318359 6.5625 1.9375 C8.38974609 2.47697266 8.38974609 2.47697266 10.25390625 3.02734375 C13.87201619 3.96676959 17.29853486 4.54743991 21 5 C20.52428058 9.22956186 20.04382314 13.45857247 19.5625 17.6875 C19.42779297 18.88568359 19.29308594 20.08386719 19.15429688 21.31835938 C19.02216797 22.47529297 18.89003906 23.63222656 18.75390625 24.82421875 C18.63345947 25.88729248 18.5130127 26.95036621 18.38891602 28.0456543 C18.03762378 30.71419629 17.52785934 33.36070329 17 36 C10.4 35.01 3.8 34.02 -3 33 C-3 21.73673257 -3 21.73673257 -2.59765625 17.75390625 C-2.51193359 16.89732422 -2.42621094 16.04074219 -2.33789062 15.15820312 C-2.24701172 14.30162109 -2.15613281 13.44503906 -2.0625 12.5625 C-1.97548828 11.67884766 -1.88847656 10.79519531 -1.79882812 9.88476562 C-1.44098202 6.3990795 -1.1126093 3.3378279 0 0 Z " fill="#FAFAFA" transform="translate(129,1519)"/>
<path d="M0 0 C0.57355225 0.20278564 1.14710449 0.40557129 1.73803711 0.61450195 C6.33095558 2.19887526 10.74104361 3.46705249 15.5625 4.1875 C17.11130859 4.42533203 17.11130859 4.42533203 18.69140625 4.66796875 C19.83416016 4.83232422 19.83416016 4.83232422 21 5 C20.91249004 7.70979124 20.80555107 10.41650748 20.6875 13.125 C20.66494141 13.88554688 20.64238281 14.64609375 20.61914062 15.4296875 C20.39187336 20.22296078 19.96068463 24.03835071 17 28 C14.34415706 28.99823062 12.36637316 29.53793692 9.625 29.9375 C8.965 30.06189453 8.305 30.18628906 7.625 30.31445312 C3.8432256 30.96609354 0.67185644 31.18167016 -3 30 C-5 28 -5 28 -5.04907227 26.18969727 C-4.26409446 20.37670614 -3.19526562 14.66633353 -1.9375 8.9375 C-1.75123047 8.07189453 -1.56496094 7.20628906 -1.37304688 6.31445312 C-0.91933733 4.20877549 -0.46023996 2.10425993 0 0 Z " fill="#FBFBFB" transform="translate(117,1610)"/>
<path d="M0 0 C0.96486328 0.27263672 0.96486328 0.27263672 1.94921875 0.55078125 C11.84712112 3.30412071 21.75316396 5.99540823 32 7 C31.54240047 13.5508985 30.7899856 19.6753842 29 26 C27.45797384 25.54287762 25.91639786 25.08423653 24.375 24.625 C23.51648438 24.36976562 22.65796875 24.11453125 21.7734375 23.8515625 C19.87302368 23.26805516 17.98971171 22.62663259 16.125 21.9375 C12.57227448 20.87168234 9.32443589 20.58440203 5.625 20.375 C3.75714844 20.26285156 3.75714844 20.26285156 1.8515625 20.1484375 C0.91054687 20.09945313 -0.03046875 20.05046875 -1 20 C-1.11044961 13.26257354 -0.70132913 6.70019789 0 0 Z " fill="#F8F8F8" transform="translate(146,1340)"/>
<path d="M0 0 C1.7634375 0.7115625 1.7634375 0.7115625 3.5625 1.4375 C10.18531727 3.68755971 17.06905055 3.73518111 24 4 C23.71542568 6.52181288 23.42254942 9.04221196 23.125 11.5625 C23.00705078 12.61920898 23.00705078 12.61920898 22.88671875 13.69726562 C22.80292969 14.39658203 22.71914062 15.09589844 22.6328125 15.81640625 C22.52283936 16.76688843 22.52283936 16.76688843 22.41064453 17.73657227 C21.84107548 20.87597455 20.87653932 23.93211238 20 27 C12.74 25.02 5.48 23.04 -2 21 C-1.855625 18.091875 -1.71125 15.18375 -1.5625 12.1875 C-1.51939697 11.27508545 -1.47629395 10.3626709 -1.43188477 9.42260742 C-1.39377686 8.69920166 -1.35566895 7.9757959 -1.31640625 7.23046875 C-1.27974854 6.49207764 -1.24309082 5.75368652 -1.20532227 4.99291992 C-1 3 -1 3 0 0 Z " fill="#F7F7F7" transform="translate(137,1446)"/>
<path d="M0 0 C4.58214694 1.52738231 8.98062361 3.17153789 13.4375 5 C16.26176688 6.10215293 19.11765081 7.06156073 22 8 C21.6920761 10.79224194 21.37887563 13.58371427 21.0625 16.375 C20.97548828 17.1690625 20.88847656 17.963125 20.79882812 18.78125 C20.11328125 24.7734375 20.11328125 24.7734375 19 27 C18.42926758 26.83701416 17.85853516 26.67402832 17.27050781 26.50610352 C14.98346733 25.99631481 13.01035544 25.88564032 10.671875 25.90234375 C9.9509668 25.90484131 9.23005859 25.90733887 8.48730469 25.90991211 C7.13233887 25.92356812 7.13233887 25.92356812 5.75 25.9375 C1.41875 25.9684375 1.41875 25.9684375 -3 26 C-2.01 17.42 -1.02 8.84 0 0 Z " fill="#F8F8F8" transform="translate(134,1473)"/>
<path d="M0 0 C2.96260319 1.81189251 5.42159878 3.84319756 7 7 C7.68128376 13.81283762 7.68128376 13.81283762 5.953125 16.82421875 C4.17156722 18.98828747 2.52390368 20.73804816 0 22 C-6.10465114 22.50872093 -9.11952826 22.06705978 -14 18 C-16.68408645 13.97387033 -16.80610406 10.73183082 -16 6 C-12.38033089 -0.72423147 -7.10602336 -1.9977311 0 0 Z " fill="#040404" transform="translate(669,1250)"/>
<path d="M0 0 C4.41418778 1.42575043 7.42172412 3.81101978 10.75 6.9375 C11.27658203 7.42694092 11.80316406 7.91638184 12.34570312 8.4206543 C16.48137188 12.34338385 20.11014874 16.54660124 23.63671875 21.02734375 C26.92516351 25.16371806 30.38458485 29.14476951 33.83984375 33.1418457 C36.6292678 36.3764402 39.35484784 39.64486638 42 43 C41.505 43.99 41.505 43.99 41 45 C31.90557189 39.12114566 23.14840019 33.16357699 15 26 C14.34515625 25.42894531 13.6903125 24.85789062 13.015625 24.26953125 C6.30876259 18.02265277 0.8127942 10.06397102 -1 1 C-0.67 0.67 -0.34 0.34 0 0 Z " fill="#F3F3F3" transform="translate(184,1168)"/>
<path d="M0 0 C1.134375 0.474375 2.26875 0.94875 3.4375 1.4375 C10.71589347 3.91823861 18.38722252 3.70028435 26 4 C25.34 9.28 24.68 14.56 24 20 C19.93075423 21.01731144 19.576222 21.095233 16.0625 19.625 C10.17722686 17.46969094 4.21438016 17.27854254 -2 17 C-1.85899143 14.72886197 -1.71203245 12.45809275 -1.5625 10.1875 C-1.48128906 8.92292969 -1.40007812 7.65835937 -1.31640625 6.35546875 C-1 3 -1 3 0 0 Z " fill="#F5F5F5" transform="translate(140,1416)"/>
<path d="M0 0 C0.66 0.33 1.32 0.66 2 1 C-7.24 10.24 -16.48 19.48 -26 29 C-26.66 28.67 -27.32 28.34 -28 28 C-19.04173531 18.21783652 -9.90877269 8.82265089 0 0 Z " fill="#E5E5E5" transform="translate(209,1881)"/>
<path d="M0 0 C5.94 0.99 5.94 0.99 12 2 C12 2.66 12 3.32 12 4 C3.42857143 3.14285714 3.42857143 3.14285714 0 1 C0 0.67 0 0.34 0 0 Z " fill="#000000" transform="translate(671,1194)"/>
<path d="M0 0 C0.66 0 1.32 0 2 0 C2 0.99 2 1.98 2 3 C1.34 3 0.68 3 0 3 C0 2.01 0 1.02 0 0 Z " fill="#000000" transform="translate(698,1320)"/>
</svg>
