<?xml version="1.0" encoding="UTF-8"?>
<svg version="1.1" xmlns="http://www.w3.org/2000/svg" width="3840" height="2160">
<path d="M0 0 C3.3667588 3.83113932 4.44464594 7.40701146 4.32421875 12.5390625 C0.90061555 38.52544827 -23.54456488 67.51960161 -41 86 C-41.68320313 86.73605469 -42.36640625 87.47210937 -43.0703125 88.23046875 C-51.42449177 96.93916116 -61.17468225 104.04977523 -71 111 C-67.53117097 113.82471378 -63.97987773 116.50870196 -60.37915039 119.16040039 C-49.16003889 127.45048219 -39.58118427 135.9279941 -31 147 C-30.28199219 147.86753906 -29.56398438 148.73507812 -28.82421875 149.62890625 C-13.1818928 169.16097578 1.43434065 199.70208805 0.3828125 225.359375 C-0.25248175 229.74160879 -1.74518485 233.21613833 -4 237 C-4.4125 237.72316406 -4.825 238.44632813 -5.25 239.19140625 C-9.02581346 245.01602759 -13.44852894 247.08645152 -20 249 C-20.64582031 249.18949219 -21.29164063 249.37898438 -21.95703125 249.57421875 C-32.74121931 251.82178376 -42.75052866 248.80675907 -53.02050781 245.85205078 C-71.17878319 240.65929586 -89.30064249 235.79581974 -108 233 C-108.9084668 232.85191895 -109.81693359 232.70383789 -110.75292969 232.55126953 C-142.97619867 227.3917699 -176.92852006 228.28946399 -209 234 C-210.09699219 234.19255371 -211.19398438 234.38510742 -212.32421875 234.58349609 C-225.89262064 237.03243715 -238.99002722 240.44887068 -252 245 C-253.01900391 245.34949707 -253.01900391 245.34949707 -254.05859375 245.70605469 C-296.44360291 260.35077764 -334.97439093 287.9111001 -364 322 C-364.72832031 322.83917969 -365.45664063 323.67835938 -366.20703125 324.54296875 C-373.14277179 332.66641284 -379.37085997 341.23500898 -385.53979492 349.94799805 C-386.48677169 351.27876878 -387.44219779 352.60358273 -388.4074707 353.92114258 C-390.7964967 357.19096439 -392.85026506 360.39342513 -394.5625 364.0625 C-396.3901302 367.96439561 -398.56070725 371.44678075 -401 375 C-400.09765625 374.76925781 -399.1953125 374.53851562 -398.265625 374.30078125 C-320.46070633 354.94522162 -233.10316414 359.01408015 -163.01586914 401.16845703 C-145.54363781 411.99840495 -128.53039473 424.52779351 -113.5546875 438.62109375 C-111.48838017 440.54522397 -109.3918483 442.39596434 -107.25390625 444.23828125 C-95.8978953 454.13890456 -85.13785366 465.01328608 -76 477 C-75.21882813 477.97582031 -74.43765625 478.95164062 -73.6328125 479.95703125 C-44.13821254 516.9729279 -28.53201061 560.70051871 -21 607 C-20.87254395 607.77585449 -20.74508789 608.55170898 -20.61376953 609.35107422 C-18.98531618 619.51620428 -18.36862885 629.72416959 -18 640 C-17.95746094 641.12535156 -17.91492187 642.25070312 -17.87109375 643.41015625 C-16.56936558 714.83164209 -47.43588946 788.50429075 -96.2734375 840.0625 C-98.13889816 842.03779065 -99.89958931 844.06299873 -101.6171875 846.16796875 C-103.57295291 848.49244403 -105.42299296 850.38824418 -107.75 852.3125 C-110.76086508 854.87314226 -113.55740892 857.54105122 -116.3125 860.375 C-121.24057703 865.33654445 -126.46245823 869.73348209 -132 874 C-132.55526367 874.43650879 -133.11052734 874.87301758 -133.68261719 875.32275391 C-177.11572681 909.13188784 -236.23581148 924.79700863 -290 932 C-290.67327332 932.09249023 -291.34654663 932.18498047 -292.04022217 932.28027344 C-306.51550921 934.21664512 -320.91444333 934.31820394 -335.5 934.25 C-336.69687439 934.24656586 -337.89374878 934.24313171 -339.12689209 934.23959351 C-404.69501644 934.01866113 -469.25420859 920.41264631 -523 881 C-523.59232422 880.56606934 -524.18464844 880.13213867 -524.79492188 879.68505859 C-534.8873183 872.2057715 -543.99093895 863.73591006 -553 855 C-553.51643066 854.50016602 -554.03286133 854.00033203 -554.56494141 853.48535156 C-559.23342996 848.94658774 -563.74852877 844.31583719 -567.9765625 839.36328125 C-569.59946927 837.46780134 -571.2412552 835.59572537 -572.8984375 833.73046875 C-580.23183605 825.43778839 -587.04008565 816.88515735 -593.56787109 807.94677734 C-594.93998099 806.08158738 -596.33440761 804.23588405 -597.73828125 802.39453125 C-609.14794655 787.32932211 -619.14275446 771.1970686 -627 754 C-627.49209961 752.9469165 -627.49209961 752.9469165 -627.99414062 751.87255859 C-652.46024112 699.06928722 -653.67099668 635.97787523 -657.6875 578.875 C-657.74834778 578.01009949 -657.80919556 577.14519897 -657.87188721 576.25408936 C-659.21826705 556.93745218 -660.21319605 537.68073512 -660.1875 518.3125 C-660.18656342 517.38457642 -660.18562683 516.45665283 -660.18466187 515.50061035 C-660.02943785 443.76723654 -646.65969601 374.31065547 -619 308 C-618.60780273 307.05334473 -618.21560547 306.10668945 -617.81152344 305.13134766 C-598.71632615 259.17300758 -571.76267411 216.45884156 -539 179 C-538.36964844 178.27039062 -537.73929688 177.54078125 -537.08984375 176.7890625 C-535.4057269 174.84791643 -533.70424709 172.92348829 -532 171 C-531.08093872 169.95368408 -531.08093872 169.95368408 -530.14331055 168.88623047 C-524.33966258 162.34642656 -518.27142255 156.11699018 -512.0793457 149.94897461 C-510.43258596 148.30760204 -508.79127905 146.66091181 -507.15039062 145.01367188 C-501.60565509 139.46517642 -495.9861606 134.07483718 -490 129 C-488.95128344 128.07500035 -487.90433555 127.14799066 -486.859375 126.21875 C-477.00674372 117.56296079 -466.5692793 109.75377476 -456 102 C-455.35530762 101.52288574 -454.71061523 101.04577148 -454.04638672 100.55419922 C-430.43377319 83.09403039 -404.50734476 67.84155877 -378.09375 55.02246094 C-375.96078845 53.98085145 -373.83992635 52.91693672 -371.71875 51.8515625 C-348.29342986 40.24647552 -323.07880039 31.49052129 -297.46850586 26.20361328 C-293.93912951 25.73029277 -293.93912951 25.73029277 -291 24 C-287.5 23.5 -287.5 23.5 -284 23 C-283.67 22.67 -283.34 22.34 -283 22 C-280.34536879 21.54540142 -277.67810862 21.29756762 -275 21 C-274.67 19.68 -274.34 18.36 -274 17 C-274.66 17 -275.32 17 -276 17 C-276 16.34 -276 15.68 -276 15 C-266.67344131 13.67132013 -257.40662007 12.6027851 -248 12 C-250.1907039 14.29113732 -252.09457188 15.6975667 -255 17 C-252.66543087 16.67424617 -250.33265031 16.33915756 -248 16 C-246.35451172 15.76410156 -246.35451172 15.76410156 -244.67578125 15.5234375 C-243.50402344 15.35070313 -242.33226562 15.17796875 -241.125 15 C-239.99320313 14.835 -238.86140625 14.67 -237.6953125 14.5 C-235.09131654 14.28007394 -235.09131654 14.28007394 -234 13 C-232.5148826 12.7032001 -231.01855105 12.46197224 -229.51953125 12.24609375 C-228.1437793 12.04790039 -228.1437793 12.04790039 -226.74023438 11.84570312 C-225.77408203 11.71099609 -224.80792969 11.57628906 -223.8125 11.4375 C-222.86568359 11.29892578 -221.91886719 11.16035156 -220.94335938 11.01757812 C-216.25918528 10.35401404 -211.74499698 9.81657995 -207 10 C-206.67 9.01 -206.34 8.02 -206 7 C-188.72343965 5.17843844 -171.56835134 3.6590098 -154.18896484 3.37915039 C-140.84817607 3.5291865 -140.84817607 3.5291865 -128.50561523 -0.51757812 C-125.53821976 -2.2732076 -123.38334627 -2.56188036 -119.9609375 -2.87890625 C-118.15713623 -3.05232544 -118.15713623 -3.05232544 -116.31689453 -3.22924805 C-115.01606934 -3.33922119 -113.71524414 -3.44919434 -112.375 -3.5625 C-110.99981195 -3.68567174 -109.62464967 -3.80913152 -108.24951172 -3.93286133 C-14.33017554 -12.18064921 -14.33017554 -12.18064921 0 0 Z M-266 19 C-262 20 -262 20 -262 20 Z M-337.125 590.125 C-338.26352417 590.64803711 -338.26352417 590.64803711 -339.42504883 591.18164062 C-343.39694333 592.81479083 -343.39694333 592.81479083 -346 596 C-345.7834375 597.0209375 -345.7834375 597.0209375 -345.5625 598.0625 C-344.1644572 605.36339019 -345.19169897 612.72630235 -346.20703125 620.01953125 C-346.3330925 620.95818527 -346.45915375 621.89683929 -346.58903503 622.86393738 C-346.99132025 625.84757203 -347.40193026 628.82999543 -347.8125 631.8125 C-348.07668294 633.77011339 -348.34035853 635.72779532 -348.60351562 637.68554688 C-349.25529493 642.51371543 -349.92476801 647.33919734 -350.60357666 652.16363525 C-350.86778459 654.05401347 -351.12816377 655.94493078 -351.38470459 657.83636475 C-351.75171659 660.54193151 -352.13042131 663.24563314 -352.51171875 665.94921875 C-352.6173262 666.74656937 -352.72293365 667.54391998 -352.83174133 668.36543274 C-353.58668622 673.59486733 -354.88380516 678.14589198 -357 683 C-360.45069123 685.43616216 -364.52073716 685.93119708 -368.6875 686.125 C-378.85720738 681.17757479 -383.89000414 665.48887246 -387.49316406 655.41650391 C-394.28083511 635.42571788 -399.12061555 613.06415495 -396 592 C-396.99 591.67 -397.98 591.34 -399 591 C-403.02823421 598.35721962 -405.92453277 605.96259773 -408.53979492 613.91259766 C-409.18559167 615.86921819 -409.84881493 617.81931687 -410.51367188 619.76953125 C-417.07770105 639.32475875 -418.64992105 659.2937783 -410.73828125 678.7578125 C-402.76856419 693.62267803 -387.30600495 703.85443676 -371.51123047 708.77539062 C-340.19617947 717.66058945 -308.2979004 714.935827 -279.70361328 699.00097656 C-275.79176363 696.70252664 -272.359529 694.03506745 -269 691 C-268.32839844 690.43152344 -267.65679688 689.86304688 -266.96484375 689.27734375 C-252.94395011 676.55318015 -249.36033988 659.06603196 -248 641 C-247.87725337 637.64228585 -247.89333363 634.35999078 -248 631 C-250.59161498 633.59161498 -251.81944894 636.60846084 -253.375 639.875 C-272.17777788 678.34347449 -272.17777788 678.34347449 -283 685 C-286.41458212 685.79267085 -288.92363835 686.31999941 -292.3125 685.3125 C-294.39899535 683.68967029 -295.01507281 682.45257023 -296 680 C-296.76403472 671.81808748 -295.67947352 663.51922283 -294.72265625 655.39453125 C-294.52644936 653.64930428 -294.52644936 653.64930428 -294.32627869 651.86882019 C-293.9112903 648.18263613 -293.48770376 644.49751858 -293.0625 640.8125 C-290.47909229 618.45249166 -290.47909229 618.45249166 -289 596 C-292.29055421 593.85245698 -295.58262941 591.70725711 -298.875 589.5625 C-299.81214844 588.95083984 -300.74929688 588.33917969 -301.71484375 587.70898438 C-302.61074219 587.12568359 -303.50664063 586.54238281 -304.4296875 585.94140625 C-305.25710449 585.40201416 -306.08452148 584.86262207 -306.93701172 584.30688477 C-316.5237664 578.23376077 -328.00349161 585.90259201 -337.125 590.125 Z " fill="#BB5400" transform="translate(1429,1177)"/>
<path d="M0 0 C3.3667588 3.83113932 4.44464594 7.40701146 4.32421875 12.5390625 C0.90061555 38.52544827 -23.54456488 67.51960161 -41 86 C-41.68320313 86.73605469 -42.36640625 87.47210937 -43.0703125 88.23046875 C-51.42449177 96.93916116 -61.17468225 104.04977523 -71 111 C-67.53117097 113.82471378 -63.97987773 116.50870196 -60.37915039 119.16040039 C-49.16003889 127.45048219 -39.58118427 135.9279941 -31 147 C-30.28199219 147.86753906 -29.56398438 148.73507812 -28.82421875 149.62890625 C-13.1818928 169.16097578 1.43434065 199.70208805 0.3828125 225.359375 C-0.25248175 229.74160879 -1.74518485 233.21613833 -4 237 C-4.4125 237.72316406 -4.825 238.44632813 -5.25 239.19140625 C-9.02581346 245.01602759 -13.44852894 247.08645152 -20 249 C-20.64582031 249.18949219 -21.29164063 249.37898438 -21.95703125 249.57421875 C-32.74121931 251.82178376 -42.75052866 248.80675907 -53.02050781 245.85205078 C-71.17878319 240.65929586 -89.30064249 235.79581974 -108 233 C-108.9084668 232.85191895 -109.81693359 232.70383789 -110.75292969 232.55126953 C-142.97619867 227.3917699 -176.92852006 228.28946399 -209 234 C-210.09699219 234.19255371 -211.19398438 234.38510742 -212.32421875 234.58349609 C-225.89262064 237.03243715 -238.99002722 240.44887068 -252 245 C-253.01900391 245.34949707 -253.01900391 245.34949707 -254.05859375 245.70605469 C-296.44360291 260.35077764 -334.97439093 287.9111001 -364 322 C-364.72832031 322.83917969 -365.45664063 323.67835938 -366.20703125 324.54296875 C-373.14277179 332.66641284 -379.37085997 341.23500898 -385.53979492 349.94799805 C-386.48677169 351.27876878 -387.44219779 352.60358273 -388.4074707 353.92114258 C-390.7964967 357.19096439 -392.85026506 360.39342513 -394.5625 364.0625 C-396.3901302 367.96439561 -398.56070725 371.44678075 -401 375 C-400.09765625 374.76925781 -399.1953125 374.53851562 -398.265625 374.30078125 C-320.46070633 354.94522162 -233.10316414 359.01408015 -163.01586914 401.16845703 C-145.54363781 411.99840495 -128.53039473 424.52779351 -113.5546875 438.62109375 C-111.48838017 440.54522397 -109.3918483 442.39596434 -107.25390625 444.23828125 C-95.8978953 454.13890456 -85.13785366 465.01328608 -76 477 C-75.21882813 477.97582031 -74.43765625 478.95164062 -73.6328125 479.95703125 C-44.13821254 516.9729279 -28.53201061 560.70051871 -21 607 C-20.87254395 607.77585449 -20.74508789 608.55170898 -20.61376953 609.35107422 C-18.98531618 619.51620428 -18.36862885 629.72416959 -18 640 C-17.95746094 641.12535156 -17.91492187 642.25070312 -17.87109375 643.41015625 C-16.56936558 714.83164209 -47.43588946 788.50429075 -96.2734375 840.0625 C-98.13889816 842.03779065 -99.89958931 844.06299873 -101.6171875 846.16796875 C-103.57295291 848.49244403 -105.42299296 850.38824418 -107.75 852.3125 C-110.76086508 854.87314226 -113.55740892 857.54105122 -116.3125 860.375 C-121.24057703 865.33654445 -126.46245823 869.73348209 -132 874 C-132.55526367 874.43650879 -133.11052734 874.87301758 -133.68261719 875.32275391 C-177.11572681 909.13188784 -236.23581148 924.79700863 -290 932 C-290.67327332 932.09249023 -291.34654663 932.18498047 -292.04022217 932.28027344 C-306.51550921 934.21664512 -320.91444333 934.31820394 -335.5 934.25 C-336.69687439 934.24656586 -337.89374878 934.24313171 -339.12689209 934.23959351 C-404.69501644 934.01866113 -469.25420859 920.41264631 -523 881 C-523.59232422 880.56606934 -524.18464844 880.13213867 -524.79492188 879.68505859 C-534.8873183 872.2057715 -543.99093895 863.73591006 -553 855 C-553.51643066 854.50016602 -554.03286133 854.00033203 -554.56494141 853.48535156 C-559.23342996 848.94658774 -563.74852877 844.31583719 -567.9765625 839.36328125 C-569.59946927 837.46780134 -571.2412552 835.59572537 -572.8984375 833.73046875 C-580.23183605 825.43778839 -587.04008565 816.88515735 -593.56787109 807.94677734 C-594.93998099 806.08158738 -596.33440761 804.23588405 -597.73828125 802.39453125 C-609.14794655 787.32932211 -619.14275446 771.1970686 -627 754 C-627.49209961 752.9469165 -627.49209961 752.9469165 -627.99414062 751.87255859 C-652.46024112 699.06928722 -653.67099668 635.97787523 -657.6875 578.875 C-657.74834778 578.01009949 -657.80919556 577.14519897 -657.87188721 576.25408936 C-659.21826705 556.93745218 -660.21319605 537.68073512 -660.1875 518.3125 C-660.18656342 517.38457642 -660.18562683 516.45665283 -660.18466187 515.50061035 C-660.02943785 443.76723654 -646.65969601 374.31065547 -619 308 C-618.60780273 307.05334473 -618.21560547 306.10668945 -617.81152344 305.13134766 C-598.71632615 259.17300758 -571.76267411 216.45884156 -539 179 C-538.36964844 178.27039062 -537.73929688 177.54078125 -537.08984375 176.7890625 C-535.4057269 174.84791643 -533.70424709 172.92348829 -532 171 C-531.08093872 169.95368408 -531.08093872 169.95368408 -530.14331055 168.88623047 C-524.33966258 162.34642656 -518.27142255 156.11699018 -512.0793457 149.94897461 C-510.43258596 148.30760204 -508.79127905 146.66091181 -507.15039062 145.01367188 C-501.60565509 139.46517642 -495.9861606 134.07483718 -490 129 C-488.95128344 128.07500035 -487.90433555 127.14799066 -486.859375 126.21875 C-477.00674372 117.56296079 -466.5692793 109.75377476 -456 102 C-455.35530762 101.52288574 -454.71061523 101.04577148 -454.04638672 100.55419922 C-430.43377319 83.09403039 -404.50734476 67.84155877 -378.09375 55.02246094 C-375.96078845 53.98085145 -373.83992635 52.91693672 -371.71875 51.8515625 C-348.29342986 40.24647552 -323.07880039 31.49052129 -297.46850586 26.20361328 C-293.93912951 25.73029277 -293.93912951 25.73029277 -291 24 C-287.5 23.5 -287.5 23.5 -284 23 C-283.67 22.67 -283.34 22.34 -283 22 C-280.34536879 21.54540142 -277.67810862 21.29756762 -275 21 C-274.67 19.68 -274.34 18.36 -274 17 C-274.66 17 -275.32 17 -276 17 C-276 16.34 -276 15.68 -276 15 C-266.67344131 13.67132013 -257.40662007 12.6027851 -248 12 C-250.1907039 14.29113732 -252.09457188 15.6975667 -255 17 C-252.66543087 16.67424617 -250.33265031 16.33915756 -248 16 C-246.35451172 15.76410156 -246.35451172 15.76410156 -244.67578125 15.5234375 C-243.50402344 15.35070313 -242.33226562 15.17796875 -241.125 15 C-239.99320313 14.835 -238.86140625 14.67 -237.6953125 14.5 C-235.09131654 14.28007394 -235.09131654 14.28007394 -234 13 C-232.5148826 12.7032001 -231.01855105 12.46197224 -229.51953125 12.24609375 C-228.1437793 12.04790039 -228.1437793 12.04790039 -226.74023438 11.84570312 C-225.77408203 11.71099609 -224.80792969 11.57628906 -223.8125 11.4375 C-222.86568359 11.29892578 -221.91886719 11.16035156 -220.94335938 11.01757812 C-216.25918528 10.35401404 -211.74499698 9.81657995 -207 10 C-206.67 9.01 -206.34 8.02 -206 7 C-188.72343965 5.17843844 -171.56835134 3.6590098 -154.18896484 3.37915039 C-140.84817607 3.5291865 -140.84817607 3.5291865 -128.50561523 -0.51757812 C-125.53821976 -2.2732076 -123.38334627 -2.56188036 -119.9609375 -2.87890625 C-118.15713623 -3.05232544 -118.15713623 -3.05232544 -116.31689453 -3.22924805 C-115.01606934 -3.33922119 -113.71524414 -3.44919434 -112.375 -3.5625 C-110.99981195 -3.68567174 -109.62464967 -3.80913152 -108.24951172 -3.93286133 C-14.33017554 -12.18064921 -14.33017554 -12.18064921 0 0 Z M-105 15 C-105.6871106 15.08203674 -106.37422119 15.16407349 -107.08215332 15.24859619 C-115.55166713 16.2599286 -124.00823354 17.34970841 -132.45825195 18.51367188 C-136.22990438 19.03156886 -140.00336482 19.53450952 -143.77734375 20.03515625 C-176.48068241 24.18436048 -176.48068241 24.18436048 -208.84375 30.29296875 C-217.45137868 32.2211628 -226.16661393 33.68431012 -234.85546875 35.1953125 C-236.6950415 35.51749756 -236.6950415 35.51749756 -238.57177734 35.84619141 C-241.01010126 36.27236498 -243.44920083 36.69413143 -245.88916016 37.11083984 C-252.25619993 38.22495995 -258.44657647 39.55121071 -264.64770508 41.3828125 C-266.91876519 41.97868588 -269.0399278 42.28975152 -271.375 42.5 C-282.35344172 43.49266077 -293.19936247 47.03518045 -303.8125 49.875 C-304.46720276 50.04985931 -305.12190552 50.22471863 -305.79644775 50.40487671 C-318.36907714 53.7684568 -330.87044788 57.24331289 -343 62 C-344.485 62.495 -344.485 62.495 -346 63 C-346 63.66 -346 64.32 -346 65 C-346.66 65.103125 -347.32 65.20625 -348 65.3125 C-379.05954235 72.43031179 -410.18040753 95.09357965 -436 113 C-436.87011719 113.60207275 -436.87011719 113.60207275 -437.7578125 114.21630859 C-446.7696679 120.48143384 -455.43892471 127.13510876 -464 134 C-464.95777344 134.76183594 -465.91554688 135.52367187 -466.90234375 136.30859375 C-472.81159686 141.06482186 -478.43288742 146.05916506 -483.98046875 151.2265625 C-486.17677082 153.26785753 -488.42750136 155.23129219 -490.703125 157.18359375 C-495.88660199 161.70154548 -500.71276236 166.5669926 -505.5625 171.4375 C-506.46935547 172.34048828 -507.37621094 173.24347656 -508.31054688 174.17382812 C-513.41692798 179.28761515 -518.31711742 184.4972634 -523 190 C-523.98466271 191.12979113 -524.97030748 192.25872724 -525.95703125 193.38671875 C-588.86334647 265.89332522 -628.00068328 357.85143607 -644.25794983 516.40155411 C-644.24986314 518.53612513 -644.24492208 520.67068559 -644.24060059 522.80526733 C-644.19722078 541.42716231 -643.99479 559.96388051 -642.37695312 578.52783203 C-641.88054837 584.28401131 -641.47108198 590.04673882 -641.046875 595.80859375 C-640.70008756 600.45589352 -640.35033161 605.10296623 -640 609.75 C-639.87461853 611.42650131 -639.87461853 611.42650131 -639.7467041 613.13687134 C-639.5036532 616.35735515 -639.25291359 619.57715238 -639 622.796875 C-638.92916199 623.74876205 -638.85832397 624.70064911 -638.78533936 625.68138123 C-638.31097721 631.60450916 -637.48891723 637.39749712 -636.46820068 643.25064087 C-635.88265911 646.68904693 -635.45923019 650.11580827 -635.0703125 653.58203125 C-634.91572027 654.92875182 -634.76075862 656.27543001 -634.60546875 657.62207031 C-634.48824463 658.64862732 -634.48824463 658.64862732 -634.36865234 659.69592285 C-631.45839957 686.43876528 -631.45839957 686.43876528 -624.86328125 712.4375 C-624.13347732 714.60379584 -623.55902575 716.71009478 -623.0625 718.9375 C-620.10306467 731.05347882 -614.83099278 742.06035015 -609 753 C-608.60087402 753.74894531 -608.20174805 754.49789062 -607.79052734 755.26953125 C-594.25364139 780.48893522 -576.94882351 803.48489419 -557.421875 824.39453125 C-555.35300812 826.62023159 -553.35140442 828.88018383 -551.375 831.1875 C-545.13163223 838.36960803 -538.25432589 844.85576668 -531 851 C-530.15179687 851.73734375 -529.30359375 852.4746875 -528.4296875 853.234375 C-514.72451413 864.96032715 -500.03299663 874.7485797 -484 883 C-483.26088379 883.3825293 -482.52176758 883.76505859 -481.76025391 884.15917969 C-460.16455537 895.19938643 -428.98394094 909.94938393 -404 908 C-401.94798638 907.03454066 -401.94798638 907.03454066 -400.1875 905.625 C-399.58292969 905.18414063 -398.97835937 904.74328125 -398.35546875 904.2890625 C-397.90816406 903.86367187 -397.46085937 903.43828125 -397 903 C-397 902.34 -397 901.68 -397 901 C-405.97708617 895.4628729 -415.05991858 891.06727652 -424.8894043 887.23461914 C-429.84681281 885.22993096 -433.06593574 883.70232699 -436 879 C-436.6496875 878.071875 -436.6496875 878.071875 -437.3125 877.125 C-438.40366636 873.75230398 -437.89399763 871.39719101 -437 868 C-434.875 865.0625 -434.875 865.0625 -432 863 C-427.11084164 862.64996535 -423.07611873 863.30981742 -418.39453125 864.6796875 C-417.16283203 865.03160156 -415.93113281 865.38351562 -414.66210938 865.74609375 C-413.37865983 866.12155453 -412.09545719 866.49786029 -410.8125 866.875 C-387.43018866 874.14549231 -387.43018866 874.14549231 -364 870 C-363.34 869.34 -362.68 868.68 -362 868 C-362.17822082 865.02804735 -362.60770844 863.45069725 -364.57421875 861.19140625 C-372.89737643 854.77595939 -382.26524662 851.37279643 -392.02734375 847.765625 C-393.09267334 847.37101074 -394.15800293 846.97639648 -395.25561523 846.56982422 C-397.38328858 845.78625635 -399.51423935 845.01151901 -401.64868164 844.24658203 C-414.5269361 839.54438311 -414.5269361 839.54438311 -417.375 834.625 C-418.15242843 831.35980059 -418.60246101 829.34700559 -418 826 C-415.60241811 822.44823551 -412.87506987 819.50609503 -408.65951538 818.36828613 C-405.95207387 818.14556162 -403.3211649 818.13465681 -400.60546875 818.203125 C-399.61807205 818.19794861 -398.63067535 818.19277222 -397.61335754 818.18743896 C-394.4703754 818.17558855 -391.3302135 818.20995314 -388.1875 818.25 C-385.05607078 818.26884511 -381.92525599 818.27743394 -378.79377747 818.26971436 C-376.85141456 818.2670674 -374.90893675 818.28038329 -372.96684265 818.31280518 C-364.87988945 818.33802884 -356.62480728 816.96860546 -350 812 C-347.88368366 809.18988992 -347.88368366 809.18988992 -347.3125 806.25 C-348.27230129 801.71275753 -350.38233026 800.32232348 -354.11328125 797.72265625 C-365.38918831 790.99373201 -377.26901518 788.75407461 -390.02441406 786.24536133 C-400.60457898 784.14822635 -410.80064627 781.49947282 -421 778 C-421.83901855 777.71431152 -422.67803711 777.42862305 -423.54248047 777.13427734 C-443.20590375 770.32473637 -461.00092437 761.33667855 -477.29101562 748.34863281 C-479.76961004 746.39266774 -482.31712393 744.53803045 -484.875 742.6875 C-485.73480469 742.0584375 -486.59460938 741.429375 -487.48046875 740.78125 C-489.16188899 739.59252499 -490.87399548 738.44607761 -492.61328125 737.34375 C-505.593768 728.99211664 -513.23015889 713.53968222 -520 700 C-520.25 697 -520.25 697 -520 694 C-516.43961959 691.62641306 -515.19103161 691.26040619 -511 692 C-506.27052789 696.25861403 -502.99640732 701.94447434 -499.6875 707.3125 C-495.96972471 713.19000506 -492.17220482 718.62300692 -487.30371094 723.63037109 C-485.84417505 725.13166988 -484.40312436 726.6513544 -482.98852539 728.19506836 C-477.57288062 733.94660652 -472.13026796 737.60604398 -465.0625 741.0625 C-464.04889404 741.57143799 -463.03528809 742.08037598 -461.9909668 742.60473633 C-459.004206 744.09188402 -456.00460695 745.54932207 -453 747 C-451.82920898 747.57862793 -451.82920898 747.57862793 -450.63476562 748.16894531 C-428.34849778 759.12990266 -403.96768039 765.44510415 -379.65234375 770.01171875 C-361.38236374 773.45501803 -343.91968874 778.64006964 -332.76953125 794.78125 C-330.36210993 799.57348775 -330.10036624 804.80867075 -331 810 C-334.52026287 819.7868301 -339.69743139 826.89696016 -348.875 831.8125 C-356.34913885 835.26123275 -363.87270359 836.22597177 -372 837 C-369.10202947 838.99115205 -369.10202947 838.99115205 -366.328125 840.48046875 C-356.66768215 845.83784632 -349.21921095 851.00896615 -346 862 C-344.60886017 869.47199846 -347.89394873 875.37759182 -351.5625 881.6875 C-358.47794071 888.24830273 -366.68766177 890.95528894 -376 892 C-375.649375 892.825 -375.29875 893.65 -374.9375 894.5 C-373.51382737 899.8150445 -373.929191 904.02971144 -376.5625 908.875 C-377.036875 909.57625 -377.51125 910.2775 -378 911 C-378 911.66 -378 912.32 -378 913 C-330.10009461 916.53699223 -281.31626161 917.83114638 -235 903 C-235.06960938 902.01 -235.13921875 901.02 -235.2109375 900 C-235.80506364 888.00199489 -235.80506364 888.00199489 -232.4375 883.5 C-231.32899054 882.29781369 -230.18203988 881.12996764 -229 880 C-228.43539063 879.39929687 -227.87078125 878.79859375 -227.2890625 878.1796875 C-223.84237351 874.57703973 -220.13456663 871.32819323 -216.28515625 868.1640625 C-215.86105469 867.77992188 -215.43695312 867.39578125 -215 867 C-215 866.67 -215 866.34 -215 866 C-216.45019531 865.96132812 -216.45019531 865.96132812 -217.9296875 865.921875 C-235.74884605 865.14559483 -235.74884605 865.14559483 -241.73046875 859.3125 C-244.56745297 854.14482413 -243.70142805 847.68215663 -243 842 C-240.17384245 834.33058421 -233.41157096 829.65028961 -227 825 C-230.08176228 823.6706965 -230.08176228 823.6706965 -233.625 824.9375 C-243.28815943 827.23072114 -254.96019064 827.63688457 -264.04296875 823.2734375 C-267.59161557 820.96433797 -270.27411895 818.27792935 -271.59375 814.13671875 C-272.80961019 807.74176177 -273.10564789 801.94082841 -269.5 796.3125 C-268.37297452 794.84371447 -267.205274 793.40528714 -266 792 C-265.443125 791.33355469 -264.88625 790.66710938 -264.3125 789.98046875 C-245.03060527 768.9116743 -211.94907917 761.12124424 -185.25 754.0625 C-184.55355377 753.87722748 -183.85710754 753.69195496 -183.13955688 753.50106812 C-173.16904469 750.86725613 -163.16963787 748.71028756 -153 747 C-151.19921997 746.69098755 -151.19921997 746.69098755 -149.36206055 746.37573242 C-138.90909765 744.77013587 -128.6133453 744.76878007 -118.0625 744.875 C-116.30013536 744.88506231 -114.53776509 744.89418234 -112.77539062 744.90234375 C-108.51678412 744.9240712 -104.25845699 744.95841663 -100 745 C-100 745.66 -100 746.32 -100 747 C-116.34057841 754.08463456 -132.27637791 758.09327385 -149.8125 760.8125 C-168.38908375 763.70214808 -186.64326371 767.41287565 -204.9375 771.75 C-206.13807037 772.03058258 -207.33864075 772.31116516 -208.57559204 772.60025024 C-212.00013746 773.40329521 -215.42056214 774.2217347 -218.83984375 775.046875 C-219.85241241 775.28518539 -220.86498108 775.52349579 -221.90823364 775.76902771 C-236.7476102 779.42899641 -246.49796186 788.03388792 -255.79296875 799.9296875 C-257.16312046 802.2797859 -257.61277732 804.32209858 -258 807 C-251.0228236 811.68828897 -244.20372407 810.66410604 -236.20458984 809.14453125 C-230.67916012 808.0170532 -225.18307398 806.76375113 -219.6875 805.5 C-216.84548374 804.852562 -214.00275966 804.20898819 -211.15791321 803.57409668 C-209.39981024 803.18119087 -207.64331825 802.78097855 -205.88883972 802.37219238 C-194.08262994 799.71838158 -194.08262994 799.71838158 -189.5625 802.5 C-187.79048464 805.33522458 -187.52160992 807.57877624 -187.46875 810.90234375 C-189.12581866 817.44532811 -195.89819409 821.07275322 -201.0625 824.75 C-210.18130921 831.35521369 -219.09344267 837.93978167 -227 846 C-226.67 846.99 -226.34 847.98 -226 849 C-217.15974556 849.38374095 -209.05612281 848.74834473 -200.39501953 847.06713867 C-195.50348624 846.14026966 -190.98487168 845.73392297 -186 846 C-183.21238158 848.17782689 -183.04073801 849.78816234 -182.375 853.25 C-183.71287957 861.27727742 -192.15417954 867.22533734 -197.9375 872.5625 C-198.60201172 873.18318359 -199.26652344 873.80386719 -199.95117188 874.44335938 C-205.36421198 879.47837922 -210.87137288 884.40552873 -216.5625 889.125 C-218.31566486 890.97308129 -218.31566486 890.97308129 -217.75 893.75 C-217.5025 894.4925 -217.255 895.235 -217 896 C-210.06755807 895.50623633 -204.20937473 892.85359658 -197.875 890.125 C-196.15978149 889.39168457 -196.15978149 889.39168457 -194.40991211 888.64355469 C-155.35785647 871.68727634 -120.51803495 845.43788714 -94 812 C-93.27296875 811.14019531 -92.5459375 810.28039063 -91.796875 809.39453125 C-74.84503188 789.33089875 -61.45258689 765.03912191 -53.10546875 740.1484375 C-52 737 -52 737 -50.546875 733.734375 C-48.59252154 729.24769814 -47.33547808 724.59233487 -46.0625 719.875 C-45.80235107 718.91432617 -45.54220215 717.95365234 -45.27416992 716.96386719 C-42.92073843 708.06229448 -41.0578154 699.09342613 -39.52416992 690.01611328 C-39.12292316 687.70730913 -38.68688562 685.40452673 -38.2355957 683.10498047 C-35.97703656 671.23787503 -35.48110045 659.6863986 -35.5625 647.625 C-35.56554138 646.66500092 -35.56858276 645.70500183 -35.57171631 644.71591187 C-35.64727785 628.51904418 -36.72764993 612.90416548 -40 597 C-40.21962402 595.91750977 -40.43924805 594.83501953 -40.66552734 593.71972656 C-52.08306594 539.01573769 -83.91283145 490.26712945 -128 456 C-129.85710546 454.42011463 -131.71109329 452.8365597 -133.5625 451.25 C-157.44117285 431.35110596 -183.36924085 415.75879443 -212.4765625 404.94433594 C-214.52505519 404.1777367 -216.56143344 403.37882105 -218.59375 402.5703125 C-249.39901249 390.66827927 -283.11754786 386.75119249 -315.9375 386.8125 C-317.00357483 386.81440338 -317.00357483 386.81440338 -318.09118652 386.81634521 C-340.63404671 386.89226189 -361.76051619 389.3739565 -383.79199219 394.30859375 C-387.73995768 395.15947946 -391.70270713 395.88360812 -395.68212891 396.5703125 C-397.18645193 396.84918426 -398.68358208 397.17162699 -400.16748047 397.54418945 C-402.31987812 398.07956467 -404.2836121 398.16852408 -406.5 398.1875 C-407.2528125 398.20167969 -408.005625 398.21585938 -408.78125 398.23046875 C-411.30881364 397.96792253 -412.867748 397.37370682 -415 396 C-417.07568106 391.65095398 -417.25162562 388.6213869 -416 384 C-415 382 -414 380 -413 378 C-412.52267785 376.45780302 -412.071857 374.90727678 -411.640625 373.3515625 C-410.18065868 368.39685242 -408.3404386 363.78639983 -406.125 359.125 C-405.74279297 358.32054443 -405.36058594 357.51608887 -404.96679688 356.68725586 C-395.57658661 337.5537782 -382.35418364 320.54279685 -368.37646484 304.57617188 C-367.15533201 303.17786865 -365.94592939 301.7693407 -364.73828125 300.359375 C-361.04816525 296.09652979 -357.21842436 292.29994195 -352.91015625 288.6640625 C-351.1189922 287.10366192 -349.50587069 285.47488078 -347.875 283.75 C-333.70468052 269.38688706 -315.36214739 258.0427074 -298 248 C-297.20770996 247.53948242 -296.41541992 247.07896484 -295.59912109 246.60449219 C-281.68315323 238.62775544 -267.22878612 233.07323199 -252.03125 228.01464844 C-249.59155165 227.19800972 -247.16887545 226.35206912 -244.75 225.4765625 C-224.93834793 218.65544545 -202.75541513 215.50250743 -182 213 C-181.24654297 212.9064624 -180.49308594 212.8129248 -179.71679688 212.71655273 C-140.28206912 208.46130967 -98.7297373 212.60180959 -60.65234375 223.3203125 C-59.92271423 223.52447281 -59.19308472 223.72863312 -58.44134521 223.9389801 C-54.83683805 224.9501001 -51.24049189 225.98078646 -47.65380859 227.0534668 C-39.59844645 229.40646256 -31.43436192 231.43857294 -23 230 C-20.40720894 228.08449529 -20.06147262 227.33141762 -19.4609375 224.09375 C-18.80617328 196.71270068 -37.45042586 171.3469882 -55.4375 152.4375 C-56.283125 151.633125 -57.12875 150.82875 -58 150 C-58.65871094 149.35804688 -59.31742188 148.71609375 -59.99609375 148.0546875 C-67.81440165 140.68570764 -76.61536226 134.81132807 -85.8203125 129.31640625 C-91.13248213 126.08176831 -94.24476589 123.09169486 -96 117 C-96.75364463 113.51189257 -96.91018941 110.45763728 -94.93408203 107.29296875 C-90.90076035 102.57615024 -86.48596635 99.3485543 -81.25 96.0625 C-79.63592085 95.01625344 -78.0239228 93.96678904 -76.4140625 92.9140625 C-75.64739258 92.41293945 -74.88072266 91.91181641 -74.09082031 91.39550781 C-69.81653569 88.5426574 -65.87595343 85.36646871 -62 82 C-61.04996094 81.18273438 -60.09992187 80.36546875 -59.12109375 79.5234375 C-39.47973797 62.28907964 -23.71598062 38.75082917 -13 15 C-13 14.01 -13 13.02 -13 12 C-59.0922238 11.48320717 -59.0922238 11.48320717 -105 15 Z M-266 19 C-262 20 -262 20 -262 20 Z " fill="#010000" transform="translate(1429,1177)"/>
<path d="M0 0 C5.59368547 4.50173214 7.71877811 8.9251344 8.91015625 15.87109375 C9.33816489 20.9913453 8.50857503 24.14344426 5.49609375 28.33203125 C1.95674665 32.42146093 -1.52158622 34.44662141 -6.50390625 36.45703125 C11.66445647 50.68593184 11.66445647 50.68593184 33.49609375 54.45703125 C44.16498732 51.46702286 50.72514795 45.68609714 57.34765625 37.07421875 C60.88793296 32.76151804 64.82685274 28.54603593 69.49609375 25.45703125 C71.79296875 25.71875 71.79296875 25.71875 73.49609375 26.45703125 C73.98678046 45.86641649 73.98678046 45.86641649 67.49609375 54.45703125 C66.92890625 55.24207031 66.36171875 56.02710938 65.77734375 56.8359375 C63.14074303 59.86531949 60.19063572 62.00635275 56.87109375 64.20703125 C56.28585937 64.60535156 55.700625 65.00367188 55.09765625 65.4140625 C52.94152681 66.87291155 50.82712786 68.29151419 48.49609375 69.45703125 C48.78613281 70.400625 48.78613281 70.400625 49.08203125 71.36328125 C49.34242188 72.21921875 49.6028125 73.07515625 49.87109375 73.95703125 C50.12632812 74.79234375 50.3815625 75.62765625 50.64453125 76.48828125 C53.11820342 85.11209247 53.8380158 92.80646246 53.81176758 101.76293945 C53.80863492 103.99025743 53.83202085 106.21620754 53.85742188 108.44335938 C53.96283278 131.90509297 46.72065594 151.84752044 30.37109375 169.14453125 C6.76138858 191.70345677 -24.06162859 198.17947715 -55.8046875 197.54150391 C-74.65181986 196.95167867 -93.23336896 190.77378979 -109.50390625 181.45703125 C-110.50808594 180.89113281 -111.51226563 180.32523438 -112.546875 179.7421875 C-129.72609291 169.44434884 -141.56889029 154.11345233 -146.77734375 134.76171875 C-151.17777277 112.65250725 -146.16534103 88.70968724 -134.140625 69.8046875 C-129.87121421 63.68078324 -125.61325306 57.85094571 -119.50390625 53.45703125 C-118.84390625 53.45703125 -118.18390625 53.45703125 -117.50390625 53.45703125 C-117.90222656 52.96074219 -118.30054688 52.46445313 -118.7109375 51.953125 C-123.89834061 45.30163731 -127.040562 40.22240845 -126.50390625 31.45703125 C-125.01890625 30.96203125 -125.01890625 30.96203125 -123.50390625 30.45703125 C-121.15625 31.64453125 -121.15625 31.64453125 -118.44140625 33.45703125 C-117.46429687 34.1015625 -116.4871875 34.74609375 -115.48046875 35.41015625 C-111.96282109 37.82911606 -108.50194078 40.31839942 -105.0859375 42.87890625 C-95.85542966 48.52054796 -84.90834539 49.3023409 -74.42236328 47 C-69.59330641 45.59743866 -65.05463473 43.57594827 -60.50390625 41.45703125 C-59.24489502 40.87912842 -59.24489502 40.87912842 -57.96044922 40.28955078 C-52.44174724 37.7459391 -46.95956994 35.13302357 -41.50390625 32.45703125 C-42.28121094 31.68617187 -43.05851562 30.9153125 -43.859375 30.12109375 C-50.50390625 23.42748915 -50.50390625 23.42748915 -50.50390625 19.45703125 C-51.16390625 19.45703125 -51.82390625 19.45703125 -52.50390625 19.45703125 C-52.85836888 14.474862 -53.04567894 10.60308886 -50.87890625 6.01953125 C-46.83098954 1.65204216 -42.05290456 0.23271071 -36.50390625 -1.54296875 C-34.47512139 -2.30179719 -32.45326943 -3.07664928 -30.43359375 -3.859375 C-20.25666133 -7.46456361 -9.14247965 -5.63382132 0 0 Z M-47.62890625 57.58203125 C-48.76743042 58.10506836 -48.76743042 58.10506836 -49.92895508 58.63867188 C-53.90084958 60.27182208 -53.90084958 60.27182208 -56.50390625 63.45703125 C-56.28734375 64.47796875 -56.28734375 64.47796875 -56.06640625 65.51953125 C-54.66836345 72.82042144 -55.69560522 80.1833336 -56.7109375 87.4765625 C-56.83699875 88.41521652 -56.96306 89.35387054 -57.09294128 90.32096863 C-57.4952265 93.30460328 -57.90583651 96.28702668 -58.31640625 99.26953125 C-58.58058919 101.22714464 -58.84426478 103.18482657 -59.10742188 105.14257812 C-59.75920118 109.97074668 -60.42867426 114.79622859 -61.10748291 119.6206665 C-61.37169084 121.51104472 -61.63207002 123.40196203 -61.88861084 125.293396 C-62.25562284 127.99896276 -62.63432756 130.70266439 -63.015625 133.40625 C-63.12123245 134.20360062 -63.2268399 135.00095123 -63.33564758 135.82246399 C-64.09059247 141.05189858 -65.38771141 145.60292323 -67.50390625 150.45703125 C-70.95459748 152.89319341 -75.02464341 153.38822833 -79.19140625 153.58203125 C-89.36111363 148.63460604 -94.39391039 132.94590371 -97.99707031 122.87353516 C-104.78474136 102.88274913 -109.6245218 80.5211862 -106.50390625 59.45703125 C-107.49390625 59.12703125 -108.48390625 58.79703125 -109.50390625 58.45703125 C-113.53214046 65.81425087 -116.42843902 73.41962898 -119.04370117 81.36962891 C-119.68949792 83.32624944 -120.35272118 85.27634812 -121.01757812 87.2265625 C-127.5816073 106.78179 -129.1538273 126.75080955 -121.2421875 146.21484375 C-113.27247044 161.07970928 -97.8099112 171.31146801 -82.01513672 176.23242188 C-50.70008572 185.1176207 -18.80180665 182.39285825 9.79248047 166.45800781 C13.70433012 164.15955789 17.13656475 161.4920987 20.49609375 158.45703125 C21.16769531 157.88855469 21.83929687 157.32007813 22.53125 156.734375 C36.55214364 144.0102114 40.13575387 126.52306321 41.49609375 108.45703125 C41.61884038 105.0993171 41.60276012 101.81702203 41.49609375 98.45703125 C38.90447877 101.04864623 37.67664481 104.06549209 36.12109375 107.33203125 C17.31831587 145.80050574 17.31831587 145.80050574 6.49609375 152.45703125 C3.08151163 153.2497021 0.5724554 153.77703066 -2.81640625 152.76953125 C-4.9029016 151.14670154 -5.51897906 149.90960148 -6.50390625 147.45703125 C-7.26794097 139.27511873 -6.18337977 130.97625408 -5.2265625 122.8515625 C-5.03035561 121.10633553 -5.03035561 121.10633553 -4.83018494 119.32585144 C-4.41519655 115.63966738 -3.99161001 111.95454983 -3.56640625 108.26953125 C-0.98299854 85.90952291 -0.98299854 85.90952291 0.49609375 63.45703125 C-2.79446046 61.30948823 -6.08653566 59.16428836 -9.37890625 57.01953125 C-10.31605469 56.40787109 -11.25320313 55.79621094 -12.21875 55.16601562 C-13.11464844 54.58271484 -14.01054688 53.99941406 -14.93359375 53.3984375 C-15.76101074 52.85904541 -16.58842773 52.31965332 -17.44091797 51.76391602 C-27.02767265 45.69079202 -38.50739786 53.35962326 -47.62890625 57.58203125 Z " fill="#010100" transform="translate(1139.50390625,1709.54296875)"/>
<path d="M0 0 C4.49957004 2.51789411 8.20643569 5.63826922 11 10 C11 10.99 11 11.98 11 13 C11.66 13 12.32 13 13 13 C13.45872419 19.42213865 12.56793504 23.60176062 9 29 C4.88453149 33.74861752 1.4861209 36.75940765 -4.875 37.375 C-10.46652153 37.13280604 -14.58903727 35.22283436 -18.8125 31.5625 C-22.72433189 26.98006835 -23.45724234 23.5973558 -23.30859375 17.66015625 C-22.47181834 10.44694034 -19.26990609 5.57275321 -13.68359375 1.09375 C-9.28035699 -1.76682144 -4.87570721 -1.29178672 0 0 Z " fill="#030100" transform="translate(1037,1665)"/>
<path d="M0 0 C12.87 0.495 12.87 0.495 26 1 C25.32898355 13.56058919 24.37250932 26.076444 23.27050781 38.60620117 C22.99706862 41.72089078 22.72879426 44.83599773 22.4609375 47.95117188 C22.28676322 49.95054742 22.112295 51.94989738 21.9375 53.94921875 C21.85830322 54.87111496 21.77910645 55.79301117 21.69750977 56.74284363 C21.30184467 61.20365104 20.82032361 65.59212174 20 70 C5.62372892 55.62372892 4.04828461 19.01467012 0 0 Z " fill="#FAFAFA" transform="translate(1042,1774)"/>
<path d="M0 0 C8.25689223 5.51378446 8.25689223 5.51378446 10 9 C10.8257958 15.52514061 9.80193751 20.61862257 6 26 C3.31880255 29.33549497 0.84921024 31.58068479 -3.39453125 32.54296875 C-9.77349869 32.90552143 -14.13891797 31.03321216 -19 27 C-19.72316406 26.41476562 -20.44632813 25.82953125 -21.19140625 25.2265625 C-24.22431003 21.49275007 -23.59844418 17.77007889 -23.453125 13.140625 C-22.78404379 8.50320003 -21.55752714 7.00413403 -18 4 C-12.66949847 0.07226203 -6.43012042 -2.18624094 0 0 Z " fill="#030100" transform="translate(1200,1675)"/>
<path d="M0 0 C1.60433809 0.47859241 3.20846416 0.95789558 4.8125 1.4375 C6.15248047 1.83775391 6.15248047 1.83775391 7.51953125 2.24609375 C9.35473055 2.80387873 11.18033726 3.39344575 13 4 C15.86515081 4.26466936 18.72975948 4.44396154 21.6015625 4.62109375 C22.78878906 4.80865234 22.78878906 4.80865234 24 5 C24.33 5.66 24.66 6.32 25 7 C23.99609375 9.29296875 23.99609375 9.29296875 22.4375 12.1875 C20.088489 16.71888734 18.06873678 21.23167865 16.25 26 C13.75807657 32.46388273 10.83154447 38.6721492 7.75 44.875 C7.31333008 45.761875 6.87666016 46.64875 6.42675781 47.5625 C6.01264648 48.38492187 5.59853516 49.20734375 5.171875 50.0546875 C4.8015918 50.79187012 4.43130859 51.52905273 4.04980469 52.28857422 C3 54 3 54 1 55 C1.0721875 54.38898438 1.144375 53.77796875 1.21875 53.1484375 C3.0213123 35.37317037 2.02763251 17.70557671 0 0 Z " fill="#F7F7F7" transform="translate(1148,1777)"/>
<path d="M0 0 C0.66 0.33 1.32 0.66 2 1 C-11.86 14.86 -25.72 28.72 -40 43 C-40.66 42.67 -41.32 42.34 -42 42 C-34.36405853 33.67657827 -26.60261115 25.49755934 -18.625 17.5 C-17.52115967 16.38939209 -17.52115967 16.38939209 -16.39501953 15.25634766 C-12.27532313 11.14778306 -8.0601419 7.21431906 -3.64208984 3.42773438 C-2.38399288 2.33386714 -1.17884551 1.17884551 0 0 Z " fill="#A44A00" transform="translate(950,1323)"/>
<path d="M0 0 C0 0.33 0 0.66 0 1 C-9.65738986 3.244323 -19.35929219 4.92768687 -29.14331055 6.50756836 C-35.9961656 7.62667834 -42.73804653 8.94636552 -49.48828125 10.58203125 C-52 11 -52 11 -55 10 C-52.24072656 7.24072656 -49.78845948 7.48216757 -46 7 C-45.67 6.67 -45.34 6.34 -45 6 C-42.9427083 5.68076508 -40.88386479 5.48838648 -38.8125 5.28125 C-36.9832467 5.18001957 -36.9832467 5.18001957 -36 4 C-32.89957227 3.67553663 -29.7979275 3.48665559 -26.6875 3.28125 C-24.08403248 3.29392201 -24.08403248 3.29392201 -23 2 C-15.34218558 0.41761603 -7.80845601 -0.31727361 0 0 Z " fill="#A64B00" transform="translate(1191,1193)"/>
<path d="M0 0 C0.66 0 1.32 0 2 0 C2 0.66 2 1.32 2 2 C-4.85882288 4.95870791 -11.61394333 6.04296522 -19 7 C-18.34 6.01 -17.68 5.02 -17 4 C-14.67843403 3.59270772 -12.3431213 3.25561323 -10 3 C-9.67 2.67 -9.34 2.34 -9 2 C-6.9427083 1.68076508 -4.88386479 1.48838648 -2.8125 1.28125 C-0.9832467 1.18001957 -0.9832467 1.18001957 0 0 Z " fill="#B25100" transform="translate(1155,1197)"/>
<path d="M0 0 C0.99 0.33 1.98 0.66 3 1 C-2.61 4.63 -8.22 8.26 -14 12 C-14 11.01 -14 10.02 -14 9 C-11.75604299 7.25700566 -9.58578127 5.74803973 -7.1875 4.25 C-6.54490234 3.82589844 -5.90230469 3.40179687 -5.24023438 2.96484375 C-3.54698224 1.88747918 -1.77606946 0.93455576 0 0 Z " fill="#7B3800" transform="translate(1003,1259)"/>
<path d="M0 0 C-4.95 2.64 -9.9 5.28 -15 8 C-12.96438455 3.9287691 -12.37723443 3.25060564 -8.625 1.1875 C-7.85414062 0.74792969 -7.08328125 0.30835938 -6.2890625 -0.14453125 C-4 -1 -4 -1 0 0 Z " fill="#8D4000" transform="translate(1037,1242)"/>
<path d="M0 0 C-1.72440365 0.98753064 -3.45475026 1.96468806 -5.1875 2.9375 C-6.15042969 3.48277344 -7.11335938 4.02804687 -8.10546875 4.58984375 C-10.80662842 5.90579333 -13.04356101 6.57301887 -16 7 C-16 6.34 -16 5.68 -16 5 C-14.09118566 3.96455826 -12.17260796 2.94709915 -10.25 1.9375 C-8.64898438 1.08478516 -8.64898438 1.08478516 -7.015625 0.21484375 C-3.97406463 -1.01044806 -2.95106435 -1.25348607 0 0 Z " fill="#602B00" transform="translate(1067,1227)"/>
<path d="M0 0 C0.55171875 0.23589844 1.1034375 0.47179688 1.671875 0.71484375 C-0.28057685 1.9119893 -2.24027497 3.09732449 -4.203125 4.27734375 C-5.29367187 4.93863281 -6.38421875 5.59992188 -7.5078125 6.28125 C-8.90386719 6.99087891 -8.90386719 6.99087891 -10.328125 7.71484375 C-10.988125 7.38484375 -11.648125 7.05484375 -12.328125 6.71484375 C-10.75638425 5.51204214 -9.17024942 4.328031 -7.578125 3.15234375 C-6.69640625 2.49105469 -5.8146875 1.82976562 -4.90625 1.1484375 C-2.328125 -0.28515625 -2.328125 -0.28515625 0 0 Z " fill="#783600" transform="translate(1019.328125,1250.28515625)"/>
<path d="M0 0 C0.90105469 0.00902344 1.80210938 0.01804687 2.73046875 0.02734375 C3.41753906 0.03894531 4.10460938 0.05054688 4.8125 0.0625 C4.8125 0.3925 4.8125 0.7225 4.8125 1.0625 C-3.1075 2.5475 -3.1075 2.5475 -11.1875 4.0625 C-7.36211648 0.23711648 -5.18269223 -0.06730769 0 0 Z " fill="#863D00" transform="translate(1186.1875,1192.9375)"/>
<path d="M0 0 C1.77503906 0.03480469 1.77503906 0.03480469 3.5859375 0.0703125 C5.36871094 0.09738281 5.36871094 0.09738281 7.1875 0.125 C8.10273437 0.14820313 9.01796875 0.17140625 9.9609375 0.1953125 C9.9609375 0.5253125 9.9609375 0.8553125 9.9609375 1.1953125 C8.21308921 1.55994982 6.46253248 1.9116203 4.7109375 2.2578125 C3.24914063 2.55365234 3.24914063 2.55365234 1.7578125 2.85546875 C-0.9071815 3.17928785 -2.52777973 3.05034449 -5.0390625 2.1953125 C-3.0390625 0.1953125 -3.0390625 0.1953125 0 0 Z " fill="#A14900" transform="translate(1198.0390625,1189.8046875)"/>
<path d="M0 0 C-3.93828536 2.31663844 -7.69235185 4.43358249 -12 6 C-10.91663521 2.50915788 -9.8952877 1.94478806 -6.5625 0.1875 C-3 -1 -3 -1 0 0 Z " fill="#7F3900" transform="translate(1050,1235)"/>
<path d="M0 0 C2.6015625 -0.29296875 2.6015625 -0.29296875 5.625 -0.1875 C7.12933594 -0.14689453 7.12933594 -0.14689453 8.6640625 -0.10546875 C9.43492188 -0.07066406 10.20578125 -0.03585937 11 0 C11 0.33 11 0.66 11 1 C6.71 1.66 2.42 2.32 -2 3 C-1.34 2.01 -0.68 1.02 0 0 Z " fill="#A44B00" transform="translate(1138,1201)"/>
<path d="M0 0 C0.66 0 1.32 0 2 0 C2 0.66 2 1.32 2 2 C1.34 2 0.68 2 0 2 C0 1.34 0 0.68 0 0 Z " fill="#CA4A00" transform="translate(1375,1280)"/>
<path d="" fill="#BF8000" transform="translate(0,0)"/>
</svg>
