<?xml version="1.0" standalone="no"?>
<!DOCTYPE svg PUBLIC "-//W3C//DTD SVG 20010904//EN"
 "http://www.w3.org/TR/2001/REC-SVG-20010904/DTD/svg10.dtd">
<svg version="1.0" xmlns="http://www.w3.org/2000/svg"
 width="3840.000000pt" height="2160.000000pt" viewBox="0 0 3840.000000 2160.000000"
 preserveAspectRatio="xMidYMid meet">

<g transform="translate(0.000000,2160.000000) scale(0.100000,-0.100000)"
fill="#000000" stroke="none">
<path d="M17560 10223 c-106 -22 -259 -67 -315 -92 -205 -93 -455 -323 -455
-418 0 -22 -3 -23 -117 -24 -65 -1 -341 0 -613 1 l-495 2 -86 83 c-153 147
-331 267 -450 303 -91 28 -211 37 -285 22 -122 -25 -195 -85 -269 -221 -34
-63 -40 -83 -39 -134 0 -136 115 -262 254 -281 l47 -6 -61 -62 c-112 -112
-190 -252 -237 -426 -27 -97 -37 -361 -20 -511 48 -422 195 -783 382 -939 156
-129 278 -152 909 -170 659 -18 1526 -13 2388 15 140 5 182 3 182 -6 0 -7 -44
-91 -97 -188 -104 -186 -313 -504 -776 -1177 -258 -375 -596 -905 -823 -1289
-130 -222 -400 -764 -481 -970 -159 -401 -245 -726 -322 -1216 -90 -573 -114
-1094 -62 -1339 32 -148 76 -227 190 -340 81 -81 112 -104 196 -147 209 -107
412 -149 805 -168 228 -11 510 24 688 86 197 69 334 171 396 296 45 88 55 154
66 402 27 624 75 845 336 1541 185 494 275 681 612 1260 289 498 643 1063 678
1083 8 4 14 15 14 24 0 18 15 42 325 518 273 419 449 712 576 960 348 679 518
1277 521 1830 2 277 -30 413 -150 650 -117 232 -228 338 -402 389 -91 26 -354
48 -740 61 -176 6 -838 30 -1260 45 -140 5 -374 10 -519 10 l-265 0 30 33 c16
17 45 55 64 82 33 47 35 55 34 130 -1 175 -107 289 -278 300 -28 2 -62 1 -76
-2z m-10 -700 c0 -4 -11 -25 -24 -47 -125 -214 -25 -522 238 -732 241 -193
544 -347 874 -445 267 -79 388 -120 480 -164 60 -29 91 -49 86 -56 -9 -15 14
-29 47 -29 30 0 135 -76 190 -137 96 -106 167 -277 178 -428 22 -322 -62 -624
-402 -1430 -211 -501 -350 -799 -615 -1325 -180 -356 -401 -838 -453 -985 -9
-27 -19 -82 -21 -122 l-4 -72 48 52 c56 61 83 101 210 302 257 406 515 889
727 1358 l30 68 30 -33 c44 -50 119 -87 204 -100 l75 -12 -36 -56 c-170 -264
-632 -1041 -799 -1345 -153 -279 -262 -521 -398 -885 -235 -628 -307 -953
-335 -1505 -14 -280 -24 -354 -54 -414 -94 -185 -454 -305 -856 -287 -270 12
-452 40 -632 97 -143 45 -143 45 -63 107 37 29 72 52 76 52 15 0 10 44 -6 67
-9 13 -33 28 -54 34 -32 10 -43 8 -78 -9 -43 -22 -97 -78 -108 -111 -3 -12
-10 -21 -14 -21 -5 0 -32 23 -61 52 l-53 52 58 53 c53 48 62 53 106 53 31 0
55 6 70 19 20 16 22 22 13 52 -21 74 -149 74 -235 1 -24 -20 -46 -40 -47 -45
-7 -15 -22 5 -22 29 0 23 41 107 82 167 17 23 26 27 67 27 37 0 69 -11 147
-50 139 -70 196 -90 260 -90 54 0 57 1 113 57 71 72 77 94 91 325 21 345 56
685 96 922 27 166 65 275 209 616 46 107 109 258 140 335 73 179 87 206 147
287 92 125 221 225 316 244 59 12 111 -111 137 -319 30 -236 33 -251 62 -264
40 -19 56 -16 85 14 46 49 60 90 65 192 5 79 2 111 -17 181 -12 47 -29 117
-37 155 -42 201 -127 272 -314 263 -78 -4 -97 -9 -166 -43 -63 -32 -99 -60
-188 -150 -105 -104 -239 -282 -265 -350 -6 -15 -23 -46 -39 -69 -69 -99 -201
-387 -286 -620 -145 -402 -205 -737 -190 -1056 9 -170 6 -462 -4 -473 -4 -4
-28 7 -55 23 -140 89 -242 122 -383 124 -51 0 -93 3 -93 6 0 30 35 370 50 490
39 301 123 748 186 978 60 222 144 469 224 658 59 138 239 511 322 668 155
290 527 881 811 1288 289 416 626 919 721 1078 97 163 256 470 280 544 14 39
14 55 5 83 -16 51 -65 101 -104 109 -18 3 -108 -2 -200 -11 -100 -10 -193 -15
-229 -11 -33 4 -450 11 -926 15 -842 8 -1478 24 -1650 40 -66 7 -74 9 -35 10
56 2 109 23 173 70 68 50 55 101 -26 101 -69 0 -153 -29 -189 -65 -37 -37 -53
-83 -32 -96 24 -15 -28 -10 -123 11 -180 39 -261 102 -339 261 -141 285 -229
715 -199 972 47 414 318 643 825 696 91 10 2105 13 2105 4z m1006 -9 l51 -5
-37 -97 c-21 -53 -75 -194 -120 -312 -46 -118 -103 -255 -127 -303 l-44 -88
-57 32 c-110 62 -318 204 -362 249 -76 76 -111 134 -120 203 -9 57 -6 197 6
292 l4 40 378 -3 c207 -1 400 -5 428 -8z m664 -24 c388 -13 759 -28 878 -36
l92 -6 0 -33 c0 -51 -74 -247 -142 -375 -109 -206 -239 -433 -289 -505 -57
-83 -111 -136 -238 -237 l-93 -75 -87 54 c-156 99 -245 136 -621 258 -113 36
-229 77 -258 90 l-52 24 87 88 c101 102 141 164 183 284 51 148 61 336 24 468
l-7 23 109 -6 c60 -3 246 -11 414 -16z m1283 -75 c143 -37 214 -102 300 -277
103 -209 128 -312 127 -539 0 -326 -61 -682 -176 -1030 l-45 -137 -108 -26
c-171 -41 -233 -46 -481 -35 -310 13 -287 7 -294 77 -21 207 -91 414 -186 553
l-40 59 84 40 c193 92 392 276 513 476 137 225 244 629 209 792 l-13 62 27 0
c14 0 52 -7 83 -15z m-500 -2260 c111 -40 240 -65 331 -65 72 0 182 22 226 45
32 16 32 16 25 -7 -4 -13 -58 -126 -120 -253 -143 -290 -387 -701 -412 -697
-10 2 -97 34 -193 72 -96 38 -203 78 -238 91 -50 17 -62 25 -57 38 4 9 38 104
77 211 87 244 146 454 173 622 l6 37 42 -29 c23 -16 86 -45 140 -65z m-329
-1179 c64 -38 131 -51 191 -38 28 6 51 9 53 8 1 -2 -64 -109 -146 -237 -82
-129 -168 -266 -191 -306 l-42 -71 -92 43 c-51 24 -125 53 -166 64 -41 11 -75
22 -77 24 -2 2 32 86 75 188 43 101 107 257 142 346 l64 161 72 -78 c40 -43
93 -90 117 -104z"/>
<path d="M17475 8818 c-40 -14 -382 -249 -517 -356 -107 -83 -155 -134 -179
-185 -11 -24 -10 -30 7 -50 11 -12 31 -39 45 -60 30 -47 71 -72 162 -98 93
-26 291 -37 379 -20 167 33 291 139 334 286 23 81 16 255 -15 345 -25 73 -49
103 -103 131 -41 21 -68 23 -113 7z m83 -123 c12 -15 26 -57 32 -97 29 -171
-27 -298 -163 -370 -37 -20 -56 -23 -167 -23 -129 1 -161 8 -289 62 l-44 19
65 41 64 40 28 -23 c26 -23 54 -30 105 -25 40 4 76 27 105 70 30 43 30 87 0
112 -8 6 -14 15 -14 19 0 7 171 149 220 183 32 22 35 22 58 -8z"/>
<path d="M15373 8756 c4 -10 -2 -29 -13 -44 -27 -37 -50 -124 -50 -193 0 -67
40 -213 78 -283 37 -68 140 -176 200 -209 101 -55 257 -73 373 -43 123 32 170
57 242 125 61 59 70 72 69 101 0 19 -6 36 -13 39 -7 2 -31 24 -53 49 -110 120
-530 377 -688 420 -21 6 -45 18 -54 26 -9 10 -24 14 -35 11 -10 -3 -28 -1 -40
6 -19 10 -21 9 -16 -5z m180 -199 c56 -45 113 -90 126 -99 16 -11 21 -22 17
-33 -10 -27 11 -89 40 -116 32 -30 100 -31 141 -1 l27 20 119 -41 119 -41 -92
-33 c-121 -44 -214 -58 -291 -44 -82 14 -120 34 -177 95 -55 58 -80 102 -110
191 -20 63 -39 185 -27 185 3 0 52 -37 108 -83z"/>
<path d="M16380 8085 c-43 -20 -70 -44 -70 -62 0 -17 75 -52 113 -53 16 0 27
-3 25 -7 -2 -5 -13 -28 -25 -53 -69 -140 -115 -310 -84 -310 20 0 64 26 88 52
22 23 86 149 96 189 5 20 12 14 59 -47 51 -66 134 -134 164 -134 56 0 -52 183
-161 271 l-45 37 83 7 c51 4 89 13 100 23 26 23 21 59 -10 79 -38 25 -281 31
-333 8z"/>
<path d="M17645 7993 c-84 -5 -168 -24 -207 -46 -40 -22 -42 -25 -32 -52 25
-64 287 -61 457 7 106 42 107 57 7 80 -72 16 -119 18 -225 11z"/>
<path d="M15253 7966 c-54 -17 -113 -54 -113 -70 0 -16 62 -58 109 -74 76 -27
265 -5 321 36 59 44 15 86 -115 107 -108 18 -147 18 -202 1z"/>
<path d="M17388 7737 c-16 -6 -28 -13 -27 -16 0 -3 20 -23 45 -43 63 -53 164
-83 255 -75 67 6 109 20 109 36 0 16 -106 82 -155 96 -55 17 -187 18 -227 2z"/>
</g>
</svg>
