<?xml version="1.0" encoding="UTF-8"?>
<svg version="1.1" xmlns="http://www.w3.org/2000/svg" width="3840" height="2160">
<path d="M0 0 C3.36946722 0.00317046 6.73806151 -0.02044772 10.10742188 -0.0456543 C23.48303084 -0.08591316 36.23294066 0.82838609 49.37304688 3.31567383 C50.09399536 3.44743011 50.81494385 3.5791864 51.55773926 3.7149353 C56.38546654 4.5989778 61.19406633 5.5611518 65.99804688 6.56567383 C66.71950897 6.71562805 67.44097107 6.86558228 68.18429565 7.02008057 C115.9462525 16.99430249 159.5684174 34.56101128 200.37304688 61.31567383 C200.65019531 60.43266602 200.92734375 59.5496582 201.21289062 58.63989258 C207.07471543 41.8438895 220.457586 27.15706318 236.37304688 19.31567383 C253.42785467 12.32856016 267.76816932 14.59923617 284.49804688 21.46704102 C293.32794107 25.46348792 298.73939879 32.5467304 302.68554688 41.19067383 C304.70520411 50.37093397 305.14690643 57.87570113 300.37304688 66.31567383 C298.01213577 69.15320079 295.39658738 71.2150015 292.37304688 73.31567383 C291.55707031 73.88801758 290.74109375 74.46036133 289.90039062 75.05004883 C287.1091746 76.908119 284.27096284 78.62899618 281.37304688 80.31567383 C280.40367187 80.88157227 279.43429687 81.4474707 278.43554688 82.03051758 C267.06826848 88.17386289 254.69838772 91.60936109 242.37304688 95.31567383 C242.37304688 98.72824563 245.47558677 100.72528692 247.74804688 103.06567383 C259.14149921 115.14098667 267.76141966 129.18238547 276.37304688 143.31567383 C276.78441895 143.98824219 277.19579102 144.66081055 277.61962891 145.35375977 C298.39510799 179.68604538 309.35082912 219.6303261 313.37304688 259.31567383 C313.50453125 260.58540039 313.63601563 261.85512695 313.77148438 263.16333008 C317.38383157 306.46268089 311.78805765 351.0101091 295.37304688 391.31567383 C295.06641113 392.07187012 294.75977539 392.82806641 294.44384766 393.60717773 C286.59645832 412.69069425 275.98853476 429.35935303 262.93945312 445.31958008 C261.33209684 447.23061458 261.33209684 447.23061458 260.37304688 449.31567383 C260.95957031 449.57864258 261.54609375 449.84161133 262.15039062 450.11254883 C270.53773905 454.65262495 276.36736126 464.21944876 282.07421875 471.64526367 C283.87987855 473.96750509 285.75388042 476.23191924 287.62304688 478.50317383 C290.82997749 482.5118371 293.63477942 486.65204486 296.33007812 491.01879883 C297.92478128 493.59227773 299.54757617 496.13706505 301.19726562 498.67504883 C307.62285301 508.60383174 313.46109476 518.55476532 318.37304688 529.31567383 C318.72963379 530.09072266 319.0862207 530.86577148 319.45361328 531.66430664 C334.63612428 564.97764461 344.39165498 600.85476586 344.57617188 637.64379883 C344.58318619 638.58740768 344.5902005 639.53101654 344.59742737 640.5032196 C344.6148034 643.52408697 344.62127772 646.54475835 344.62304688 649.56567383 C344.62405899 651.11401413 344.62405899 651.11401413 344.62509155 652.69363403 C344.60972278 667.47164597 344.26756993 681.78038187 341.37304688 696.31567383 C341.12361328 697.66483887 341.12361328 697.66483887 340.86914062 699.04125977 C330.38797213 755.27078778 305.13160347 809.67539071 266.47851562 851.98754883 C264.62237975 854.03997366 262.83933696 856.13413092 261.06054688 858.25317383 C256.27573131 863.73096269 250.8210781 868.51519513 245.37304688 873.31567383 C244.85967773 873.76845703 244.34630859 874.22124023 243.81738281 874.68774414 C224.63432092 891.49564486 203.55440259 905.77743402 181.37304688 918.31567383 C180.78056152 918.65518066 180.18807617 918.9946875 179.57763672 919.34448242 C167.31861343 926.3332714 154.32454711 931.7569053 141.37304688 937.31567383 C141.53748291 938.23098877 141.70191895 939.14630371 141.87133789 940.08935547 C142.62265411 944.92081231 142.33792291 949.68550839 142.21289062 954.56176758 C142.37954592 958.46800521 143.25671295 961.58332721 144.37304688 965.31567383 C144.64374384 967.62170552 144.8547003 969.93573757 144.99804688 972.25317383 C145.0728125 973.39657227 145.14757813 974.5399707 145.22460938 975.71801758 C145.27359375 976.57524414 145.32257812 977.4324707 145.37304688 978.31567383 C146.15808594 978.61602539 146.943125 978.91637695 147.75195312 979.22583008 C150.36964804 980.3142606 152.12606727 981.61341655 154.37304688 983.31567383 C155.82710937 984.02723633 155.82710937 984.02723633 157.31054688 984.75317383 C160.36343661 986.31077063 162.77284879 988.09785781 165.37304688 990.31567383 C165.11968291 993.84423049 164.61808258 995.08436335 162.00195312 997.55395508 C151.77024921 1004.47501849 151.77024921 1004.47501849 144.88476562 1003.84301758 C137.3467616 1002.26038843 130.748127 999.95950796 125.37304688 994.31567383 C121.65145424 988.02746559 121.22960601 982.80283278 121.27539062 975.61254883 C121.27751305 974.35586395 121.27751305 974.35586395 121.27967834 973.0737915 C121.2852649 970.40438225 121.29781493 967.73505762 121.31054688 965.06567383 C121.31556361 963.25317504 121.32012622 961.44067494 121.32421875 959.62817383 C121.33522993 955.19064134 121.35248533 950.75317192 121.37304688 946.31567383 C115.53188498 948.0240333 109.7454574 949.84074014 103.98901367 951.81542969 C93.23378898 955.50196573 82.40555266 958.57961239 71.37304688 961.31567383 C71.63859375 961.93313477 71.90414062 962.5505957 72.17773438 963.18676758 C73.9984047 967.55238949 75.48192083 971.49168902 76.12304688 976.19067383 C76.6485406 978.95924723 76.88164729 979.96392412 79.20117188 981.62426758 C81.33668943 982.65461392 81.33668943 982.65461392 83.49804688 983.36645508 C85.91117011 984.58809872 86.23021732 985.93001714 87.37304688 988.31567383 C88.36304687 988.64567383 89.35304688 988.97567383 90.37304688 989.31567383 C91.85056429 992.4114246 92.46792351 994.51871009 92.06054688 997.94067383 C89.35576685 1001.74740128 85.77667303 1003.03185805 81.37304688 1004.31567383 C74.18703465 1005.44240048 66.25976553 1003.96089977 60.22070312 999.85083008 C55.78605215 996.14168437 55.78605215 996.14168437 54.37304688 993.31567383 C53.78781869 984.56447094 53.33888122 971.38400513 57.37304688 963.31567383 C56.01566406 963.58831055 56.01566406 963.58831055 54.63085938 963.86645508 C21.70960041 970.07746319 -10.49281426 970.03646115 -43.62695312 966.31567383 C-43.37558594 967.45004883 -43.12421875 968.58442383 -42.86523438 969.75317383 C-42.55548294 971.2737718 -42.24695419 972.79461919 -41.93945312 974.31567383 C-41.77123047 975.05946289 -41.60300781 975.80325195 -41.4296875 976.56958008 C-40.32992611 982.19058272 -40.85185865 986.26002746 -43.62695312 991.31567383 C-48.64757832 997.12902932 -55.37417751 998.47541733 -62.62695312 1000.31567383 C-63.28598633 1000.489375 -63.94501953 1000.66307617 -64.62402344 1000.84204102 C-66.63981117 1001.36358151 -68.66105486 1001.84580341 -70.68945312 1002.31567383 C-71.91792969 1002.60442383 -73.14640625 1002.89317383 -74.41210938 1003.19067383 C-77.62695312 1003.31567383 -77.62695312 1003.31567383 -80.06054688 1001.50317383 C-81.62695312 999.31567383 -81.62695312 999.31567383 -81.62695312 997.31567383 C-82.28695312 997.31567383 -82.94695313 997.31567383 -83.62695312 997.31567383 C-84.50195312 995.25317383 -84.50195312 995.25317383 -84.62695312 992.31567383 C-82.62345159 988.00043976 -79.74832566 985.77997093 -75.40039062 983.97973633 C-66.87916944 981.31567383 -66.87916944 981.31567383 -63.62695312 981.31567383 C-63.68882812 980.01629883 -63.75070312 978.71692383 -63.81445312 977.37817383 C-63.83892457 972.23917053 -62.45241816 968.06226602 -60.62695312 963.31567383 C-61.64966309 963.2104541 -62.67237305 963.10523437 -63.72607422 962.99682617 C-73.60953048 961.93403037 -83.30301971 960.39093581 -93.0390625 958.39379883 C-95.25678705 957.939684 -97.47674188 957.49806186 -99.69726562 957.05786133 C-123.82869092 952.21480493 -123.82869092 952.21480493 -129.62695312 949.31567383 C-129.34980469 950.26829102 -129.07265625 951.2209082 -128.78710938 952.20239258 C-128.42488281 953.45665039 -128.06265625 954.7109082 -127.68945312 956.00317383 C-127.32980469 957.24454102 -126.97015625 958.4859082 -126.59960938 959.76489258 C-124.42776195 967.69344401 -122.14318721 978.42875827 -126.00195312 986.12817383 C-131.11648857 993.25587748 -138.05999002 999.24302146 -146.62695312 1001.31567383 C-150.93392707 1001.95193134 -153.98142757 1001.64452647 -157.93945312 999.62817383 C-160.71204575 997.2424546 -162.28339651 995.71408175 -163.62695312 992.31567383 C-163.62695312 987.455742 -162.54825964 984.23509966 -159.22851562 980.60473633 C-155.99262767 978.00024114 -151.80346347 976.31567383 -147.62695312 976.31567383 C-147.60713379 975.66606689 -147.58731445 975.01645996 -147.56689453 974.34716797 C-147.4706738 971.35714861 -147.36139413 968.36773735 -147.25195312 965.37817383 C-147.22101562 964.3565918 -147.19007813 963.33500977 -147.15820312 962.2824707 C-146.91909599 956.04575966 -146.17836012 950.36363851 -144.62695312 944.31567383 C-145.82707031 944.09008789 -147.0271875 943.86450195 -148.26367188 943.63208008 C-154.88424833 942.15495361 -161.12043327 939.68439415 -167.43945312 937.25317383 C-168.07768005 937.00857422 -168.71590698 936.76397461 -169.37347412 936.51196289 C-201.2594173 924.27056238 -230.06942996 907.93711284 -256.62695312 886.31567383 C-257.16126953 885.88287109 -257.69558594 885.45006836 -258.24609375 885.00415039 C-272.31742042 873.52922102 -285.58859988 860.75492816 -296.62695312 846.31567383 C-297.61544076 845.06610836 -298.60511647 843.81748222 -299.59570312 842.56958008 C-312.24939001 826.49215668 -323.05168939 809.38078036 -332.62695312 791.31567383 C-332.97564453 790.67275391 -333.32433594 790.02983398 -333.68359375 789.36743164 C-355.64172737 748.78896866 -367.113828 695.54657364 -364.62695312 649.31567383 C-364.58973145 648.48245605 -364.55250977 647.64923828 -364.51416016 646.79077148 C-361.62150173 587.40120937 -338.50667921 526.71568826 -297.92773438 482.82739258 C-296.02603451 480.75134332 -294.1759605 478.64728729 -292.33398438 476.51879883 C-283.28257592 466.15583754 -273.83475228 456.44461959 -262.20117188 449.01489258 C-260.03257912 447.58342391 -258.3566014 446.23422567 -256.62695312 444.31567383 C-257.89539062 444.00629883 -257.89539062 444.00629883 -259.18945312 443.69067383 C-263.51086515 441.96210902 -266.28039936 439.48322588 -269.62695312 436.31567383 C-270.39652344 435.60604492 -270.39652344 435.60604492 -271.18164062 434.88208008 C-272.37882713 433.74238558 -273.5100314 432.5341339 -274.62695312 431.31567383 C-274.62695312 430.65567383 -274.62695312 429.99567383 -274.62695312 429.31567383 C-275.18898438 429.09524414 -275.75101563 428.87481445 -276.33007812 428.64770508 C-285.25800571 423.47011442 -291.75185384 410.97229667 -296.62695312 402.31567383 C-297.21089844 401.29602539 -297.79484375 400.27637695 -298.39648438 399.22583008 C-311.16441105 375.44808854 -317.09337284 347.00052595 -319.62695312 320.31567383 C-319.73652344 319.23930664 -319.84609375 318.16293945 -319.95898438 317.05395508 C-322.35907665 289.5008958 -319.82232156 262.20027877 -313.62695312 235.31567383 C-313.38928223 234.27958984 -313.15161133 233.24350586 -312.90673828 232.17602539 C-304.65322034 196.69640172 -290.75596703 164.14257763 -269.62695312 134.31567383 C-268.89605469 133.27024414 -268.16515625 132.22481445 -267.41210938 131.14770508 C-263.34755206 125.44122757 -258.9973779 120.00705405 -254.50976562 114.62817383 C-252.52323105 112.26320917 -252.52323105 112.26320917 -250.62695312 109.31567383 C-251.18455322 109.30109131 -251.74215332 109.28650879 -252.31665039 109.27148438 C-271.96825141 108.70020517 -290.72274097 107.6669473 -305.78320312 93.39770508 C-312.1153288 86.24723265 -312.99870266 78.1912112 -312.90429688 68.92895508 C-311.98319341 56.92866339 -307.61367985 46.90940076 -299.00195312 38.56567383 C-287.66309719 29.20730905 -272.73446369 28.09722056 -258.62695312 29.31567383 C-254.63762748 30.14242546 -251.25583314 31.48213445 -247.62695312 33.31567383 C-246.67691406 33.79004883 -245.726875 34.26442383 -244.74804688 34.75317383 C-233.4461297 40.88302721 -223.69034532 49.32760259 -215.62695312 59.31567383 C-214.38642292 60.82351494 -213.13643775 62.32362876 -211.87695312 63.81567383 C-211.32523438 64.48598633 -210.77351563 65.15629883 -210.20507812 65.84692383 C-208.62025277 67.65631615 -208.62025277 67.65631615 -205.62695312 67.31567383 C-203.82538381 66.09696517 -202.08400387 64.78859094 -200.37695312 63.44067383 C-157.93569582 30.78259575 -108.73269454 13.73705134 -56.50195312 4.50317383 C-55.40230225 4.30812256 -54.30265137 4.11307129 -53.16967773 3.91210938 C-35.46256225 0.94280463 -17.93882228 -0.03517927 0 0 Z M277.37304688 46.31567383 C278.37304688 49.31567383 278.37304688 49.31567383 278.37304688 49.31567383 Z M-35.08789062 255.09301758 C-39.01625607 258.53184825 -43.27800586 261.43796617 -47.62695312 264.31567383 C-47.19382812 264.77071289 -46.76070312 265.22575195 -46.31445312 265.69458008 C-39.30868952 274.75990845 -40.56221069 286.46304456 -41.62695312 297.31567383 C-42.72269646 304.545165 -44.53549017 310.90712688 -49.62695312 316.31567383 C-54.83854609 319.80318997 -60.56010315 322.67598465 -66.62695312 324.31567383 C-58.80122037 336.27695641 -47.56435609 343.90334589 -33.68945312 347.06567383 C-11.0605247 351.40513247 19.46492283 351.49329331 39.37304688 338.31567383 C46.50281387 332.66566979 51.54313111 324.92949937 56.37304688 317.31567383 C56.37304688 316.98567383 56.37304688 316.65567383 56.37304688 316.31567383 C55.16068359 316.0778418 55.16068359 316.0778418 53.92382812 315.83520508 C52.85519531 315.60188477 51.7865625 315.36856445 50.68554688 315.12817383 C49.10193359 314.7975293 49.10193359 314.7975293 47.48632812 314.46020508 C42.42927717 312.60108848 39.77733729 309.38665126 37.38867188 304.68676758 C36.78871708 303.38075245 36.20026847 302.06939437 35.62304688 300.75317383 C35.16865234 299.76414062 35.16865234 299.76414062 34.70507812 298.75512695 C30.20631258 288.80785648 30.94052203 279.82658363 33.37304688 269.31567383 C34.01687542 267.97116387 34.68001674 266.63549634 35.37304688 265.31567383 C30.29345505 260.8483242 25.05471271 256.75929244 19.56054688 252.81567383 C18.7680957 252.2461499 17.97564453 251.67662598 17.15917969 251.08984375 C-4.40307381 235.71315683 -15.64432849 237.1000069 -35.08789062 255.09301758 Z M-70.62695312 600.31567383 C-71.38105469 600.98598633 -72.13515625 601.65629883 -72.91210938 602.34692383 C-83.76481808 612.53077772 -91.26906555 624.83297741 -91.86523438 639.89770508 C-92.30968326 660.89540092 -88.24019367 679.71545041 -74.62695312 696.31567383 C-74.11777344 696.93958008 -73.60859375 697.56348633 -73.08398438 698.20629883 C-56.70741497 716.22473509 -29.66844685 725.12387047 -6.12695312 726.45727539 C19.39042952 727.54799685 47.03077749 723.456808 67.68554688 707.19067383 C79.46286412 696.08563474 84.97534926 679.40815389 85.59570312 663.59692383 C86.19194777 639.40544416 77.00319681 620.15033925 60.66796875 602.47021484 C45.52084535 586.95278193 22.39603878 574.5895227 0.4621582 574.0234375 C-26.43604401 573.77726363 -50.73799329 582.27041044 -70.62695312 600.31567383 Z M-84.62695312 580.31567383 C-84.29695313 580.97567383 -83.96695313 581.63567383 -83.62695312 582.31567383 C-83.29695313 581.65567383 -82.96695313 580.99567383 -82.62695312 580.31567383 C-83.28695312 580.31567383 -83.94695313 580.31567383 -84.62695312 580.31567383 Z " fill="#FC00FE" transform="translate(2490.626953125,1149.684326171875)"/>
<path d="M0 0 C3.36946722 0.00317046 6.73806151 -0.02044772 10.10742188 -0.0456543 C23.48303084 -0.08591316 36.23294066 0.82838609 49.37304688 3.31567383 C50.09399536 3.44743011 50.81494385 3.5791864 51.55773926 3.7149353 C56.38546654 4.5989778 61.19406633 5.5611518 65.99804688 6.56567383 C66.71950897 6.71562805 67.44097107 6.86558228 68.18429565 7.02008057 C115.9462525 16.99430249 159.5684174 34.56101128 200.37304688 61.31567383 C200.65019531 60.43266602 200.92734375 59.5496582 201.21289062 58.63989258 C207.07471543 41.8438895 220.457586 27.15706318 236.37304688 19.31567383 C253.42785467 12.32856016 267.76816932 14.59923617 284.49804688 21.46704102 C293.32794107 25.46348792 298.73939879 32.5467304 302.68554688 41.19067383 C304.70520411 50.37093397 305.14690643 57.87570113 300.37304688 66.31567383 C298.01213577 69.15320079 295.39658738 71.2150015 292.37304688 73.31567383 C291.55707031 73.88801758 290.74109375 74.46036133 289.90039062 75.05004883 C287.1091746 76.908119 284.27096284 78.62899618 281.37304688 80.31567383 C280.40367187 80.88157227 279.43429687 81.4474707 278.43554688 82.03051758 C267.06826848 88.17386289 254.69838772 91.60936109 242.37304688 95.31567383 C242.37304688 98.72824563 245.47558677 100.72528692 247.74804688 103.06567383 C259.14149921 115.14098667 267.76141966 129.18238547 276.37304688 143.31567383 C276.78441895 143.98824219 277.19579102 144.66081055 277.61962891 145.35375977 C298.39510799 179.68604538 309.35082912 219.6303261 313.37304688 259.31567383 C313.50453125 260.58540039 313.63601563 261.85512695 313.77148438 263.16333008 C317.38383157 306.46268089 311.78805765 351.0101091 295.37304688 391.31567383 C295.06641113 392.07187012 294.75977539 392.82806641 294.44384766 393.60717773 C286.59645832 412.69069425 275.98853476 429.35935303 262.93945312 445.31958008 C261.33209684 447.23061458 261.33209684 447.23061458 260.37304688 449.31567383 C260.95957031 449.57864258 261.54609375 449.84161133 262.15039062 450.11254883 C270.53773905 454.65262495 276.36736126 464.21944876 282.07421875 471.64526367 C283.87987855 473.96750509 285.75388042 476.23191924 287.62304688 478.50317383 C290.82997749 482.5118371 293.63477942 486.65204486 296.33007812 491.01879883 C297.92478128 493.59227773 299.54757617 496.13706505 301.19726562 498.67504883 C307.62285301 508.60383174 313.46109476 518.55476532 318.37304688 529.31567383 C318.72963379 530.09072266 319.0862207 530.86577148 319.45361328 531.66430664 C334.63612428 564.97764461 344.39165498 600.85476586 344.57617188 637.64379883 C344.58318619 638.58740768 344.5902005 639.53101654 344.59742737 640.5032196 C344.6148034 643.52408697 344.62127772 646.54475835 344.62304688 649.56567383 C344.62405899 651.11401413 344.62405899 651.11401413 344.62509155 652.69363403 C344.60972278 667.47164597 344.26756993 681.78038187 341.37304688 696.31567383 C341.12361328 697.66483887 341.12361328 697.66483887 340.86914062 699.04125977 C330.38797213 755.27078778 305.13160347 809.67539071 266.47851562 851.98754883 C264.62237975 854.03997366 262.83933696 856.13413092 261.06054688 858.25317383 C256.27573131 863.73096269 250.8210781 868.51519513 245.37304688 873.31567383 C244.85967773 873.76845703 244.34630859 874.22124023 243.81738281 874.68774414 C224.63432092 891.49564486 203.55440259 905.77743402 181.37304688 918.31567383 C180.78056152 918.65518066 180.18807617 918.9946875 179.57763672 919.34448242 C167.31861343 926.3332714 154.32454711 931.7569053 141.37304688 937.31567383 C141.53748291 938.23098877 141.70191895 939.14630371 141.87133789 940.08935547 C142.62265411 944.92081231 142.33792291 949.68550839 142.21289062 954.56176758 C142.37954592 958.46800521 143.25671295 961.58332721 144.37304688 965.31567383 C144.64374384 967.62170552 144.8547003 969.93573757 144.99804688 972.25317383 C145.0728125 973.39657227 145.14757813 974.5399707 145.22460938 975.71801758 C145.27359375 976.57524414 145.32257812 977.4324707 145.37304688 978.31567383 C146.15808594 978.61602539 146.943125 978.91637695 147.75195312 979.22583008 C150.36964804 980.3142606 152.12606727 981.61341655 154.37304688 983.31567383 C155.82710937 984.02723633 155.82710937 984.02723633 157.31054688 984.75317383 C160.36343661 986.31077063 162.77284879 988.09785781 165.37304688 990.31567383 C165.11968291 993.84423049 164.61808258 995.08436335 162.00195312 997.55395508 C151.77024921 1004.47501849 151.77024921 1004.47501849 144.88476562 1003.84301758 C137.3467616 1002.26038843 130.748127 999.95950796 125.37304688 994.31567383 C121.65145424 988.02746559 121.22960601 982.80283278 121.27539062 975.61254883 C121.27751305 974.35586395 121.27751305 974.35586395 121.27967834 973.0737915 C121.2852649 970.40438225 121.29781493 967.73505762 121.31054688 965.06567383 C121.31556361 963.25317504 121.32012622 961.44067494 121.32421875 959.62817383 C121.33522993 955.19064134 121.35248533 950.75317192 121.37304688 946.31567383 C115.53188498 948.0240333 109.7454574 949.84074014 103.98901367 951.81542969 C93.23378898 955.50196573 82.40555266 958.57961239 71.37304688 961.31567383 C71.63859375 961.93313477 71.90414062 962.5505957 72.17773438 963.18676758 C73.9984047 967.55238949 75.48192083 971.49168902 76.12304688 976.19067383 C76.6485406 978.95924723 76.88164729 979.96392412 79.20117188 981.62426758 C81.33668943 982.65461392 81.33668943 982.65461392 83.49804688 983.36645508 C85.91117011 984.58809872 86.23021732 985.93001714 87.37304688 988.31567383 C88.36304687 988.64567383 89.35304688 988.97567383 90.37304688 989.31567383 C91.85056429 992.4114246 92.46792351 994.51871009 92.06054688 997.94067383 C89.35576685 1001.74740128 85.77667303 1003.03185805 81.37304688 1004.31567383 C74.18703465 1005.44240048 66.25976553 1003.96089977 60.22070312 999.85083008 C55.78605215 996.14168437 55.78605215 996.14168437 54.37304688 993.31567383 C53.78781869 984.56447094 53.33888122 971.38400513 57.37304688 963.31567383 C56.01566406 963.58831055 56.01566406 963.58831055 54.63085938 963.86645508 C21.70960041 970.07746319 -10.49281426 970.03646115 -43.62695312 966.31567383 C-43.37558594 967.45004883 -43.12421875 968.58442383 -42.86523438 969.75317383 C-42.55548294 971.2737718 -42.24695419 972.79461919 -41.93945312 974.31567383 C-41.77123047 975.05946289 -41.60300781 975.80325195 -41.4296875 976.56958008 C-40.32992611 982.19058272 -40.85185865 986.26002746 -43.62695312 991.31567383 C-48.64757832 997.12902932 -55.37417751 998.47541733 -62.62695312 1000.31567383 C-63.28598633 1000.489375 -63.94501953 1000.66307617 -64.62402344 1000.84204102 C-66.63981117 1001.36358151 -68.66105486 1001.84580341 -70.68945312 1002.31567383 C-71.91792969 1002.60442383 -73.14640625 1002.89317383 -74.41210938 1003.19067383 C-77.62695312 1003.31567383 -77.62695312 1003.31567383 -80.06054688 1001.50317383 C-81.62695312 999.31567383 -81.62695312 999.31567383 -81.62695312 997.31567383 C-82.28695312 997.31567383 -82.94695313 997.31567383 -83.62695312 997.31567383 C-84.50195312 995.25317383 -84.50195312 995.25317383 -84.62695312 992.31567383 C-82.62345159 988.00043976 -79.74832566 985.77997093 -75.40039062 983.97973633 C-66.87916944 981.31567383 -66.87916944 981.31567383 -63.62695312 981.31567383 C-63.68882812 980.01629883 -63.75070312 978.71692383 -63.81445312 977.37817383 C-63.83892457 972.23917053 -62.45241816 968.06226602 -60.62695312 963.31567383 C-61.64966309 963.2104541 -62.67237305 963.10523437 -63.72607422 962.99682617 C-73.60953048 961.93403037 -83.30301971 960.39093581 -93.0390625 958.39379883 C-95.25678705 957.939684 -97.47674188 957.49806186 -99.69726562 957.05786133 C-123.82869092 952.21480493 -123.82869092 952.21480493 -129.62695312 949.31567383 C-129.34980469 950.26829102 -129.07265625 951.2209082 -128.78710938 952.20239258 C-128.42488281 953.45665039 -128.06265625 954.7109082 -127.68945312 956.00317383 C-127.32980469 957.24454102 -126.97015625 958.4859082 -126.59960938 959.76489258 C-124.42776195 967.69344401 -122.14318721 978.42875827 -126.00195312 986.12817383 C-131.11648857 993.25587748 -138.05999002 999.24302146 -146.62695312 1001.31567383 C-150.93392707 1001.95193134 -153.98142757 1001.64452647 -157.93945312 999.62817383 C-160.71204575 997.2424546 -162.28339651 995.71408175 -163.62695312 992.31567383 C-163.62695312 987.455742 -162.54825964 984.23509966 -159.22851562 980.60473633 C-155.99262767 978.00024114 -151.80346347 976.31567383 -147.62695312 976.31567383 C-147.60713379 975.66606689 -147.58731445 975.01645996 -147.56689453 974.34716797 C-147.4706738 971.35714861 -147.36139413 968.36773735 -147.25195312 965.37817383 C-147.22101562 964.3565918 -147.19007813 963.33500977 -147.15820312 962.2824707 C-146.91909599 956.04575966 -146.17836012 950.36363851 -144.62695312 944.31567383 C-145.82707031 944.09008789 -147.0271875 943.86450195 -148.26367188 943.63208008 C-154.88424833 942.15495361 -161.12043327 939.68439415 -167.43945312 937.25317383 C-168.07768005 937.00857422 -168.71590698 936.76397461 -169.37347412 936.51196289 C-201.2594173 924.27056238 -230.06942996 907.93711284 -256.62695312 886.31567383 C-257.16126953 885.88287109 -257.69558594 885.45006836 -258.24609375 885.00415039 C-272.31742042 873.52922102 -285.58859988 860.75492816 -296.62695312 846.31567383 C-297.61544076 845.06610836 -298.60511647 843.81748222 -299.59570312 842.56958008 C-312.24939001 826.49215668 -323.05168939 809.38078036 -332.62695312 791.31567383 C-332.97564453 790.67275391 -333.32433594 790.02983398 -333.68359375 789.36743164 C-355.64172737 748.78896866 -367.113828 695.54657364 -364.62695312 649.31567383 C-364.58973145 648.48245605 -364.55250977 647.64923828 -364.51416016 646.79077148 C-361.62150173 587.40120937 -338.50667921 526.71568826 -297.92773438 482.82739258 C-296.02603451 480.75134332 -294.1759605 478.64728729 -292.33398438 476.51879883 C-283.28257592 466.15583754 -273.83475228 456.44461959 -262.20117188 449.01489258 C-260.03257912 447.58342391 -258.3566014 446.23422567 -256.62695312 444.31567383 C-257.89539062 444.00629883 -257.89539062 444.00629883 -259.18945312 443.69067383 C-263.51086515 441.96210902 -266.28039936 439.48322588 -269.62695312 436.31567383 C-270.39652344 435.60604492 -270.39652344 435.60604492 -271.18164062 434.88208008 C-272.37882713 433.74238558 -273.5100314 432.5341339 -274.62695312 431.31567383 C-274.62695312 430.65567383 -274.62695312 429.99567383 -274.62695312 429.31567383 C-275.18898438 429.09524414 -275.75101563 428.87481445 -276.33007812 428.64770508 C-285.25800571 423.47011442 -291.75185384 410.97229667 -296.62695312 402.31567383 C-297.21089844 401.29602539 -297.79484375 400.27637695 -298.39648438 399.22583008 C-311.16441105 375.44808854 -317.09337284 347.00052595 -319.62695312 320.31567383 C-319.73652344 319.23930664 -319.84609375 318.16293945 -319.95898438 317.05395508 C-322.35907665 289.5008958 -319.82232156 262.20027877 -313.62695312 235.31567383 C-313.38928223 234.27958984 -313.15161133 233.24350586 -312.90673828 232.17602539 C-304.65322034 196.69640172 -290.75596703 164.14257763 -269.62695312 134.31567383 C-268.89605469 133.27024414 -268.16515625 132.22481445 -267.41210938 131.14770508 C-263.34755206 125.44122757 -258.9973779 120.00705405 -254.50976562 114.62817383 C-252.52323105 112.26320917 -252.52323105 112.26320917 -250.62695312 109.31567383 C-251.18455322 109.30109131 -251.74215332 109.28650879 -252.31665039 109.27148438 C-271.96825141 108.70020517 -290.72274097 107.6669473 -305.78320312 93.39770508 C-312.1153288 86.24723265 -312.99870266 78.1912112 -312.90429688 68.92895508 C-311.98319341 56.92866339 -307.61367985 46.90940076 -299.00195312 38.56567383 C-287.66309719 29.20730905 -272.73446369 28.09722056 -258.62695312 29.31567383 C-254.63762748 30.14242546 -251.25583314 31.48213445 -247.62695312 33.31567383 C-246.67691406 33.79004883 -245.726875 34.26442383 -244.74804688 34.75317383 C-233.4461297 40.88302721 -223.69034532 49.32760259 -215.62695312 59.31567383 C-214.38642292 60.82351494 -213.13643775 62.32362876 -211.87695312 63.81567383 C-211.32523438 64.48598633 -210.77351563 65.15629883 -210.20507812 65.84692383 C-208.62025277 67.65631615 -208.62025277 67.65631615 -205.62695312 67.31567383 C-203.82538381 66.09696517 -202.08400387 64.78859094 -200.37695312 63.44067383 C-157.93569582 30.78259575 -108.73269454 13.73705134 -56.50195312 4.50317383 C-55.40230225 4.30812256 -54.30265137 4.11307129 -53.16967773 3.91210938 C-35.46256225 0.94280463 -17.93882228 -0.03517927 0 0 Z M-66.62695312 33.31567383 C-67.78420898 33.54061523 -68.94146484 33.76555664 -70.13378906 33.99731445 C-84.87271992 36.91694987 -99.36810384 40.57339047 -113.62695312 45.31567383 C-114.28566406 45.53126953 -114.944375 45.74686523 -115.62304688 45.96899414 C-135.45769204 52.57040212 -154.63252459 62.16172444 -171.62695312 74.31567383 C-172.64474854 75.04270508 -172.64474854 75.04270508 -173.68310547 75.78442383 C-183.03024841 82.52331683 -191.9926914 89.68682629 -200.62695312 97.31567383 C-201.15885254 97.78440918 -201.69075195 98.25314453 -202.23876953 98.73608398 C-215.40217447 110.41361674 -227.1255878 123.19986798 -237.62695312 137.31567383 C-238.35978516 138.29576416 -238.35978516 138.29576416 -239.10742188 139.2956543 C-278.26620162 192.05682508 -294.0907444 255.95530093 -285.13818359 320.85913086 C-282.78775124 336.6862156 -279.65293066 352.11571945 -274.62695312 367.31567383 C-274.40458984 367.99774902 -274.18222656 368.67982422 -273.953125 369.38256836 C-267.72243787 388.12577717 -258.12499429 405.75612982 -248.81005859 423.11108398 C-247.60999832 425.34726728 -246.41643026 427.58680837 -245.22460938 429.82739258 C-243.36314973 433.3258664 -241.49671127 436.82162858 -239.62695312 440.31567383 C-238.30695312 440.31567383 -236.98695313 440.31567383 -235.62695312 440.31567383 C-235.62695312 442.95567383 -235.62695312 445.59567383 -235.62695312 448.31567383 C-236.61695312 448.64567383 -237.60695313 448.97567383 -238.62695312 449.31567383 C-240.2437115 451.36851198 -241.72610068 453.40798431 -243.18945312 455.56567383 C-246.4198461 460.22106699 -249.71962463 464.75583839 -253.25195312 469.19067383 C-297.23524919 525.44961394 -332.24620189 597.65120282 -331.93945312 670.25317383 C-331.93763031 671.15097565 -331.9358075 672.04877747 -331.93392944 672.9737854 C-331.72886094 733.15237271 -310.33693854 787.13283786 -270.62695312 832.31567383 C-269.76070312 833.34821289 -269.76070312 833.34821289 -268.87695312 834.40161133 C-259.01004069 846.09390256 -247.87820376 856.20602742 -235.62695312 865.31567383 C-234.42100772 866.22814853 -233.21528065 867.14091186 -232.00976562 868.05395508 C-182.28241723 905.40891724 -123.60132397 925.41950536 -62.44918823 934.44073486 C-58.13501934 935.07859947 -53.83615547 935.78269349 -49.53710938 936.51489258 C-6.86821217 943.43728741 39.98632378 941.12010984 81.37304688 928.31567383 C83.0987793 927.78780273 83.0987793 927.78780273 84.859375 927.24926758 C165.8531044 902.13823219 240.74503385 855.79701949 281.82983398 779.48876953 C313.9199399 718.23140056 327.37824442 646.97647591 306.61181641 579.85522461 C295.75971038 545.7704409 277.57474501 515.19861459 255.37304688 487.31567383 C254.64859375 486.3746582 253.92414062 485.43364258 253.17773438 484.46411133 C248.27116095 478.22098027 242.9572269 473.00223793 236.97460938 467.82348633 C234.49794342 465.43606959 233.04605412 463.28713445 231.37304688 460.31567383 C228.31813393 457.26546963 228.31813393 457.26546963 224.37304688 456.31567383 C223.83284716 449.12801652 224.39510419 443.45725673 228.37304688 437.31567383 C230.16929281 435.31655776 232.07368185 433.4985276 234.03320312 431.65942383 C268.97595452 396.65833729 282.58355713 341.19933477 282.62304688 293.31567383 C282.62372162 292.5740097 282.62439636 291.83234558 282.62509155 291.06820679 C282.53020191 224.78114181 257.77891436 159.00459678 211.06054688 111.56567383 C202.74108862 103.29854443 193.97478739 96.03490425 184.37304688 89.31567383 C183.30884521 88.56495605 183.30884521 88.56495605 182.22314453 87.79907227 C157.05734568 70.17792678 130.28955246 57.48634007 101.37304688 47.31567383 C100.08744873 46.85596191 100.08744873 46.85596191 98.77587891 46.38696289 C84.79509757 41.47383425 70.4249655 38.47942414 55.93554688 35.50317383 C54.99005981 35.30804199 54.04457275 35.11291016 53.07043457 34.91186523 C32.43443447 30.68242081 12.82903754 28.90554003 -8.25195312 28.94067383 C-9.47483032 28.94121765 -10.69770752 28.94176147 -11.9576416 28.94232178 C-30.51266181 28.98028586 -48.3874486 29.66448356 -66.62695312 33.31567383 Z M277.37304688 46.31567383 C278.37304688 49.31567383 278.37304688 49.31567383 278.37304688 49.31567383 Z " fill="#000000" transform="translate(2490.626953125,1149.684326171875)"/>
<path d="M0 0 C3.90889041 0.57909488 6.1418419 2.33268871 9 5 C13.38209473 11.56838928 16.53011922 18.09438405 15 26 C10.80684193 45.17306335 1.53786257 60.86167889 -15 72 C-17.95061131 73.76946858 -20.93903838 75.42971945 -24 77 C-23.154375 77.969375 -22.30875 78.93875 -21.4375 79.9375 C-19.38116486 82.85503533 -18.61406476 84.73577799 -18.875 88.3125 C-20.40223844 96.53716938 -24.22015111 103.29604435 -30.75 108.52734375 C-36.14443652 112.05807737 -41.50981877 114.28819632 -48 114 C-47.9175 115.155 -47.835 116.31 -47.75 117.5 C-47.84199748 128.02451191 -56.57339311 137.09608941 -63.24609375 144.48828125 C-76.52663012 157.45528051 -95.72148303 163.39156116 -114 164 C-114.96897217 164.03867188 -114.96897217 164.03867188 -115.95751953 164.078125 C-139.45601392 164.91158966 -164.61180927 161.51471529 -183.1875 145.875 C-189.82188218 139.61154973 -195.99448298 132.29758887 -197 123 C-198.03125 122.9175 -199.0625 122.835 -200.125 122.75 C-207.48691944 121.32511237 -211.63224701 116.73752168 -216 111 C-219.70537865 105.50581786 -220.1540726 101.35525483 -220.1875 94.75 C-220.20167969 93.48671875 -220.21585938 92.2234375 -220.23046875 90.921875 C-219.97997916 86.65930633 -219.15226882 83.09898 -218 79 C-219.0621875 78.69707031 -220.124375 78.39414063 -221.21875 78.08203125 C-236.11070316 73.71975973 -246.88829876 67.69418367 -254.6796875 53.6015625 C-255.11539063 52.74304687 -255.55109375 51.88453125 -256 51 C-256.41507813 50.20335937 -256.83015625 49.40671875 -257.2578125 48.5859375 C-261.3596847 39.32086953 -261.81784684 27.47462897 -259.08203125 17.73046875 C-256.63601326 12.4505529 -253.49577044 9.57419976 -249 6 C-248.84144531 7.08796875 -248.68289062 8.1759375 -248.51953125 9.296875 C-246.34895549 23.30884525 -242.70490344 37.8890804 -231.3125 47.375 C-222.95887525 53.10319983 -213.05963587 54.03016146 -203.26953125 52.6015625 C-187.91199831 49.4098485 -175.3267236 40.43081369 -162.88330078 31.36279297 C-155.28877205 25.86724469 -148.00271188 21.71394556 -139 19 C-138.39929687 18.80792969 -137.79859375 18.61585937 -137.1796875 18.41796875 C-120.46228234 15.21230145 -105.87772637 20.50535313 -92.04492188 29.60498047 C-87.53955342 32.67848517 -83.17159454 35.94471782 -78.78271484 39.18115234 C-71.52635362 44.47195704 -63.95390752 48.85324372 -56 53 C-55.16210938 53.474375 -54.32421875 53.94875 -53.4609375 54.4375 C-47.22903581 57.70075034 -40.90538322 58.05678178 -34 57 C-22.90269548 53.18866847 -15.05539826 46.57313052 -9.2265625 36.52734375 C-6.55842399 31.02961886 -5.80183815 26.47704629 -5.6875 20.375 C-5.41425709 12.81205811 -3.47460782 6.76971561 0 0 Z M-152.4609375 55.77734375 C-156.38930294 59.21617442 -160.65105274 62.12229234 -165 65 C-164.566875 65.45503906 -164.13375 65.91007812 -163.6875 66.37890625 C-156.68173639 75.44423462 -157.93525756 87.14737073 -159 98 C-160.09574334 105.22949117 -161.90853705 111.59145305 -167 117 C-172.21159297 120.48751614 -177.93315002 123.36031082 -184 125 C-176.17426725 136.96128258 -164.93740296 144.58767206 -151.0625 147.75 C-128.43357158 152.08945865 -97.90812405 152.17761948 -78 139 C-70.870233 133.34999597 -65.82991576 125.61382554 -61 118 C-61 117.67 -61 117.34 -61 117 C-62.21236328 116.76216797 -62.21236328 116.76216797 -63.44921875 116.51953125 C-64.51785156 116.28621094 -65.58648438 116.05289062 -66.6875 115.8125 C-68.27111328 115.48185547 -68.27111328 115.48185547 -69.88671875 115.14453125 C-74.9437697 113.28541465 -77.59570958 110.07097743 -79.984375 105.37109375 C-80.58432979 104.06507862 -81.17277841 102.75372054 -81.75 101.4375 C-82.20439453 100.4484668 -82.20439453 100.4484668 -82.66796875 99.43945312 C-87.16673429 89.49218265 -86.43252484 80.5109098 -84 70 C-83.35617146 68.65549004 -82.69303013 67.31982251 -82 66 C-87.07959182 61.53265037 -92.31833417 57.44361861 -97.8125 53.5 C-98.60495117 52.93047607 -99.39740234 52.36095215 -100.21386719 51.77416992 C-121.77612069 36.397483 -133.01737537 37.78433308 -152.4609375 55.77734375 Z " fill="#010001" transform="translate(2608,1349)"/>
<path d="M0 0 C19.87733367 16.60545967 35.35228719 40.39694962 38.73535156 66.44970703 C40.23115285 92.60134826 34.97827024 117.69835579 17.23535156 137.76220703 C15.74354404 139.33253074 14.24397432 140.89553084 12.73535156 142.44970703 C12.12304688 143.13548828 11.51074219 143.82126953 10.87988281 144.52783203 C-7.80249789 164.76375825 -36.9176308 170.25478093 -63.24121094 171.60205078 C-65.92556685 171.63854505 -68.58245317 171.56345266 -71.26464844 171.44970703 C-72.46476562 171.42005859 -73.66488281 171.39041016 -74.90136719 171.35986328 C-109.59923191 170.18780904 -145.07679632 159.03259509 -169.89746094 133.77001953 C-179.36252881 123.08925487 -185.5734038 110.20964373 -189.26464844 96.44970703 C-189.62171875 95.17998047 -189.97878906 93.91025391 -190.34667969 92.60205078 C-191.70430887 86.33541725 -191.60007331 79.97504487 -191.58032227 73.59326172 C-191.57715442 71.4537491 -191.60071838 69.31561295 -191.62597656 67.17626953 C-191.66197491 59.75127398 -191.34821934 53.2704547 -188.26464844 46.44970703 C-187.96776123 45.74185059 -187.67087402 45.03399414 -187.36499023 44.3046875 C-186.4367204 42.14285667 -185.45823663 40.01384999 -184.45214844 37.88720703 C-183.92874878 36.77587402 -183.92874878 36.77587402 -183.39477539 35.64208984 C-181.19980602 31.09454297 -178.86890002 26.96246249 -175.58886719 23.09033203 C-174.15687258 21.40887641 -174.15687258 21.40887641 -172.95214844 19.11767578 C-170.87689663 15.83666424 -168.33107902 13.21626937 -165.57714844 10.51220703 C-165.04041504 9.98224121 -164.50368164 9.45227539 -163.95068359 8.90625 C-157.78274038 2.89745563 -151.2350961 -1.73774741 -143.79199219 -6.05810547 C-142.21602075 -6.98858629 -140.6611593 -7.95706465 -139.14355469 -8.97998047 C-97.33493359 -36.55429385 -38.35360107 -30.65440588 0 0 Z M-144.26464844 22.44970703 C-145.01875 23.12001953 -145.77285156 23.79033203 -146.54980469 24.48095703 C-157.40251339 34.66481093 -164.90676086 46.96701062 -165.50292969 62.03173828 C-165.94737857 83.02943412 -161.87788898 101.84948361 -148.26464844 118.44970703 C-147.75546875 119.07361328 -147.24628906 119.69751953 -146.72167969 120.34033203 C-130.34511029 138.35876829 -103.30614216 147.25790368 -79.76464844 148.59130859 C-54.24726579 149.68203005 -26.60691782 145.5908412 -5.95214844 129.32470703 C5.8251688 118.21966794 11.33765395 101.5421871 11.95800781 85.73095703 C12.55425245 61.53947736 3.36550149 42.28437246 -12.96972656 24.60424805 C-28.11684996 9.08681514 -51.24165654 -3.27644409 -73.17553711 -3.8425293 C-100.07373932 -4.08870316 -124.3756886 4.40444364 -144.26464844 22.44970703 Z " fill="#010001" transform="translate(2564.2646484375,1727.55029296875)"/>
<path d="M0 0 C5.64676291 2.07770283 9.13842619 6.89669263 12.10546875 11.88671875 C13.41306208 17.50937008 13.73933267 22.63122157 11.04296875 27.82421875 C10.27984375 28.73171875 9.51671875 29.63921875 8.73046875 30.57421875 C7.98796875 31.60546875 7.24546875 32.63671875 6.48046875 33.69921875 C1.34436035 39.06878662 -3.20461597 40.81286361 -10.64453125 41.13671875 C-18.39424408 40.88469557 -24.10165214 38.43303649 -29.83203125 33.26171875 C-32.13608968 28.95413125 -32.80704728 25.08115826 -31.79296875 20.3515625 C-30.01079558 14.95608219 -30.01079558 14.95608219 -27.20703125 13.51171875 C-26.56765625 13.20234375 -25.92828125 12.89296875 -25.26953125 12.57421875 C-24.96015625 11.48109375 -24.65078125 10.38796875 -24.33203125 9.26171875 C-23.11483888 5.03734523 -21.57748419 3.38597875 -18.26953125 0.57421875 C-13.24621265 -1.93744055 -5.41074172 -1.01509612 0 0 Z " fill="#020002" transform="translate(2415.26953125,1342.42578125)"/>
<path d="M0 0 C2.42154065 0.84341151 4.8355406 1.70873431 7.2421875 2.59375 C8.5162266 3.04818719 9.79056259 3.50179284 11.06518555 3.95458984 C20.97228065 7.51239035 30.62657159 11.54536915 40.1171875 16.09375 C40.1171875 19.09375 40.1171875 19.09375 38.7265625 20.8125 C38.11296875 21.4003125 37.499375 21.988125 36.8671875 22.59375 C36.26390625 23.1815625 35.660625 23.769375 35.0390625 24.375 C29.81231254 29.04932923 29.81231254 29.04932923 26.85546875 29.23828125 C25.65470703 29.07392578 25.65470703 29.07392578 24.4296875 28.90625 C23.64207031 28.80957031 22.85445312 28.71289062 22.04296875 28.61328125 C19.61353002 28.18188559 17.26339972 27.64852836 14.8671875 27.0703125 C10.16006121 26.00381985 5.61520413 25.77647581 0.8046875 25.65625 C-9.02072161 25.26200582 -19.0682736 24.67441434 -26.8828125 18.09375 C-29.35970249 14.37841502 -29.52786824 11.99601582 -29.4765625 7.609375 C-28.54334446 3.65547751 -26.14370455 2.24983404 -22.828125 0.15234375 C-15.61088716 -3.77510897 -7.61227623 -2.39824174 0 0 Z " fill="#F900FB" transform="translate(2232.8828125,1209.90625)"/>
<path d="M0 0 C4.68468793 2.82790449 9.12814428 6.28195132 12 11 C13.04116252 17.09386299 12.1382763 22.66493028 9 28 C3.35794607 33.77326448 -2.57552368 36.10984153 -10.625 36.4375 C-16.64334606 36.23025668 -19.65845129 34.42092324 -23.84375 30.09375 C-28.51708277 24.96074516 -31.52781282 21.27288195 -31.3125 14.01953125 C-30.5541336 9.1185884 -26.74700414 4.9434518 -22.984375 1.8984375 C-19.3443108 0.25037694 -15.52608857 0.70752749 -11.609375 0.921875 C-7.41884875 1.04733986 -4.50115902 -0.57157575 0 0 Z " fill="#020002" transform="translate(2573,1352)"/>
<path d="M0 0 C0.66 0 1.32 0 2 0 C3.45500399 2.91000797 3.20897384 5.5089333 3.25 8.75 C3.27578125 9.96171875 3.3015625 11.1734375 3.328125 12.421875 C2.97479348 16.2748711 1.93394605 18.68175572 0 22 C1.43146378 22.41713515 2.87058886 22.8080497 4.3125 23.1875 C5.11300781 23.40792969 5.91351562 23.62835937 6.73828125 23.85546875 C7.48464844 23.90316406 8.23101563 23.95085937 9 24 C10.53648558 22.65132179 10.53648558 22.65132179 12 21 C14.33984375 20.05078125 14.33984375 20.05078125 16.9375 19.3125 C17.79214844 19.06113281 18.64679687 18.80976562 19.52734375 18.55078125 C22 18 22 18 26 18 C26.54233189 21.68785682 26.03130501 22.95256816 23.9375 26.125 C20.99706271 29.36616384 18.13952391 30.64524672 14 32 C12.68 32 11.36 32 10 32 C10.10441406 33.06927734 10.10441406 33.06927734 10.2109375 34.16015625 C10.49645584 39.21111168 10.70454976 42.96812333 7.375 47 C3.55766197 50.72793901 0.00830314 52.6968599 -5.3125 53.5 C-11.49139471 52.66218377 -16.22003937 49.86895866 -20.5 45.375 C-23.14945989 41.18002184 -23.31527302 37.88673176 -23 33 C-21.79821662 27.75987101 -20.44943626 23.33707719 -16 20 C-12.52674819 18.8422494 -9.63932552 18.93133348 -6 19 C-6.04640625 18.443125 -6.0928125 17.88625 -6.140625 17.3125 C-6.42660955 11.26596947 -5.33251708 7.07175045 -2 2 C-1.34 1.34 -0.68 0.68 0 0 Z " fill="#030003" transform="translate(2574,1239)"/>
<path d="M0 0 C1.765625 0.07421875 1.765625 0.07421875 4 1 C5.45153311 3.28055914 6.61299299 5.38477044 7.75 7.8125 C8.06582031 8.44220703 8.38164062 9.07191406 8.70703125 9.72070312 C10.35760853 13.12546534 11 15.14599796 11 19 C12.299375 18.87625 12.299375 18.87625 13.625 18.75 C18.00591556 19.07451226 19.68731363 20.11020976 23 23 C25.78113909 26.84687743 27.7345085 30.49554815 28.5625 35.1875 C27.65874181 39.70629094 25.7707872 42.67458181 22.05859375 45.453125 C16.6175396 48.94020943 11.61353232 51.20142023 5 50 C-0.68272968 47.30769036 -5.24371645 43.75224392 -8 38 C-8.25 34.625 -8.25 34.625 -8 32 C-8.721875 31.773125 -9.44375 31.54625 -10.1875 31.3125 C-13.59474093 29.72245423 -15.48059012 27.77781089 -18 25 C-18.78375 24.154375 -19.5675 23.30875 -20.375 22.4375 C-22 20 -22 20 -21.6015625 17.84765625 C-21.40304688 17.23792969 -21.20453125 16.62820313 -21 16 C-14.31417237 16.95308607 -9.00654681 18.72500142 -3.12890625 22.07421875 C-0.88373544 23.33253277 -0.88373544 23.33253277 2 22 C1.40054462 18.05793545 1.40054462 18.05793545 0.46875 14.1875 C-0.14136233 11.34030915 -0.09411767 8.65882572 -0.0625 5.75 C-0.05347656 4.67234375 -0.04445313 3.5946875 -0.03515625 2.484375 C-0.02355469 1.66453125 -0.01195313 0.8446875 0 0 Z " fill="#030003" transform="translate(2366,1237)"/>
<path d="M0 0 C2.38125912 2.38125912 2.34521641 3.10707538 2.4375 6.375 C2.49744141 7.53128906 2.49744141 7.53128906 2.55859375 8.7109375 C1.72380241 12.13183069 -0.11225974 13.09744185 -3 15 C-12.62005418 19.77439726 -23.25514711 21.37094855 -33.76049805 23.03686523 C-43.70122974 24.73344653 -49.96412541 27.88929352 -56 36 C-58.95409701 34.62845496 -61.44008376 33.01136276 -64 31 C-63.85172756 26.10700955 -61.34506747 24.06624758 -58.04370117 20.86157227 C-54.74914826 17.86062065 -51.25311487 15.16887099 -47.6875 12.5 C-46.94056885 11.93684082 -46.1936377 11.37368164 -45.42407227 10.79345703 C-43.28781905 9.18866193 -41.14478748 7.59336073 -39 6 C-37.99453125 5.24460937 -36.9890625 4.48921875 -35.953125 3.7109375 C-24.42000156 -4.70609358 -13.12795368 -7.03925501 0 0 Z " fill="#F800FA" transform="translate(2766,1191)"/>
<path d="M0 0 C0.02903892 4.08331839 0.04681189 8.1666102 0.0625 12.25 C0.07087891 13.40886719 0.07925781 14.56773438 0.08789062 15.76171875 C0.09272461 17.43427734 0.09272461 17.43427734 0.09765625 19.140625 C0.10551147 20.68024902 0.10551147 20.68024902 0.11352539 22.25097656 C0.01165865 24.71768527 -0.08017473 26.71015909 -1 29 C-4.14519522 30.04839841 -6.57035023 30.23421029 -9.875 30.3125 C-10.90367187 30.34988281 -11.93234375 30.38726563 -12.9921875 30.42578125 C-16.89105043 29.87386429 -18.2927532 28.85565069 -21 26 C-22.50044193 23.42674565 -23.63547857 20.75881538 -24.75 18 C-25.05292969 17.2884375 -25.35585937 16.576875 -25.66796875 15.84375 C-27.03601108 12.58476915 -28.20058506 9.4495041 -29 6 C-28.14019531 5.90203125 -27.28039063 5.8040625 -26.39453125 5.703125 C-18.76686257 4.73822907 -11.85507924 3.24669721 -4.546875 0.8046875 C-2 0 -2 0 0 0 Z " fill="#F8F8F8" transform="translate(2429,1421)"/>
<path d="M0 0 C2.95825208 0.97731884 5.90569614 1.96553031 8.83203125 3.03515625 C17.91173527 6.16485764 26.49092635 6.77223776 36 7 C35.69320312 7.90363281 35.38640625 8.80726562 35.0703125 9.73828125 C34.47459294 11.553704 33.90300158 13.37935683 33.4296875 15.23046875 C32.2488117 19.39679816 31.48489041 20.71265753 27.625 23 C22.0089147 24.5971395 15.7441201 24.96495139 10 24 C5.74067892 21.02608117 4.42392303 16.71431383 2.75 12 C2.481875 11.2884375 2.21375 10.576875 1.9375 9.84375 C0.65580928 6.33871822 0 3.77221652 0 0 Z " fill="#F7F7F7" transform="translate(2537,1421)"/>
<path d="M0 0 C-0.33 4.29 -0.66 8.58 -1 13 C-1.33 13 -1.66 13 -2 13 C-2 9.37 -2 5.74 -2 2 C-2.66 1.67 -3.32 1.34 -4 1 C-2 0 -2 0 0 0 Z " fill="#DCDBDB" transform="translate(2429,1421)"/>
</svg>
