<?xml version="1.0" encoding="UTF-8"?>
<svg version="1.1" xmlns="http://www.w3.org/2000/svg" width="3840" height="2160">
<path d="M0 0 C0.76464569 -0.00423477 1.52929138 -0.00846954 2.31710815 -0.01283264 C4.82083567 -0.0227632 7.3243811 -0.02273669 9.828125 -0.01953125 C10.6913739 -0.018927 11.5546228 -0.01832275 12.44403076 -0.0177002 C86.23764939 0.12160677 86.23764939 0.12160677 110.703125 12.23046875 C117.65129346 15.50210052 123.12240731 17.08901074 130.765625 17.48046875 C136.95900237 17.87887314 142.79763169 19.09660296 148.828125 20.54296875 C150.14043091 20.85681519 150.14043091 20.85681519 151.47924805 21.17700195 C155.59236052 22.19507601 159.61664304 23.31614518 163.62109375 24.703125 C168.22966049 26.28066897 172.87142481 27.26829281 177.640625 28.23046875 C188.04293524 30.42627686 198.38204425 32.8605072 208.70529175 35.39987183 C210.42268045 35.82096127 212.14101768 36.23820524 213.86038208 36.65115356 C257.05796731 47.04663987 257.05796731 47.04663987 267.078125 62.16796875 C270.50689122 68.25605366 273.5283704 74.5961534 276.30859375 81.00390625 C286.16026082 102.98343784 310.83486303 116.24735301 330.40234375 128.21508789 C342.44437182 135.58944116 354.30225282 142.9931861 365.078125 152.16796875 C366.37556641 153.24691406 366.37556641 153.24691406 367.69921875 154.34765625 C373.24592257 159.11139296 377.4928192 163.79409177 381.078125 170.16796875 C381.86509766 171.56015625 381.86509766 171.56015625 382.66796875 172.98046875 C386.33078694 179.85832784 388.57604885 186.53428324 390.078125 194.16796875 C390.305 195.28171875 390.531875 196.39546875 390.765625 197.54296875 C392.43750685 216.93679821 387.13683156 234.1270645 381.78662109 252.54345703 C378.34842863 265.27969721 379.00751207 276.51298131 385.078125 288.16796875 C385.99777195 289.98926955 386.91731577 291.81062352 387.8347168 293.63305664 C388.50314882 294.9602285 389.17392854 296.28622027 389.84692383 297.61108398 C409.3989842 336.43725653 414.38033422 370.40045911 405.95703125 412.828125 C402.37800972 430.86678061 402.12810876 446.0678691 405.078125 464.16796875 C412.45037095 509.62167828 410.50419086 544.41389314 387.015625 584.73046875 C375.76275661 604.12755242 370.21375851 622.47801189 368.35357666 644.77478027 C365.70849946 676.05325408 362.51250755 707.29992095 347.078125 735.16796875 C346.46195313 736.31265625 345.84578125 737.45734375 345.2109375 738.63671875 C339.74409265 748.52694428 333.43509224 757.8341518 327.078125 767.16796875 C326.49611328 768.02455078 325.91410156 768.88113281 325.31445312 769.76367188 C322.20118151 774.3447723 319.08069975 778.92084068 315.953125 783.4921875 C313.33585937 787.31940868 310.73296436 791.15585391 308.140625 795 C301.40650453 804.9708837 294.61909759 814.78741634 287.078125 824.16796875 C286.33304688 825.10511719 285.58796875 826.04226563 284.8203125 827.0078125 C280.21679955 832.72611343 275.39655624 838.20055042 270.42578125 843.6015625 C268.37488402 845.84355831 266.37334967 848.11587904 264.390625 850.41796875 C261.56273205 853.68247225 258.56956999 856.7255442 255.4609375 859.72265625 C253.96958015 861.13906652 253.96958015 861.13906652 253.078125 863.16796875 C252.418125 863.16796875 251.758125 863.16796875 251.078125 863.16796875 C250.748125 864.15796875 250.418125 865.14796875 250.078125 866.16796875 C249.418125 866.16796875 248.758125 866.16796875 248.078125 866.16796875 C247.86285156 866.71582031 247.64757813 867.26367188 247.42578125 867.828125 C245.61889914 870.96529134 243.16846624 873.19589075 240.515625 875.60546875 C239.9469873 876.1247998 239.37834961 876.64413086 238.79248047 877.17919922 C231.5864319 883.64666164 223.90557708 889.47846805 216.078125 895.16796875 C215.46775391 895.61382324 214.85738281 896.05967773 214.22851562 896.51904297 C196.06109289 909.63043768 175.86519483 918.39414718 154.94580078 926.10986328 C136.84021541 932.79040193 119.9004046 941.66377451 103 950.9453125 C68.78977011 969.63667951 33.04043517 976.8972598 -5.04394531 982.92486572 C-7.35473414 983.29138215 -9.66497332 983.66138327 -11.97460938 984.03509521 C-27.18404468 986.48431026 -41.42217496 988.30377056 -56.80273438 986.30360413 C-66.92080431 985.01159871 -75.8055862 985.64176838 -85.8203125 987.46795654 C-89.23390146 988.08823433 -92.65688224 988.64644369 -96.0803833 989.20895386 C-97.76566928 989.48623476 -99.450537 989.76607133 -101.13494873 990.0486145 C-148.36230278 997.96614503 -207.28174181 995.25565855 -248.02734375 967.015625 C-271.84343373 948.32410058 -283.12011937 920.79513463 -286.70799255 891.34144592 C-287.06176297 887.74642479 -287.12380659 884.1611108 -287.16015625 880.55078125 C-287.1746431 879.34072922 -287.1746431 879.34072922 -287.18942261 878.10623169 C-287.21417237 875.50176346 -287.22681295 872.89754183 -287.234375 870.29296875 C-287.23880112 868.95921204 -287.23880112 868.95921204 -287.24331665 867.59851074 C-287.25721539 849.15841143 -285.24436205 831.75393073 -280.58056641 813.87353516 C-279.96678859 811.35245076 -279.50789686 808.85557322 -279.109375 806.29296875 C-276.03140381 790.87848904 -266.13918992 774.09094205 -252.921875 765.16796875 C-251.59136325 764.8235455 -250.25855683 764.48761006 -248.921875 764.16796875 C-248.22081657 762.51547388 -247.56387149 760.84429292 -246.921875 759.16796875 C-240.36006497 747.85931743 -228.00228361 742.94719671 -215.9609375 739.26171875 C-198.78686102 735.02120604 -180.50434138 735.2125308 -162.91210938 734.47265625 C-99.99016075 731.81268258 -35.17884665 718.39725393 12.19140625 673.8671875 C14.88180737 671.35153503 17.62434503 668.91194933 20.390625 666.48046875 C24.00199809 663.23772067 27.26603618 659.87847122 30.38671875 656.1640625 C31.51233042 654.83568475 32.67183303 653.53528646 33.86328125 652.265625 C40.77563906 644.87067958 46.35665044 636.49076504 52.078125 628.16796875 C51.00369141 628.1836792 49.92925781 628.19938965 48.82226562 628.21557617 C-42.66658658 629.42947979 -140.84586765 603.57067842 -224.3125 537.3828125 C-226.90538132 535.09552102 -226.90538132 535.09552102 -229.921875 533.16796875 C-230.37457764 534.58106323 -230.37457764 534.58106323 -230.83642578 536.02270508 C-231.97711732 539.57308961 -233.13249612 543.11855859 -234.29199219 546.6628418 C-234.78841935 548.18696309 -235.2810449 549.71232879 -235.76953125 551.23901367 C-244.74999141 579.2753478 -244.74999141 579.2753478 -257.66503906 586.08740234 C-265.97641929 590.06698569 -274.11149145 593.07243786 -283.296875 590.16796875 C-308.12074611 580.88012582 -327.95977746 547.86383232 -338.59301758 524.87402344 C-345.33616283 509.44154879 -345.73784098 497.29255955 -340.2734375 481.390625 C-338.03182676 476.0457439 -335.1672475 474.47593265 -329.921875 472.16796875 C-325.57674574 471.02737232 -321.26186277 470.97699868 -316.796875 470.98046875 C-316.04349854 470.97909912 -315.29012207 470.97772949 -314.51391602 470.97631836 C-309.25865149 471.02183065 -304.3969912 471.6864221 -299.25390625 472.7890625 C-296.45850269 473.24325705 -293.94429785 472.9519674 -291.16455078 472.45947266 C-288.15293164 472.06802118 -285.19965423 472.10991006 -282.1640625 472.12890625 C-280.99472168 472.1345459 -279.82538086 472.14018555 -278.62060547 472.14599609 C-277.73002441 472.15324707 -276.83944336 472.16049805 -275.921875 472.16796875 C-276.24873291 471.46003174 -276.57559082 470.75209473 -276.91235352 470.02270508 C-295.44692413 429.67163796 -305.06941426 387.67229851 -305.921875 343.16796875 C-305.94233887 342.37165039 -305.96280273 341.57533203 -305.98388672 340.75488281 C-307.35441549 282.37715336 -291.14519337 222.51575384 -257.921875 174.16796875 C-257.5196875 173.58176758 -257.1175 172.99556641 -256.703125 172.39160156 C-248.72819316 160.84664164 -239.9781756 150.14744212 -230.40234375 139.89453125 C-227.89316994 137.21048126 -227.89316994 137.21048126 -225.72265625 134.31640625 C-225.12839844 133.60742188 -224.53414062 132.8984375 -223.921875 132.16796875 C-223.261875 132.16796875 -222.601875 132.16796875 -221.921875 132.16796875 C-221.921875 131.50796875 -221.921875 130.84796875 -221.921875 130.16796875 C-221.261875 130.16796875 -220.601875 130.16796875 -219.921875 130.16796875 C-219.921875 129.50796875 -219.921875 128.84796875 -219.921875 128.16796875 C-218.5234375 126.7578125 -218.5234375 126.7578125 -216.546875 125.10546875 C-213.50644723 122.53320373 -210.57145054 119.89728452 -207.671875 117.16796875 C-197.20016539 107.72890847 -185.57428925 99.41971078 -173.734375 91.79296875 C-168.5732475 88.46009469 -164.26998565 84.82722496 -160.05078125 80.359375 C-156.02376859 76.21413811 -151.48076926 72.70440006 -146.921875 69.16796875 C-146.2215918 68.62366211 -145.52130859 68.07935547 -144.79980469 67.51855469 C-106.90663197 38.22660655 -61.48865493 10.4512954 -13.921875 1.16796875 C-13.01107178 0.98911133 -12.10026855 0.81025391 -11.16186523 0.62597656 C-7.42845293 0.09821818 -3.7617834 0.00639245 0 0 Z M348.078125 169.16796875 C349.84625514 174.79383738 353.24573344 177.94637438 358.078125 181.16796875 C356.63818857 177.95524626 354.84794128 175.54730235 352.515625 172.91796875 C351.89558594 172.2115625 351.27554688 171.50515625 350.63671875 170.77734375 C350.12238281 170.24625 349.60804688 169.71515625 349.078125 169.16796875 C348.748125 169.16796875 348.418125 169.16796875 348.078125 169.16796875 Z M360.078125 225.16796875 C359.418125 226.48796875 358.758125 227.80796875 358.078125 229.16796875 C358.738125 229.82796875 359.398125 230.48796875 360.078125 231.16796875 C360.408125 229.18796875 360.738125 227.20796875 361.078125 225.16796875 C360.748125 225.16796875 360.418125 225.16796875 360.078125 225.16796875 Z M-34.921875 279.16796875 C-36.10136719 280.18503906 -36.10136719 280.18503906 -37.3046875 281.22265625 C-49.05283283 292.09466871 -56.68661973 307.76241159 -58.16015625 323.75390625 C-58.54621844 338.26171714 -54.19330388 352.44796173 -44.546875 363.35546875 C-43.01291311 364.96700457 -41.47185953 366.57183757 -39.921875 368.16796875 C-39.40238281 368.7609375 -38.88289063 369.35390625 -38.34765625 369.96484375 C-23.23496652 386.62450172 -2.27772121 392.86369221 19.12158203 396.64404297 C21.01887397 396.98026002 22.91349971 397.33211098 24.80419922 397.70361328 C33.48746034 399.38313231 40.06768076 400.59736614 47.890625 395.66796875 C48.90511719 394.91515625 49.91960938 394.16234375 50.96484375 393.38671875 C54.27738681 391.02596033 57.42119728 389.64304348 61.203125 388.16796875 C72.90277274 383.30611513 81.47869694 376.76301082 87.078125 365.16796875 C88.91573452 359.95210194 90.05435707 354.59336039 91.078125 349.16796875 C91.26761719 348.20503906 91.45710938 347.24210937 91.65234375 346.25 C94.2887546 327.16625539 89.79214425 311.056263 79.078125 295.16796875 C76.26283763 291.63068857 73.25256697 288.3828863 70.078125 285.16796875 C69.50449219 284.53375 68.93085938 283.89953125 68.33984375 283.24609375 C58.40791649 272.53193833 44.4329912 265.96755839 30.078125 264.16796875 C29.25570312 264.05710937 28.43328125 263.94625 27.5859375 263.83203125 C6.02310604 261.28307034 -18.19111743 264.30227923 -34.921875 279.16796875 Z M67.078125 591.16796875 C66.418125 591.82796875 65.758125 592.48796875 65.078125 593.16796875 C60.49125462 595.11738866 56.06755401 595.56186707 51.15234375 595.921875 C49.09022784 595.94957516 49.09022784 595.94957516 48.078125 597.16796875 C46.39628552 597.40083883 44.7068834 597.58061041 43.015625 597.73046875 C42.09652344 597.81425781 41.17742188 597.89804688 40.23046875 597.984375 C39.52019531 598.04496094 38.80992187 598.10554688 38.078125 598.16796875 C38.078125 598.49796875 38.078125 598.82796875 38.078125 599.16796875 C50.07133333 599.76514095 61.5639953 599.46233823 71.078125 591.16796875 C69.758125 591.16796875 68.438125 591.16796875 67.078125 591.16796875 Z " fill="#00DBD9" transform="translate(3181.921875,1160.83203125)"/>
<path d="M0 0 C0.76464569 -0.00423477 1.52929138 -0.00846954 2.31710815 -0.01283264 C4.82083567 -0.0227632 7.3243811 -0.02273669 9.828125 -0.01953125 C10.6913739 -0.018927 11.5546228 -0.01832275 12.44403076 -0.0177002 C86.23764939 0.12160677 86.23764939 0.12160677 110.703125 12.23046875 C117.65129346 15.50210052 123.12240731 17.08901074 130.765625 17.48046875 C136.95900237 17.87887314 142.79763169 19.09660296 148.828125 20.54296875 C150.14043091 20.85681519 150.14043091 20.85681519 151.47924805 21.17700195 C155.59236052 22.19507601 159.61664304 23.31614518 163.62109375 24.703125 C168.22966049 26.28066897 172.87142481 27.26829281 177.640625 28.23046875 C188.04293524 30.42627686 198.38204425 32.8605072 208.70529175 35.39987183 C210.42268045 35.82096127 212.14101768 36.23820524 213.86038208 36.65115356 C257.05796731 47.04663987 257.05796731 47.04663987 267.078125 62.16796875 C270.50689122 68.25605366 273.5283704 74.5961534 276.30859375 81.00390625 C286.16026082 102.98343784 310.83486303 116.24735301 330.40234375 128.21508789 C342.44437182 135.58944116 354.30225282 142.9931861 365.078125 152.16796875 C366.37556641 153.24691406 366.37556641 153.24691406 367.69921875 154.34765625 C373.24592257 159.11139296 377.4928192 163.79409177 381.078125 170.16796875 C381.86509766 171.56015625 381.86509766 171.56015625 382.66796875 172.98046875 C386.33078694 179.85832784 388.57604885 186.53428324 390.078125 194.16796875 C390.305 195.28171875 390.531875 196.39546875 390.765625 197.54296875 C392.43750685 216.93679821 387.13683156 234.1270645 381.78662109 252.54345703 C378.34842863 265.27969721 379.00751207 276.51298131 385.078125 288.16796875 C385.99777195 289.98926955 386.91731577 291.81062352 387.8347168 293.63305664 C388.50314882 294.9602285 389.17392854 296.28622027 389.84692383 297.61108398 C409.3989842 336.43725653 414.38033422 370.40045911 405.95703125 412.828125 C402.37800972 430.86678061 402.12810876 446.0678691 405.078125 464.16796875 C412.45037095 509.62167828 410.50419086 544.41389314 387.015625 584.73046875 C375.76275661 604.12755242 370.21375851 622.47801189 368.35357666 644.77478027 C365.70849946 676.05325408 362.51250755 707.29992095 347.078125 735.16796875 C346.46195313 736.31265625 345.84578125 737.45734375 345.2109375 738.63671875 C339.74409265 748.52694428 333.43509224 757.8341518 327.078125 767.16796875 C326.49611328 768.02455078 325.91410156 768.88113281 325.31445312 769.76367188 C322.20118151 774.3447723 319.08069975 778.92084068 315.953125 783.4921875 C313.33585937 787.31940868 310.73296436 791.15585391 308.140625 795 C301.40650453 804.9708837 294.61909759 814.78741634 287.078125 824.16796875 C286.33304688 825.10511719 285.58796875 826.04226563 284.8203125 827.0078125 C280.21679955 832.72611343 275.39655624 838.20055042 270.42578125 843.6015625 C268.37488402 845.84355831 266.37334967 848.11587904 264.390625 850.41796875 C261.56273205 853.68247225 258.56956999 856.7255442 255.4609375 859.72265625 C253.96958015 861.13906652 253.96958015 861.13906652 253.078125 863.16796875 C252.418125 863.16796875 251.758125 863.16796875 251.078125 863.16796875 C250.748125 864.15796875 250.418125 865.14796875 250.078125 866.16796875 C249.418125 866.16796875 248.758125 866.16796875 248.078125 866.16796875 C247.86285156 866.71582031 247.64757813 867.26367188 247.42578125 867.828125 C245.61889914 870.96529134 243.16846624 873.19589075 240.515625 875.60546875 C239.9469873 876.1247998 239.37834961 876.64413086 238.79248047 877.17919922 C231.5864319 883.64666164 223.90557708 889.47846805 216.078125 895.16796875 C215.46775391 895.61382324 214.85738281 896.05967773 214.22851562 896.51904297 C196.06109289 909.63043768 175.86519483 918.39414718 154.94580078 926.10986328 C136.84021541 932.79040193 119.9004046 941.66377451 103 950.9453125 C68.78977011 969.63667951 33.04043517 976.8972598 -5.04394531 982.92486572 C-7.35473414 983.29138215 -9.66497332 983.66138327 -11.97460938 984.03509521 C-27.18404468 986.48431026 -41.42217496 988.30377056 -56.80273438 986.30360413 C-66.92080431 985.01159871 -75.8055862 985.64176838 -85.8203125 987.46795654 C-89.23390146 988.08823433 -92.65688224 988.64644369 -96.0803833 989.20895386 C-97.76566928 989.48623476 -99.450537 989.76607133 -101.13494873 990.0486145 C-148.36230278 997.96614503 -207.28174181 995.25565855 -248.02734375 967.015625 C-271.84343373 948.32410058 -283.12011937 920.79513463 -286.70799255 891.34144592 C-287.06176297 887.74642479 -287.12380659 884.1611108 -287.16015625 880.55078125 C-287.1746431 879.34072922 -287.1746431 879.34072922 -287.18942261 878.10623169 C-287.21417237 875.50176346 -287.22681295 872.89754183 -287.234375 870.29296875 C-287.23880112 868.95921204 -287.23880112 868.95921204 -287.24331665 867.59851074 C-287.25721539 849.15841143 -285.24436205 831.75393073 -280.58056641 813.87353516 C-279.96678859 811.35245076 -279.50789686 808.85557322 -279.109375 806.29296875 C-276.03140381 790.87848904 -266.13918992 774.09094205 -252.921875 765.16796875 C-251.59136325 764.8235455 -250.25855683 764.48761006 -248.921875 764.16796875 C-248.22081657 762.51547388 -247.56387149 760.84429292 -246.921875 759.16796875 C-240.36006497 747.85931743 -228.00228361 742.94719671 -215.9609375 739.26171875 C-198.78686102 735.02120604 -180.50434138 735.2125308 -162.91210938 734.47265625 C-99.99016075 731.81268258 -35.17884665 718.39725393 12.19140625 673.8671875 C14.88180737 671.35153503 17.62434503 668.91194933 20.390625 666.48046875 C24.00199809 663.23772067 27.26603618 659.87847122 30.38671875 656.1640625 C31.51233042 654.83568475 32.67183303 653.53528646 33.86328125 652.265625 C40.77563906 644.87067958 46.35665044 636.49076504 52.078125 628.16796875 C51.00369141 628.1836792 49.92925781 628.19938965 48.82226562 628.21557617 C-42.66658658 629.42947979 -140.84586765 603.57067842 -224.3125 537.3828125 C-226.90538132 535.09552102 -226.90538132 535.09552102 -229.921875 533.16796875 C-230.37457764 534.58106323 -230.37457764 534.58106323 -230.83642578 536.02270508 C-231.97711732 539.57308961 -233.13249612 543.11855859 -234.29199219 546.6628418 C-234.78841935 548.18696309 -235.2810449 549.71232879 -235.76953125 551.23901367 C-244.74999141 579.2753478 -244.74999141 579.2753478 -257.66503906 586.08740234 C-265.97641929 590.06698569 -274.11149145 593.07243786 -283.296875 590.16796875 C-308.12074611 580.88012582 -327.95977746 547.86383232 -338.59301758 524.87402344 C-345.33616283 509.44154879 -345.73784098 497.29255955 -340.2734375 481.390625 C-338.03182676 476.0457439 -335.1672475 474.47593265 -329.921875 472.16796875 C-325.57674574 471.02737232 -321.26186277 470.97699868 -316.796875 470.98046875 C-316.04349854 470.97909912 -315.29012207 470.97772949 -314.51391602 470.97631836 C-309.25865149 471.02183065 -304.3969912 471.6864221 -299.25390625 472.7890625 C-296.45850269 473.24325705 -293.94429785 472.9519674 -291.16455078 472.45947266 C-288.15293164 472.06802118 -285.19965423 472.10991006 -282.1640625 472.12890625 C-280.99472168 472.1345459 -279.82538086 472.14018555 -278.62060547 472.14599609 C-277.73002441 472.15324707 -276.83944336 472.16049805 -275.921875 472.16796875 C-276.24873291 471.46003174 -276.57559082 470.75209473 -276.91235352 470.02270508 C-295.44692413 429.67163796 -305.06941426 387.67229851 -305.921875 343.16796875 C-305.94233887 342.37165039 -305.96280273 341.57533203 -305.98388672 340.75488281 C-307.35441549 282.37715336 -291.14519337 222.51575384 -257.921875 174.16796875 C-257.5196875 173.58176758 -257.1175 172.99556641 -256.703125 172.39160156 C-248.72819316 160.84664164 -239.9781756 150.14744212 -230.40234375 139.89453125 C-227.89316994 137.21048126 -227.89316994 137.21048126 -225.72265625 134.31640625 C-225.12839844 133.60742188 -224.53414062 132.8984375 -223.921875 132.16796875 C-223.261875 132.16796875 -222.601875 132.16796875 -221.921875 132.16796875 C-221.921875 131.50796875 -221.921875 130.84796875 -221.921875 130.16796875 C-221.261875 130.16796875 -220.601875 130.16796875 -219.921875 130.16796875 C-219.921875 129.50796875 -219.921875 128.84796875 -219.921875 128.16796875 C-218.5234375 126.7578125 -218.5234375 126.7578125 -216.546875 125.10546875 C-213.50644723 122.53320373 -210.57145054 119.89728452 -207.671875 117.16796875 C-197.20016539 107.72890847 -185.57428925 99.41971078 -173.734375 91.79296875 C-168.5732475 88.46009469 -164.26998565 84.82722496 -160.05078125 80.359375 C-156.02376859 76.21413811 -151.48076926 72.70440006 -146.921875 69.16796875 C-146.2215918 68.62366211 -145.52130859 68.07935547 -144.79980469 67.51855469 C-106.90663197 38.22660655 -61.48865493 10.4512954 -13.921875 1.16796875 C-13.01107178 0.98911133 -12.10026855 0.81025391 -11.16186523 0.62597656 C-7.42845293 0.09821818 -3.7617834 0.00639245 0 0 Z M-120.921875 94.16796875 C-121.76959473 94.56306641 -122.61731445 94.95816406 -123.49072266 95.36523438 C-143.44418165 104.72356363 -161.82410656 116.27167022 -178.921875 130.16796875 C-179.51484375 130.64524414 -180.1078125 131.12251953 -180.71875 131.61425781 C-195.06182985 143.23570596 -208.83049105 156.37945681 -219.921875 171.16796875 C-220.33953125 171.71453125 -220.7571875 172.26109375 -221.1875 172.82421875 C-228.37659786 182.24441595 -234.83504721 192.00572169 -240.921875 202.16796875 C-241.30053711 202.78687988 -241.67919922 203.40579102 -242.06933594 204.04345703 C-258.28612588 230.64715015 -266.98099854 260.61416038 -271.921875 291.16796875 C-272.12103516 292.36341309 -272.12103516 292.36341309 -272.32421875 293.58300781 C-277.69623918 327.36939474 -274.43849379 365.04015549 -266.921875 398.16796875 C-266.73898926 398.99796387 -266.55610352 399.82795898 -266.36767578 400.68310547 C-256.950407 442.93508918 -235.56001579 483.27584489 -201.921875 511.16796875 C-200.89634456 512.0640165 -199.87311955 512.96270618 -198.8515625 513.86328125 C-137.20836793 567.98836816 -44.94230327 601.8729489 37.078125 600.16796875 C38.1285498 600.14911621 38.1285498 600.14911621 39.20019531 600.12988281 C51.6038969 599.8435986 62.37677853 597.66387254 73.10546875 591.2578125 C75.95771579 589.68201661 78.93600984 588.99484116 82.078125 588.16796875 C83.70718491 587.46902318 85.33190177 586.75990414 86.953125 586.04296875 C92.77731476 583.65469581 99.04929692 582.93651939 105.078125 585.16796875 C105.408125 586.15796875 105.738125 587.14796875 106.078125 588.16796875 C119.37124453 585.42931796 132.39734622 581.9697057 145.43725586 578.21435547 C148.63760619 577.29383705 151.84103502 576.38468537 155.04492188 575.4765625 C164.33381167 572.82730274 173.59688747 570.12173902 182.73046875 566.97265625 C183.39712051 566.74748322 184.06377228 566.52231018 184.75062561 566.29031372 C190.25525279 564.33143678 194.79371562 562.09458281 198.078125 557.16796875 C197.74759328 552.33223957 196.54124686 548.30986935 194.6796875 543.859375 C194.20015625 542.69986328 193.720625 541.54035156 193.2265625 540.34570312 C192.72382813 539.15267578 192.22109375 537.95964844 191.703125 536.73046875 C190.71521101 534.35715975 189.72820853 531.98347108 188.7421875 529.609375 C188.04851074 527.94479248 188.04851074 527.94479248 187.34082031 526.24658203 C185.83722429 522.5806219 184.43433945 518.89063903 183.078125 515.16796875 C182.418125 515.16796875 181.758125 515.16796875 181.078125 515.16796875 C180.79932495 516.14237915 180.79932495 516.14237915 180.51489258 517.13647461 C179.65148152 520.12954424 178.77118425 523.11740122 177.890625 526.10546875 C177.59865234 527.12705078 177.30667969 528.14863281 177.00585938 529.20117188 C172.60364215 544.01723631 172.60364215 544.01723631 166.91015625 549.10546875 C166.24371094 549.45609375 165.57726563 549.80671875 164.890625 550.16796875 C164.21644531 550.53921875 163.54226563 550.91046875 162.84765625 551.29296875 C162.26371094 551.58171875 161.67976563 551.87046875 161.078125 552.16796875 C160.418125 552.49796875 159.758125 552.82796875 159.078125 553.16796875 C151.25072393 554.40239759 145.87784329 552.71751163 139.27734375 548.515625 C134.91965056 545.31785503 130.81869125 541.867155 126.79760742 538.25683594 C124.03887447 535.78175579 121.54061173 533.56823912 118.078125 532.16796875 C117.62373047 533.29332031 117.62373047 533.29332031 117.16015625 534.44140625 C108.2664475 556.16942086 108.2664475 556.16942086 97.828125 561.48046875 C92.86683373 563.5032771 88.36757601 564.24421351 83.078125 563.16796875 C65.30573836 555.34457596 56.08806426 531.99347335 49.078125 515.16796875 C43.01841239 499.08839332 43.01841239 499.08839332 46.203125 491.48046875 C49.11278644 487.8918863 52.16343654 485.04769048 56.390625 483.10546875 C63.43683477 483.26933409 69.63953172 488.00351664 75.23046875 491.8984375 C77.05110044 493.21192704 77.05110044 493.21192704 79.078125 494.16796875 C79.08223389 493.31154785 79.08634277 492.45512695 79.09057617 491.57275391 C79.11779492 488.34787696 79.16712887 485.12425183 79.23071289 481.89990234 C79.25368904 480.51329997 79.26824005 479.12652813 79.27368164 477.73974609 C79.32122884 467.60853451 80.32843974 459.29262916 87.453125 451.60546875 C91.04929538 449.63613735 92.91181669 449.03570499 97.078125 449.16796875 C110.4428003 453.20521441 119.69784216 464.99997542 128.41796875 475.28125 C131.77040757 479.09119812 135.35666248 482.71802925 139.078125 486.16796875 C139.408125 486.16796875 139.738125 486.16796875 140.078125 486.16796875 C140.06241455 485.5037793 140.0467041 484.83958984 140.03051758 484.15527344 C139.38802262 452.89260713 139.38802262 452.89260713 148.078125 443.16796875 C151.79018814 439.8801414 155.4908393 439.51392134 160.30078125 439.71875 C171.49742911 441.52974086 180.43798692 450.05166368 188.9765625 456.92578125 C194.48092898 461.8844645 194.48092898 461.8844645 201.078125 464.16796875 C201.26229653 458.33367777 200.71655372 453.26383907 199.328125 447.60546875 C199.01246582 446.30367676 199.01246582 446.30367676 198.69042969 444.97558594 C191.48113822 416.41533326 182.32094612 387.76329801 170.765625 360.66796875 C170.45206055 359.91281982 170.13849609 359.1576709 169.81542969 358.37963867 C168.29857646 354.60666623 168.29857646 354.60666623 165.1315918 352.36865234 C161.76156195 352.03930214 159.71812267 354.30234349 157.203125 356.29296875 C141.63269192 367.96503914 124.17024006 377.03279328 106.83496094 385.77441406 C105.06561091 386.66880389 103.30023734 387.57112946 101.54003906 388.48339844 C88.73831553 395.11095208 75.60348359 399.98385844 61.91625977 404.41430664 C61.2441748 404.63495285 60.57208984 404.85559906 59.87963867 405.08293152 C58.04350026 405.68411313 56.20362583 406.27384985 54.36352539 406.86279297 C50.88711626 408.24384991 48.14502633 410.04425598 45.078125 412.16796875 C42.5890643 413.16413004 40.18551194 414.05032141 37.640625 414.85546875 C37.01091797 415.06751953 36.38121094 415.27957031 35.73242188 415.49804688 C12.2979473 423.1329168 -16.1226554 416.75541883 -37.55859375 405.96069336 C-44.56284285 402.30653504 -50.92485199 398.34601505 -56.921875 393.16796875 C-58.4378125 392.05421875 -58.4378125 392.05421875 -59.984375 390.91796875 C-74.00294918 378.95752319 -78.74455087 360.39854649 -81.3828125 343.00390625 C-81.87949123 340.39094421 -82.61515202 338.14966081 -83.546875 335.66796875 C-88.64003877 319.5569405 -84.6992775 300.44464706 -77.17333984 285.86206055 C-66.16362707 265.59158666 -45.52323904 251.46254702 -23.921875 244.16796875 C7.71123508 235.11549955 44.83791376 237.14915456 74.078125 253.16796875 C94.62703769 265.29528307 105.99844611 283.54043148 112.078125 306.16796875 C116.93470387 325.87447146 114.52541082 347.14618932 108.078125 366.16796875 C113.25999878 364.18736672 117.90221281 361.55082803 122.703125 358.79296875 C123.62448242 358.26638672 124.54583984 357.73980469 125.49511719 357.19726562 C132.6642299 353.06491553 139.67999679 348.72102347 146.59619141 344.17822266 C159.51724045 335.80191801 159.51724045 335.80191801 166.078125 336.04296875 C171.98096161 337.32873514 176.83363446 339.85286165 180.28808594 344.95507812 C185.0825119 352.97777649 188.70481308 361.47213353 192.078125 370.16796875 C192.39193115 370.96702637 192.7057373 371.76608398 193.02905273 372.58935547 C199.92955372 390.21821621 206.0954043 407.9063689 210.890625 426.23046875 C211.18074463 427.33600098 211.47086426 428.4415332 211.76977539 429.58056641 C214.28762484 439.45742672 216.35980179 449.25743644 216.390625 459.48046875 C216.40738281 460.77597656 216.42414063 462.07148437 216.44140625 463.40625 C216.02265439 467.74235795 215.0890405 470.32764557 213.078125 474.16796875 C209.15296548 477.0651103 205.32482033 477.83542576 200.53515625 477.62890625 C190.95748441 475.8321411 181.93930889 467.94006472 173.8984375 462.65625 C173.23618164 462.22521973 172.57392578 461.79418945 171.89160156 461.35009766 C170.36258253 460.35339462 168.84061626 459.34588433 167.3203125 458.3359375 C164.9082253 456.85997871 164.9082253 456.85997871 161.078125 457.16796875 C161.09383545 458.3075 161.1095459 459.44703125 161.12573242 460.62109375 C161.18032533 464.87769409 161.21458123 469.1342639 161.24291992 473.39111328 C161.25793996 475.22808041 161.27836209 477.06501209 161.30444336 478.90185547 C161.34112702 481.55314929 161.35791938 484.20396607 161.37109375 486.85546875 C161.38657761 487.66725586 161.40206146 488.47904297 161.41801453 489.31542969 C161.41964228 494.92010379 160.40042521 499.04900359 158.078125 504.16796875 C156.140625 506.0078125 156.140625 506.0078125 154.078125 507.10546875 C153.3975 507.48574219 152.716875 507.86601563 152.015625 508.2578125 C147.84429268 510.2173295 144.66278157 510.61164519 140.078125 510.16796875 C127.48481725 505.56845987 116.9756061 493.2999246 107.83935547 483.94384766 C106.92887451 483.01258057 106.92887451 483.01258057 106 482.0625 C105.45956055 481.50409424 104.91912109 480.94568848 104.36230469 480.37036133 C103.24966719 479.05405552 103.24966719 479.05405552 102.078125 479.16796875 C102.05830566 479.91892822 102.03848633 480.6698877 102.01806641 481.44360352 C101.92233099 484.87288832 101.81284867 488.30160417 101.703125 491.73046875 C101.6721875 492.91189453 101.64125 494.09332031 101.609375 495.31054688 C101.10857891 510.20923065 101.10857891 510.20923065 97.30859375 513.875 C96.63441406 514.23980469 95.96023438 514.60460938 95.265625 514.98046875 C94.54761719 515.37363281 93.82960938 515.76679687 93.08984375 516.171875 C92.42597656 516.50058594 91.76210937 516.82929687 91.078125 517.16796875 C90.253125 517.58046875 89.428125 517.99296875 88.578125 518.41796875 C85.09701081 519.46230301 81.69354115 519.80029931 78.078125 520.16796875 C80.51106902 528.83533182 84.73595377 536.33968381 89.078125 544.16796875 C91.72668178 543.16566079 92.89148897 542.473829 94.38671875 540.0234375 C94.75925781 539.14300781 95.13179687 538.26257812 95.515625 537.35546875 C95.94101563 536.37578125 96.36640625 535.39609375 96.8046875 534.38671875 C97.6696853 532.20034395 98.47536574 529.98975811 99.2265625 527.76171875 C101.38096567 521.45755913 103.13153015 516.58748119 108.99609375 513.0078125 C114.02251107 510.9802708 117.47182698 512.51942592 122.203125 514.4296875 C130.31496517 518.16873883 137.06131676 522.93038795 143.921875 528.6171875 C148.98289205 533.17828167 148.98289205 533.17828167 155.078125 535.16796875 C159.15276016 525.78601787 162.4925347 516.26893576 165.59570312 506.52734375 C170.45686933 491.9352413 170.45686933 491.9352413 177.09545898 487.95996094 C180.20500631 486.71782677 181.86570742 487.19818231 185.078125 488.16796875 C195.19227998 492.57766526 199.48030456 502.0050543 203.546875 511.65234375 C204.38825289 513.83787412 205.20804068 516.03186331 206.00390625 518.234375 C206.90761658 520.70232575 207.89858855 523.04255655 209.015625 525.41796875 C220.65175576 551.46757835 220.65175576 551.46757835 215.578125 565.04296875 C211.6270576 572.4715167 205.37079755 576.22750246 198.0078125 579.890625 C197.31281647 580.23646637 196.61782043 580.58230774 195.90176392 580.93862915 C187.28877517 585.1418724 178.39204001 588.603831 169.453125 592.04296875 C168.56304749 592.38769226 167.67296997 592.73241577 166.75592041 593.08758545 C107.93340288 615.84366524 107.93340288 615.84366524 78.078125 618.16796875 C77.82232666 618.81121094 77.56652832 619.45445312 77.30297852 620.1171875 C67.43958196 644.76139685 55.60840327 665.26583563 38.078125 685.16796875 C37.41997803 685.92086182 37.41997803 685.92086182 36.74853516 686.68896484 C31.52739158 692.64344797 26.21159213 698.16167853 20.078125 703.16796875 C19.57216797 703.59158691 19.06621094 704.01520508 18.54492188 704.45166016 C8.8915729 712.52844324 -1.15145647 719.65675016 -11.921875 726.16796875 C-12.61587402 726.58788086 -13.30987305 727.00779297 -14.02490234 727.44042969 C-54.94313126 751.85983394 -102.47896977 765.26529738 -150.01953125 765.50390625 C-150.86520786 765.50832607 -151.71088448 765.5127459 -152.58218765 765.51729965 C-160.50688776 765.55255397 -168.43146931 765.55082353 -176.35620117 765.52832031 C-180.74130997 765.51730376 -185.12583449 765.53077464 -189.51086235 765.55821609 C-191.15357552 765.56357913 -192.79635007 765.55979612 -194.43901253 765.54581833 C-206.44797013 765.44457347 -219.02463068 766.28732872 -228.9609375 773.91796875 C-232.61990117 777.57460039 -235.46795376 781.8584906 -238.296875 786.16796875 C-238.85560303 787.00448975 -239.41433105 787.84101074 -239.98999023 788.70288086 C-241.11497877 790.39222008 -242.23510685 792.0848072 -243.35009766 793.78076172 C-244.7594314 795.92125028 -246.18645769 798.0483108 -247.62109375 800.171875 C-248.41001371 801.35730204 -249.1978556 802.5434476 -249.984375 803.73046875 C-250.65597656 804.74238281 -251.32757812 805.75429687 -252.01953125 806.796875 C-256.86307141 815.37998621 -258.93835707 824.00722842 -260.609375 833.66796875 C-260.82142578 834.82683594 -261.03347656 835.98570312 -261.25195312 837.1796875 C-265.39458032 860.31044503 -267.26587503 887.51558508 -259.921875 910.16796875 C-259.70756836 910.8429541 -259.49326172 911.51793945 -259.27246094 912.21337891 C-253.2441543 930.51328208 -241.30117483 943.87442216 -224.21875 952.5390625 C-158.69906234 981.91311241 -64.15823685 960.11502122 0.265625 936.10546875 C48.13479304 917.7472068 94.94569888 893.19843285 135.078125 861.16796875 C135.69220215 860.68392578 136.3062793 860.19988281 136.93896484 859.70117188 C150.79329888 848.77206281 163.47617425 836.83491492 175.99993896 824.42037964 C177.40656935 823.02659911 178.816751 821.63640542 180.22705078 820.24633789 C186.28184777 814.19869267 191.7549925 807.86316897 197.078125 801.16796875 C198.1516609 799.86317403 199.22812992 798.56078246 200.30859375 797.26171875 C259.15934617 725.93753714 295.69741173 639.5231067 321.65869141 522.54345703 C322.09773273 520.05691913 322.57550825 517.57989911 323.05859375 515.1015625 C327.99399536 489.18952105 330.69372229 462.53711105 331.078125 436.16796875 C331.09858887 435.14703125 331.11905273 434.12609375 331.14013672 433.07421875 C331.64569804 405.53157241 331.18859532 377.09918878 326.54199219 349.89306641 C326.01988877 346.82584622 325.53895042 343.75310106 325.0546875 340.6796875 C314.88799898 278.21269883 290.60831613 218.80444685 254.078125 167.16796875 C253.56491699 166.43545898 253.05170898 165.70294922 252.52294922 164.94824219 C216.18615844 113.14592957 168.82714993 73.95020079 105.3984375 62.19921875 C30.49280594 49.4593633 -52.41839731 61.76329624 -120.921875 94.16796875 Z M348.078125 169.16796875 C349.84625514 174.79383738 353.24573344 177.94637438 358.078125 181.16796875 C356.63818857 177.95524626 354.84794128 175.54730235 352.515625 172.91796875 C351.89558594 172.2115625 351.27554688 171.50515625 350.63671875 170.77734375 C350.12238281 170.24625 349.60804688 169.71515625 349.078125 169.16796875 C348.748125 169.16796875 348.418125 169.16796875 348.078125 169.16796875 Z M360.078125 225.16796875 C359.418125 226.48796875 358.758125 227.80796875 358.078125 229.16796875 C358.738125 229.82796875 359.398125 230.48796875 360.078125 231.16796875 C360.408125 229.18796875 360.738125 227.20796875 361.078125 225.16796875 C360.748125 225.16796875 360.418125 225.16796875 360.078125 225.16796875 Z M-34.921875 279.16796875 C-36.10136719 280.18503906 -36.10136719 280.18503906 -37.3046875 281.22265625 C-49.05283283 292.09466871 -56.68661973 307.76241159 -58.16015625 323.75390625 C-58.54621844 338.26171714 -54.19330388 352.44796173 -44.546875 363.35546875 C-43.01291311 364.96700457 -41.47185953 366.57183757 -39.921875 368.16796875 C-39.40238281 368.7609375 -38.88289063 369.35390625 -38.34765625 369.96484375 C-23.23496652 386.62450172 -2.27772121 392.86369221 19.12158203 396.64404297 C21.01887397 396.98026002 22.91349971 397.33211098 24.80419922 397.70361328 C33.48746034 399.38313231 40.06768076 400.59736614 47.890625 395.66796875 C48.90511719 394.91515625 49.91960938 394.16234375 50.96484375 393.38671875 C54.27738681 391.02596033 57.42119728 389.64304348 61.203125 388.16796875 C72.90277274 383.30611513 81.47869694 376.76301082 87.078125 365.16796875 C88.91573452 359.95210194 90.05435707 354.59336039 91.078125 349.16796875 C91.26761719 348.20503906 91.45710938 347.24210937 91.65234375 346.25 C94.2887546 327.16625539 89.79214425 311.056263 79.078125 295.16796875 C76.26283763 291.63068857 73.25256697 288.3828863 70.078125 285.16796875 C69.50449219 284.53375 68.93085938 283.89953125 68.33984375 283.24609375 C58.40791649 272.53193833 44.4329912 265.96755839 30.078125 264.16796875 C29.25570312 264.05710937 28.43328125 263.94625 27.5859375 263.83203125 C6.02310604 261.28307034 -18.19111743 264.30227923 -34.921875 279.16796875 Z " fill="#000101" transform="translate(3181.921875,1160.83203125)"/>
<path d="M0 0 C1.16374146 0.26147324 2.32748291 0.52294647 3.52648926 0.79234314 C14.90372727 3.38890701 26.16525642 6.37352689 37.41970825 9.45343018 C43.44667875 11.10242376 49.47892841 12.73182125 55.51171875 14.359375 C57.35255287 14.85624817 57.35255287 14.85624817 59.23057556 15.36315918 C67.73739817 17.65023638 76.26105791 19.86261081 84.80078125 22.0234375 C85.95641571 22.31587845 87.11205017 22.6083194 88.30270386 22.90962219 C93.7827493 24.29329323 99.26510263 25.66719246 104.75 27.03149414 C140.50583854 35.97599633 140.50583854 35.97599633 148.80859375 47.61328125 C150.91579932 51.30752577 152.51361421 55.17005062 154.171875 59.08203125 C165.48576395 85.56559114 189.58041982 100.68321227 212.73828125 115.96484375 C213.83712646 116.69002197 214.93597168 117.4152002 216.06811523 118.16235352 C218.2720984 119.61527232 220.47735206 121.06626558 222.68383789 122.51538086 C223.73434326 123.20897705 224.78484863 123.90257324 225.8671875 124.6171875 C226.79805176 125.22957275 227.72891602 125.84195801 228.68798828 126.47290039 C236.4728897 131.89074213 241.82901332 137.62119558 246.640625 145.7578125 C248.84255822 149.05570793 251.44217699 151.29825031 254.5 153.78125 C259.77699253 158.18243915 263.03512863 162.92367403 263.6953125 169.86328125 C263.7908759 179.57252228 263.6722147 190.06516302 257.22265625 197.94140625 C255.19612249 200.54148731 254.94924174 201.22923894 255.296875 204.39453125 C255.54636056 209.39255869 254.37950374 213.62239935 253.09375 218.42578125 C252.0893904 222.40048093 251.5868315 226.2447069 251.359375 230.33203125 C251.30652344 231.20988281 251.25367187 232.08773438 251.19921875 232.9921875 C250.57474767 253.16531858 258.32947854 271.40688051 267.0065918 289.18212891 C269.74699725 294.85813711 272.12367859 300.6036077 274.296875 306.51953125 C274.57917969 307.28523438 274.86148438 308.0509375 275.15234375 308.83984375 C283.06389011 330.90685297 278.94923075 351.92644904 273.83847046 374.16769409 C269.02766696 395.15276496 268.41619553 413.74837362 271.92559814 434.92755127 C279.8946596 483.69390162 279.8946596 483.69390162 271.359375 505.33203125 C271.07980957 506.04810547 270.80024414 506.76417969 270.51220703 507.50195312 C266.200267 518.23087478 260.79022866 528.33117024 255.234375 538.45703125 C249.72130166 548.51144654 244.95606325 558.44112476 241.359375 569.33203125 C241.03839844 570.29625 240.71742188 571.26046875 240.38671875 572.25390625 C236.44262999 585.96902898 235.73745734 600.91997452 234.46557617 615.06889343 C233.21040351 629.01853241 231.74126587 642.71371934 228.359375 656.33203125 C228.18180664 657.06518555 228.00423828 657.79833984 227.82128906 658.55371094 C221.46457867 684.17318008 205.79064715 704.93255313 189.74389648 725.37939453 C185.66600755 730.59623263 181.71875417 735.88927256 177.859375 741.26953125 C177.33126221 742.00550537 176.80314941 742.74147949 176.2590332 743.49975586 C175.1805844 745.00389523 174.10238011 746.50820993 173.02441406 748.01269531 C164.54332864 759.82652397 155.95719615 771.39899766 146.359375 782.33203125 C145.72644531 783.06421875 145.09351562 783.79640625 144.44140625 784.55078125 C142.76026 786.48967761 141.06333028 788.4131627 139.359375 790.33203125 C138.66328125 791.1209375 137.9671875 791.90984375 137.25 792.72265625 C132.79142068 797.73471439 128.19397579 802.53670192 123.4140625 807.2421875 C121.60259674 809.08464792 119.93872072 810.96462928 118.296875 812.95703125 C115.61638367 816.16036566 112.64694866 818.83663577 109.46484375 821.53515625 C107.37981895 823.31458373 105.37455605 825.16172624 103.359375 827.01953125 C84.49457363 843.67060593 63.4123467 855.08099554 40.078125 864.25537109 C37.56595505 865.25022288 35.07012506 866.27615176 32.578125 867.3203125 C31.21359849 867.88685564 29.84901981 868.45327312 28.484375 869.01953125 C26.75574219 869.73689453 26.75574219 869.73689453 24.9921875 870.46875 C22.359375 871.33203125 22.359375 871.33203125 20.359375 870.33203125 C21.20757813 869.73777344 22.05578125 869.14351562 22.9296875 868.53125 C39.18946957 857.07097163 54.4848589 844.533911 69.359375 831.33203125 C70.12507813 830.65914062 70.89078125 829.98625 71.6796875 829.29296875 C77.40149747 824.21688028 82.79903165 818.92079589 88.109375 813.421875 C90.359375 811.33203125 90.359375 811.33203125 92.359375 811.33203125 C92.68228516 810.51412109 92.68228516 810.51412109 93.01171875 809.6796875 C94.8207014 806.52838729 97.31635544 804.25332016 99.921875 801.76953125 C104.6454369 797.15729435 108.92974656 792.38808644 113.0390625 787.2109375 C115.13409128 784.61154993 117.29395185 782.10021738 119.49658203 779.59326172 C127.67302581 770.25757156 135.02266606 760.33280227 142.359375 750.33203125 C142.83648926 749.68733887 143.31360352 749.04264648 143.80517578 748.37841797 C178.26531686 701.77554707 201.62987619 646.90202197 220.359375 592.33203125 C220.77058594 591.1394873 221.18179688 589.94694336 221.60546875 588.71826172 C236.17066007 546.0719714 246.96437702 502.10896863 252.359375 457.33203125 C252.48857834 456.35129135 252.48857834 456.35129135 252.62039185 455.35073853 C254.84631758 438.12421198 254.70064043 420.83422263 254.67504883 403.49780273 C254.67043503 400.11159926 254.6772863 396.72575648 254.69555664 393.33959961 C254.81062564 371.79587983 254.14811509 350.72145886 251.359375 329.33203125 C251.19881119 328.09397232 251.19881119 328.09397232 251.03500366 326.8309021 C250.46718416 322.58377725 249.79418028 318.36345525 249.046875 314.14453125 C248.83450195 312.91718262 248.62212891 311.68983398 248.40332031 310.42529297 C241.05503859 268.9218992 229.38721545 227.91746229 212.359375 189.33203125 C212.02615234 188.56777832 211.69292969 187.80352539 211.34960938 187.01611328 C196.41738129 153.00123968 174.68413951 121.27534898 149.6796875 93.875 C148.05769848 92.09736557 146.44937045 90.30721304 144.8515625 88.5078125 C140.61998428 83.76508034 136.38992633 79.26969062 131.51953125 75.18359375 C128.90406529 72.94176578 126.42653335 70.57197397 123.921875 68.20703125 C100.93175806 46.88770769 73.3239332 30.52448787 43.359375 21.33203125 C42.54887695 21.07228516 41.73837891 20.81253906 40.90332031 20.54492188 C20.05716534 13.87876099 -1.82981434 10.03956049 -23.640625 8.33203125 C-25.24707886 8.20393066 -25.24707886 8.20393066 -26.88598633 8.07324219 C-36.49898802 7.36534975 -46.06666978 7.09075806 -55.703125 7.08203125 C-56.88358398 7.08052063 -56.88358398 7.08052063 -58.08789062 7.07897949 C-94.71625438 7.11008871 -131.33266985 11.14491186 -166.94116211 19.73120117 C-169.82785306 20.37370334 -172.72011842 20.86982561 -175.640625 21.33203125 C-157.41186881 6.75495084 -129.26854647 -2.28117565 -106.640625 -6.66796875 C-105.67898437 -6.86132812 -104.71734375 -7.0546875 -103.7265625 -7.25390625 C-71.36943121 -11.59549602 -31.558006 -7.14893079 0 0 Z " fill="#00D9D7" transform="translate(3285.640625,1188.66796875)"/>
<path d="M0 0 C6.93759035 -0.07649331 13.87507065 -0.12878497 20.81298828 -0.16479492 C23.16980046 -0.17981778 25.52658498 -0.20024196 27.88330078 -0.22631836 C31.28424942 -0.26298821 34.68482621 -0.27979196 38.0859375 -0.29296875 C39.12801361 -0.30845261 40.17008972 -0.32393646 41.2437439 -0.33988953 C48.07958835 -0.34143804 56.32907301 -0.24396844 61.72348022 4.52302551 C63.125 6.1875 63.125 6.1875 65 9 C64.74420166 9.57105469 64.48840332 10.14210938 64.22485352 10.73046875 C62.99674633 13.4837926 61.77799319 16.24108323 60.5625 19 C60.11310059 20.01989014 59.66370117 21.03978027 59.20068359 22.09057617 C55.43762318 30.74719901 52.11241175 39.52865103 49.04516602 48.45507812 C48.70283936 49.41478516 48.3605127 50.37449219 48.0078125 51.36328125 C47.71535645 52.21188721 47.42290039 53.06049316 47.12158203 53.93481445 C45.7734527 56.41714489 44.60014714 57.01487001 42 58 C27.23897244 48.78540645 16.34437592 33.92959762 7.5625 19.1875 C7.14911377 18.49430664 6.73572754 17.80111328 6.30981445 17.08691406 C0 6.16573015 0 6.16573015 0 0 Z " fill="#00DAD8" transform="translate(2865,1658)"/>
<path d="M0 0 C17.03654288 -0.7189334 34.66789051 10.25467172 47.23828125 20.89453125 C49.90968587 24.08718556 49.67551548 26.62799943 49.52734375 30.65234375 C49 33 49 33 46.1875 35.5625 C43 37 43 37 40 38 C38.31237149 39.6454378 36.6459651 41.31288577 35 43 C30.87403151 45.75064566 27.84407991 45.81820782 23 45 C17.76750751 43.01574846 12.50661114 40.51851344 9.3125 35.75 C7.69119856 31.11771018 7.09663904 26.85861705 8 22 C8.95757776 20.63588028 9.95309471 19.29682963 11 18 C11 17.34 11 16.68 11 16 C9.56555549 14.7026989 9.56555549 14.7026989 7.75 13.375 C3.86554135 10.17603405 1.70976653 6.71513255 0 2 C0 1.34 0 0.68 0 0 Z " fill="#000303" transform="translate(3155,1597)"/>
<path d="M0 0 C4.62 0 9.24 0 14 0 C10.25631258 1.87184371 9.1599209 2.23999767 5.25 2.125 C4.45078125 2.10695313 3.6515625 2.08890625 2.828125 2.0703125 C2.22484375 2.04710937 1.6215625 2.02390625 1 2 C0.67 1.34 0.34 0.68 0 0 Z " fill="#000000" transform="translate(3390,1189)"/>
</svg>
